<?xml version="1.0" encoding="UTF-8" standalone="no"?>
<!-- Created with Inkscape (http://www.inkscape.org/) -->

<svg
   xmlns:dc="http://purl.org/dc/elements/1.1/"
   xmlns:cc="http://creativecommons.org/ns#"
   xmlns:rdf="http://www.w3.org/1999/02/22-rdf-syntax-ns#"
   xmlns:svg="http://www.w3.org/2000/svg"
   xmlns="http://www.w3.org/2000/svg"
   xmlns:sodipodi="http://sodipodi.sourceforge.net/DTD/sodipodi-0.dtd"
   xmlns:inkscape="http://www.inkscape.org/namespaces/inkscape"
   width="210mm"
   height="297mm"
   viewBox="0 0 210 297"
   version="1.1"
   id="svg8"
   inkscape:version="0.92.2 5c3e80d, 2017-08-06"
   sodipodi:docname="two_phase.svg">
  <sodipodi:namedview
     id="base"
     pagecolor="#ffffff"
     bordercolor="#666666"
     borderopacity="1.0"
     inkscape:pageopacity="0.0"
     inkscape:pageshadow="2"
     inkscape:zoom="0.7"
     inkscape:cx="744.28571"
     inkscape:cy="102.85714"
     inkscape:document-units="mm"
     inkscape:current-layer="layer1"
     showgrid="false"
     inkscape:window-width="1440"
     inkscape:window-height="775"
     inkscape:window-x="0"
     inkscape:window-y="1"
     inkscape:window-maximized="1" />
  <defs
     id="defs2">
    <clipPath
       id="clipPath45"
       clipPathUnits="userSpaceOnUse">
      <path
         style="clip-rule:evenodd"
         inkscape:connector-curvature="0"
         id="path43"
         d="M 0,0 H 1262.5 V 599.91132 H 0 Z" />
    </clipPath>
    <clipPath
       id="clipPath57"
       clipPathUnits="userSpaceOnUse">
      <path
         style="clip-rule:evenodd"
         inkscape:connector-curvature="0"
         id="path55"
         d="M 0,0 H 1262.5 V 596.9267 H 0 Z" />
    </clipPath>
    <clipPath
       clipPathUnits="userSpaceOnUse"
       id="clipPath187">
      <path
         d="M 0,0 H 1262.5 V 599.91132 H 0 Z"
         id="path185"
         inkscape:connector-curvature="0"
         style="clip-rule:evenodd" />
    </clipPath>
    <clipPath
       clipPathUnits="userSpaceOnUse"
       id="clipPath199">
      <path
         d="M 0,0 H 1262.5 V 596.9267 H 0 Z"
         id="path197"
         inkscape:connector-curvature="0"
         style="clip-rule:evenodd" />
    </clipPath>
    <clipPath
       clipPathUnits="userSpaceOnUse"
       id="clipPath278">
      <path
         d="M 0,0 H 1262.5 V 599.91132 H 0 Z"
         id="path276"
         inkscape:connector-curvature="0"
         style="clip-rule:evenodd" />
    </clipPath>
    <clipPath
       clipPathUnits="userSpaceOnUse"
       id="clipPath290">
      <path
         d="M 0,0 H 1262.5 V 596.9267 H 0 Z"
         id="path288"
         inkscape:connector-curvature="0"
         style="clip-rule:evenodd" />
    </clipPath>
    <clipPath
       id="clipPath451"
       clipPathUnits="userSpaceOnUse">
      <path
         style="clip-rule:evenodd"
         inkscape:connector-curvature="0"
         id="path449"
         d="M 0,0 H 1262.5 V 599.91132 H 0 Z" />
    </clipPath>
    <clipPath
       id="clipPath463"
       clipPathUnits="userSpaceOnUse">
      <path
         style="clip-rule:evenodd"
         inkscape:connector-curvature="0"
         id="path461"
         d="M 0,0 H 1262.5 V 596.9267 H 0 Z" />
    </clipPath>
    <clipPath
       id="clipPath787"
       clipPathUnits="userSpaceOnUse">
      <path
         style="clip-rule:evenodd"
         inkscape:connector-curvature="0"
         id="path785"
         d="M 0,0 H 1262.5 V 599.91132 H 0 Z" />
    </clipPath>
    <clipPath
       id="clipPath799"
       clipPathUnits="userSpaceOnUse">
      <path
         style="clip-rule:evenodd"
         inkscape:connector-curvature="0"
         id="path797"
         d="M 0,0 H 1262.5 V 596.9267 H 0 Z" />
    </clipPath>
    <clipPath
       id="clipPath877"
       clipPathUnits="userSpaceOnUse">
      <path
         style="clip-rule:evenodd"
         inkscape:connector-curvature="0"
         id="path875"
         d="M 0,0 H 637.5 V 598.59155 H 0 Z" />
    </clipPath>
    <clipPath
       id="clipPath889"
       clipPathUnits="userSpaceOnUse">
      <path
         style="clip-rule:evenodd"
         inkscape:connector-curvature="0"
         id="path887"
         d="M 0,0 H 637.5 V 598.59155 H 0 Z" />
    </clipPath>
    <clipPath
       id="clipPath955"
       clipPathUnits="userSpaceOnUse">
      <path
         style="clip-rule:evenodd"
         inkscape:connector-curvature="0"
         id="path953"
         d="M 0,0 H 637.5 V 598.59155 H 0 Z" />
    </clipPath>
    <clipPath
       id="clipPath967"
       clipPathUnits="userSpaceOnUse">
      <path
         style="clip-rule:evenodd"
         inkscape:connector-curvature="0"
         id="path965"
         d="M 0,0 H 637.5 V 598.59155 H 0 Z" />
    </clipPath>
    <clipPath
       id="clipPath1033"
       clipPathUnits="userSpaceOnUse">
      <path
         style="clip-rule:evenodd"
         inkscape:connector-curvature="0"
         id="path1031"
         d="M 0,0 H 637.5 V 598.59155 H 0 Z" />
    </clipPath>
    <clipPath
       id="clipPath1045"
       clipPathUnits="userSpaceOnUse">
      <path
         style="clip-rule:evenodd"
         inkscape:connector-curvature="0"
         id="path1043"
         d="M 0,0 H 637.5 V 598.59155 H 0 Z" />
    </clipPath>
    <clipPath
       id="clipPath1111"
       clipPathUnits="userSpaceOnUse">
      <path
         style="clip-rule:evenodd"
         inkscape:connector-curvature="0"
         id="path1109"
         d="M 0,0 H 637.5 V 598.59155 H 0 Z" />
    </clipPath>
    <clipPath
       id="clipPath1123"
       clipPathUnits="userSpaceOnUse">
      <path
         style="clip-rule:evenodd"
         inkscape:connector-curvature="0"
         id="path1121"
         d="M 0,0 H 637.5 V 598.59155 H 0 Z" />
    </clipPath>
    <clipPath
       id="clipPath1219"
       clipPathUnits="userSpaceOnUse">
      <path
         style="clip-rule:evenodd"
         inkscape:connector-curvature="0"
         id="path1217"
         d="M 0,0 H 637.5 V 598.59155 H 0 Z" />
    </clipPath>
    <clipPath
       id="clipPath1231"
       clipPathUnits="userSpaceOnUse">
      <path
         style="clip-rule:evenodd"
         inkscape:connector-curvature="0"
         id="path1229"
         d="M 0,0 H 637.5 V 598.59155 H 0 Z" />
    </clipPath>
    <clipPath
       id="clipPath1309"
       clipPathUnits="userSpaceOnUse">
      <path
         style="clip-rule:evenodd"
         inkscape:connector-curvature="0"
         id="path1307"
         d="M 0,0 H 637.5 V 293.30988 H 0 Z" />
    </clipPath>
    <clipPath
       id="clipPath1321"
       clipPathUnits="userSpaceOnUse">
      <path
         style="clip-rule:evenodd"
         inkscape:connector-curvature="0"
         id="path1319"
         d="M 0,0 H 637.5 V 293.30988 H 0 Z" />
    </clipPath>
    <clipPath
       id="clipPath1468"
       clipPathUnits="userSpaceOnUse">
      <path
         style="clip-rule:evenodd"
         inkscape:connector-curvature="0"
         id="path1466"
         d="M 0,0 H 637.5 V 257.39438 H 0 Z" />
    </clipPath>
    <clipPath
       id="clipPath1480"
       clipPathUnits="userSpaceOnUse">
      <path
         style="clip-rule:evenodd"
         inkscape:connector-curvature="0"
         id="path1478"
         d="M 0,0 H 637.5 V 257.39438 H 0 Z" />
    </clipPath>
    <clipPath
       clipPathUnits="userSpaceOnUse"
       id="clipPath3512">
      <path
         d="M 0,0 H 637.5 V 257.39438 H 0 Z"
         id="path3510"
         inkscape:connector-curvature="0"
         style="clip-rule:evenodd" />
    </clipPath>
    <clipPath
       clipPathUnits="userSpaceOnUse"
       id="clipPath3524">
      <path
         d="M 0,0 H 637.5 V 257.39438 H 0 Z"
         id="path3522"
         inkscape:connector-curvature="0"
         style="clip-rule:evenodd" />
    </clipPath>
    <clipPath
       id="clipPath3971"
       clipPathUnits="userSpaceOnUse">
      <path
         style="clip-rule:evenodd"
         inkscape:connector-curvature="0"
         id="path3969"
         d="M 0,0 H 637.5 V 257.39438 H 0 Z" />
    </clipPath>
    <clipPath
       id="clipPath3983"
       clipPathUnits="userSpaceOnUse">
      <path
         style="clip-rule:evenodd"
         inkscape:connector-curvature="0"
         id="path3981"
         d="M 0,0 H 637.5 V 257.39438 H 0 Z" />
    </clipPath>
    <clipPath
       id="clipPath4130"
       clipPathUnits="userSpaceOnUse">
      <path
         style="clip-rule:evenodd"
         inkscape:connector-curvature="0"
         id="path4128"
         d="M 0,0 H 637.5 V 257.39438 H 0 Z" />
    </clipPath>
    <clipPath
       id="clipPath4142"
       clipPathUnits="userSpaceOnUse">
      <path
         style="clip-rule:evenodd"
         inkscape:connector-curvature="0"
         id="path4140"
         d="M 0,0 H 637.5 V 257.39438 H 0 Z" />
    </clipPath>
    <clipPath
       id="clipPath4289"
       clipPathUnits="userSpaceOnUse">
      <path
         style="clip-rule:evenodd"
         inkscape:connector-curvature="0"
         id="path4287"
         d="M 0,0 H 637.5 V 257.39438 H 0 Z" />
    </clipPath>
    <clipPath
       id="clipPath4301"
       clipPathUnits="userSpaceOnUse">
      <path
         style="clip-rule:evenodd"
         inkscape:connector-curvature="0"
         id="path4299"
         d="M 0,0 H 637.5 V 257.39438 H 0 Z" />
    </clipPath>
    <clipPath
       id="clipPath4448"
       clipPathUnits="userSpaceOnUse">
      <path
         style="clip-rule:evenodd"
         inkscape:connector-curvature="0"
         id="path4446"
         d="M 0,0 H 637.5 V 257.39438 H 0 Z" />
    </clipPath>
    <clipPath
       id="clipPath4460"
       clipPathUnits="userSpaceOnUse">
      <path
         style="clip-rule:evenodd"
         inkscape:connector-curvature="0"
         id="path4458"
         d="M 0,0 H 637.5 V 257.39438 H 0 Z" />
    </clipPath>
    <clipPath
       id="clipPath4607"
       clipPathUnits="userSpaceOnUse">
      <path
         style="clip-rule:evenodd"
         inkscape:connector-curvature="0"
         id="path4605"
         d="M 0,0 H 637.5 V 257.39438 H 0 Z" />
    </clipPath>
    <clipPath
       id="clipPath4619"
       clipPathUnits="userSpaceOnUse">
      <path
         style="clip-rule:evenodd"
         inkscape:connector-curvature="0"
         id="path4617"
         d="M 0,0 H 637.5 V 257.39438 H 0 Z" />
    </clipPath>
    <clipPath
       id="clipPath220"
       clipPathUnits="userSpaceOnUse">
      <path
         style="clip-rule:evenodd"
         inkscape:connector-curvature="0"
         id="path218"
         d="M 0,0 H 637.5 V 257.39438 H 0 Z" />
    </clipPath>
    <clipPath
       id="clipPath232"
       clipPathUnits="userSpaceOnUse">
      <path
         style="clip-rule:evenodd"
         inkscape:connector-curvature="0"
         id="path230"
         d="M 0,0 H 637.5 V 257.39438 H 0 Z" />
    </clipPath>
    <clipPath
       id="clipPath637"
       clipPathUnits="userSpaceOnUse">
      <path
         style="clip-rule:evenodd"
         inkscape:connector-curvature="0"
         id="path635"
         d="M 0,0 H 637.5 V 293.30988 H 0 Z" />
    </clipPath>
    <clipPath
       id="clipPath649"
       clipPathUnits="userSpaceOnUse">
      <path
         style="clip-rule:evenodd"
         inkscape:connector-curvature="0"
         id="path647"
         d="M 0,0 H 637.5 V 293.30988 H 0 Z" />
    </clipPath>
    <clipPath
       id="clipPath808"
       clipPathUnits="userSpaceOnUse">
      <path
         style="clip-rule:evenodd"
         inkscape:connector-curvature="0"
         id="path806"
         d="M 0,0 H 637.5 V 281.33804 H 0 Z" />
    </clipPath>
    <clipPath
       id="clipPath820"
       clipPathUnits="userSpaceOnUse">
      <path
         style="clip-rule:evenodd"
         inkscape:connector-curvature="0"
         id="path818"
         d="M 0,0 H 637.5 V 281.33804 H 0 Z" />
    </clipPath>
    <clipPath
       clipPathUnits="userSpaceOnUse"
       id="clipPath1352">
      <path
         d="M 0,0 H 637.5 V 281.33804 H 0 Z"
         id="path1350"
         inkscape:connector-curvature="0"
         style="clip-rule:evenodd" />
    </clipPath>
    <clipPath
       clipPathUnits="userSpaceOnUse"
       id="clipPath1364">
      <path
         d="M 0,0 H 637.5 V 281.33804 H 0 Z"
         id="path1362"
         inkscape:connector-curvature="0"
         style="clip-rule:evenodd" />
    </clipPath>
    <clipPath
       clipPathUnits="userSpaceOnUse"
       id="clipPath1523">
      <path
         d="M 0,0 H 637.5 V 293.30988 H 0 Z"
         id="path1521"
         inkscape:connector-curvature="0"
         style="clip-rule:evenodd" />
    </clipPath>
    <clipPath
       clipPathUnits="userSpaceOnUse"
       id="clipPath1535">
      <path
         d="M 0,0 H 637.5 V 293.30988 H 0 Z"
         id="path1533"
         inkscape:connector-curvature="0"
         style="clip-rule:evenodd" />
    </clipPath>
    <clipPath
       id="clipPath2105"
       clipPathUnits="userSpaceOnUse">
      <path
         style="clip-rule:evenodd"
         inkscape:connector-curvature="0"
         id="path2103"
         d="M 0,0 H 637.5 V 293.30988 H 0 Z" />
    </clipPath>
    <clipPath
       id="clipPath2117"
       clipPathUnits="userSpaceOnUse">
      <path
         style="clip-rule:evenodd"
         inkscape:connector-curvature="0"
         id="path2115"
         d="M 0,0 H 637.5 V 293.30988 H 0 Z" />
    </clipPath>
    <clipPath
       id="clipPath3684"
       clipPathUnits="userSpaceOnUse">
      <path
         style="clip-rule:evenodd"
         inkscape:connector-curvature="0"
         id="path3682"
         d="M 0,0 H 637.5 V 293.30988 H 0 Z" />
    </clipPath>
    <clipPath
       id="clipPath3696"
       clipPathUnits="userSpaceOnUse">
      <path
         style="clip-rule:evenodd"
         inkscape:connector-curvature="0"
         id="path3694"
         d="M 0,0 H 637.5 V 293.30988 H 0 Z" />
    </clipPath>
    <clipPath
       id="clipPath593"
       clipPathUnits="userSpaceOnUse">
      <path
         style="clip-rule:evenodd"
         inkscape:connector-curvature="0"
         id="path591"
         d="M 0,0 H 637.5 V 293.30988 H 0 Z" />
    </clipPath>
    <clipPath
       id="clipPath605"
       clipPathUnits="userSpaceOnUse">
      <path
         style="clip-rule:evenodd"
         inkscape:connector-curvature="0"
         id="path603"
         d="M 0,0 H 637.5 V 293.30988 H 0 Z" />
    </clipPath>
    <clipPath
       id="clipPath258"
       clipPathUnits="userSpaceOnUse">
      <path
         style="clip-rule:evenodd"
         inkscape:connector-curvature="0"
         id="path256"
         d="M 0,0 H 637.5 V 293.30988 H 0 Z" />
    </clipPath>
    <clipPath
       id="clipPath270"
       clipPathUnits="userSpaceOnUse">
      <path
         style="clip-rule:evenodd"
         inkscape:connector-curvature="0"
         id="path268"
         d="M 0,0 H 637.5 V 293.30988 H 0 Z" />
    </clipPath>
    <clipPath
       id="clipPath753"
       clipPathUnits="userSpaceOnUse">
      <path
         style="clip-rule:evenodd"
         inkscape:connector-curvature="0"
         id="path751"
         d="M 0,0 H 637.5 V 293.30988 H 0 Z" />
    </clipPath>
    <clipPath
       id="clipPath765"
       clipPathUnits="userSpaceOnUse">
      <path
         style="clip-rule:evenodd"
         inkscape:connector-curvature="0"
         id="path763"
         d="M 0,0 H 637.5 V 293.30988 H 0 Z" />
    </clipPath>
    <clipPath
       id="clipPath924"
       clipPathUnits="userSpaceOnUse">
      <path
         style="clip-rule:evenodd"
         inkscape:connector-curvature="0"
         id="path922"
         d="M 0,0 H 637.5 V 293.30988 H 0 Z" />
    </clipPath>
    <clipPath
       id="clipPath936"
       clipPathUnits="userSpaceOnUse">
      <path
         style="clip-rule:evenodd"
         inkscape:connector-curvature="0"
         id="path934"
         d="M 0,0 H 637.5 V 293.30988 H 0 Z" />
    </clipPath>
    <clipPath
       id="clipPath1095"
       clipPathUnits="userSpaceOnUse">
      <path
         style="clip-rule:evenodd"
         inkscape:connector-curvature="0"
         id="path1093"
         d="M 0,0 H 637.5 V 293.30988 H 0 Z" />
    </clipPath>
    <clipPath
       id="clipPath1107"
       clipPathUnits="userSpaceOnUse">
      <path
         style="clip-rule:evenodd"
         inkscape:connector-curvature="0"
         id="path1105"
         d="M 0,0 H 637.5 V 293.30988 H 0 Z" />
    </clipPath>
    <clipPath
       id="clipPath280"
       clipPathUnits="userSpaceOnUse">
      <path
         style="clip-rule:evenodd"
         inkscape:connector-curvature="0"
         id="path278"
         d="M 0,0 H 637.5 V 293.30988 H 0 Z" />
    </clipPath>
    <clipPath
       id="clipPath292"
       clipPathUnits="userSpaceOnUse">
      <path
         style="clip-rule:evenodd"
         inkscape:connector-curvature="0"
         id="path290"
         d="M 0,0 H 637.5 V 293.30988 H 0 Z" />
    </clipPath>
    <clipPath
       id="clipPath451-7"
       clipPathUnits="userSpaceOnUse">
      <path
         style="clip-rule:evenodd"
         inkscape:connector-curvature="0"
         id="path449-9"
         d="M 0,0 H 637.49994 V 294.91821 H 0 Z" />
    </clipPath>
    <clipPath
       id="clipPath463-3"
       clipPathUnits="userSpaceOnUse">
      <path
         style="clip-rule:evenodd"
         inkscape:connector-curvature="0"
         id="path461-8"
         d="M 0,0 H 637.49994 V 291.93924 H 0 Z" />
    </clipPath>
    <clipPath
       id="clipPath625"
       clipPathUnits="userSpaceOnUse">
      <path
         style="clip-rule:evenodd"
         inkscape:connector-curvature="0"
         id="path623"
         d="M 0,0 H 637.49994 V 294.91821 H 0 Z" />
    </clipPath>
    <clipPath
       id="clipPath637-0"
       clipPathUnits="userSpaceOnUse">
      <path
         style="clip-rule:evenodd"
         inkscape:connector-curvature="0"
         id="path635-2"
         d="M 0,0 H 637.49994 V 291.93924 H 0 Z" />
    </clipPath>
    <clipPath
       id="clipPath805"
       clipPathUnits="userSpaceOnUse">
      <path
         style="clip-rule:evenodd"
         inkscape:connector-curvature="0"
         id="path803"
         d="M 0,0 H 637.49994 V 294.91821 H 0 Z" />
    </clipPath>
    <clipPath
       id="clipPath817"
       clipPathUnits="userSpaceOnUse">
      <path
         style="clip-rule:evenodd"
         inkscape:connector-curvature="0"
         id="path815"
         d="M 0,0 H 637.49994 V 291.93924 H 0 Z" />
    </clipPath>
    <clipPath
       id="clipPath291"
       clipPathUnits="userSpaceOnUse">
      <path
         style="clip-rule:evenodd"
         inkscape:connector-curvature="0"
         id="path289"
         d="M 0,0 H 641.66669 V 299.84424 H 0 Z" />
    </clipPath>
    <clipPath
       id="clipPath303"
       clipPathUnits="userSpaceOnUse">
      <path
         style="clip-rule:evenodd"
         inkscape:connector-curvature="0"
         id="path301"
         d="M 0,0 H 641.66669 V 293.84735 H 0 Z" />
    </clipPath>
    <clipPath
       id="clipPath4982"
       clipPathUnits="userSpaceOnUse">
      <path
         style="clip-rule:evenodd"
         inkscape:connector-curvature="0"
         id="path4980"
         d="M 0,0 H 641.66669 V 299.84424 H 0 Z" />
    </clipPath>
    <clipPath
       id="clipPath4994"
       clipPathUnits="userSpaceOnUse">
      <path
         style="clip-rule:evenodd"
         inkscape:connector-curvature="0"
         id="path4992"
         d="M 0,0 H 641.66669 V 293.84735 H 0 Z" />
    </clipPath>
    <clipPath
       id="clipPath5144"
       clipPathUnits="userSpaceOnUse">
      <path
         style="clip-rule:evenodd"
         inkscape:connector-curvature="0"
         id="path5142"
         d="M 0,0 H 641.66669 V 299.84424 H 0 Z" />
    </clipPath>
    <clipPath
       id="clipPath5156"
       clipPathUnits="userSpaceOnUse">
      <path
         style="clip-rule:evenodd"
         inkscape:connector-curvature="0"
         id="path5154"
         d="M 0,0 H 641.66669 V 293.84735 H 0 Z" />
    </clipPath>
    <clipPath
       id="clipPath5306"
       clipPathUnits="userSpaceOnUse">
      <path
         style="clip-rule:evenodd"
         inkscape:connector-curvature="0"
         id="path5304"
         d="M 0,0 H 641.66669 V 236.87695 H 0 Z" />
    </clipPath>
    <clipPath
       id="clipPath5318"
       clipPathUnits="userSpaceOnUse">
      <path
         style="clip-rule:evenodd"
         inkscape:connector-curvature="0"
         id="path5316"
         d="M 0,0 H 641.66669 V 233.87851 H 0 Z" />
    </clipPath>
    <clipPath
       id="clipPath304"
       clipPathUnits="userSpaceOnUse">
      <path
         style="clip-rule:evenodd"
         inkscape:connector-curvature="0"
         id="path302"
         d="M 0,0 H 641.66669 V 299.84424 H 0 Z" />
    </clipPath>
    <clipPath
       id="clipPath316"
       clipPathUnits="userSpaceOnUse">
      <path
         style="clip-rule:evenodd"
         inkscape:connector-curvature="0"
         id="path314"
         d="M 0,0 H 641.66669 V 293.84735 H 0 Z" />
    </clipPath>
    <clipPath
       id="clipPath466"
       clipPathUnits="userSpaceOnUse">
      <path
         style="clip-rule:evenodd"
         inkscape:connector-curvature="0"
         id="path464"
         d="M 0,0 H 2483.3333 V 3506.0588 H 0 Z" />
    </clipPath>
    <clipPath
       id="clipPath480"
       clipPathUnits="userSpaceOnUse">
      <path
         style="clip-rule:evenodd"
         inkscape:connector-curvature="0"
         id="path478"
         d="M 0,0 H 2483.3333 V 3506.0588 H 0 Z" />
    </clipPath>
    <clipPath
       id="clipPath631"
       clipPathUnits="userSpaceOnUse">
      <path
         style="clip-rule:evenodd"
         inkscape:connector-curvature="0"
         id="path629"
         d="M 0,0 H 641.66669 V 260.8645 H 0 Z" />
    </clipPath>
    <clipPath
       id="clipPath643"
       clipPathUnits="userSpaceOnUse">
      <path
         style="clip-rule:evenodd"
         inkscape:connector-curvature="0"
         id="path641"
         d="M 0,0 H 641.66669 V 257.86606 H 0 Z" />
    </clipPath>
    <clipPath
       id="clipPath958"
       clipPathUnits="userSpaceOnUse">
      <path
         style="clip-rule:evenodd"
         inkscape:connector-curvature="0"
         id="path956"
         d="M 0,0 H 641.66669 V 251.86916 H 0 Z" />
    </clipPath>
    <clipPath
       id="clipPath970"
       clipPathUnits="userSpaceOnUse">
      <path
         style="clip-rule:evenodd"
         inkscape:connector-curvature="0"
         id="path968"
         d="M 0,0 H 641.66669 V 251.86916 H 0 Z" />
    </clipPath>
    <clipPath
       id="clipPath1120"
       clipPathUnits="userSpaceOnUse">
      <path
         style="clip-rule:evenodd"
         inkscape:connector-curvature="0"
         id="path1118"
         d="M 0,0 H 641.66669 V 248.87073 H 0 Z" />
    </clipPath>
    <clipPath
       id="clipPath1132"
       clipPathUnits="userSpaceOnUse">
      <path
         style="clip-rule:evenodd"
         inkscape:connector-curvature="0"
         id="path1130"
         d="M 0,0 H 641.66669 V 245.87228 H 0 Z" />
    </clipPath>
    <clipPath
       id="clipPath1282"
       clipPathUnits="userSpaceOnUse">
      <path
         style="clip-rule:evenodd"
         inkscape:connector-curvature="0"
         id="path1280"
         d="M 0,0 H 641.66669 V 224.88318 H 0 Z" />
    </clipPath>
    <clipPath
       id="clipPath1294"
       clipPathUnits="userSpaceOnUse">
      <path
         style="clip-rule:evenodd"
         inkscape:connector-curvature="0"
         id="path1292"
         d="M 0,0 H 641.66669 V 221.88474 H 0 Z" />
    </clipPath>
    <clipPath
       id="clipPath1450"
       clipPathUnits="userSpaceOnUse">
      <path
         style="clip-rule:evenodd"
         inkscape:connector-curvature="0"
         id="path1448"
         d="M 0,0 H 641.66669 V 236.87695 H 0 Z" />
    </clipPath>
    <clipPath
       id="clipPath1462"
       clipPathUnits="userSpaceOnUse">
      <path
         style="clip-rule:evenodd"
         inkscape:connector-curvature="0"
         id="path1460"
         d="M 0,0 H 641.66669 V 233.87851 H 0 Z" />
    </clipPath>
    <clipPath
       id="clipPath1618"
       clipPathUnits="userSpaceOnUse">
      <path
         style="clip-rule:evenodd"
         inkscape:connector-curvature="0"
         id="path1616"
         d="M 0,0 H 641.66669 V 236.87695 H 0 Z" />
    </clipPath>
    <clipPath
       id="clipPath1630"
       clipPathUnits="userSpaceOnUse">
      <path
         style="clip-rule:evenodd"
         inkscape:connector-curvature="0"
         id="path1628"
         d="M 0,0 H 641.66669 V 233.87851 H 0 Z" />
    </clipPath>
    <clipPath
       id="clipPath1786"
       clipPathUnits="userSpaceOnUse">
      <path
         style="clip-rule:evenodd"
         inkscape:connector-curvature="0"
         id="path1784"
         d="M 0,0 H 641.66669 V 236.87695 H 0 Z" />
    </clipPath>
    <clipPath
       id="clipPath1798"
       clipPathUnits="userSpaceOnUse">
      <path
         style="clip-rule:evenodd"
         inkscape:connector-curvature="0"
         id="path1796"
         d="M 0,0 H 641.66669 V 233.87851 H 0 Z" />
    </clipPath>
    <clipPath
       id="clipPath2075"
       clipPathUnits="userSpaceOnUse">
      <path
         style="clip-rule:evenodd"
         inkscape:connector-curvature="0"
         id="path2073"
         d="M 0,0 H 641.66669 V 236.87695 H 0 Z" />
    </clipPath>
    <clipPath
       id="clipPath2087"
       clipPathUnits="userSpaceOnUse">
      <path
         style="clip-rule:evenodd"
         inkscape:connector-curvature="0"
         id="path2085"
         d="M 0,0 H 641.66669 V 233.87851 H 0 Z" />
    </clipPath>
    <clipPath
       id="clipPath2243"
       clipPathUnits="userSpaceOnUse">
      <path
         style="clip-rule:evenodd"
         inkscape:connector-curvature="0"
         id="path2241"
         d="M 0,0 H 641.66669 V 236.87695 H 0 Z" />
    </clipPath>
    <clipPath
       id="clipPath2255"
       clipPathUnits="userSpaceOnUse">
      <path
         style="clip-rule:evenodd"
         inkscape:connector-curvature="0"
         id="path2253"
         d="M 0,0 H 641.66669 V 233.87851 H 0 Z" />
    </clipPath>
    <clipPath
       id="clipPath1537"
       clipPathUnits="userSpaceOnUse">
      <path
         style="clip-rule:evenodd"
         inkscape:connector-curvature="0"
         id="path1535"
         d="M 0,0 H 1266.6668 V 248.54218 H 0 Z" />
    </clipPath>
    <clipPath
       id="clipPath1549"
       clipPathUnits="userSpaceOnUse">
      <path
         style="clip-rule:evenodd"
         inkscape:connector-curvature="0"
         id="path1547"
         d="M 0,0 H 1266.6668 V 248.54218 H 0 Z" />
    </clipPath>
    <clipPath
       id="clipPath1699"
       clipPathUnits="userSpaceOnUse">
      <path
         style="clip-rule:evenodd"
         inkscape:connector-curvature="0"
         id="path1697"
         d="M 0,0 H 1266.6668 V 248.54218 H 0 Z" />
    </clipPath>
    <clipPath
       id="clipPath1711"
       clipPathUnits="userSpaceOnUse">
      <path
         style="clip-rule:evenodd"
         inkscape:connector-curvature="0"
         id="path1709"
         d="M 0,0 H 1266.6668 V 248.54218 H 0 Z" />
    </clipPath>
    <clipPath
       id="clipPath330"
       clipPathUnits="userSpaceOnUse">
      <path
         style="clip-rule:evenodd"
         inkscape:connector-curvature="0"
         id="path328"
         d="M 0,0 H 1325 V 248.25056 H 0 Z" />
    </clipPath>
    <clipPath
       id="clipPath342"
       clipPathUnits="userSpaceOnUse">
      <path
         style="clip-rule:evenodd"
         inkscape:connector-curvature="0"
         id="path340"
         d="M 0,0 H 1325 V 248.25056 H 0 Z" />
    </clipPath>
  </defs>
  <metadata
     id="metadata5">
    <rdf:RDF>
      <cc:Work
         rdf:about="">
        <dc:format>image/svg+xml</dc:format>
        <dc:type
           rdf:resource="http://purl.org/dc/dcmitype/StillImage" />
        <dc:title />
      </cc:Work>
    </rdf:RDF>
  </metadata>
  <g
     inkscape:label="Layer 1"
     inkscape:groupmode="layer"
     id="layer1">
    <g
       transform="matrix(0.3018868,0,0,0.3018868,0,222.05643)"
       inkscape:label="two_phase (2)"
       id="g322">
      <g
         id="g324">
        <g
           clip-path="url(#clipPath330)"
           id="g326">
          <g
             transform="scale(2.9909706)"
             id="g332">
            <path
               inkscape:connector-curvature="0"
               id="path334"
               style="fill:#ffffff;fill-opacity:1;fill-rule:nonzero;stroke:none"
               d="M 0,0 H 443 V 83 H 0 Z" />
          </g>
        </g>
      </g>
      <g
         id="g336">
        <g
           clip-path="url(#clipPath342)"
           id="g338">
          <g
             transform="matrix(2.9909706,0,0,2.9909706,1.4954853,1.4954853)"
             id="g344">
            <path
               inkscape:connector-curvature="0"
               id="path346"
               style="fill:#f8cecc;fill-opacity:1;fill-rule:nonzero;stroke:none"
               d="M 1,1 H 441 V 81 H 1 Z" />
            <path
               inkscape:connector-curvature="0"
               id="path348"
               style="fill:#dae8fc;fill-opacity:1;fill-rule:nonzero;stroke:none"
               d="M 1,1 H 177 V 81 H 1 Z" />
            <path
               inkscape:connector-curvature="0"
               id="path350"
               style="fill:none;stroke:#000000;stroke-width:1;stroke-linecap:butt;stroke-linejoin:miter;stroke-miterlimit:10;stroke-dasharray:none;stroke-opacity:1"
               d="M 165,23 H 365.5" />
          </g>
          <g
             transform="matrix(-2.9909706,0,0,2.9909706,1239.7573,1.4954853)"
             id="g352">
            <path
               inkscape:connector-curvature="0"
               id="path354"
               style="fill:#ffffff;fill-opacity:1;fill-rule:nonzero;stroke:none"
               d="m 189,47 h 36 v 24 h -36 z" />
            <path
               inkscape:connector-curvature="0"
               id="path356"
               style="fill:none;stroke:#000000;stroke-width:1;stroke-linecap:butt;stroke-linejoin:miter;stroke-miterlimit:10;stroke-dasharray:none;stroke-opacity:1"
               d="m 189,47 h 36 v 24 h -36 z" />
          </g>
          <g
             transform="matrix(-2.9909706,0,0,2.9909706,2519.8928,1.4954853)"
             id="g358">
            <path
               inkscape:connector-curvature="0"
               id="path360"
               style="fill:#ffffff;fill-opacity:1;fill-rule:nonzero;stroke:none"
               d="m 403,47 h 36 v 24 h -36 z" />
            <path
               inkscape:connector-curvature="0"
               id="path362"
               style="fill:none;stroke:#000000;stroke-width:1;stroke-linecap:butt;stroke-linejoin:miter;stroke-miterlimit:10;stroke-dasharray:none;stroke-opacity:1"
               d="m 403,47 h 36 v 24 h -36 z" />
          </g>
          <g
             transform="matrix(-2.9909706,0,0,2.9909706,1879.8251,1.4954853)"
             id="g364">
            <path
               inkscape:connector-curvature="0"
               id="path366"
               style="fill:#ffffff;fill-opacity:1;fill-rule:nonzero;stroke:none"
               d="m 296,47 h 36 v 24 h -36 z" />
            <path
               inkscape:connector-curvature="0"
               id="path368"
               style="fill:none;stroke:#000000;stroke-width:1;stroke-linecap:butt;stroke-linejoin:miter;stroke-miterlimit:10;stroke-dasharray:none;stroke-opacity:1"
               d="m 296,47 h 36 v 24 h -36 z" />
          </g>
          <g
             transform="matrix(2.9909706,0,0,2.9909706,1.4954853,1.4954853)"
             id="g370">
            <path
               inkscape:connector-curvature="0"
               id="path372"
               style="fill:none;stroke:#000000;stroke-width:1;stroke-linecap:butt;stroke-linejoin:miter;stroke-miterlimit:10;stroke-dasharray:none;stroke-opacity:1"
               d="M 39,23 H 59.880001" />
            <path
               inkscape:connector-curvature="0"
               id="path374"
               style="fill:#000000;fill-opacity:1;fill-rule:nonzero;stroke:none"
               d="m 64.879997,23 -4.999996,1.67 v -3.34 z" />
            <path
               inkscape:connector-curvature="0"
               id="path376"
               style="fill:none;stroke:#000000;stroke-width:1;stroke-linecap:butt;stroke-linejoin:miter;stroke-miterlimit:10;stroke-dasharray:none;stroke-opacity:1"
               d="m 64.879997,23 -4.999996,1.67 v -3.34 z" />
            <path
               inkscape:connector-curvature="0"
               id="path378"
               style="fill:none;stroke:#000000;stroke-width:1;stroke-linecap:butt;stroke-linejoin:miter;stroke-miterlimit:10;stroke-dasharray:none;stroke-opacity:1"
               d="m 225,59 h 64.88" />
            <path
               inkscape:connector-curvature="0"
               id="path380"
               style="fill:#000000;fill-opacity:1;fill-rule:nonzero;stroke:none"
               d="m 294.88,59 -5,1.669998 v -3.339996 z" />
            <path
               inkscape:connector-curvature="0"
               id="path382"
               style="fill:none;stroke:#000000;stroke-width:1;stroke-linecap:butt;stroke-linejoin:miter;stroke-miterlimit:10;stroke-dasharray:none;stroke-opacity:1"
               d="m 294.88,59 -5,1.669998 v -3.339996 z" />
            <path
               inkscape:connector-curvature="0"
               id="path384"
               style="fill:none;stroke:#000000;stroke-width:1;stroke-linecap:butt;stroke-linejoin:miter;stroke-miterlimit:10;stroke-dasharray:none;stroke-opacity:1"
               d="m 102,23 h 20.88" />
            <path
               inkscape:connector-curvature="0"
               id="path386"
               style="fill:#000000;fill-opacity:1;fill-rule:nonzero;stroke:none"
               d="m 127.88,23 -5,1.67 v -3.34 z" />
            <path
               inkscape:connector-curvature="0"
               id="path388"
               style="fill:none;stroke:#000000;stroke-width:1;stroke-linecap:butt;stroke-linejoin:miter;stroke-miterlimit:10;stroke-dasharray:none;stroke-opacity:1"
               d="m 127.88,23 -5,1.67 v -3.34 z" />
            <path
               inkscape:connector-curvature="0"
               id="path390"
               style="fill:none;stroke:#000000;stroke-width:1;stroke-linecap:butt;stroke-linejoin:miter;stroke-miterlimit:10;stroke-dasharray:none;stroke-opacity:1"
               d="m 332,59 h 64.88" />
            <path
               inkscape:connector-curvature="0"
               id="path392"
               style="fill:#000000;fill-opacity:1;fill-rule:nonzero;stroke:none"
               d="m 401.88,59 -5,1.669998 v -3.339996 z" />
            <path
               inkscape:connector-curvature="0"
               id="path394"
               style="fill:none;stroke:#000000;stroke-width:1;stroke-linecap:butt;stroke-linejoin:miter;stroke-miterlimit:10;stroke-dasharray:none;stroke-opacity:1"
               d="m 401.88,59 -5,1.669998 v -3.339996 z" />
            <path
               inkscape:connector-curvature="0"
               id="path396"
               style="fill:none;stroke:#000000;stroke-width:1;stroke-linecap:butt;stroke-linejoin:miter;stroke-miterlimit:10;stroke-dasharray:none;stroke-opacity:1"
               d="M 365.5,23 V 52.880001" />
            <path
               inkscape:connector-curvature="0"
               id="path398"
               style="fill:#000000;fill-opacity:1;fill-rule:nonzero;stroke:none"
               d="m 365.5,57.880001 -1.67001,-5 h 3.34002 z" />
            <path
               inkscape:connector-curvature="0"
               id="path400"
               style="fill:none;stroke:#000000;stroke-width:1;stroke-linecap:butt;stroke-linejoin:miter;stroke-miterlimit:10;stroke-dasharray:none;stroke-opacity:1"
               d="m 365.5,57.880001 -1.67001,-5 h 3.34002 z" />
            <path
               inkscape:connector-curvature="0"
               id="path402"
               style="fill:#000000;fill-opacity:1;fill-rule:nonzero;stroke:none"
               d="m 177.5,1 v 1 h -1 V 1 m 1,2 v 1 h -1 V 3 m 1,2 v 1 h -1 V 5 m 1,2 v 1 h -1 V 7 m 1,2 v 1 h -1 V 9 m 1,2 v 1 h -1 v -1 m 1,2 v 1 h -1 v -1 m 1,2 v 1 h -1 v -1 m 1,2 v 1 h -1 v -1 m 1,2 v 1 h -1 v -1 m 1,2 v 1 h -1 v -1 m 1,2 v 1 h -1 v -1 m 1,2 v 1 h -1 v -1 m 1,2 v 1 h -1 v -1 m 1,2 v 1 h -1 v -1 m 1,2 v 1 h -1 v -1 m 1,2 v 1 h -1 v -1 m 1,2 v 1 h -1 v -1 m 1,2 v 1 h -1 v -1 m 1,2 v 1 h -1 v -1 m 1,2 v 1 h -1 v -1 m 1,2 v 1 h -1 v -1 m 1,2 v 1 h -1 v -1 m 1,2 v 1 h -1 v -1 m 1,2 v 1 h -1 v -1 m 1,2 v 1 h -1 v -1 m 1,2 v 1 h -1 v -1 m 1,2 v 1 h -1 v -1 m 1,2 v 1 h -1 v -1 m 1,2 v 1 h -1 v -1 m 1,2 v 1 h -1 v -1 m 1,2 v 1 h -1 v -1 m 1,2 v 1 h -1 v -1 m 1,2 v 1 h -1 v -1 m 1,2 v 1 h -1 v -1 m 1,2 v 1 h -1 v -1 m 1,2 v 1 h -1 v -1 m 1,2 v 1 h -1 v -1 m 1,2 v 1 h -1 v -1 m 1,2 v 1 h -1 v -1" />
            <path
               inkscape:connector-curvature="0"
               id="path404"
               style="fill:none;stroke:#000000;stroke-width:1;stroke-linecap:butt;stroke-linejoin:miter;stroke-miterlimit:10;stroke-dasharray:none;stroke-opacity:1"
               d="M 258.5,23 V 52.880001" />
            <path
               inkscape:connector-curvature="0"
               id="path406"
               style="fill:#000000;fill-opacity:1;fill-rule:nonzero;stroke:none"
               d="m 258.5,57.880001 -1.67001,-5 h 3.34002 z" />
            <path
               inkscape:connector-curvature="0"
               id="path408"
               style="fill:none;stroke:#000000;stroke-width:1;stroke-linecap:butt;stroke-linejoin:miter;stroke-miterlimit:10;stroke-dasharray:none;stroke-opacity:1"
               d="m 258.5,57.880001 -1.67001,-5 h 3.34002 z" />
            <path
               inkscape:connector-curvature="0"
               id="path410"
               style="fill:#ffffff;fill-opacity:1;fill-rule:nonzero;stroke:none"
               d="m 39,23 c -4e-6,0.787931 -0.115292,1.568291 -0.345867,2.341082 -0.23058,0.772791 -0.572014,1.523162 -1.024304,2.251115 -0.452297,0.727953 -1.006755,1.419501 -1.663379,2.074643 -0.656628,0.655141 -1.402802,1.261287 -2.238529,1.818439 -0.835728,0.557152 -1.744946,1.054604 -2.727658,1.492352 -0.982712,0.437751 -2.020033,0.807392 -3.111963,1.108921 -1.09193,0.301525 -2.217489,0.529148 -3.376677,0.682869 C 23.352438,34.923141 22.181896,35 21,35 19.818102,35 18.64756,34.923141 17.488373,34.769421 16.329187,34.6157 15.203628,34.388077 14.111697,34.086552 13.019767,33.785023 11.982446,33.415382 10.999735,32.977631 10.017024,32.539883 9.1078043,32.042431 8.2720776,31.485279 7.4363503,30.928127 6.6901731,30.321981 6.0335464,29.66684 5.3769202,29.011698 4.8224607,28.32015 4.3701677,27.592197 3.9178753,26.864244 3.5764408,26.113873 3.3458645,25.341082 3.1152878,24.568291 2.9999998,23.787931 3,23 c -2e-7,-0.787931 0.1152878,-1.568295 0.3458643,-2.341085 0.2305765,-0.772793 0.572011,-1.523165 1.0243034,-2.251118 0.452293,-0.727955 1.0067525,-1.419502 1.6633787,-2.074642 0.6566267,-0.655141 1.4028039,-1.261286 2.2385312,-1.818437 0.8357267,-0.557152 1.7449464,-1.054603 2.7276574,-1.492354 0.982711,-0.437751 2.020032,-0.807392 3.111962,-1.108919 1.091931,-0.301528 2.21749,-0.52915 3.376678,-0.682868 C 18.64756,11.076859 19.818102,11 21,11 c 1.181896,0 2.352438,0.07686 3.511623,0.230577 1.159188,0.153718 2.284747,0.38134 3.376677,0.682868 1.09193,0.301527 2.129251,0.671168 3.111963,1.108919 0.982712,0.437751 1.89193,0.935202 2.727658,1.492354 0.835727,0.557151 1.581901,1.163296 2.238529,1.818437 0.656624,0.65514 1.211082,1.346687 1.663379,2.074642 0.45229,0.727953 0.793724,1.478325 1.024304,2.251118 C 38.884708,21.431705 38.999996,22.212069 39,23 Z" />
            <path
               inkscape:connector-curvature="0"
               id="path412"
               style="fill:none;stroke:#000000;stroke-width:1;stroke-linecap:butt;stroke-linejoin:miter;stroke-miterlimit:10;stroke-dasharray:none;stroke-opacity:1"
               d="m 39,23 c -4e-6,0.787931 -0.115292,1.568291 -0.345867,2.341082 -0.23058,0.772791 -0.572014,1.523162 -1.024304,2.251115 -0.452297,0.727953 -1.006755,1.419501 -1.663379,2.074643 -0.656628,0.655141 -1.402802,1.261287 -2.238529,1.818439 -0.835728,0.557152 -1.744946,1.054604 -2.727658,1.492352 -0.982712,0.437751 -2.020033,0.807392 -3.111963,1.108921 -1.09193,0.301525 -2.217489,0.529148 -3.376677,0.682869 C 23.352438,34.923141 22.181896,35 21,35 19.818102,35 18.64756,34.923141 17.488373,34.769421 16.329187,34.6157 15.203628,34.388077 14.111697,34.086552 13.019767,33.785023 11.982446,33.415382 10.999735,32.977631 10.017024,32.539883 9.1078043,32.042431 8.2720776,31.485279 7.4363503,30.928127 6.6901731,30.321981 6.0335464,29.66684 5.3769202,29.011698 4.8224607,28.32015 4.3701677,27.592197 3.9178753,26.864244 3.5764408,26.113873 3.3458645,25.341082 3.1152878,24.568291 2.9999998,23.787931 3,23 c -2e-7,-0.787931 0.1152878,-1.568295 0.3458643,-2.341085 0.2305765,-0.772793 0.572011,-1.523165 1.0243034,-2.251118 0.452293,-0.727955 1.0067525,-1.419502 1.6633787,-2.074642 0.6566267,-0.655141 1.4028039,-1.261286 2.2385312,-1.818437 0.8357267,-0.557152 1.7449464,-1.054603 2.7276574,-1.492354 0.982711,-0.437751 2.020032,-0.807392 3.111962,-1.108919 1.091931,-0.301528 2.21749,-0.52915 3.376678,-0.682868 C 18.64756,11.076859 19.818102,11 21,11 c 1.181896,0 2.352438,0.07686 3.511623,0.230577 1.159188,0.153718 2.284747,0.38134 3.376677,0.682868 1.09193,0.301527 2.129251,0.671168 3.111963,1.108919 0.982712,0.437751 1.89193,0.935202 2.727658,1.492354 0.835727,0.557151 1.581901,1.163296 2.238529,1.818437 0.656624,0.65514 1.211082,1.346687 1.663379,2.074642 0.45229,0.727953 0.793724,1.478325 1.024304,2.251118 C 38.884708,21.431705 38.999996,22.212069 39,23 Z" />
            <path
               inkscape:connector-curvature="0"
               id="path414"
               style="fill:#ffffff;fill-opacity:1;fill-rule:nonzero;stroke:none"
               d="m 102,23 c 0,0.787931 -0.11529,1.568291 -0.34587,2.341082 -0.23058,0.772791 -0.57201,1.523162 -1.02431,2.251115 -0.45229,0.727953 -1.00675,1.419501 -1.663374,2.074643 -0.656624,0.655141 -1.402802,1.261287 -2.238525,1.818439 -0.835732,0.557152 -1.744957,1.054604 -2.727662,1.492352 -0.982719,0.437751 -2.020042,0.807392 -3.111969,1.108921 -1.091934,0.301525 -2.217491,0.529148 -3.376678,0.682869 C 86.352432,34.923141 85.181892,35 84,35 82.8181,35 81.647552,34.923141 80.488365,34.769421 79.329178,34.6157 78.203621,34.388077 77.111687,34.086552 76.01976,33.785023 74.982437,33.415382 73.999725,32.977631 73.017021,32.539883 72.107803,32.042431 71.272079,31.485279 70.436348,30.928127 69.69017,30.321981 69.033546,29.66684 68.376915,29.011698 67.822456,28.32015 67.370163,27.592197 66.91787,26.864244 66.576439,26.113873 66.345856,25.341082 66.115288,24.568291 66,23.787931 66,23 c 0,-0.787931 0.115288,-1.568295 0.345856,-2.341085 0.230583,-0.772793 0.572014,-1.523165 1.024307,-2.251118 0.452293,-0.727955 1.006752,-1.419502 1.663383,-2.074642 0.656624,-0.655141 1.402802,-1.261286 2.238533,-1.818437 0.835724,-0.557152 1.744942,-1.054603 2.727646,-1.492354 0.982712,-0.437751 2.020035,-0.807392 3.111962,-1.108919 1.091934,-0.301528 2.217491,-0.52915 3.376678,-0.682868 C 81.647552,11.076859 82.8181,11 84,11 c 1.181892,0 2.352432,0.07686 3.511612,0.230577 1.159187,0.153718 2.284744,0.38134 3.376678,0.682868 1.091927,0.301527 2.12925,0.671168 3.111969,1.108919 0.982705,0.437751 1.89193,0.935202 2.727662,1.492354 0.835723,0.557151 1.581901,1.163296 2.238525,1.818437 0.656624,0.65514 1.211084,1.346687 1.663374,2.074642 0.4523,0.727953 0.79373,1.478325 1.02431,2.251118 C 101.88471,21.431705 102,22.212069 102,23 Z" />
            <path
               inkscape:connector-curvature="0"
               id="path416"
               style="fill:none;stroke:#000000;stroke-width:1;stroke-linecap:butt;stroke-linejoin:miter;stroke-miterlimit:10;stroke-dasharray:none;stroke-opacity:1"
               d="m 102,23 c 0,0.787931 -0.11529,1.568291 -0.34587,2.341082 -0.23058,0.772791 -0.57201,1.523162 -1.02431,2.251115 -0.45229,0.727953 -1.00675,1.419501 -1.663374,2.074643 -0.656624,0.655141 -1.402802,1.261287 -2.238525,1.818439 -0.835732,0.557152 -1.744957,1.054604 -2.727662,1.492352 -0.982719,0.437751 -2.020042,0.807392 -3.111969,1.108921 -1.091934,0.301525 -2.217491,0.529148 -3.376678,0.682869 C 86.352432,34.923141 85.181892,35 84,35 82.8181,35 81.647552,34.923141 80.488365,34.769421 79.329178,34.6157 78.203621,34.388077 77.111687,34.086552 76.01976,33.785023 74.982437,33.415382 73.999725,32.977631 73.017021,32.539883 72.107803,32.042431 71.272079,31.485279 70.436348,30.928127 69.69017,30.321981 69.033546,29.66684 68.376915,29.011698 67.822456,28.32015 67.370163,27.592197 66.91787,26.864244 66.576439,26.113873 66.345856,25.341082 66.115288,24.568291 66,23.787931 66,23 c 0,-0.787931 0.115288,-1.568295 0.345856,-2.341085 0.230583,-0.772793 0.572014,-1.523165 1.024307,-2.251118 0.452293,-0.727955 1.006752,-1.419502 1.663383,-2.074642 0.656624,-0.655141 1.402802,-1.261286 2.238533,-1.818437 0.835724,-0.557152 1.744942,-1.054603 2.727646,-1.492354 0.982712,-0.437751 2.020035,-0.807392 3.111962,-1.108919 1.091934,-0.301528 2.217491,-0.52915 3.376678,-0.682868 C 81.647552,11.076859 82.8181,11 84,11 c 1.181892,0 2.352432,0.07686 3.511612,0.230577 1.159187,0.153718 2.284744,0.38134 3.376678,0.682868 1.091927,0.301527 2.12925,0.671168 3.111969,1.108919 0.982705,0.437751 1.89193,0.935202 2.727662,1.492354 0.835723,0.557151 1.581901,1.163296 2.238525,1.818437 0.656624,0.65514 1.211084,1.346687 1.663374,2.074642 0.4523,0.727953 0.79373,1.478325 1.02431,2.251118 C 101.88471,21.431705 102,22.212069 102,23 Z" />
            <path
               inkscape:connector-curvature="0"
               id="path418"
               style="fill:#ffffff;fill-opacity:1;fill-rule:nonzero;stroke:none"
               d="m 165,23 c -2e-5,0.787931 -0.1153,1.568291 -0.34587,2.341082 -0.23059,0.772791 -0.57204,1.523162 -1.02432,2.251115 -0.45229,0.727953 -1.00675,1.419501 -1.66338,2.074643 -0.65663,0.655141 -1.4028,1.261287 -2.23853,1.818439 -0.83573,0.557152 -1.74494,1.054604 -2.72766,1.492352 -0.98271,0.437751 -2.02003,0.807392 -3.11196,1.108921 -1.09194,0.301525 -2.21749,0.529148 -3.37668,0.682869 C 149.35242,34.923141 148.18188,35 147,35 c -1.1819,0 -2.35245,-0.07686 -3.51164,-0.230579 -1.1592,-0.153721 -2.28475,-0.381344 -3.37668,-0.682869 -1.09194,-0.301529 -2.12926,-0.67117 -3.11197,-1.108921 -0.98271,-0.437748 -1.89192,-0.9352 -2.72765,-1.492352 -0.83574,-0.557152 -1.58191,-1.163298 -2.23854,-1.818439 -0.65663,-0.655142 -1.21109,-1.34669 -1.66337,-2.074643 -0.45229,-0.727953 -0.79372,-1.478324 -1.02429,-2.251115 C 129.11528,24.568291 129,23.787931 129,23 c 0,-0.787931 0.11528,-1.568295 0.34586,-2.341085 0.23057,-0.772793 0.572,-1.523165 1.02429,-2.251118 0.45228,-0.727955 1.00674,-1.419502 1.66337,-2.074642 0.65663,-0.655141 1.4028,-1.261286 2.23854,-1.818437 0.83573,-0.557152 1.74494,-1.054603 2.72765,-1.492354 0.98271,-0.437751 2.02003,-0.807392 3.11197,-1.108919 1.09193,-0.301528 2.21748,-0.52915 3.37668,-0.682868 C 144.64755,11.076859 145.8181,11 147,11 c 1.18188,0 2.35242,0.07686 3.5116,0.230577 1.15919,0.153718 2.28474,0.38134 3.37668,0.682868 1.09193,0.301527 2.12925,0.671168 3.11196,1.108919 0.98272,0.437751 1.89193,0.935202 2.72766,1.492354 0.83573,0.557151 1.5819,1.163296 2.23853,1.818437 0.65663,0.65514 1.21109,1.346687 1.66338,2.074642 0.45228,0.727953 0.79373,1.478325 1.02432,2.251118 C 164.8847,21.431705 164.99998,22.212069 165,23 Z" />
            <path
               inkscape:connector-curvature="0"
               id="path420"
               style="fill:none;stroke:#000000;stroke-width:1;stroke-linecap:butt;stroke-linejoin:miter;stroke-miterlimit:10;stroke-dasharray:none;stroke-opacity:1"
               d="m 165,23 c -2e-5,0.787931 -0.1153,1.568291 -0.34587,2.341082 -0.23059,0.772791 -0.57204,1.523162 -1.02432,2.251115 -0.45229,0.727953 -1.00675,1.419501 -1.66338,2.074643 -0.65663,0.655141 -1.4028,1.261287 -2.23853,1.818439 -0.83573,0.557152 -1.74494,1.054604 -2.72766,1.492352 -0.98271,0.437751 -2.02003,0.807392 -3.11196,1.108921 -1.09194,0.301525 -2.21749,0.529148 -3.37668,0.682869 C 149.35242,34.923141 148.18188,35 147,35 c -1.1819,0 -2.35245,-0.07686 -3.51164,-0.230579 -1.1592,-0.153721 -2.28475,-0.381344 -3.37668,-0.682869 -1.09194,-0.301529 -2.12926,-0.67117 -3.11197,-1.108921 -0.98271,-0.437748 -1.89192,-0.9352 -2.72765,-1.492352 -0.83574,-0.557152 -1.58191,-1.163298 -2.23854,-1.818439 -0.65663,-0.655142 -1.21109,-1.34669 -1.66337,-2.074643 -0.45229,-0.727953 -0.79372,-1.478324 -1.02429,-2.251115 C 129.11528,24.568291 129,23.787931 129,23 c 0,-0.787931 0.11528,-1.568295 0.34586,-2.341085 0.23057,-0.772793 0.572,-1.523165 1.02429,-2.251118 0.45228,-0.727955 1.00674,-1.419502 1.66337,-2.074642 0.65663,-0.655141 1.4028,-1.261286 2.23854,-1.818437 0.83573,-0.557152 1.74494,-1.054603 2.72765,-1.492354 0.98271,-0.437751 2.02003,-0.807392 3.11197,-1.108919 1.09193,-0.301528 2.21748,-0.52915 3.37668,-0.682868 C 144.64755,11.076859 145.8181,11 147,11 c 1.18188,0 2.35242,0.07686 3.5116,0.230577 1.15919,0.153718 2.28474,0.38134 3.37668,0.682868 1.09193,0.301527 2.12925,0.671168 3.11196,1.108919 0.98272,0.437751 1.89193,0.935202 2.72766,1.492354 0.83573,0.557151 1.5819,1.163296 2.23853,1.818437 0.65663,0.65514 1.21109,1.346687 1.66338,2.074642 0.45228,0.727953 0.79373,1.478325 1.02432,2.251118 C 164.8847,21.431705 164.99998,22.212069 165,23 Z" />
          </g>
        </g>
      </g>
    </g>
    <text
       xml:space="preserve"
       style="font-style:normal;font-weight:normal;font-size:10.58333302px;line-height:1.25;font-family:sans-serif;letter-spacing:0px;word-spacing:0px;fill:#000000;fill-opacity:1;stroke:none;stroke-width:0.26458332"
       x="347.40018"
       y="247.94032"
       id="text241"><tspan
         sodipodi:role="line"
         x="347.40018"
         y="247.94032"
         style="font-style:normal;font-variant:normal;font-weight:bold;font-stretch:normal;font-size:13.75833321px;font-family:Times;-inkscape-font-specification:'Times Bold';stroke-width:0.26458332"
         id="tspan243">Second</tspan></text>
    <text
       xml:space="preserve"
       style="font-style:normal;font-weight:normal;font-size:13.75833321px;line-height:1.25;font-family:sans-serif;letter-spacing:0px;word-spacing:0px;fill:#000000;fill-opacity:1;stroke:none;stroke-width:0.26458332"
       x="10.614308"
       y="280.86853"
       id="text766"><tspan
         sodipodi:role="line"
         x="10.614308"
         y="280.86853"
         style="font-style:normal;font-variant:normal;font-weight:bold;font-stretch:normal;font-size:13.75833321px;font-family:Times;-inkscape-font-specification:'Times Bold';stroke-width:0.26458332"
         id="tspan768">First</tspan></text>
    <g
       transform="translate(-73.92,143.725)"
       id="g639">
      <g
         style="font-style:normal;font-variant:normal;font-weight:normal;font-stretch:normal;letter-spacing:normal;word-spacing:normal;text-anchor:start;fill:none;fill-opacity:1;fill-rule:evenodd;stroke:#000000;stroke-linecap:butt;stroke-linejoin:miter;stroke-miterlimit:10.43299961;stroke-dasharray:none;stroke-dashoffset:0;stroke-opacity:1"
         id="content"
         transform="matrix(0.3,0,0,-0.3,-52.5,222.75)"
         xml:space="preserve"
         stroke-miterlimit="10.433"
         font-style="normal"
         font-variant="normal"
         font-weight="normal"
         font-stretch="normal"
         font-size-adjust="none"
         letter-spacing="normal"
         word-spacing="normal"><path
           style="fill:#000000;stroke-width:0"
           inkscape:connector-curvature="0"
           d="m 478.04,427.67 -0.01,0.02 v 0.02 0.02 0.02 l -0.01,0.02 v 0.02 l -0.01,0.02 v 0.02 l -0.01,0.02 -0.01,0.02 -0.01,0.02 -0.01,0.03 -0.01,0.02 -0.01,0.02 -0.02,0.02 -0.01,0.01 -0.02,0.02 -0.01,0.02 -0.02,0.02 -0.02,0.01 -0.02,0.02 -0.02,0.01 -0.02,0.02 -0.03,0.01 -0.02,0.01 -0.03,0.01 -0.02,0.01 h -0.03 l -0.03,0.01 h -0.03 l -0.03,0.01 h -0.02 -0.01 c -0.55,0 -2.54,-1.99 -3.38,-3.44 -1.11,2.69 -3.05,3.48 -4.64,3.48 v -1.09 c 3.23,0 3.94,-4.03 3.94,-4.37 0,-0.32 -2.74,-11.22 -2.89,-11.43 -0.75,-1.39 -3.53,-4.57 -6.33,-4.57 v 0 c -2.99,0 -3.19,3.84 -3.19,4.68 0,2.39 1.44,7.82 2.3,9.91 1.53,3.69 4.12,5.78 6.17,5.78 v 1.09 c -5.88,0 -12,-7.37 -12,-14.59 0,-4.87 2.94,-7.97 6.56,-7.97 2.16,0 4.1,1.19 5.89,2.99 -0.45,-1.74 -2.09,-8.47 -2.25,-8.93 -0.39,-1.39 -0.79,-1.59 -3.58,-1.64 -0.65,0 -1.15,0 -1.15,-1 0,-0.04 0,-0.54 0.65,-0.54 1.6,0 3.33,0.15 4.99,0.15 1.69,0 3.48,-0.15 5.12,-0.15 0.25,0 0.89,0 0.89,1 0,0.54 -0.48,0.54 -1.28,0.54 -2.4,0 -2.4,0.36 -2.4,0.8 0,0.36 0.11,0.66 0.2,1.09 z"
           id="path631" /><path
           style="fill:#000000;stroke-width:0"
           inkscape:connector-curvature="0"
           d="m 495.53,415.73 v 0.34 l -0.02,0.35 -0.02,0.34 -0.03,0.34 -0.03,0.35 -0.05,0.34 -0.06,0.33 -0.06,0.33 -0.08,0.33 -0.08,0.32 -0.09,0.32 -0.1,0.31 -0.11,0.3 -0.13,0.29 -0.13,0.29 -0.14,0.27 -0.15,0.27 -0.16,0.25 -0.17,0.24 -0.18,0.22 -0.19,0.22 -0.21,0.2 -0.21,0.18 -0.22,0.17 -0.24,0.15 -0.24,0.13 -0.26,0.11 -0.27,0.1 -0.28,0.07 -0.29,0.06 -0.3,0.03 -0.31,0.01 -0.03,-0.97 c 2.22,0 2.22,-3.87 2.22,-4.53 0,-1.36 -0.29,-3.39 -1,-6.31 h -8.07 c 1.78,7.53 4.78,10.84 6.85,10.84 l 0.03,0.97 c -5.24,0 -10.81,-9.34 -10.81,-17.31 0,-4.16 1.61,-7.56 4.81,-7.56 l 0.03,0.97 c -1.91,0 -2.22,2.65 -2.22,4.53 0,2.29 0.66,5.01 1,6.31 h 8.06 c -0.98,-3.8 -1.78,-5.69 -2.82,-7.39 -1.08,-1.81 -2.47,-3.45 -4.02,-3.45 l -0.03,-0.97 c 5.3,0 10.81,9.51 10.81,17.31 z"
           id="path633" /><path
           style="fill:#000000;stroke-width:0"
           inkscape:connector-curvature="0"
           d="m 511.65,401.69 v 0.18 0.21 l -0.01,0.24 v 0.25 l -0.02,0.28 -0.01,0.3 -0.03,0.31 -0.03,0.33 -0.05,0.34 -0.05,0.35 -0.07,0.36 -0.07,0.37 -0.1,0.36 -0.11,0.37 -0.12,0.37 -0.14,0.36 -0.17,0.36 -0.18,0.35 -0.2,0.35 -0.23,0.33 -0.25,0.31 -0.27,0.3 -0.15,0.15 -0.16,0.14 -0.16,0.13 -0.16,0.13 -0.18,0.12 -0.18,0.12 -0.19,0.11 -0.2,0.1 -0.2,0.1 -0.22,0.09 -0.22,0.08 -0.23,0.08 -0.23,0.06 -0.25,0.06 -0.25,0.05 -0.27,0.05 -0.27,0.03 -0.28,0.02 -0.29,0.02 h -0.3 c -6.5,0 -6.5,-6.83 -6.5,-8.62 0,-1.81 0,-8.52 6.5,-8.52 V 394 c -0.92,0 -3.02,0.31 -3.64,2.83 -0.35,1.34 -0.38,3.12 -0.38,5.15 0,1.85 0,3.57 0.41,4.99 0.62,2.09 2.55,2.51 3.61,2.51 1.84,0 3.17,-0.93 3.65,-2.68 0.36,-1.27 0.36,-3.35 0.36,-4.82 0,-1.68 0,-3.7 -0.37,-5.2 -0.66,-2.42 -2.64,-2.78 -3.64,-2.78 v 0 -0.83 c 6.5,0 6.5,6.71 6.5,8.52 z"
           id="path636" /></g>    </g>
    <g
       id="g1083"
       transform="translate(-16.524158,143.8075)">
      <g
         word-spacing="normal"
         letter-spacing="normal"
         font-size-adjust="none"
         font-stretch="normal"
         font-weight="normal"
         font-variant="normal"
         font-style="normal"
         stroke-miterlimit="10.433"
         xml:space="preserve"
         transform="matrix(0.3,0,0,-0.3,-52.5,222.75)"
         id="g1081"
         style="font-style:normal;font-variant:normal;font-weight:normal;font-stretch:normal;letter-spacing:normal;word-spacing:normal;text-anchor:start;fill:none;fill-opacity:1;fill-rule:evenodd;stroke:#000000;stroke-linecap:butt;stroke-linejoin:miter;stroke-miterlimit:10.43299961;stroke-dasharray:none;stroke-dashoffset:0;stroke-opacity:1"><path
           id="path1075"
           d="m 478.04,427.67 -0.01,0.02 v 0.02 0.02 0.02 l -0.01,0.02 v 0.02 l -0.01,0.02 v 0.02 l -0.01,0.02 -0.01,0.02 -0.01,0.02 -0.01,0.03 -0.01,0.02 -0.01,0.02 -0.02,0.02 -0.01,0.01 -0.02,0.02 -0.01,0.02 -0.02,0.02 -0.02,0.01 -0.02,0.02 -0.02,0.01 -0.02,0.02 -0.03,0.01 -0.02,0.01 -0.03,0.01 -0.02,0.01 h -0.03 l -0.03,0.01 h -0.03 l -0.03,0.01 h -0.02 -0.01 c -0.55,0 -2.54,-1.99 -3.38,-3.44 -1.11,2.69 -3.05,3.48 -4.64,3.48 v -1.09 c 3.23,0 3.94,-4.03 3.94,-4.37 0,-0.32 -2.74,-11.22 -2.89,-11.43 -0.75,-1.39 -3.53,-4.57 -6.33,-4.57 v 0 c -2.99,0 -3.19,3.84 -3.19,4.68 0,2.39 1.44,7.82 2.3,9.91 1.53,3.69 4.12,5.78 6.17,5.78 v 1.09 c -5.88,0 -12,-7.37 -12,-14.59 0,-4.87 2.94,-7.97 6.56,-7.97 2.16,0 4.1,1.19 5.89,2.99 -0.45,-1.74 -2.09,-8.47 -2.25,-8.93 -0.39,-1.39 -0.79,-1.59 -3.58,-1.64 -0.65,0 -1.15,0 -1.15,-1 0,-0.04 0,-0.54 0.65,-0.54 1.6,0 3.33,0.15 4.99,0.15 1.69,0 3.48,-0.15 5.12,-0.15 0.25,0 0.89,0 0.89,1 0,0.54 -0.48,0.54 -1.28,0.54 -2.4,0 -2.4,0.36 -2.4,0.8 0,0.36 0.11,0.66 0.2,1.09 z"
           inkscape:connector-curvature="0"
           style="fill:#000000;stroke-width:0" /><path
           id="path1077"
           d="m 495.53,415.73 v 0.34 l -0.02,0.35 -0.02,0.34 -0.03,0.34 -0.03,0.35 -0.05,0.34 -0.06,0.33 -0.06,0.33 -0.08,0.33 -0.08,0.32 -0.09,0.32 -0.1,0.31 -0.11,0.3 -0.13,0.29 -0.13,0.29 -0.14,0.27 -0.15,0.27 -0.16,0.25 -0.17,0.24 -0.18,0.22 -0.19,0.22 -0.21,0.2 -0.21,0.18 -0.22,0.17 -0.24,0.15 -0.24,0.13 -0.26,0.11 -0.27,0.1 -0.28,0.07 -0.29,0.06 -0.3,0.03 -0.31,0.01 -0.03,-0.97 c 2.22,0 2.22,-3.87 2.22,-4.53 0,-1.36 -0.29,-3.39 -1,-6.31 h -8.07 c 1.78,7.53 4.78,10.84 6.85,10.84 l 0.03,0.97 c -5.24,0 -10.81,-9.34 -10.81,-17.31 0,-4.16 1.61,-7.56 4.81,-7.56 l 0.03,0.97 c -1.91,0 -2.22,2.65 -2.22,4.53 0,2.29 0.66,5.01 1,6.31 h 8.06 c -0.98,-3.8 -1.78,-5.69 -2.82,-7.39 -1.08,-1.81 -2.47,-3.45 -4.02,-3.45 l -0.03,-0.97 c 5.3,0 10.81,9.51 10.81,17.31 z"
           inkscape:connector-curvature="0"
           style="fill:#000000;stroke-width:0" /><path
           id="path1079"
           d="m 506.6,409.56 v 0.04 0.03 0.03 0.04 0.03 0.02 0.03 0.03 0.03 l -0.01,0.02 v 0.03 0.02 0.02 l -0.01,0.03 v 0.02 0.02 l -0.01,0.02 v 0.01 l -0.01,0.04 -0.01,0.03 -0.02,0.03 -0.01,0.03 -0.02,0.02 -0.02,0.02 -0.02,0.02 -0.03,0.02 -0.02,0.01 -0.03,0.01 -0.03,0.01 -0.04,0.01 -0.04,0.01 -0.04,0.01 h -0.02 -0.02 -0.03 l -0.02,0.01 h -0.03 -0.02 -0.03 -0.03 -0.03 -0.03 -0.03 -0.03 -0.03 -0.04 -0.03 -0.04 -0.04 -0.03 c -1.77,-1.59 -4.54,-1.59 -5.04,-1.59 h -0.42 v -1.1 h 0.42 c 0.58,0 2.19,0.07 3.64,0.69 v -12.45 c 0,-0.77 0,-1.05 -2.64,-1.05 h -1.25 v -1.09 c 1.38,0.09 3.6,0.09 5.04,0.09 1.45,0 3.67,0 5.03,-0.09 v 1.09 h -1.24 c -2.64,0 -2.64,0.28 -2.64,1.05 z"
           inkscape:connector-curvature="0"
           style="fill:#000000;stroke-width:0" /></g>    </g>
    <g
       transform="translate(40.565668,143.8075)"
       id="g1530">
      <g
         style="font-style:normal;font-variant:normal;font-weight:normal;font-stretch:normal;letter-spacing:normal;word-spacing:normal;text-anchor:start;fill:none;fill-opacity:1;fill-rule:evenodd;stroke:#000000;stroke-linecap:butt;stroke-linejoin:miter;stroke-miterlimit:10.43299961;stroke-dasharray:none;stroke-dashoffset:0;stroke-opacity:1"
         id="g1528"
         transform="matrix(0.3,0,0,-0.3,-52.5,222.75)"
         xml:space="preserve"
         stroke-miterlimit="10.433"
         font-style="normal"
         font-variant="normal"
         font-weight="normal"
         font-stretch="normal"
         font-size-adjust="none"
         letter-spacing="normal"
         word-spacing="normal"><path
           style="fill:#000000;stroke-width:0"
           inkscape:connector-curvature="0"
           d="m 478.04,427.67 -0.01,0.02 v 0.02 0.02 0.02 l -0.01,0.02 v 0.02 l -0.01,0.02 v 0.02 l -0.01,0.02 -0.01,0.02 -0.01,0.02 -0.01,0.03 -0.01,0.02 -0.01,0.02 -0.02,0.02 -0.01,0.01 -0.02,0.02 -0.01,0.02 -0.02,0.02 -0.02,0.01 -0.02,0.02 -0.02,0.01 -0.02,0.02 -0.03,0.01 -0.02,0.01 -0.03,0.01 -0.02,0.01 h -0.03 l -0.03,0.01 h -0.03 l -0.03,0.01 h -0.02 -0.01 c -0.55,0 -2.54,-1.99 -3.38,-3.44 -1.11,2.69 -3.05,3.48 -4.64,3.48 v -1.09 c 3.23,0 3.94,-4.03 3.94,-4.37 0,-0.32 -2.74,-11.22 -2.89,-11.43 -0.75,-1.39 -3.53,-4.57 -6.33,-4.57 v 0 c -2.99,0 -3.19,3.84 -3.19,4.68 0,2.39 1.44,7.82 2.3,9.91 1.53,3.69 4.12,5.78 6.17,5.78 v 1.09 c -5.88,0 -12,-7.37 -12,-14.59 0,-4.87 2.94,-7.97 6.56,-7.97 2.16,0 4.1,1.19 5.89,2.99 -0.45,-1.74 -2.09,-8.47 -2.25,-8.93 -0.39,-1.39 -0.79,-1.59 -3.58,-1.64 -0.65,0 -1.15,0 -1.15,-1 0,-0.04 0,-0.54 0.65,-0.54 1.6,0 3.33,0.15 4.99,0.15 1.69,0 3.48,-0.15 5.12,-0.15 0.25,0 0.89,0 0.89,1 0,0.54 -0.48,0.54 -1.28,0.54 -2.4,0 -2.4,0.36 -2.4,0.8 0,0.36 0.11,0.66 0.2,1.09 z"
           id="path1522" /><path
           style="fill:#000000;stroke-width:0"
           inkscape:connector-curvature="0"
           d="m 495.53,415.73 v 0.34 l -0.02,0.35 -0.02,0.34 -0.03,0.34 -0.03,0.35 -0.05,0.34 -0.06,0.33 -0.06,0.33 -0.08,0.33 -0.08,0.32 -0.09,0.32 -0.1,0.31 -0.11,0.3 -0.13,0.29 -0.13,0.29 -0.14,0.27 -0.15,0.27 -0.16,0.25 -0.17,0.24 -0.18,0.22 -0.19,0.22 -0.21,0.2 -0.21,0.18 -0.22,0.17 -0.24,0.15 -0.24,0.13 -0.26,0.11 -0.27,0.1 -0.28,0.07 -0.29,0.06 -0.3,0.03 -0.31,0.01 -0.03,-0.97 c 2.22,0 2.22,-3.87 2.22,-4.53 0,-1.36 -0.29,-3.39 -1,-6.31 h -8.07 c 1.78,7.53 4.78,10.84 6.85,10.84 l 0.03,0.97 c -5.24,0 -10.81,-9.34 -10.81,-17.31 0,-4.16 1.61,-7.56 4.81,-7.56 l 0.03,0.97 c -1.91,0 -2.22,2.65 -2.22,4.53 0,2.29 0.66,5.01 1,6.31 h 8.06 c -0.98,-3.8 -1.78,-5.69 -2.82,-7.39 -1.08,-1.81 -2.47,-3.45 -4.02,-3.45 l -0.03,-0.97 c 5.3,0 10.81,9.51 10.81,17.31 z"
           id="path1524" /><path
           style="fill:#000000;stroke-width:0"
           inkscape:connector-curvature="0"
           d="m 511.35,398.53 h -1.05 c -0.07,-0.48 -0.32,-2.01 -0.71,-2.26 -0.21,-0.16 -2.3,-0.16 -2.68,-0.16 h -4.87 c 1.64,1.22 3.48,2.61 4.98,3.61 2.24,1.55 4.33,3 4.33,5.64 0,3.19 -3.01,4.95 -6.58,4.95 -3.36,0 -5.82,-1.95 -5.82,-4.39 0,-1.3 1.09,-1.51 1.45,-1.51 0.67,0 1.47,0.45 1.47,1.47 0,0.89 -0.66,1.39 -1.42,1.46 0.68,1.13 2.14,1.88 3.81,1.88 2.4,0 4.42,-1.45 4.42,-3.89 0,-2.1 -1.44,-3.69 -3.36,-5.31 l -6.08,-5.16 c -0.25,-0.22 -0.26,-0.22 -0.29,-0.39 v -0.75 h 11.57 z"
           id="path1526" /></g>    </g>
    <g
       id="g1978"
       transform="translate(93.56169,176.442)">
      <g
         word-spacing="normal"
         letter-spacing="normal"
         font-size-adjust="none"
         font-stretch="normal"
         font-weight="normal"
         font-variant="normal"
         font-style="normal"
         stroke-miterlimit="10.433"
         xml:space="preserve"
         transform="matrix(0.3,0,0,-0.3,-52.5,222.75)"
         id="g1976"
         style="font-style:normal;font-variant:normal;font-weight:normal;font-stretch:normal;letter-spacing:normal;word-spacing:normal;text-anchor:start;fill:none;fill-opacity:1;fill-rule:evenodd;stroke:#000000;stroke-linecap:butt;stroke-linejoin:miter;stroke-miterlimit:10.43299961;stroke-dasharray:none;stroke-dashoffset:0;stroke-opacity:1"><path
           id="path1970"
           d="m 479.74,425.18 0.01,0.04 0.01,0.03 0.01,0.06 0.02,0.05 0.01,0.06 0.01,0.05 0.02,0.04 0.01,0.05 0.01,0.04 0.01,0.04 v 0.04 l 0.01,0.04 0.01,0.04 0.01,0.03 v 0.03 l 0.01,0.03 v 0.03 l 0.01,0.03 v 0.03 l 0.01,0.05 v 0.06 0.05 0.05 l 0.01,0.05 v 0.03 0.03 0.03 0.03 c 0,0.91 -0.69,1.35 -1.44,1.35 -0.5,0 -1.3,-0.3 -1.75,-1.05 -0.1,-0.25 -0.5,-1.78 -0.69,-2.69 -0.36,-1.29 -0.7,-2.64 -1,-3.98 l -2.25,-8.97 c -0.19,-0.75 -2.33,-4.23 -5.62,-4.23 -2.54,0 -3.1,2.18 -3.1,4.03 0,2.29 0.86,5.39 2.55,9.76 0.8,2.05 1,2.6 1,3.6 0,2.23 -1.59,4.07 -4.09,4.07 -4.74,0 -6.58,-7.21 -6.58,-7.67 0,-0.5 0.5,-0.5 0.61,-0.5 0.5,0 0.54,0.11 0.79,0.91 1.35,4.69 3.33,6.17 5.03,6.17 0.4,0 1.25,0 1.25,-1.59 0,-1.25 -0.5,-2.53 -0.85,-3.49 -1.99,-5.28 -2.9,-8.12 -2.9,-10.47 0,-4.42 3.15,-5.92 6.08,-5.92 1.96,0 3.64,0.85 5.03,2.24 -0.64,-2.58 -1.23,-5.03 -3.23,-7.68 -1.3,-1.68 -3.19,-3.14 -5.48,-3.14 -0.69,0 -2.94,0.16 -3.79,2.1 0.8,0 1.46,0 2.14,0.61 0.5,0.43 1,1.09 1,2.03 0,1.55 -1.34,1.75 -1.84,1.75 -1.14,0 -2.8,-0.8 -2.8,-3.24 0,-2.5 2.21,-4.34 5.29,-4.34 5.14,0 10.26,4.55 11.67,10.17 z"
           inkscape:connector-curvature="0"
           style="fill:#000000;stroke-width:0" /><path
           id="path1972"
           d="m 497.14,422.5 v 0.02 0.02 0.02 0.02 l -0.01,0.01 v 0.02 0.02 l -0.01,0.02 v 0.01 l -0.01,0.02 v 0.01 l -0.01,0.02 -0.01,0.01 v 0.01 l -0.01,0.02 -0.01,0.01 -0.01,0.01 v 0.01 l -0.01,0.01 -0.01,0.01 -0.02,0.02 -0.02,0.02 -0.02,0.01 -0.03,0.02 -0.02,0.01 -0.02,0.01 -0.03,0.01 -0.02,0.01 -0.02,0.01 -0.03,0.01 h -0.02 l -0.03,0.01 h -0.02 -0.03 -0.02 l -0.02,0.01 h -0.03 -0.02 -0.02 -0.02 -0.02 -0.01 c -0.52,0 -0.55,-0.19 -0.69,-0.77 l -1.98,-7.98 c -6.18,-0.28 -11.44,-4.7 -11.44,-9.38 0,-3.93 3.59,-6.31 7.45,-6.45 l 0.25,0.99 c -2.69,0.14 -5.16,1.59 -5.16,4.87 0,3.48 2.64,8.41 8.61,8.95 l -3.45,-13.82 -0.25,-0.99 c -0.28,-1.08 -0.51,-2.19 -0.8,-3.26 -0.42,-1.65 -0.73,-2.93 -0.73,-3.04 0,-0.42 0.45,-0.42 0.56,-0.42 0.52,0 0.56,0.11 0.74,0.85 l 1.45,5.84 c 5.97,0.25 11.44,4.64 11.44,9.37 0,3.66 -3.21,6.29 -7.46,6.46 l -0.28,-0.99 c 2.67,-0.09 5.19,-1.56 5.19,-4.87 0,-3.8 -3,-8.47 -8.64,-8.95 l 3.45,13.82 0.28,0.99 z"
           inkscape:connector-curvature="0"
           style="fill:#000000;stroke-width:0" /><path
           id="path1974"
           d="m 518.97,401.69 v 0.18 0.21 l -0.01,0.24 v 0.25 l -0.02,0.28 -0.01,0.3 -0.03,0.31 -0.03,0.33 -0.05,0.34 -0.05,0.35 -0.07,0.36 -0.07,0.37 -0.1,0.36 -0.11,0.37 -0.12,0.37 -0.14,0.36 -0.17,0.36 -0.18,0.35 -0.2,0.35 -0.23,0.33 -0.25,0.31 -0.27,0.3 -0.15,0.15 -0.15,0.14 -0.17,0.13 -0.16,0.13 -0.18,0.12 -0.18,0.12 -0.19,0.11 -0.2,0.1 -0.2,0.1 -0.22,0.09 -0.22,0.08 -0.23,0.08 -0.23,0.06 -0.25,0.06 -0.25,0.05 -0.27,0.05 -0.27,0.03 -0.28,0.02 -0.29,0.02 h -0.3 c -6.5,0 -6.5,-6.83 -6.5,-8.62 0,-1.81 0,-8.52 6.5,-8.52 V 394 c -0.92,0 -3.02,0.31 -3.64,2.83 -0.35,1.34 -0.38,3.12 -0.38,5.15 0,1.85 0,3.57 0.41,4.99 0.62,2.09 2.55,2.51 3.61,2.51 1.84,0 3.17,-0.93 3.65,-2.68 0.36,-1.27 0.36,-3.35 0.36,-4.82 0,-1.68 0,-3.7 -0.37,-5.2 -0.66,-2.42 -2.64,-2.78 -3.64,-2.78 v 0 -0.83 c 6.5,0 6.5,6.71 6.5,8.52 z"
           inkscape:connector-curvature="0"
           style="fill:#000000;stroke-width:0" /></g>    </g>
    <g
       transform="translate(189.94933,176.442)"
       id="g2428">
      <g
         style="font-style:normal;font-variant:normal;font-weight:normal;font-stretch:normal;letter-spacing:normal;word-spacing:normal;text-anchor:start;fill:none;fill-opacity:1;fill-rule:evenodd;stroke:#000000;stroke-linecap:butt;stroke-linejoin:miter;stroke-miterlimit:10.43299961;stroke-dasharray:none;stroke-dashoffset:0;stroke-opacity:1"
         id="g2426"
         transform="matrix(0.3,0,0,-0.3,-52.5,222.75)"
         xml:space="preserve"
         stroke-miterlimit="10.433"
         font-style="normal"
         font-variant="normal"
         font-weight="normal"
         font-stretch="normal"
         font-size-adjust="none"
         letter-spacing="normal"
         word-spacing="normal"><path
           style="fill:#000000;stroke-width:0"
           inkscape:connector-curvature="0"
           d="m 479.74,425.18 0.01,0.04 0.01,0.03 0.01,0.06 0.02,0.05 0.01,0.06 0.01,0.05 0.02,0.04 0.01,0.05 0.01,0.04 0.01,0.04 v 0.04 l 0.01,0.04 0.01,0.04 0.01,0.03 v 0.03 l 0.01,0.03 v 0.03 l 0.01,0.03 v 0.03 l 0.01,0.05 v 0.06 0.05 0.05 l 0.01,0.05 v 0.03 0.03 0.03 0.03 c 0,0.91 -0.69,1.35 -1.44,1.35 -0.5,0 -1.3,-0.3 -1.75,-1.05 -0.1,-0.25 -0.5,-1.78 -0.69,-2.69 -0.36,-1.29 -0.7,-2.64 -1,-3.98 l -2.25,-8.97 c -0.19,-0.75 -2.33,-4.23 -5.62,-4.23 -2.54,0 -3.1,2.18 -3.1,4.03 0,2.29 0.86,5.39 2.55,9.76 0.8,2.05 1,2.6 1,3.6 0,2.23 -1.59,4.07 -4.09,4.07 -4.74,0 -6.58,-7.21 -6.58,-7.67 0,-0.5 0.5,-0.5 0.61,-0.5 0.5,0 0.54,0.11 0.79,0.91 1.35,4.69 3.33,6.17 5.03,6.17 0.4,0 1.25,0 1.25,-1.59 0,-1.25 -0.5,-2.53 -0.85,-3.49 -1.99,-5.28 -2.9,-8.12 -2.9,-10.47 0,-4.42 3.15,-5.92 6.08,-5.92 1.96,0 3.64,0.85 5.03,2.24 -0.64,-2.58 -1.23,-5.03 -3.23,-7.68 -1.3,-1.68 -3.19,-3.14 -5.48,-3.14 -0.69,0 -2.94,0.16 -3.79,2.1 0.8,0 1.46,0 2.14,0.61 0.5,0.43 1,1.09 1,2.03 0,1.55 -1.34,1.75 -1.84,1.75 -1.14,0 -2.8,-0.8 -2.8,-3.24 0,-2.5 2.21,-4.34 5.29,-4.34 5.14,0 10.26,4.55 11.67,10.17 z"
           id="path2420" /><path
           style="fill:#000000;stroke-width:0"
           inkscape:connector-curvature="0"
           d="m 497.14,422.5 v 0.02 0.02 0.02 0.02 l -0.01,0.01 v 0.02 0.02 l -0.01,0.02 v 0.01 l -0.01,0.02 v 0.01 l -0.01,0.02 -0.01,0.01 v 0.01 l -0.01,0.02 -0.01,0.01 -0.01,0.01 v 0.01 l -0.01,0.01 -0.01,0.01 -0.02,0.02 -0.02,0.02 -0.02,0.01 -0.03,0.02 -0.02,0.01 -0.02,0.01 -0.03,0.01 -0.02,0.01 -0.02,0.01 -0.03,0.01 h -0.02 l -0.03,0.01 h -0.02 -0.03 -0.02 l -0.02,0.01 h -0.03 -0.02 -0.02 -0.02 -0.02 -0.01 c -0.52,0 -0.55,-0.19 -0.69,-0.77 l -1.98,-7.98 c -6.18,-0.28 -11.44,-4.7 -11.44,-9.38 0,-3.93 3.59,-6.31 7.45,-6.45 l 0.25,0.99 c -2.69,0.14 -5.16,1.59 -5.16,4.87 0,3.48 2.64,8.41 8.61,8.95 l -3.45,-13.82 -0.25,-0.99 c -0.28,-1.08 -0.51,-2.19 -0.8,-3.26 -0.42,-1.65 -0.73,-2.93 -0.73,-3.04 0,-0.42 0.45,-0.42 0.56,-0.42 0.52,0 0.56,0.11 0.74,0.85 l 1.45,5.84 c 5.97,0.25 11.44,4.64 11.44,9.37 0,3.66 -3.21,6.29 -7.46,6.46 l -0.28,-0.99 c 2.67,-0.09 5.19,-1.56 5.19,-4.87 0,-3.8 -3,-8.47 -8.64,-8.95 l 3.45,13.82 0.28,0.99 z"
           id="path2422" /><path
           style="fill:#000000;stroke-width:0"
           inkscape:connector-curvature="0"
           d="m 513.92,409.56 v 0.04 0.03 0.03 0.04 0.03 0.02 0.03 0.03 0.03 l -0.01,0.02 v 0.03 0.02 0.02 l -0.01,0.03 v 0.02 0.02 l -0.01,0.02 v 0.01 l -0.01,0.04 -0.01,0.03 -0.02,0.03 -0.01,0.03 -0.02,0.02 -0.02,0.02 -0.02,0.02 -0.02,0.02 -0.03,0.01 -0.03,0.01 -0.03,0.01 -0.04,0.01 -0.04,0.01 -0.04,0.01 h -0.02 -0.02 -0.03 l -0.02,0.01 h -0.03 -0.02 -0.03 -0.03 -0.03 -0.03 -0.03 -0.03 -0.03 -0.04 -0.03 -0.04 -0.04 -0.03 c -1.77,-1.59 -4.54,-1.59 -5.04,-1.59 h -0.42 v -1.1 h 0.42 c 0.58,0 2.19,0.07 3.64,0.69 v -12.45 c 0,-0.77 0,-1.05 -2.64,-1.05 h -1.25 v -1.09 c 1.38,0.09 3.6,0.09 5.04,0.09 1.45,0 3.67,0 5.03,-0.09 v 1.09 h -1.24 c -2.64,0 -2.64,0.28 -2.64,1.05 z"
           id="path2424" /></g>    </g>
    <g
       id="g2880"
       transform="translate(286.031,176.442)">
      <g
         word-spacing="normal"
         letter-spacing="normal"
         font-size-adjust="none"
         font-stretch="normal"
         font-weight="normal"
         font-variant="normal"
         font-style="normal"
         stroke-miterlimit="10.433"
         xml:space="preserve"
         transform="matrix(0.3,0,0,-0.3,-52.5,222.75)"
         id="g2878"
         style="font-style:normal;font-variant:normal;font-weight:normal;font-stretch:normal;letter-spacing:normal;word-spacing:normal;text-anchor:start;fill:none;fill-opacity:1;fill-rule:evenodd;stroke:#000000;stroke-linecap:butt;stroke-linejoin:miter;stroke-miterlimit:10.43299961;stroke-dasharray:none;stroke-dashoffset:0;stroke-opacity:1"><path
           id="path2872"
           d="m 479.74,425.18 0.01,0.04 0.01,0.03 0.01,0.06 0.02,0.05 0.01,0.06 0.01,0.05 0.02,0.04 0.01,0.05 0.01,0.04 0.01,0.04 v 0.04 l 0.01,0.04 0.01,0.04 0.01,0.03 v 0.03 l 0.01,0.03 v 0.03 l 0.01,0.03 v 0.03 l 0.01,0.05 v 0.06 0.05 0.05 l 0.01,0.05 v 0.03 0.03 0.03 0.03 c 0,0.91 -0.69,1.35 -1.44,1.35 -0.5,0 -1.3,-0.3 -1.75,-1.05 -0.1,-0.25 -0.5,-1.78 -0.69,-2.69 -0.36,-1.29 -0.7,-2.64 -1,-3.98 l -2.25,-8.97 c -0.19,-0.75 -2.33,-4.23 -5.62,-4.23 -2.54,0 -3.1,2.18 -3.1,4.03 0,2.29 0.86,5.39 2.55,9.76 0.8,2.05 1,2.6 1,3.6 0,2.23 -1.59,4.07 -4.09,4.07 -4.74,0 -6.58,-7.21 -6.58,-7.67 0,-0.5 0.5,-0.5 0.61,-0.5 0.5,0 0.54,0.11 0.79,0.91 1.35,4.69 3.33,6.17 5.03,6.17 0.4,0 1.25,0 1.25,-1.59 0,-1.25 -0.5,-2.53 -0.85,-3.49 -1.99,-5.28 -2.9,-8.12 -2.9,-10.47 0,-4.42 3.15,-5.92 6.08,-5.92 1.96,0 3.64,0.85 5.03,2.24 -0.64,-2.58 -1.23,-5.03 -3.23,-7.68 -1.3,-1.68 -3.19,-3.14 -5.48,-3.14 -0.69,0 -2.94,0.16 -3.79,2.1 0.8,0 1.46,0 2.14,0.61 0.5,0.43 1,1.09 1,2.03 0,1.55 -1.34,1.75 -1.84,1.75 -1.14,0 -2.8,-0.8 -2.8,-3.24 0,-2.5 2.21,-4.34 5.29,-4.34 5.14,0 10.26,4.55 11.67,10.17 z"
           inkscape:connector-curvature="0"
           style="fill:#000000;stroke-width:0" /><path
           id="path2874"
           d="m 497.14,422.5 v 0.02 0.02 0.02 0.02 l -0.01,0.01 v 0.02 0.02 l -0.01,0.02 v 0.01 l -0.01,0.02 v 0.01 l -0.01,0.02 -0.01,0.01 v 0.01 l -0.01,0.02 -0.01,0.01 -0.01,0.01 v 0.01 l -0.01,0.01 -0.01,0.01 -0.02,0.02 -0.02,0.02 -0.02,0.01 -0.03,0.02 -0.02,0.01 -0.02,0.01 -0.03,0.01 -0.02,0.01 -0.02,0.01 -0.03,0.01 h -0.02 l -0.03,0.01 h -0.02 -0.03 -0.02 l -0.02,0.01 h -0.03 -0.02 -0.02 -0.02 -0.02 -0.01 c -0.52,0 -0.55,-0.19 -0.69,-0.77 l -1.98,-7.98 c -6.18,-0.28 -11.44,-4.7 -11.44,-9.38 0,-3.93 3.59,-6.31 7.45,-6.45 l 0.25,0.99 c -2.69,0.14 -5.16,1.59 -5.16,4.87 0,3.48 2.64,8.41 8.61,8.95 l -3.45,-13.82 -0.25,-0.99 c -0.28,-1.08 -0.51,-2.19 -0.8,-3.26 -0.42,-1.65 -0.73,-2.93 -0.73,-3.04 0,-0.42 0.45,-0.42 0.56,-0.42 0.52,0 0.56,0.11 0.74,0.85 l 1.45,5.84 c 5.97,0.25 11.44,4.64 11.44,9.37 0,3.66 -3.21,6.29 -7.46,6.46 l -0.28,-0.99 c 2.67,-0.09 5.19,-1.56 5.19,-4.87 0,-3.8 -3,-8.47 -8.64,-8.95 l 3.45,13.82 0.28,0.99 z"
           inkscape:connector-curvature="0"
           style="fill:#000000;stroke-width:0" /><path
           id="path2876"
           d="m 518.67,398.53 h -1.05 c -0.07,-0.48 -0.32,-2.01 -0.71,-2.26 -0.21,-0.16 -2.3,-0.16 -2.68,-0.16 h -4.87 c 1.64,1.22 3.48,2.61 4.98,3.61 2.24,1.55 4.33,3 4.33,5.64 0,3.19 -3.01,4.95 -6.58,4.95 -3.36,0 -5.82,-1.95 -5.82,-4.39 0,-1.3 1.09,-1.51 1.45,-1.51 0.67,0 1.47,0.45 1.47,1.47 0,0.89 -0.66,1.39 -1.42,1.46 0.68,1.13 2.14,1.88 3.81,1.88 2.4,0 4.42,-1.45 4.42,-3.89 0,-2.1 -1.44,-3.69 -3.36,-5.31 l -6.08,-5.16 c -0.25,-0.22 -0.26,-0.22 -0.29,-0.39 v -0.75 h 11.57 z"
           inkscape:connector-curvature="0"
           style="fill:#000000;stroke-width:0" /></g>    </g>
    <g
       transform="translate(-42.920331,137.98716)"
       id="g3330">
      <g
         style="font-style:normal;font-variant:normal;font-weight:normal;font-stretch:normal;letter-spacing:normal;word-spacing:normal;text-anchor:start;fill:none;fill-opacity:1;fill-rule:evenodd;stroke:#000000;stroke-linecap:butt;stroke-linejoin:miter;stroke-miterlimit:10.43299961;stroke-dasharray:none;stroke-dashoffset:0;stroke-opacity:1"
         id="g3328"
         transform="matrix(0.3,0,0,-0.3,-52.5,222.75)"
         xml:space="preserve"
         stroke-miterlimit="10.433"
         font-style="normal"
         font-variant="normal"
         font-weight="normal"
         font-stretch="normal"
         font-size-adjust="none"
         letter-spacing="normal"
         word-spacing="normal"><path
           style="fill:#000000;stroke-width:0"
           inkscape:connector-curvature="0"
           d="m 496.88,438.34 v 0.11 l -0.01,0.1 -0.02,0.09 -0.01,0.1 -0.03,0.09 -0.03,0.08 -0.03,0.09 -0.04,0.08 -0.04,0.07 -0.05,0.08 -0.05,0.07 -0.06,0.07 -0.06,0.06 -0.06,0.06 -0.07,0.06 -0.07,0.05 -0.07,0.06 -0.08,0.05 -0.16,0.09 -0.17,0.08 -0.19,0.08 -0.19,0.06 -0.2,0.06 -0.21,0.04 -0.22,0.04 -0.21,0.04 -0.23,0.03 -0.22,0.02 -0.23,0.02 -0.22,0.01 -0.23,0.01 h -0.22 l -0.22,0.01 h -0.21 l -0.21,-0.01 h -0.2 -0.2 l -0.18,-0.01 h -0.18 -0.16 -0.15 -18.78 c -2.49,0 -6.92,-1.44 -7.72,-4.14 0.09,-0.3 0.2,-0.35 0.5,-0.35 1.09,0 2.59,0.89 3.28,1.64 1.55,0 3.05,0.11 4.59,0.11 h 3.08 c 0,0 -0.2,-0.9 -0.2,-0.95 -1.94,-9.11 -4.88,-16.84 -7.06,-21.72 -0.3,-0.66 -3,-6.87 -3.69,-7.47 -2.2,0 -3.85,1.19 -4.74,3.13 -0.15,0.31 -0.15,0.5 -0.5,0.5 -1.14,0 -3.89,-1.6 -3.89,-2.44 0,-0.09 0.05,-0.2 0.11,-0.3 0.89,-2.34 3.13,-3.68 5.58,-3.68 2.53,0 5.47,1.84 7.06,3.68 1.66,1.89 4.94,10.07 6.24,13.05 h 9.61 c -0.05,-0.05 -0.1,-0.09 -0.1,-0.14 0,-0.2 0.3,-0.36 0.5,-0.36 1.1,0 3.94,1.41 3.94,2.95 0,0.35 -0.34,0.3 -0.95,0.3 h -11.96 c 1.3,4.48 2.99,8.86 3.9,13.45 h 6.57 c 1.24,0 4.74,0.25 5.63,-0.86 0.09,-0.29 -0.05,-0.79 0.09,-1.04 0.11,-0.1 0.25,-0.14 0.41,-0.14 1.19,0 3.89,1.5 3.89,2.84 z"
           id="path3326" /></g>    </g>
    <g
       id="g3782"
       transform="translate(14.300004,137.98716)">
      <g
         word-spacing="normal"
         letter-spacing="normal"
         font-size-adjust="none"
         font-stretch="normal"
         font-weight="normal"
         font-variant="normal"
         font-style="normal"
         stroke-miterlimit="10.433"
         xml:space="preserve"
         transform="matrix(0.3,0,0,-0.3,-52.5,222.75)"
         id="g3780"
         style="font-style:normal;font-variant:normal;font-weight:normal;font-stretch:normal;letter-spacing:normal;word-spacing:normal;text-anchor:start;fill:none;fill-opacity:1;fill-rule:evenodd;stroke:#000000;stroke-linecap:butt;stroke-linejoin:miter;stroke-miterlimit:10.43299961;stroke-dasharray:none;stroke-dashoffset:0;stroke-opacity:1"><path
           id="path3778"
           d="m 496.88,438.34 v 0.11 l -0.01,0.1 -0.02,0.09 -0.01,0.1 -0.03,0.09 -0.03,0.08 -0.03,0.09 -0.04,0.08 -0.04,0.07 -0.05,0.08 -0.05,0.07 -0.06,0.07 -0.06,0.06 -0.06,0.06 -0.07,0.06 -0.07,0.05 -0.07,0.06 -0.08,0.05 -0.16,0.09 -0.17,0.08 -0.19,0.08 -0.19,0.06 -0.2,0.06 -0.21,0.04 -0.22,0.04 -0.21,0.04 -0.23,0.03 -0.22,0.02 -0.23,0.02 -0.22,0.01 -0.23,0.01 h -0.22 l -0.22,0.01 h -0.21 l -0.21,-0.01 h -0.2 -0.2 l -0.18,-0.01 h -0.18 -0.16 -0.15 -18.78 c -2.49,0 -6.92,-1.44 -7.72,-4.14 0.09,-0.3 0.2,-0.35 0.5,-0.35 1.09,0 2.59,0.89 3.28,1.64 1.55,0 3.05,0.11 4.59,0.11 h 3.08 c 0,0 -0.2,-0.9 -0.2,-0.95 -1.94,-9.11 -4.88,-16.84 -7.06,-21.72 -0.3,-0.66 -3,-6.87 -3.69,-7.47 -2.2,0 -3.85,1.19 -4.74,3.13 -0.15,0.31 -0.15,0.5 -0.5,0.5 -1.14,0 -3.89,-1.6 -3.89,-2.44 0,-0.09 0.05,-0.2 0.11,-0.3 0.89,-2.34 3.13,-3.68 5.58,-3.68 2.53,0 5.47,1.84 7.06,3.68 1.66,1.89 4.94,10.07 6.24,13.05 h 9.61 c -0.05,-0.05 -0.1,-0.09 -0.1,-0.14 0,-0.2 0.3,-0.36 0.5,-0.36 1.1,0 3.94,1.41 3.94,2.95 0,0.35 -0.34,0.3 -0.95,0.3 h -11.96 c 1.3,4.48 2.99,8.86 3.9,13.45 h 6.57 c 1.24,0 4.74,0.25 5.63,-0.86 0.09,-0.29 -0.05,-0.79 0.09,-1.04 0.11,-0.1 0.25,-0.14 0.41,-0.14 1.19,0 3.89,1.5 3.89,2.84 z"
           inkscape:connector-curvature="0"
           style="fill:#000000;stroke-width:0" /></g>    </g>
    <text
       xml:space="preserve"
       style="font-style:normal;font-weight:normal;font-size:10.58333302px;line-height:1.25;font-family:sans-serif;letter-spacing:0px;word-spacing:0px;fill:#000000;fill-opacity:1;stroke:none;stroke-width:0.26458332"
       x="207.54346"
       y="290.33731"
       id="text905"><tspan
         sodipodi:role="line"
         id="tspan903"
         x="207.54346"
         y="290.33731"
         style="font-style:italic;font-variant:normal;font-weight:normal;font-stretch:normal;font-size:13.75833321px;font-family:Times;-inkscape-font-specification:'Times Italic';stroke-width:0.26458332">Debiasing</tspan></text>
    <text
       xml:space="preserve"
       style="font-style:normal;font-weight:normal;font-size:10.58333302px;line-height:1.25;font-family:sans-serif;letter-spacing:0px;word-spacing:0px;fill:#000000;fill-opacity:1;stroke:none;stroke-width:0.26458332"
       x="303.75562"
       y="290.33731"
       id="text474"><tspan
         sodipodi:role="line"
         id="tspan472"
         x="303.75562"
         y="290.33731"
         style="font-style:italic;font-variant:normal;font-weight:normal;font-stretch:normal;font-size:13.75833321px;font-family:Times;-inkscape-font-specification:'Times Italic';stroke-width:0.26458332">Debiasing</tspan></text>
  </g>
</svg>
