<?xml version="1.0" encoding="UTF-8" standalone="no"?>
<!-- Created with Inkscape (http://www.inkscape.org/) -->

<svg
   xmlns:dc="http://purl.org/dc/elements/1.1/"
   xmlns:cc="http://creativecommons.org/ns#"
   xmlns:rdf="http://www.w3.org/1999/02/22-rdf-syntax-ns#"
   xmlns:svg="http://www.w3.org/2000/svg"
   xmlns="http://www.w3.org/2000/svg"
   xmlns:sodipodi="http://sodipodi.sourceforge.net/DTD/sodipodi-0.dtd"
   xmlns:inkscape="http://www.inkscape.org/namespaces/inkscape"
   width="210mm"
   height="297mm"
   viewBox="0 0 210 297"
   version="1.1"
   id="svg6291"
   inkscape:version="0.92.2 5c3e80d, 2017-08-06"
   sodipodi:docname="bi_level.svg">
  <sodipodi:namedview
     id="base"
     pagecolor="#ffffff"
     bordercolor="#666666"
     borderopacity="1.0"
     inkscape:pageopacity="0.0"
     inkscape:pageshadow="2"
     inkscape:zoom="0.7"
     inkscape:cx="328.31611"
     inkscape:cy="76.316221"
     inkscape:document-units="mm"
     inkscape:current-layer="layer1"
     showgrid="false"
     inkscape:window-width="1440"
     inkscape:window-height="775"
     inkscape:window-x="0"
     inkscape:window-y="1"
     inkscape:window-maximized="1" />
  <defs
     id="defs6285">
    <clipPath
       id="clipPath6643"
       clipPathUnits="userSpaceOnUse">
      <path
         style="clip-rule:evenodd"
         inkscape:connector-curvature="0"
         id="path6641"
         d="M 0,0 H 637.5 V 257.39438 H 0 Z" />
    </clipPath>
    <clipPath
       id="clipPath6655"
       clipPathUnits="userSpaceOnUse">
      <path
         style="clip-rule:evenodd"
         inkscape:connector-curvature="0"
         id="path6653"
         d="M 0,0 H 637.5 V 257.39438 H 0 Z" />
    </clipPath>
    <clipPath
       id="clipPath3498"
       clipPathUnits="userSpaceOnUse">
      <path
         style="clip-rule:evenodd"
         inkscape:connector-curvature="0"
         id="path3496"
         d="M 0,0 H 637.5 V 293.30988 H 0 Z" />
    </clipPath>
    <clipPath
       id="clipPath3510"
       clipPathUnits="userSpaceOnUse">
      <path
         style="clip-rule:evenodd"
         inkscape:connector-curvature="0"
         id="path3508"
         d="M 0,0 H 637.5 V 293.30988 H 0 Z" />
    </clipPath>
    <clipPath
       id="clipPath3874"
       clipPathUnits="userSpaceOnUse">
      <path
         style="clip-rule:evenodd"
         inkscape:connector-curvature="0"
         id="path3872"
         d="M 0,0 H 637.5 V 293.30988 H 0 Z" />
    </clipPath>
    <clipPath
       id="clipPath3886"
       clipPathUnits="userSpaceOnUse">
      <path
         style="clip-rule:evenodd"
         inkscape:connector-curvature="0"
         id="path3884"
         d="M 0,0 H 637.5 V 293.30988 H 0 Z" />
    </clipPath>
    <clipPath
       id="clipPath179"
       clipPathUnits="userSpaceOnUse">
      <path
         style="clip-rule:evenodd"
         inkscape:connector-curvature="0"
         id="path177"
         d="M 0,0 H 637.5 V 293.30988 H 0 Z" />
    </clipPath>
    <clipPath
       id="clipPath191"
       clipPathUnits="userSpaceOnUse">
      <path
         style="clip-rule:evenodd"
         inkscape:connector-curvature="0"
         id="path189"
         d="M 0,0 H 637.5 V 293.30988 H 0 Z" />
    </clipPath>
    <clipPath
       id="clipPath567"
       clipPathUnits="userSpaceOnUse">
      <path
         style="clip-rule:evenodd"
         inkscape:connector-curvature="0"
         id="path565"
         d="M 0,0 H 637.5 V 293.30988 H 0 Z" />
    </clipPath>
    <clipPath
       id="clipPath579"
       clipPathUnits="userSpaceOnUse">
      <path
         style="clip-rule:evenodd"
         inkscape:connector-curvature="0"
         id="path577"
         d="M 0,0 H 637.5 V 293.30988 H 0 Z" />
    </clipPath>
    <clipPath
       id="clipPath1140"
       clipPathUnits="userSpaceOnUse">
      <path
         style="clip-rule:evenodd"
         inkscape:connector-curvature="0"
         id="path1138"
         d="M 0,0 H 637.49994 V 294.91821 H 0 Z" />
    </clipPath>
    <clipPath
       id="clipPath1152"
       clipPathUnits="userSpaceOnUse">
      <path
         style="clip-rule:evenodd"
         inkscape:connector-curvature="0"
         id="path1150"
         d="M 0,0 H 637.49994 V 291.93924 H 0 Z" />
    </clipPath>
    <clipPath
       id="clipPath190"
       clipPathUnits="userSpaceOnUse">
      <path
         style="clip-rule:evenodd"
         inkscape:connector-curvature="0"
         id="path188"
         d="M 0,0 H 641.66669 V 236.87695 H 0 Z" />
    </clipPath>
    <clipPath
       id="clipPath202"
       clipPathUnits="userSpaceOnUse">
      <path
         style="clip-rule:evenodd"
         inkscape:connector-curvature="0"
         id="path200"
         d="M 0,0 H 641.66669 V 233.87851 H 0 Z" />
    </clipPath>
    <clipPath
       id="clipPath2411"
       clipPathUnits="userSpaceOnUse">
      <path
         style="clip-rule:evenodd"
         inkscape:connector-curvature="0"
         id="path2409"
         d="M 0,0 H 641.66669 V 236.87695 H 0 Z" />
    </clipPath>
    <clipPath
       id="clipPath2423"
       clipPathUnits="userSpaceOnUse">
      <path
         style="clip-rule:evenodd"
         inkscape:connector-curvature="0"
         id="path2421"
         d="M 0,0 H 641.66669 V 233.87851 H 0 Z" />
    </clipPath>
  </defs>
  <metadata
     id="metadata6288">
    <rdf:RDF>
      <cc:Work
         rdf:about="">
        <dc:format>image/svg+xml</dc:format>
        <dc:type
           rdf:resource="http://purl.org/dc/dcmitype/StillImage" />
        <dc:title />
      </cc:Work>
    </rdf:RDF>
  </metadata>
  <g
     inkscape:label="Layer 1"
     inkscape:groupmode="layer"
     id="layer1">
    <g
       transform="matrix(0.29454545,0,0,0.29454545,0,227.22897)"
       inkscape:label="bi_level (1)"
       id="g2403">
      <g
         id="g2405">
        <g
           clip-path="url(#clipPath2411)"
           id="g2407">
          <g
             transform="scale(2.9984424)"
             id="g2413">
            <path
               inkscape:connector-curvature="0"
               id="path2415"
               style="fill:#ffffff;fill-opacity:1;fill-rule:nonzero;stroke:none"
               d="M 0,0 H 214 V 79 H 0 Z" />
          </g>
        </g>
      </g>
      <g
         id="g2417">
        <g
           clip-path="url(#clipPath2423)"
           id="g2419">
          <g
             transform="matrix(2.9984424,0,0,2.9984424,1.4992212,1.4992212)"
             id="g2425">
            <path
               inkscape:connector-curvature="0"
               id="path2427"
               style="fill:#ffffff;fill-opacity:1;fill-rule:nonzero;stroke:none"
               d="M 1,1 H 211 V 77 H 1 Z" />
            <path
               inkscape:connector-curvature="0"
               id="path2429"
               style="fill:#ffffff;fill-opacity:1;fill-rule:nonzero;stroke:none"
               d="M 53,5 H 81 V 29 H 53 Z" />
            <path
               inkscape:connector-curvature="0"
               id="path2431"
               style="fill:none;stroke:#000000;stroke-width:1;stroke-linecap:butt;stroke-linejoin:miter;stroke-miterlimit:10;stroke-dasharray:none;stroke-opacity:1"
               d="M 53,5 H 81 V 29 H 53 Z" />
            <path
               inkscape:connector-curvature="0"
               id="path2433"
               style="fill:#ffffff;fill-opacity:1;fill-rule:nonzero;stroke:none"
               d="m 79,41 h 28 V 65 H 79 Z" />
            <path
               inkscape:connector-curvature="0"
               id="path2435"
               style="fill:none;stroke:#000000;stroke-width:1;stroke-linecap:butt;stroke-linejoin:miter;stroke-miterlimit:10;stroke-dasharray:none;stroke-opacity:1"
               d="m 79,41 h 28 V 65 H 79 Z" />
            <path
               inkscape:connector-curvature="0"
               id="path2437"
               style="fill:#ffffff;fill-opacity:1;fill-rule:nonzero;stroke:none"
               d="m 157,5 h 28 v 24 h -28 z" />
            <path
               inkscape:connector-curvature="0"
               id="path2439"
               style="fill:none;stroke:#000000;stroke-width:1;stroke-linecap:butt;stroke-linejoin:miter;stroke-miterlimit:10;stroke-dasharray:none;stroke-opacity:1"
               d="m 157,5 h 28 v 24 h -28 z" />
            <path
               inkscape:connector-curvature="0"
               id="path2441"
               style="fill:#ffffff;fill-opacity:1;fill-rule:nonzero;stroke:none"
               d="m 183,41 h 28 v 24 h -28 z" />
            <path
               inkscape:connector-curvature="0"
               id="path2443"
               style="fill:none;stroke:#000000;stroke-width:1;stroke-linecap:butt;stroke-linejoin:miter;stroke-miterlimit:10;stroke-dasharray:none;stroke-opacity:1"
               d="m 183,41 h 28 v 24 h -28 z" />
            <path
               inkscape:connector-curvature="0"
               id="path2445"
               style="fill:#ffffff;fill-opacity:1;fill-rule:nonzero;stroke:none"
               d="m 105,5 h 28 v 24 h -28 z" />
            <path
               inkscape:connector-curvature="0"
               id="path2447"
               style="fill:none;stroke:#000000;stroke-width:1;stroke-linecap:butt;stroke-linejoin:miter;stroke-miterlimit:10;stroke-dasharray:none;stroke-opacity:1"
               d="m 105,5 h 28 v 24 h -28 z" />
            <path
               inkscape:connector-curvature="0"
               id="path2449"
               style="fill:#ffffff;fill-opacity:1;fill-rule:nonzero;stroke:none"
               d="m 131,41 h 28 v 24 h -28 z" />
            <path
               inkscape:connector-curvature="0"
               id="path2451"
               style="fill:none;stroke:#000000;stroke-width:1;stroke-linecap:butt;stroke-linejoin:miter;stroke-miterlimit:10;stroke-dasharray:none;stroke-opacity:1"
               d="m 131,41 h 28 v 24 h -28 z" />
            <path
               inkscape:connector-curvature="0"
               id="path2453"
               style="fill:none;stroke:#000000;stroke-width:1;stroke-linecap:butt;stroke-linejoin:miter;stroke-miterlimit:10;stroke-dasharray:none;stroke-opacity:1"
               d="m 81,17 h 19.88" />
            <path
               inkscape:connector-curvature="0"
               id="path2455"
               style="fill:#000000;fill-opacity:1;fill-rule:nonzero;stroke:none"
               d="m 103.88,17 -3,1 v -2 z" />
            <path
               inkscape:connector-curvature="0"
               id="path2457"
               style="fill:none;stroke:#000000;stroke-width:1;stroke-linecap:butt;stroke-linejoin:miter;stroke-miterlimit:10;stroke-dasharray:none;stroke-opacity:1"
               d="m 103.88,17 -3,1 v -2 z" />
            <path
               inkscape:connector-curvature="0"
               id="path2459"
               style="fill:none;stroke:#000000;stroke-width:1;stroke-linecap:butt;stroke-linejoin:miter;stroke-miterlimit:10;stroke-dasharray:none;stroke-opacity:1"
               d="m 107,53 h 19.88" />
            <path
               inkscape:connector-curvature="0"
               id="path2461"
               style="fill:#000000;fill-opacity:1;fill-rule:nonzero;stroke:none"
               d="m 129.88,53 -3,1 v -2 z" />
            <path
               inkscape:connector-curvature="0"
               id="path2463"
               style="fill:none;stroke:#000000;stroke-width:1;stroke-linecap:butt;stroke-linejoin:miter;stroke-miterlimit:10;stroke-dasharray:none;stroke-opacity:1"
               d="m 129.88,53 -3,1 v -2 z" />
            <path
               inkscape:connector-curvature="0"
               id="path2465"
               style="fill:none;stroke:#000000;stroke-width:1;stroke-linecap:butt;stroke-linejoin:miter;stroke-miterlimit:10;stroke-dasharray:none;stroke-opacity:1"
               d="m 133,17 h 19.88" />
            <path
               inkscape:connector-curvature="0"
               id="path2467"
               style="fill:#000000;fill-opacity:1;fill-rule:nonzero;stroke:none"
               d="m 155.88,17 -3,1 v -2 z" />
            <path
               inkscape:connector-curvature="0"
               id="path2469"
               style="fill:none;stroke:#000000;stroke-width:1;stroke-linecap:butt;stroke-linejoin:miter;stroke-miterlimit:10;stroke-dasharray:none;stroke-opacity:1"
               d="m 155.88,17 -3,1 v -2 z" />
            <path
               inkscape:connector-curvature="0"
               id="path2471"
               style="fill:none;stroke:#000000;stroke-width:1;stroke-linecap:butt;stroke-linejoin:miter;stroke-miterlimit:10;stroke-dasharray:none;stroke-opacity:1"
               d="m 159,53 h 19.88" />
            <path
               inkscape:connector-curvature="0"
               id="path2473"
               style="fill:#000000;fill-opacity:1;fill-rule:nonzero;stroke:none"
               d="m 181.88,53 -3,1 v -2 z" />
            <path
               inkscape:connector-curvature="0"
               id="path2475"
               style="fill:none;stroke:#000000;stroke-width:1;stroke-linecap:butt;stroke-linejoin:miter;stroke-miterlimit:10;stroke-dasharray:none;stroke-opacity:1"
               d="m 181.88,53 -3,1 v -2 z" />
            <path
               inkscape:connector-curvature="0"
               id="path2477"
               style="fill:none;stroke:#000000;stroke-width:1;stroke-linecap:butt;stroke-linejoin:miter;stroke-miterlimit:10;stroke-dasharray:none;stroke-opacity:1"
               d="M 171,29 V 48.880001" />
            <path
               inkscape:connector-curvature="0"
               id="path2479"
               style="fill:#000000;fill-opacity:1;fill-rule:nonzero;stroke:none"
               d="m 171,51.880001 -1,-3 h 2 z" />
            <path
               inkscape:connector-curvature="0"
               id="path2481"
               style="fill:none;stroke:#000000;stroke-width:1;stroke-linecap:butt;stroke-linejoin:miter;stroke-miterlimit:10;stroke-dasharray:none;stroke-opacity:1"
               d="m 171,51.880001 -1,-3 h 2 z" />
            <path
               inkscape:connector-curvature="0"
               id="path2483"
               style="fill:none;stroke:#000000;stroke-width:1;stroke-linecap:butt;stroke-linejoin:miter;stroke-miterlimit:10;stroke-dasharray:none;stroke-opacity:1"
               d="M 119,29 V 48.880001" />
            <path
               inkscape:connector-curvature="0"
               id="path2485"
               style="fill:#000000;fill-opacity:1;fill-rule:nonzero;stroke:none"
               d="m 119,51.880001 -1,-3 h 2 z" />
            <path
               inkscape:connector-curvature="0"
               id="path2487"
               style="fill:none;stroke:#000000;stroke-width:1;stroke-linecap:butt;stroke-linejoin:miter;stroke-miterlimit:10;stroke-dasharray:none;stroke-opacity:1"
               d="m 119,51.880001 -1,-3 h 2 z" />
            <path
               inkscape:connector-curvature="0"
               id="path2489"
               style="fill:#000000;fill-opacity:1;fill-rule:nonzero;stroke:none"
               d="m 1,34.5 h 1 v 1 H 1 m 2,-1 h 1 v 1 H 3 m 2,-1 h 1 v 1 H 5 m 2,-1 h 1 v 1 H 7 m 2,-1 h 1 v 1 H 9 m 2,-1 h 1 v 1 h -1 m 2,-1 h 1 v 1 h -1 m 2,-1 h 1 v 1 h -1 m 2,-1 h 1 v 1 h -1 m 2,-1 h 1 v 1 h -1 m 2,-1 h 1 v 1 h -1 m 2,-1 h 1 v 1 h -1 m 2,-1 h 1 v 1 h -1 m 2,-1 h 1 v 1 h -1 m 2,-1 h 1 v 1 h -1 m 2,-1 h 1 v 1 h -1 m 2,-1 h 1 v 1 h -1 m 2,-1 h 1 v 1 h -1 m 2,-1 h 1 v 1 h -1 m 2,-1 h 1 v 1 h -1 m 2,-1 h 1 v 1 h -1 m 2,-1 h 1 v 1 h -1 m 2,-1 h 1 v 1 h -1 m 2,-1 h 1 v 1 h -1 m 2,-1 h 1 v 1 h -1 m 2,-1 h 1 v 1 h -1 m 2,-1 h 1 v 1 h -1 m 2,-1 h 1 v 1 h -1 m 2,-1 h 1 v 1 h -1 m 2,-1 h 1 v 1 h -1 m 2,-1 h 1 v 1 h -1 m 2,-1 h 1 v 1 h -1 m 2,-1 h 1 v 1 h -1 m 2,-1 h 1 v 1 h -1 m 2,-1 h 1 v 1 h -1 m 2,-1 h 1 v 1 h -1 m 2,-1 h 1 v 1 h -1 m 2,-1 h 1 v 1 h -1 m 2,-1 h 1 v 1 h -1 m 2,-1 h 1 v 1 h -1 m 2,-1 h 1 v 1 h -1 m 2,-1 h 1 v 1 h -1 m 2,-1 h 1 v 1 h -1 m 2,-1 h 1 v 1 h -1 m 2,-1 h 1 v 1 h -1 m 2,-1 h 1 v 1 h -1 m 2,-1 h 1 v 1 h -1 m 2,-1 h 1 v 1 h -1 m 2,-1 h 1 v 1 h -1 m 2,-1 h 1 v 1 h -1 m 2,-1 h 1 v 1 h -1 m 2,-1 h 1 v 1 h -1 m 2,-1 h 1 v 1 h -1 m 2,-1 h 1 v 1 h -1 m 2,-1 h 1 v 1 h -1 m 2,-1 h 1 v 1 h -1 m 2,-1 h 1 v 1 h -1 m 2,-1 h 1 v 1 h -1 m 2,-1 h 1 v 1 h -1 m 2,-1 h 1 v 1 h -1 m 2,-1 h 1 v 1 h -1 m 2,-1 h 1 v 1 h -1 m 2,-1 h 1 v 1 h -1 m 2,-1 h 1 v 1 h -1 m 2,-1 h 1 v 1 h -1 m 2,-1 h 1 v 1 h -1 m 2,-1 h 1 v 1 h -1 m 2,-1 h 1 v 1 h -1 m 2,-1 h 1 v 1 h -1 m 2,-1 h 1 v 1 h -1 m 2,-1 h 1 v 1 h -1 m 2,-1 h 1 v 1 h -1 m 2,-1 h 1 v 1 h -1 m 2,-1 h 1 v 1 h -1 m 2,-1 h 1 v 1 h -1 m 2,-1 h 1 v 1 h -1 m 2,-1 h 1 v 1 h -1 m 2,-1 h 1 v 1 h -1 m 2,-1 h 1 v 1 h -1 m 2,-1 h 1 v 1 h -1 m 2,-1 h 1 v 1 h -1 m 2,-1 h 1 v 1 h -1 m 2,-1 h 1 v 1 h -1 m 2,-1 h 1 v 1 h -1 m 2,-1 h 1 v 1 h -1 m 2,-1 h 1 v 1 h -1 m 2,-1 h 1 v 1 h -1 m 2,-1 h 1 v 1 h -1 m 2,-1 h 1 v 1 h -1 m 2,-1 h 1 v 1 h -1 m 2,-1 h 1 v 1 h -1 m 2,-1 h 1 v 1 h -1 m 2,-1 h 1 v 1 h -1 m 2,-1 h 1 v 1 h -1 m 2,-1 h 1 v 1 h -1 m 2,-1 h 1 v 1 h -1 m 2,-1 h 1 v 1 h -1 m 2,-1 h 1 v 1 h -1 m 2,-1 h 1 v 1 h -1 m 2,-1 h 1 v 1 h -1 m 2,-1 h 1 v 1 h -1 m 2,-1 h 1 v 1 h -1 m 2,-1 h 1 v 1 h -1 m 2,-1 h 1 v 1 h -1 m 2,-1 h 1 v 1 h -1" />
            <path
               inkscape:connector-curvature="0"
               id="path2491"
               style="fill:#000000;fill-opacity:1;fill-rule:nonzero;stroke:none"
               d="m 123.5,53 v 1 h -1 v -1 m 1,2 v 1 h -1 v -1 m 1,2 v 1 h -1 v -1 m 1,2 v 1 h -1 v -1 m 1,2 v 1 h -1 v -1 m 1,2 v 1 h -1 v -1 m 1,2 v 1 h -1 v -1 m 1,2 v 1 h -1 v -1 m 1,2 v 1 h -1 v -1" />
            <path
               inkscape:connector-curvature="0"
               id="path2493"
               style="fill:#000000;fill-opacity:1;fill-rule:nonzero;stroke:none"
               d="m 67,70.5 h 1 v 1 h -1 z m 2,0 h 1 v 1 h -1 z m 2,0 h 1 v 1 h -1 z m 2,0 h 1 v 1 h -1 z m 2,0 h 1 v 1 h -1 z m 2,0 h 1 v 1 h -1 z m 2,0 h 1 v 1 h -1 z m 2,0 h 1 v 1 h -1 z m 2,0 h 1 v 1 h -1 z m 2,0 h 1 v 1 h -1 z m 2,0 h 1 v 1 h -1 z m 2,0 h 1 v 1 h -1 z m 2,0 h 1 v 1 h -1 z m 2,0 h 1 v 1 h -1 z m 2,0 h 1 v 1 h -1 z m 2,0 h 1 v 1 h -1 z m 2,0 h 1 v 1 h -1 z m 2,0 h 1 v 1 h -1 z m 2,0 h 1 v 1 h -1 z m 2,0 h 1 v 1 h -1 z m 2,0 h 1 v 1 h -1 z m 2,0 h 1 v 1 h -1 z m 2,0 h 1 v 1 h -1 z m 2,0 h 1 v 1 h -1 z m 2,0 h 1 v 1 h -1 z m 2,0 h 1 v 1 h -1 z m 2,0 h 1 v 1 h -1 z m 2,0 h 1 v 1 h -1 z m 2,0 h 1 v 1 h -1 z m 2,0 h 1 v 1 h -1 z m 2,0 h 1 v 1 h -1 z m 2,0 h 1 v 1 h -1 z m 2,0 h 1 v 1 h -1 z m 2,0 h 1 v 1 h -1 z m 2,0 h 1 v 1 h -1 z m 2,0 h 1 v 1 h -1 z m 2,0 h 1 v 1 h -1 z m 2,0 h 1 v 1 h -1 z m 2,0 h 1 v 1 h -1 z m 2,0 h 1 v 1 h -1 z m 2,0 h 1 v 1 h -1 z m 2,0 h 1 v 1 h -1 z m 2,0 h 1 v 1 h -1 z m 2,0 h 1 v 1 h -1 z m 2,0 h 1 v 1 h -1 z m 2,0 h 1 v 1 h -1 z m 2,0 h 1 v 1 h -1 z m 2,0 h 1 v 1 h -1 z m 2,0 h 1 v 1 h -1 z m 2,0 h 1 v 1 h -1 z m 2,0 h 1 v 1 h -1 z m 2,0 h 1 v 1 h -1 z m 2,0 h 1 v 1 h -1 z m 2,0 h 1 v 1 h -1 z m 1.5,0.5 v -1 h 1 v 1 z m 0,-2 v -1 h 1 v 1 z m 0,-2 v -1 h 1 v 1 z m 0,-2 v -1 h 1 v 1 z m 0,-2 v -1 h 1 v 1 z m 0,-2 v -1 h 1 v 1 z m 0,-2 v -1 h 1 v 1 z m 0,-2 v -1 h 1 v 1 z m 0,-2 v -1 h 1 v 1 z" />
            <path
               inkscape:connector-curvature="0"
               id="path2495"
               style="fill:none;stroke:#000000;stroke-width:1;stroke-linecap:butt;stroke-linejoin:miter;stroke-miterlimit:10;stroke-dasharray:none;stroke-opacity:1"
               d="M 93,41 V 21.120001" />
            <path
               inkscape:connector-curvature="0"
               id="path2497"
               style="fill:#000000;fill-opacity:1;fill-rule:nonzero;stroke:none"
               d="m 93,18.120001 1,3 h -2 z" />
            <path
               inkscape:connector-curvature="0"
               id="path2499"
               style="fill:none;stroke:#000000;stroke-width:1;stroke-linecap:butt;stroke-linejoin:miter;stroke-miterlimit:10;stroke-dasharray:none;stroke-opacity:1"
               d="m 93,18.120001 1,3 h -2 z" />
            <path
               inkscape:connector-curvature="0"
               id="path2501"
               style="fill:none;stroke:#000000;stroke-width:1;stroke-linecap:butt;stroke-linejoin:miter;stroke-miterlimit:10;stroke-dasharray:none;stroke-opacity:1"
               d="M 145,41 V 21.120001" />
            <path
               inkscape:connector-curvature="0"
               id="path2503"
               style="fill:#000000;fill-opacity:1;fill-rule:nonzero;stroke:none"
               d="m 145,18.120001 1,3 h -2 z" />
            <path
               inkscape:connector-curvature="0"
               id="path2505"
               style="fill:none;stroke:#000000;stroke-width:1;stroke-linecap:butt;stroke-linejoin:miter;stroke-miterlimit:10;stroke-dasharray:none;stroke-opacity:1"
               d="m 145,18.120001 1,3 h -2 z" />
          </g>
        </g>
      </g>
    </g>
    <text
       xml:space="preserve"
       style="font-style:normal;font-weight:normal;font-size:10.58333302px;line-height:1.25;font-family:sans-serif;letter-spacing:0px;word-spacing:0px;fill:#000000;fill-opacity:1;stroke:none;stroke-width:0.26458332"
       x="31.348473"
       y="273.24951"
       id="text1296"><tspan
         sodipodi:role="line"
         x="31.348473"
         y="273.24951"
         style="font-style:normal;font-variant:normal;font-weight:bold;font-stretch:normal;font-size:13.75833321px;font-family:Times;-inkscape-font-specification:'Times Bold';stroke-width:0.26458332"
         id="tspan1298">Inner</tspan></text>
    <text
       xml:space="preserve"
       style="font-style:normal;font-weight:normal;font-size:10.58333302px;line-height:1.25;font-family:sans-serif;letter-spacing:0px;word-spacing:0px;fill:#000000;fill-opacity:1;stroke:none;stroke-width:0.26458332"
       x="6.4357829"
       y="241.89281"
       id="text1302"><tspan
         sodipodi:role="line"
         x="6.4357829"
         y="241.89281"
         style="font-style:normal;font-variant:normal;font-weight:bold;font-stretch:normal;font-size:13.75833321px;font-family:Times;-inkscape-font-specification:'Times Bold';stroke-width:0.26458332"
         id="tspan1304">Outer</tspan></text>
    <g
       transform="translate(-33.256,143.11383)"
       id="g1199">
      <g
         style="font-style:normal;font-variant:normal;font-weight:normal;font-stretch:normal;letter-spacing:normal;word-spacing:normal;text-anchor:start;fill:none;fill-opacity:1;fill-rule:evenodd;stroke:#000000;stroke-linecap:butt;stroke-linejoin:miter;stroke-miterlimit:10.43299961;stroke-dasharray:none;stroke-dashoffset:0;stroke-opacity:1"
         id="g1197"
         transform="matrix(0.3,0,0,-0.3,-52.5,222.75)"
         xml:space="preserve"
         stroke-miterlimit="10.433"
         font-style="normal"
         font-variant="normal"
         font-weight="normal"
         font-stretch="normal"
         font-size-adjust="none"
         letter-spacing="normal"
         word-spacing="normal"><path
           style="fill:#000000;stroke-width:0"
           inkscape:connector-curvature="0"
           d="m 478.04,427.67 -0.01,0.02 v 0.02 0.02 0.02 l -0.01,0.02 v 0.02 l -0.01,0.02 v 0.02 l -0.01,0.02 -0.01,0.02 -0.01,0.02 -0.01,0.03 -0.01,0.02 -0.01,0.02 -0.02,0.02 -0.01,0.01 -0.02,0.02 -0.01,0.02 -0.02,0.02 -0.02,0.01 -0.02,0.02 -0.02,0.01 -0.02,0.02 -0.03,0.01 -0.02,0.01 -0.03,0.01 -0.02,0.01 h -0.03 l -0.03,0.01 h -0.03 l -0.03,0.01 h -0.02 -0.01 c -0.55,0 -2.54,-1.99 -3.38,-3.44 -1.11,2.69 -3.05,3.48 -4.64,3.48 v -1.09 c 3.23,0 3.94,-4.03 3.94,-4.37 0,-0.32 -2.74,-11.22 -2.89,-11.43 -0.75,-1.39 -3.53,-4.57 -6.33,-4.57 v 0 c -2.99,0 -3.19,3.84 -3.19,4.68 0,2.39 1.44,7.82 2.3,9.91 1.53,3.69 4.12,5.78 6.17,5.78 v 1.09 c -5.88,0 -12,-7.37 -12,-14.59 0,-4.87 2.94,-7.97 6.56,-7.97 2.16,0 4.1,1.19 5.89,2.99 -0.45,-1.74 -2.09,-8.47 -2.25,-8.93 -0.39,-1.39 -0.79,-1.59 -3.58,-1.64 -0.65,0 -1.15,0 -1.15,-1 0,-0.04 0,-0.54 0.65,-0.54 1.6,0 3.33,0.15 4.99,0.15 1.69,0 3.48,-0.15 5.12,-0.15 0.25,0 0.89,0 0.89,1 0,0.54 -0.48,0.54 -1.28,0.54 -2.4,0 -2.4,0.36 -2.4,0.8 0,0.36 0.11,0.66 0.2,1.09 z"
           id="path1191" /><path
           style="fill:#000000;stroke-width:0"
           inkscape:connector-curvature="0"
           d="m 495.53,415.73 v 0.34 l -0.02,0.35 -0.02,0.34 -0.03,0.34 -0.03,0.35 -0.05,0.34 -0.06,0.33 -0.06,0.33 -0.08,0.33 -0.08,0.32 -0.09,0.32 -0.1,0.31 -0.11,0.3 -0.13,0.29 -0.13,0.29 -0.14,0.27 -0.15,0.27 -0.16,0.25 -0.17,0.24 -0.18,0.22 -0.19,0.22 -0.21,0.2 -0.21,0.18 -0.22,0.17 -0.24,0.15 -0.24,0.13 -0.26,0.11 -0.27,0.1 -0.28,0.07 -0.29,0.06 -0.3,0.03 -0.31,0.01 -0.03,-0.97 c 2.22,0 2.22,-3.87 2.22,-4.53 0,-1.36 -0.29,-3.39 -1,-6.31 h -8.07 c 1.78,7.53 4.78,10.84 6.85,10.84 l 0.03,0.97 c -5.24,0 -10.81,-9.34 -10.81,-17.31 0,-4.16 1.61,-7.56 4.81,-7.56 l 0.03,0.97 c -1.91,0 -2.22,2.65 -2.22,4.53 0,2.29 0.66,5.01 1,6.31 h 8.06 c -0.98,-3.8 -1.78,-5.69 -2.82,-7.39 -1.08,-1.81 -2.47,-3.45 -4.02,-3.45 l -0.03,-0.97 c 5.3,0 10.81,9.51 10.81,17.31 z"
           id="path1193" /><path
           style="fill:#000000;stroke-width:0"
           inkscape:connector-curvature="0"
           d="m 511.65,401.69 v 0.18 0.21 l -0.01,0.24 v 0.25 l -0.02,0.28 -0.01,0.3 -0.03,0.31 -0.03,0.33 -0.05,0.34 -0.05,0.35 -0.07,0.36 -0.07,0.37 -0.1,0.36 -0.11,0.37 -0.12,0.37 -0.14,0.36 -0.17,0.36 -0.18,0.35 -0.2,0.35 -0.23,0.33 -0.25,0.31 -0.27,0.3 -0.15,0.15 -0.16,0.14 -0.16,0.13 -0.16,0.13 -0.18,0.12 -0.18,0.12 -0.19,0.11 -0.2,0.1 -0.2,0.1 -0.22,0.09 -0.22,0.08 -0.23,0.08 -0.23,0.06 -0.25,0.06 -0.25,0.05 -0.27,0.05 -0.27,0.03 -0.28,0.02 -0.29,0.02 h -0.3 c -6.5,0 -6.5,-6.83 -6.5,-8.62 0,-1.81 0,-8.52 6.5,-8.52 V 394 c -0.92,0 -3.02,0.31 -3.64,2.83 -0.35,1.34 -0.38,3.12 -0.38,5.15 0,1.85 0,3.57 0.41,4.99 0.62,2.09 2.55,2.51 3.61,2.51 1.84,0 3.17,-0.93 3.65,-2.68 0.36,-1.27 0.36,-3.35 0.36,-4.82 0,-1.68 0,-3.7 -0.37,-5.2 -0.66,-2.42 -2.64,-2.78 -3.64,-2.78 v 0 -0.83 c 6.5,0 6.5,6.71 6.5,8.52 z"
           id="path1195" /></g>    </g>
    <g
       id="g1417"
       transform="translate(12.764,143.19633)">
      <g
         word-spacing="normal"
         letter-spacing="normal"
         font-size-adjust="none"
         font-stretch="normal"
         font-weight="normal"
         font-variant="normal"
         font-style="normal"
         stroke-miterlimit="10.433"
         xml:space="preserve"
         transform="matrix(0.3,0,0,-0.3,-52.5,222.75)"
         id="g1415"
         style="font-style:normal;font-variant:normal;font-weight:normal;font-stretch:normal;letter-spacing:normal;word-spacing:normal;text-anchor:start;fill:none;fill-opacity:1;fill-rule:evenodd;stroke:#000000;stroke-linecap:butt;stroke-linejoin:miter;stroke-miterlimit:10.43299961;stroke-dasharray:none;stroke-dashoffset:0;stroke-opacity:1"><path
           id="path1409"
           d="m 478.04,427.67 -0.01,0.02 v 0.02 0.02 0.02 l -0.01,0.02 v 0.02 l -0.01,0.02 v 0.02 l -0.01,0.02 -0.01,0.02 -0.01,0.02 -0.01,0.03 -0.01,0.02 -0.01,0.02 -0.02,0.02 -0.01,0.01 -0.02,0.02 -0.01,0.02 -0.02,0.02 -0.02,0.01 -0.02,0.02 -0.02,0.01 -0.02,0.02 -0.03,0.01 -0.02,0.01 -0.03,0.01 -0.02,0.01 h -0.03 l -0.03,0.01 h -0.03 l -0.03,0.01 h -0.02 -0.01 c -0.55,0 -2.54,-1.99 -3.38,-3.44 -1.11,2.69 -3.05,3.48 -4.64,3.48 v -1.09 c 3.23,0 3.94,-4.03 3.94,-4.37 0,-0.32 -2.74,-11.22 -2.89,-11.43 -0.75,-1.39 -3.53,-4.57 -6.33,-4.57 v 0 c -2.99,0 -3.19,3.84 -3.19,4.68 0,2.39 1.44,7.82 2.3,9.91 1.53,3.69 4.12,5.78 6.17,5.78 v 1.09 c -5.88,0 -12,-7.37 -12,-14.59 0,-4.87 2.94,-7.97 6.56,-7.97 2.16,0 4.1,1.19 5.89,2.99 -0.45,-1.74 -2.09,-8.47 -2.25,-8.93 -0.39,-1.39 -0.79,-1.59 -3.58,-1.64 -0.65,0 -1.15,0 -1.15,-1 0,-0.04 0,-0.54 0.65,-0.54 1.6,0 3.33,0.15 4.99,0.15 1.69,0 3.48,-0.15 5.12,-0.15 0.25,0 0.89,0 0.89,1 0,0.54 -0.48,0.54 -1.28,0.54 -2.4,0 -2.4,0.36 -2.4,0.8 0,0.36 0.11,0.66 0.2,1.09 z"
           inkscape:connector-curvature="0"
           style="fill:#000000;stroke-width:0" /><path
           id="path1411"
           d="m 495.53,415.73 v 0.34 l -0.02,0.35 -0.02,0.34 -0.03,0.34 -0.03,0.35 -0.05,0.34 -0.06,0.33 -0.06,0.33 -0.08,0.33 -0.08,0.32 -0.09,0.32 -0.1,0.31 -0.11,0.3 -0.13,0.29 -0.13,0.29 -0.14,0.27 -0.15,0.27 -0.16,0.25 -0.17,0.24 -0.18,0.22 -0.19,0.22 -0.21,0.2 -0.21,0.18 -0.22,0.17 -0.24,0.15 -0.24,0.13 -0.26,0.11 -0.27,0.1 -0.28,0.07 -0.29,0.06 -0.3,0.03 -0.31,0.01 -0.03,-0.97 c 2.22,0 2.22,-3.87 2.22,-4.53 0,-1.36 -0.29,-3.39 -1,-6.31 h -8.07 c 1.78,7.53 4.78,10.84 6.85,10.84 l 0.03,0.97 c -5.24,0 -10.81,-9.34 -10.81,-17.31 0,-4.16 1.61,-7.56 4.81,-7.56 l 0.03,0.97 c -1.91,0 -2.22,2.65 -2.22,4.53 0,2.29 0.66,5.01 1,6.31 h 8.06 c -0.98,-3.8 -1.78,-5.69 -2.82,-7.39 -1.08,-1.81 -2.47,-3.45 -4.02,-3.45 l -0.03,-0.97 c 5.3,0 10.81,9.51 10.81,17.31 z"
           inkscape:connector-curvature="0"
           style="fill:#000000;stroke-width:0" /><path
           id="path1413"
           d="m 506.6,409.56 v 0.04 0.03 0.03 0.04 0.03 0.02 0.03 0.03 0.03 l -0.01,0.02 v 0.03 0.02 0.02 l -0.01,0.03 v 0.02 0.02 l -0.01,0.02 v 0.01 l -0.01,0.04 -0.01,0.03 -0.02,0.03 -0.01,0.03 -0.02,0.02 -0.02,0.02 -0.02,0.02 -0.03,0.02 -0.02,0.01 -0.03,0.01 -0.03,0.01 -0.04,0.01 -0.04,0.01 -0.04,0.01 h -0.02 -0.02 -0.03 l -0.02,0.01 h -0.03 -0.02 -0.03 -0.03 -0.03 -0.03 -0.03 -0.03 -0.03 -0.04 -0.03 -0.04 -0.04 -0.03 c -1.77,-1.59 -4.54,-1.59 -5.04,-1.59 h -0.42 v -1.1 h 0.42 c 0.58,0 2.19,0.07 3.64,0.69 v -12.45 c 0,-0.77 0,-1.05 -2.64,-1.05 h -1.25 v -1.09 c 1.38,0.09 3.6,0.09 5.04,0.09 1.45,0 3.67,0 5.03,-0.09 v 1.09 h -1.24 c -2.64,0 -2.64,0.28 -2.64,1.05 z"
           inkscape:connector-curvature="0"
           style="fill:#000000;stroke-width:0" /></g>    </g>
    <g
       transform="translate(58.511,143.19633)"
       id="g1645">
      <g
         style="font-style:normal;font-variant:normal;font-weight:normal;font-stretch:normal;letter-spacing:normal;word-spacing:normal;text-anchor:start;fill:none;fill-opacity:1;fill-rule:evenodd;stroke:#000000;stroke-linecap:butt;stroke-linejoin:miter;stroke-miterlimit:10.43299961;stroke-dasharray:none;stroke-dashoffset:0;stroke-opacity:1"
         id="g1643"
         transform="matrix(0.3,0,0,-0.3,-52.5,222.75)"
         xml:space="preserve"
         stroke-miterlimit="10.433"
         font-style="normal"
         font-variant="normal"
         font-weight="normal"
         font-stretch="normal"
         font-size-adjust="none"
         letter-spacing="normal"
         word-spacing="normal"><path
           style="fill:#000000;stroke-width:0"
           inkscape:connector-curvature="0"
           d="m 478.04,427.67 -0.01,0.02 v 0.02 0.02 0.02 l -0.01,0.02 v 0.02 l -0.01,0.02 v 0.02 l -0.01,0.02 -0.01,0.02 -0.01,0.02 -0.01,0.03 -0.01,0.02 -0.01,0.02 -0.02,0.02 -0.01,0.01 -0.02,0.02 -0.01,0.02 -0.02,0.02 -0.02,0.01 -0.02,0.02 -0.02,0.01 -0.02,0.02 -0.03,0.01 -0.02,0.01 -0.03,0.01 -0.02,0.01 h -0.03 l -0.03,0.01 h -0.03 l -0.03,0.01 h -0.02 -0.01 c -0.55,0 -2.54,-1.99 -3.38,-3.44 -1.11,2.69 -3.05,3.48 -4.64,3.48 v -1.09 c 3.23,0 3.94,-4.03 3.94,-4.37 0,-0.32 -2.74,-11.22 -2.89,-11.43 -0.75,-1.39 -3.53,-4.57 -6.33,-4.57 v 0 c -2.99,0 -3.19,3.84 -3.19,4.68 0,2.39 1.44,7.82 2.3,9.91 1.53,3.69 4.12,5.78 6.17,5.78 v 1.09 c -5.88,0 -12,-7.37 -12,-14.59 0,-4.87 2.94,-7.97 6.56,-7.97 2.16,0 4.1,1.19 5.89,2.99 -0.45,-1.74 -2.09,-8.47 -2.25,-8.93 -0.39,-1.39 -0.79,-1.59 -3.58,-1.64 -0.65,0 -1.15,0 -1.15,-1 0,-0.04 0,-0.54 0.65,-0.54 1.6,0 3.33,0.15 4.99,0.15 1.69,0 3.48,-0.15 5.12,-0.15 0.25,0 0.89,0 0.89,1 0,0.54 -0.48,0.54 -1.28,0.54 -2.4,0 -2.4,0.36 -2.4,0.8 0,0.36 0.11,0.66 0.2,1.09 z"
           id="path1637" /><path
           style="fill:#000000;stroke-width:0"
           inkscape:connector-curvature="0"
           d="m 495.53,415.73 v 0.34 l -0.02,0.35 -0.02,0.34 -0.03,0.34 -0.03,0.35 -0.05,0.34 -0.06,0.33 -0.06,0.33 -0.08,0.33 -0.08,0.32 -0.09,0.32 -0.1,0.31 -0.11,0.3 -0.13,0.29 -0.13,0.29 -0.14,0.27 -0.15,0.27 -0.16,0.25 -0.17,0.24 -0.18,0.22 -0.19,0.22 -0.21,0.2 -0.21,0.18 -0.22,0.17 -0.24,0.15 -0.24,0.13 -0.26,0.11 -0.27,0.1 -0.28,0.07 -0.29,0.06 -0.3,0.03 -0.31,0.01 -0.03,-0.97 c 2.22,0 2.22,-3.87 2.22,-4.53 0,-1.36 -0.29,-3.39 -1,-6.31 h -8.07 c 1.78,7.53 4.78,10.84 6.85,10.84 l 0.03,0.97 c -5.24,0 -10.81,-9.34 -10.81,-17.31 0,-4.16 1.61,-7.56 4.81,-7.56 l 0.03,0.97 c -1.91,0 -2.22,2.65 -2.22,4.53 0,2.29 0.66,5.01 1,6.31 h 8.06 c -0.98,-3.8 -1.78,-5.69 -2.82,-7.39 -1.08,-1.81 -2.47,-3.45 -4.02,-3.45 l -0.03,-0.97 c 5.3,0 10.81,9.51 10.81,17.31 z"
           id="path1639" /><path
           style="fill:#000000;stroke-width:0"
           inkscape:connector-curvature="0"
           d="m 511.35,398.53 h -1.05 c -0.07,-0.48 -0.32,-2.01 -0.71,-2.26 -0.21,-0.16 -2.3,-0.16 -2.68,-0.16 h -4.87 c 1.64,1.22 3.48,2.61 4.98,3.61 2.24,1.55 4.33,3 4.33,5.64 0,3.19 -3.01,4.95 -6.58,4.95 -3.36,0 -5.82,-1.95 -5.82,-4.39 0,-1.3 1.09,-1.51 1.45,-1.51 0.67,0 1.47,0.45 1.47,1.47 0,0.89 -0.66,1.39 -1.42,1.46 0.68,1.13 2.14,1.88 3.81,1.88 2.4,0 4.42,-1.45 4.42,-3.89 0,-2.1 -1.44,-3.69 -3.36,-5.31 l -6.08,-5.16 c -0.25,-0.22 -0.26,-0.22 -0.29,-0.39 v -0.75 h 11.57 z"
           id="path1641" /></g>    </g>
    <g
       id="g1883"
       transform="translate(-11.388,174.59183)">
      <g
         word-spacing="normal"
         letter-spacing="normal"
         font-size-adjust="none"
         font-stretch="normal"
         font-weight="normal"
         font-variant="normal"
         font-style="normal"
         stroke-miterlimit="10.433"
         xml:space="preserve"
         transform="matrix(0.3,0,0,-0.3,-52.5,222.75)"
         id="g1881"
         style="font-style:normal;font-variant:normal;font-weight:normal;font-stretch:normal;letter-spacing:normal;word-spacing:normal;text-anchor:start;fill:none;fill-opacity:1;fill-rule:evenodd;stroke:#000000;stroke-linecap:butt;stroke-linejoin:miter;stroke-miterlimit:10.43299961;stroke-dasharray:none;stroke-dashoffset:0;stroke-opacity:1"><path
           id="path1875"
           d="m 479.74,425.18 0.01,0.04 0.01,0.03 0.01,0.06 0.02,0.05 0.01,0.06 0.01,0.05 0.02,0.04 0.01,0.05 0.01,0.04 0.01,0.04 v 0.04 l 0.01,0.04 0.01,0.04 0.01,0.03 v 0.03 l 0.01,0.03 v 0.03 l 0.01,0.03 v 0.03 l 0.01,0.05 v 0.06 0.05 0.05 l 0.01,0.05 v 0.03 0.03 0.03 0.03 c 0,0.91 -0.69,1.35 -1.44,1.35 -0.5,0 -1.3,-0.3 -1.75,-1.05 -0.1,-0.25 -0.5,-1.78 -0.69,-2.69 -0.36,-1.29 -0.7,-2.64 -1,-3.98 l -2.25,-8.97 c -0.19,-0.75 -2.33,-4.23 -5.62,-4.23 -2.54,0 -3.1,2.18 -3.1,4.03 0,2.29 0.86,5.39 2.55,9.76 0.8,2.05 1,2.6 1,3.6 0,2.23 -1.59,4.07 -4.09,4.07 -4.74,0 -6.58,-7.21 -6.58,-7.67 0,-0.5 0.5,-0.5 0.61,-0.5 0.5,0 0.54,0.11 0.79,0.91 1.35,4.69 3.33,6.17 5.03,6.17 0.4,0 1.25,0 1.25,-1.59 0,-1.25 -0.5,-2.53 -0.85,-3.49 -1.99,-5.28 -2.9,-8.12 -2.9,-10.47 0,-4.42 3.15,-5.92 6.08,-5.92 1.96,0 3.64,0.85 5.03,2.24 -0.64,-2.58 -1.23,-5.03 -3.23,-7.68 -1.3,-1.68 -3.19,-3.14 -5.48,-3.14 -0.69,0 -2.94,0.16 -3.79,2.1 0.8,0 1.46,0 2.14,0.61 0.5,0.43 1,1.09 1,2.03 0,1.55 -1.34,1.75 -1.84,1.75 -1.14,0 -2.8,-0.8 -2.8,-3.24 0,-2.5 2.21,-4.34 5.29,-4.34 5.14,0 10.26,4.55 11.67,10.17 z"
           inkscape:connector-curvature="0"
           style="fill:#000000;stroke-width:0" /><path
           id="path1877"
           d="m 497.14,422.5 v 0.02 0.02 0.02 0.02 l -0.01,0.01 v 0.02 0.02 l -0.01,0.02 v 0.01 l -0.01,0.02 v 0.01 l -0.01,0.02 -0.01,0.01 v 0.01 l -0.01,0.02 -0.01,0.01 -0.01,0.01 v 0.01 l -0.01,0.01 -0.01,0.01 -0.02,0.02 -0.02,0.02 -0.02,0.01 -0.03,0.02 -0.02,0.01 -0.02,0.01 -0.03,0.01 -0.02,0.01 -0.02,0.01 -0.03,0.01 h -0.02 l -0.03,0.01 h -0.02 -0.03 -0.02 l -0.02,0.01 h -0.03 -0.02 -0.02 -0.02 -0.02 -0.01 c -0.52,0 -0.55,-0.19 -0.69,-0.77 l -1.98,-7.98 c -6.18,-0.28 -11.44,-4.7 -11.44,-9.38 0,-3.93 3.59,-6.31 7.45,-6.45 l 0.25,0.99 c -2.69,0.14 -5.16,1.59 -5.16,4.87 0,3.48 2.64,8.41 8.61,8.95 l -3.45,-13.82 -0.25,-0.99 c -0.28,-1.08 -0.51,-2.19 -0.8,-3.26 -0.42,-1.65 -0.73,-2.93 -0.73,-3.04 0,-0.42 0.45,-0.42 0.56,-0.42 0.52,0 0.56,0.11 0.74,0.85 l 1.45,5.84 c 5.97,0.25 11.44,4.64 11.44,9.37 0,3.66 -3.21,6.29 -7.46,6.46 l -0.28,-0.99 c 2.67,-0.09 5.19,-1.56 5.19,-4.87 0,-3.8 -3,-8.47 -8.64,-8.95 l 3.45,13.82 0.28,0.99 z"
           inkscape:connector-curvature="0"
           style="fill:#000000;stroke-width:0" /><path
           id="path1879"
           d="m 518.97,401.69 v 0.18 0.21 l -0.01,0.24 v 0.25 l -0.02,0.28 -0.01,0.3 -0.03,0.31 -0.03,0.33 -0.05,0.34 -0.05,0.35 -0.07,0.36 -0.07,0.37 -0.1,0.36 -0.11,0.37 -0.12,0.37 -0.14,0.36 -0.17,0.36 -0.18,0.35 -0.2,0.35 -0.23,0.33 -0.25,0.31 -0.27,0.3 -0.15,0.15 -0.15,0.14 -0.17,0.13 -0.16,0.13 -0.18,0.12 -0.18,0.12 -0.19,0.11 -0.2,0.1 -0.2,0.1 -0.22,0.09 -0.22,0.08 -0.23,0.08 -0.23,0.06 -0.25,0.06 -0.25,0.05 -0.27,0.05 -0.27,0.03 -0.28,0.02 -0.29,0.02 h -0.3 c -6.5,0 -6.5,-6.83 -6.5,-8.62 0,-1.81 0,-8.52 6.5,-8.52 V 394 c -0.92,0 -3.02,0.31 -3.64,2.83 -0.35,1.34 -0.38,3.12 -0.38,5.15 0,1.85 0,3.57 0.41,4.99 0.62,2.09 2.55,2.51 3.61,2.51 1.84,0 3.17,-0.93 3.65,-2.68 0.36,-1.27 0.36,-3.35 0.36,-4.82 0,-1.68 0,-3.7 -0.37,-5.2 -0.66,-2.42 -2.64,-2.78 -3.64,-2.78 v 0 -0.83 c 6.5,0 6.5,6.71 6.5,8.52 z"
           inkscape:connector-curvature="0"
           style="fill:#000000;stroke-width:0" /></g>    </g>
    <g
       transform="translate(34.712,174.59183)"
       id="g2131">
      <g
         style="font-style:normal;font-variant:normal;font-weight:normal;font-stretch:normal;letter-spacing:normal;word-spacing:normal;text-anchor:start;fill:none;fill-opacity:1;fill-rule:evenodd;stroke:#000000;stroke-linecap:butt;stroke-linejoin:miter;stroke-miterlimit:10.43299961;stroke-dasharray:none;stroke-dashoffset:0;stroke-opacity:1"
         id="g2129"
         transform="matrix(0.3,0,0,-0.3,-52.5,222.75)"
         xml:space="preserve"
         stroke-miterlimit="10.433"
         font-style="normal"
         font-variant="normal"
         font-weight="normal"
         font-stretch="normal"
         font-size-adjust="none"
         letter-spacing="normal"
         word-spacing="normal"><path
           style="fill:#000000;stroke-width:0"
           inkscape:connector-curvature="0"
           d="m 479.74,425.18 0.01,0.04 0.01,0.03 0.01,0.06 0.02,0.05 0.01,0.06 0.01,0.05 0.02,0.04 0.01,0.05 0.01,0.04 0.01,0.04 v 0.04 l 0.01,0.04 0.01,0.04 0.01,0.03 v 0.03 l 0.01,0.03 v 0.03 l 0.01,0.03 v 0.03 l 0.01,0.05 v 0.06 0.05 0.05 l 0.01,0.05 v 0.03 0.03 0.03 0.03 c 0,0.91 -0.69,1.35 -1.44,1.35 -0.5,0 -1.3,-0.3 -1.75,-1.05 -0.1,-0.25 -0.5,-1.78 -0.69,-2.69 -0.36,-1.29 -0.7,-2.64 -1,-3.98 l -2.25,-8.97 c -0.19,-0.75 -2.33,-4.23 -5.62,-4.23 -2.54,0 -3.1,2.18 -3.1,4.03 0,2.29 0.86,5.39 2.55,9.76 0.8,2.05 1,2.6 1,3.6 0,2.23 -1.59,4.07 -4.09,4.07 -4.74,0 -6.58,-7.21 -6.58,-7.67 0,-0.5 0.5,-0.5 0.61,-0.5 0.5,0 0.54,0.11 0.79,0.91 1.35,4.69 3.33,6.17 5.03,6.17 0.4,0 1.25,0 1.25,-1.59 0,-1.25 -0.5,-2.53 -0.85,-3.49 -1.99,-5.28 -2.9,-8.12 -2.9,-10.47 0,-4.42 3.15,-5.92 6.08,-5.92 1.96,0 3.64,0.85 5.03,2.24 -0.64,-2.58 -1.23,-5.03 -3.23,-7.68 -1.3,-1.68 -3.19,-3.14 -5.48,-3.14 -0.69,0 -2.94,0.16 -3.79,2.1 0.8,0 1.46,0 2.14,0.61 0.5,0.43 1,1.09 1,2.03 0,1.55 -1.34,1.75 -1.84,1.75 -1.14,0 -2.8,-0.8 -2.8,-3.24 0,-2.5 2.21,-4.34 5.29,-4.34 5.14,0 10.26,4.55 11.67,10.17 z"
           id="path2123" /><path
           style="fill:#000000;stroke-width:0"
           inkscape:connector-curvature="0"
           d="m 497.14,422.5 v 0.02 0.02 0.02 0.02 l -0.01,0.01 v 0.02 0.02 l -0.01,0.02 v 0.01 l -0.01,0.02 v 0.01 l -0.01,0.02 -0.01,0.01 v 0.01 l -0.01,0.02 -0.01,0.01 -0.01,0.01 v 0.01 l -0.01,0.01 -0.01,0.01 -0.02,0.02 -0.02,0.02 -0.02,0.01 -0.03,0.02 -0.02,0.01 -0.02,0.01 -0.03,0.01 -0.02,0.01 -0.02,0.01 -0.03,0.01 h -0.02 l -0.03,0.01 h -0.02 -0.03 -0.02 l -0.02,0.01 h -0.03 -0.02 -0.02 -0.02 -0.02 -0.01 c -0.52,0 -0.55,-0.19 -0.69,-0.77 l -1.98,-7.98 c -6.18,-0.28 -11.44,-4.7 -11.44,-9.38 0,-3.93 3.59,-6.31 7.45,-6.45 l 0.25,0.99 c -2.69,0.14 -5.16,1.59 -5.16,4.87 0,3.48 2.64,8.41 8.61,8.95 l -3.45,-13.82 -0.25,-0.99 c -0.28,-1.08 -0.51,-2.19 -0.8,-3.26 -0.42,-1.65 -0.73,-2.93 -0.73,-3.04 0,-0.42 0.45,-0.42 0.56,-0.42 0.52,0 0.56,0.11 0.74,0.85 l 1.45,5.84 c 5.97,0.25 11.44,4.64 11.44,9.37 0,3.66 -3.21,6.29 -7.46,6.46 l -0.28,-0.99 c 2.67,-0.09 5.19,-1.56 5.19,-4.87 0,-3.8 -3,-8.47 -8.64,-8.95 l 3.45,13.82 0.28,0.99 z"
           id="path2125" /><path
           style="fill:#000000;stroke-width:0"
           inkscape:connector-curvature="0"
           d="m 513.92,409.56 v 0.04 0.03 0.03 0.04 0.03 0.02 0.03 0.03 0.03 l -0.01,0.02 v 0.03 0.02 0.02 l -0.01,0.03 v 0.02 0.02 l -0.01,0.02 v 0.01 l -0.01,0.04 -0.01,0.03 -0.02,0.03 -0.01,0.03 -0.02,0.02 -0.02,0.02 -0.02,0.02 -0.02,0.02 -0.03,0.01 -0.03,0.01 -0.03,0.01 -0.04,0.01 -0.04,0.01 -0.04,0.01 h -0.02 -0.02 -0.03 l -0.02,0.01 h -0.03 -0.02 -0.03 -0.03 -0.03 -0.03 -0.03 -0.03 -0.03 -0.04 -0.03 -0.04 -0.04 -0.03 c -1.77,-1.59 -4.54,-1.59 -5.04,-1.59 h -0.42 v -1.1 h 0.42 c 0.58,0 2.19,0.07 3.64,0.69 v -12.45 c 0,-0.77 0,-1.05 -2.64,-1.05 h -1.25 v -1.09 c 1.38,0.09 3.6,0.09 5.04,0.09 1.45,0 3.67,0 5.03,-0.09 v 1.09 h -1.24 c -2.64,0 -2.64,0.28 -2.64,1.05 z"
           id="path2127" /></g>    </g>
    <g
       id="g2389"
       transform="translate(80.412,174.59183)">
      <g
         word-spacing="normal"
         letter-spacing="normal"
         font-size-adjust="none"
         font-stretch="normal"
         font-weight="normal"
         font-variant="normal"
         font-style="normal"
         stroke-miterlimit="10.433"
         xml:space="preserve"
         transform="matrix(0.3,0,0,-0.3,-52.5,222.75)"
         id="g2387"
         style="font-style:normal;font-variant:normal;font-weight:normal;font-stretch:normal;letter-spacing:normal;word-spacing:normal;text-anchor:start;fill:none;fill-opacity:1;fill-rule:evenodd;stroke:#000000;stroke-linecap:butt;stroke-linejoin:miter;stroke-miterlimit:10.43299961;stroke-dasharray:none;stroke-dashoffset:0;stroke-opacity:1"><path
           id="path2381"
           d="m 479.74,425.18 0.01,0.04 0.01,0.03 0.01,0.06 0.02,0.05 0.01,0.06 0.01,0.05 0.02,0.04 0.01,0.05 0.01,0.04 0.01,0.04 v 0.04 l 0.01,0.04 0.01,0.04 0.01,0.03 v 0.03 l 0.01,0.03 v 0.03 l 0.01,0.03 v 0.03 l 0.01,0.05 v 0.06 0.05 0.05 l 0.01,0.05 v 0.03 0.03 0.03 0.03 c 0,0.91 -0.69,1.35 -1.44,1.35 -0.5,0 -1.3,-0.3 -1.75,-1.05 -0.1,-0.25 -0.5,-1.78 -0.69,-2.69 -0.36,-1.29 -0.7,-2.64 -1,-3.98 l -2.25,-8.97 c -0.19,-0.75 -2.33,-4.23 -5.62,-4.23 -2.54,0 -3.1,2.18 -3.1,4.03 0,2.29 0.86,5.39 2.55,9.76 0.8,2.05 1,2.6 1,3.6 0,2.23 -1.59,4.07 -4.09,4.07 -4.74,0 -6.58,-7.21 -6.58,-7.67 0,-0.5 0.5,-0.5 0.61,-0.5 0.5,0 0.54,0.11 0.79,0.91 1.35,4.69 3.33,6.17 5.03,6.17 0.4,0 1.25,0 1.25,-1.59 0,-1.25 -0.5,-2.53 -0.85,-3.49 -1.99,-5.28 -2.9,-8.12 -2.9,-10.47 0,-4.42 3.15,-5.92 6.08,-5.92 1.96,0 3.64,0.85 5.03,2.24 -0.64,-2.58 -1.23,-5.03 -3.23,-7.68 -1.3,-1.68 -3.19,-3.14 -5.48,-3.14 -0.69,0 -2.94,0.16 -3.79,2.1 0.8,0 1.46,0 2.14,0.61 0.5,0.43 1,1.09 1,2.03 0,1.55 -1.34,1.75 -1.84,1.75 -1.14,0 -2.8,-0.8 -2.8,-3.24 0,-2.5 2.21,-4.34 5.29,-4.34 5.14,0 10.26,4.55 11.67,10.17 z"
           inkscape:connector-curvature="0"
           style="fill:#000000;stroke-width:0" /><path
           id="path2383"
           d="m 497.14,422.5 v 0.02 0.02 0.02 0.02 l -0.01,0.01 v 0.02 0.02 l -0.01,0.02 v 0.01 l -0.01,0.02 v 0.01 l -0.01,0.02 -0.01,0.01 v 0.01 l -0.01,0.02 -0.01,0.01 -0.01,0.01 v 0.01 l -0.01,0.01 -0.01,0.01 -0.02,0.02 -0.02,0.02 -0.02,0.01 -0.03,0.02 -0.02,0.01 -0.02,0.01 -0.03,0.01 -0.02,0.01 -0.02,0.01 -0.03,0.01 h -0.02 l -0.03,0.01 h -0.02 -0.03 -0.02 l -0.02,0.01 h -0.03 -0.02 -0.02 -0.02 -0.02 -0.01 c -0.52,0 -0.55,-0.19 -0.69,-0.77 l -1.98,-7.98 c -6.18,-0.28 -11.44,-4.7 -11.44,-9.38 0,-3.93 3.59,-6.31 7.45,-6.45 l 0.25,0.99 c -2.69,0.14 -5.16,1.59 -5.16,4.87 0,3.48 2.64,8.41 8.61,8.95 l -3.45,-13.82 -0.25,-0.99 c -0.28,-1.08 -0.51,-2.19 -0.8,-3.26 -0.42,-1.65 -0.73,-2.93 -0.73,-3.04 0,-0.42 0.45,-0.42 0.56,-0.42 0.52,0 0.56,0.11 0.74,0.85 l 1.45,5.84 c 5.97,0.25 11.44,4.64 11.44,9.37 0,3.66 -3.21,6.29 -7.46,6.46 l -0.28,-0.99 c 2.67,-0.09 5.19,-1.56 5.19,-4.87 0,-3.8 -3,-8.47 -8.64,-8.95 l 3.45,13.82 0.28,0.99 z"
           inkscape:connector-curvature="0"
           style="fill:#000000;stroke-width:0" /><path
           id="path2385"
           d="m 518.67,398.53 h -1.05 c -0.07,-0.48 -0.32,-2.01 -0.71,-2.26 -0.21,-0.16 -2.3,-0.16 -2.68,-0.16 h -4.87 c 1.64,1.22 3.48,2.61 4.98,3.61 2.24,1.55 4.33,3 4.33,5.64 0,3.19 -3.01,4.95 -6.58,4.95 -3.36,0 -5.82,-1.95 -5.82,-4.39 0,-1.3 1.09,-1.51 1.45,-1.51 0.67,0 1.47,0.45 1.47,1.47 0,0.89 -0.66,1.39 -1.42,1.46 0.68,1.13 2.14,1.88 3.81,1.88 2.4,0 4.42,-1.45 4.42,-3.89 0,-2.1 -1.44,-3.69 -3.36,-5.31 l -6.08,-5.16 c -0.25,-0.22 -0.26,-0.22 -0.29,-0.39 v -0.75 h 11.57 z"
           inkscape:connector-curvature="0"
           style="fill:#000000;stroke-width:0" /></g>    </g>
    <g
       id="g511"
       transform="translate(39.680757,137.40583)">
      <g
         id="g509"
         transform="matrix(0.3,0,0,-0.3,-52.5,222.75)"
         xml:space="preserve"
         stroke-miterlimit="10.433"
         font-style="normal"
         font-variant="normal"
         font-weight="normal"
         font-stretch="normal"
         font-size-adjust="none"
         letter-spacing="normal"
         word-spacing="normal"
         style="font-style:normal;font-variant:normal;font-weight:normal;font-stretch:normal;letter-spacing:normal;word-spacing:normal;text-anchor:start;fill:none;fill-opacity:1;fill-rule:evenodd;stroke:#000000;stroke-linecap:butt;stroke-linejoin:miter;stroke-miterlimit:10.43299961;stroke-dasharray:none;stroke-dashoffset:0;stroke-opacity:1"><path
           d="m 473.21,440.23 h -0.57 l -0.55,-0.01 -0.53,-0.02 -0.51,-0.02 -0.49,-0.03 -0.47,-0.03 -0.46,-0.04 -0.43,-0.04 -0.42,-0.04 -0.4,-0.05 -0.39,-0.05 -0.37,-0.06 -0.35,-0.06 -0.34,-0.06 -0.32,-0.06 -0.3,-0.06 -0.3,-0.07 -0.27,-0.06 -0.27,-0.07 -0.25,-0.07 -0.23,-0.06 -0.23,-0.07 -0.21,-0.07 -0.2,-0.06 -0.19,-0.06 -0.17,-0.06 -0.17,-0.06 -0.16,-0.06 -0.14,-0.05 -0.13,-0.05 -0.13,-0.05 -0.12,-0.04 c -5.07,-2.14 -6.23,-5.53 -6.23,-6.19 0,-0.34 0.25,-0.39 0.55,-0.39 0.9,0 3.29,1.25 3.68,2.34 0.61,1.89 0.75,2.35 4.1,2.78 1.69,0.21 3.33,0.3 5.03,0.3 h 4.53 c -3.14,-3.03 -4.58,-8.36 -6.37,-15.53 -1.46,-5.89 -2.6,-9.77 -4.64,-12.41 -0.5,-0.54 -0.55,-0.61 -1.9,-0.61 h -3.18 c -0.96,0 -1.5,0 -2.74,-0.73 -0.54,-0.31 -1.65,-1.16 -1.65,-1.66 0,-0.29 0.06,-0.34 1.15,-0.34 h 17.03 c 5.83,0 10.18,4.33 10.18,6.12 0,0.36 -0.41,0.36 -0.55,0.36 -0.86,0 -3.19,-1.15 -3.69,-2.4 -0.36,-1.03 -0.5,-1.35 -3,-1.35 h -9.51 c 3.54,3.05 5.03,7.99 6.73,14.75 1.34,5.44 2.53,10.27 4.58,13.32 0.3,0.43 0.36,0.48 1.34,0.48 h 4.24 c 1,0 1.45,0 2.75,0.75 0.43,0.25 1.59,1.05 1.59,1.64 0,0.31 -0.05,0.36 -1.16,0.36 z"
           id="path507"
           inkscape:connector-curvature="0"
           style="fill:#000000;stroke-width:0" /></g>    </g>
    <g
       id="g765"
       transform="translate(-6.1802496,137.40583)">
      <g
         word-spacing="normal"
         letter-spacing="normal"
         font-size-adjust="none"
         font-stretch="normal"
         font-weight="normal"
         font-variant="normal"
         font-style="normal"
         stroke-miterlimit="10.433"
         xml:space="preserve"
         transform="matrix(0.3,0,0,-0.3,-52.5,222.75)"
         id="g763"
         style="font-style:normal;font-variant:normal;font-weight:normal;font-stretch:normal;letter-spacing:normal;word-spacing:normal;text-anchor:start;fill:none;fill-opacity:1;fill-rule:evenodd;stroke:#000000;stroke-linecap:butt;stroke-linejoin:miter;stroke-miterlimit:10.43299961;stroke-dasharray:none;stroke-dashoffset:0;stroke-opacity:1"><path
           id="path761"
           d="m 473.21,440.23 h -0.57 l -0.55,-0.01 -0.53,-0.02 -0.51,-0.02 -0.49,-0.03 -0.47,-0.03 -0.46,-0.04 -0.43,-0.04 -0.42,-0.04 -0.4,-0.05 -0.39,-0.05 -0.37,-0.06 -0.35,-0.06 -0.34,-0.06 -0.32,-0.06 -0.3,-0.06 -0.3,-0.07 -0.27,-0.06 -0.27,-0.07 -0.25,-0.07 -0.23,-0.06 -0.23,-0.07 -0.21,-0.07 -0.2,-0.06 -0.19,-0.06 -0.17,-0.06 -0.17,-0.06 -0.16,-0.06 -0.14,-0.05 -0.13,-0.05 -0.13,-0.05 -0.12,-0.04 c -5.07,-2.14 -6.23,-5.53 -6.23,-6.19 0,-0.34 0.25,-0.39 0.55,-0.39 0.9,0 3.29,1.25 3.68,2.34 0.61,1.89 0.75,2.35 4.1,2.78 1.69,0.21 3.33,0.3 5.03,0.3 h 4.53 c -3.14,-3.03 -4.58,-8.36 -6.37,-15.53 -1.46,-5.89 -2.6,-9.77 -4.64,-12.41 -0.5,-0.54 -0.55,-0.61 -1.9,-0.61 h -3.18 c -0.96,0 -1.5,0 -2.74,-0.73 -0.54,-0.31 -1.65,-1.16 -1.65,-1.66 0,-0.29 0.06,-0.34 1.15,-0.34 h 17.03 c 5.83,0 10.18,4.33 10.18,6.12 0,0.36 -0.41,0.36 -0.55,0.36 -0.86,0 -3.19,-1.15 -3.69,-2.4 -0.36,-1.03 -0.5,-1.35 -3,-1.35 h -9.51 c 3.54,3.05 5.03,7.99 6.73,14.75 1.34,5.44 2.53,10.27 4.58,13.32 0.3,0.43 0.36,0.48 1.34,0.48 h 4.24 c 1,0 1.45,0 2.75,0.75 0.43,0.25 1.59,1.05 1.59,1.64 0,0.31 -0.05,0.36 -1.16,0.36 z"
           inkscape:connector-curvature="0"
           style="fill:#000000;stroke-width:0" /></g>    </g>
    <text
       xml:space="preserve"
       style="font-style:normal;font-weight:normal;font-size:10.58333302px;line-height:1.25;font-family:sans-serif;letter-spacing:0px;word-spacing:0px;fill:#000000;fill-opacity:1;stroke:none;stroke-width:0.26458332"
       x="2.1276407"
       y="292.15158"
       id="text899"><tspan
         sodipodi:role="line"
         id="tspan897"
         x="2.1276407"
         y="292.15158"
         style="font-style:italic;font-variant:normal;font-weight:normal;font-stretch:normal;font-size:13.75833321px;font-family:Times;-inkscape-font-specification:'Times Italic';stroke-width:0.26458332">Debiasing</tspan></text>
  </g>
</svg>
