<?xml version="1.0" encoding="UTF-8" standalone="no"?>
<!-- Created with Inkscape (http://www.inkscape.org/) -->

<svg
   xmlns:dc="http://purl.org/dc/elements/1.1/"
   xmlns:cc="http://creativecommons.org/ns#"
   xmlns:rdf="http://www.w3.org/1999/02/22-rdf-syntax-ns#"
   xmlns:svg="http://www.w3.org/2000/svg"
   xmlns="http://www.w3.org/2000/svg"
   xmlns:sodipodi="http://sodipodi.sourceforge.net/DTD/sodipodi-0.dtd"
   xmlns:inkscape="http://www.inkscape.org/namespaces/inkscape"
   width="210mm"
   height="297mm"
   viewBox="0 0 210 297"
   version="1.1"
   id="svg8"
   inkscape:version="0.92.2 5c3e80d, 2017-08-06"
   sodipodi:docname="ltd.svg">
  <sodipodi:namedview
     id="base"
     pagecolor="#ffffff"
     bordercolor="#666666"
     borderopacity="1.0"
     inkscape:pageopacity="0.0"
     inkscape:pageshadow="2"
     inkscape:zoom="0.64381945"
     inkscape:cx="731.4672"
     inkscape:cy="341.60749"
     inkscape:document-units="mm"
     inkscape:current-layer="layer1"
     showgrid="false"
     inkscape:window-width="1440"
     inkscape:window-height="775"
     inkscape:window-x="0"
     inkscape:window-y="1"
     inkscape:window-maximized="1" />
  <defs
     id="defs2">
    <clipPath
       id="clipPath45"
       clipPathUnits="userSpaceOnUse">
      <path
         style="clip-rule:evenodd"
         inkscape:connector-curvature="0"
         id="path43"
         d="M 0,0 H 1204.1666 V 373.50082 H 0 Z" />
    </clipPath>
    <clipPath
       id="clipPath57"
       clipPathUnits="userSpaceOnUse">
      <path
         style="clip-rule:evenodd"
         inkscape:connector-curvature="0"
         id="path55"
         d="M 0,0 H 1204.1666 V 370.51282 H 0 Z" />
    </clipPath>
    <clipPath
       id="clipPath1063"
       clipPathUnits="userSpaceOnUse">
      <path
         style="clip-rule:evenodd"
         inkscape:connector-curvature="0"
         id="path1061"
         d="M 0,0 H 1212.5 V 722.72162 H 0 Z" />
    </clipPath>
    <clipPath
       id="clipPath1075"
       clipPathUnits="userSpaceOnUse">
      <path
         style="clip-rule:evenodd"
         inkscape:connector-curvature="0"
         id="path1073"
         d="M 0,0 H 1212.5 V 719.73517 H 0 Z" />
    </clipPath>
    <clipPath
       clipPathUnits="userSpaceOnUse"
       id="clipPath673">
      <path
         d="M 0,0 H 1204.1666 V 660.34949 H 0 Z"
         id="path671"
         inkscape:connector-curvature="0"
         style="clip-rule:evenodd" />
    </clipPath>
    <clipPath
       clipPathUnits="userSpaceOnUse"
       id="clipPath685">
      <path
         d="M 0,0 H 1204.1666 V 660.34949 H 0 Z"
         id="path683"
         inkscape:connector-curvature="0"
         style="clip-rule:evenodd" />
    </clipPath>
    <clipPath
       clipPathUnits="userSpaceOnUse"
       id="clipPath1985">
      <path
         d="M 0,0 H 1204.1666 V 660.34949 H 0 Z"
         id="path1983"
         inkscape:connector-curvature="0"
         style="clip-rule:evenodd" />
    </clipPath>
    <clipPath
       clipPathUnits="userSpaceOnUse"
       id="clipPath1997">
      <path
         d="M 0,0 H 1204.1666 V 660.34949 H 0 Z"
         id="path1995"
         inkscape:connector-curvature="0"
         style="clip-rule:evenodd" />
    </clipPath>
    <clipPath
       id="clipPath284"
       clipPathUnits="userSpaceOnUse">
      <path
         style="clip-rule:evenodd"
         inkscape:connector-curvature="0"
         id="path282"
         d="M 0,0 H 1204.1666 V 660.34949 H 0 Z" />
    </clipPath>
    <clipPath
       id="clipPath296"
       clipPathUnits="userSpaceOnUse">
      <path
         style="clip-rule:evenodd"
         inkscape:connector-curvature="0"
         id="path294"
         d="M 0,0 H 1204.1666 V 660.34949 H 0 Z" />
    </clipPath>
    <clipPath
       id="clipPath250"
       clipPathUnits="userSpaceOnUse">
      <path
         style="clip-rule:evenodd"
         inkscape:connector-curvature="0"
         id="path248"
         d="M 0,0 H 1204.1666 V 660.34949 H 0 Z" />
    </clipPath>
    <clipPath
       id="clipPath262"
       clipPathUnits="userSpaceOnUse">
      <path
         style="clip-rule:evenodd"
         inkscape:connector-curvature="0"
         id="path260"
         d="M 0,0 H 1204.1666 V 660.34949 H 0 Z" />
    </clipPath>
    <clipPath
       id="clipPath631"
       clipPathUnits="userSpaceOnUse">
      <path
         style="clip-rule:evenodd"
         inkscape:connector-curvature="0"
         id="path629"
         d="M 0,0 H 1204.1666 V 660.34949 H 0 Z" />
    </clipPath>
    <clipPath
       id="clipPath643"
       clipPathUnits="userSpaceOnUse">
      <path
         style="clip-rule:evenodd"
         inkscape:connector-curvature="0"
         id="path641"
         d="M 0,0 H 1204.1666 V 660.34949 H 0 Z" />
    </clipPath>
    <clipPath
       id="clipPath1012"
       clipPathUnits="userSpaceOnUse">
      <path
         style="clip-rule:evenodd"
         inkscape:connector-curvature="0"
         id="path1010"
         d="M 0,0 H 1204.1666 V 591.62531 H 0 Z" />
    </clipPath>
    <clipPath
       id="clipPath1024"
       clipPathUnits="userSpaceOnUse">
      <path
         style="clip-rule:evenodd"
         inkscape:connector-curvature="0"
         id="path1022"
         d="M 0,0 H 1204.1666 V 588.63733 H 0 Z" />
    </clipPath>
  </defs>
  <metadata
     id="metadata5">
    <rdf:RDF>
      <cc:Work
         rdf:about="">
        <dc:format>image/svg+xml</dc:format>
        <dc:type
           rdf:resource="http://purl.org/dc/dcmitype/StillImage" />
        <dc:title />
      </cc:Work>
    </rdf:RDF>
  </metadata>
  <g
     inkscape:label="Layer 1"
     inkscape:groupmode="layer"
     id="layer1">
    <g
       transform="matrix(0.29896195,0,0,0.29896195,0,120.12654)"
       inkscape:label="ltd (2)"
       id="g1004">
      <g
         id="g1006">
        <g
           clip-path="url(#clipPath1012)"
           id="g1008">
          <g
             transform="scale(2.9880066)"
             id="g1014">
            <path
               inkscape:connector-curvature="0"
               id="path1016"
               style="fill:#ffffff;fill-opacity:1;fill-rule:nonzero;stroke:none"
               d="M 0,0 H 403 V 198 H 0 Z" />
          </g>
        </g>
      </g>
      <g
         id="g1018">
        <g
           clip-path="url(#clipPath1024)"
           id="g1020">
          <g
             transform="matrix(2.9880066,0,0,2.9880066,1.4940033,1.4940033)"
             id="g1026">
            <path
               inkscape:connector-curvature="0"
               id="path1028"
               style="fill:#ffffff;fill-opacity:1;fill-rule:nonzero;stroke:none"
               d="m 321,134 h 48 v 24 h -48 z" />
            <path
               inkscape:connector-curvature="0"
               id="path1030"
               style="fill:none;stroke:#000000;stroke-width:1;stroke-linecap:butt;stroke-linejoin:miter;stroke-miterlimit:10;stroke-dasharray:none;stroke-opacity:1"
               d="m 321,134 h 48 v 24 h -48 z" />
            <path
               inkscape:connector-curvature="0"
               id="path1032"
               style="fill:#ffffff;fill-opacity:1;fill-rule:nonzero;stroke:none"
               d="m 1,134 h 48 v 24 H 1 Z" />
            <path
               inkscape:connector-curvature="0"
               id="path1034"
               style="fill:none;stroke:#000000;stroke-width:1;stroke-linecap:butt;stroke-linejoin:miter;stroke-miterlimit:10;stroke-dasharray:none;stroke-opacity:1"
               d="m 1,134 h 48 v 24 H 1 Z" />
            <path
               inkscape:connector-curvature="0"
               id="path1036"
               style="fill:#ffffff;fill-opacity:1;fill-rule:nonzero;stroke:none"
               d="m 65,134 h 48 v 24 H 65 Z" />
            <path
               inkscape:connector-curvature="0"
               id="path1038"
               style="fill:none;stroke:#000000;stroke-width:1;stroke-linecap:butt;stroke-linejoin:miter;stroke-miterlimit:10;stroke-dasharray:none;stroke-opacity:1"
               d="m 65,134 h 48 v 24 H 65 Z" />
            <path
               inkscape:connector-curvature="0"
               id="path1040"
               style="fill:#ffffff;fill-opacity:1;fill-rule:nonzero;stroke:none"
               d="m 129,134 h 48 v 24 h -48 z" />
            <path
               inkscape:connector-curvature="0"
               id="path1042"
               style="fill:none;stroke:#000000;stroke-width:1;stroke-linecap:butt;stroke-linejoin:miter;stroke-miterlimit:10;stroke-dasharray:none;stroke-opacity:1"
               d="m 129,134 h 48 v 24 h -48 z" />
            <path
               inkscape:connector-curvature="0"
               id="path1044"
               style="fill:#ffffff;fill-opacity:1;fill-rule:nonzero;stroke:none"
               d="m 257,134 h 48 v 24 h -48 z" />
            <path
               inkscape:connector-curvature="0"
               id="path1046"
               style="fill:none;stroke:#000000;stroke-width:1;stroke-linecap:butt;stroke-linejoin:miter;stroke-miterlimit:10;stroke-dasharray:none;stroke-opacity:1"
               d="m 257,134 h 48 v 24 h -48 z" />
            <path
               inkscape:connector-curvature="0"
               id="path1048"
               style="fill:#ffffff;fill-opacity:1;fill-rule:nonzero;stroke:none"
               d="m 193,134 h 48 v 24 h -48 z" />
            <path
               inkscape:connector-curvature="0"
               id="path1050"
               style="fill:none;stroke:#000000;stroke-width:1;stroke-linecap:butt;stroke-linejoin:miter;stroke-miterlimit:10;stroke-dasharray:none;stroke-opacity:1"
               d="m 193,134 h 48 v 24 h -48 z" />
            <path
               inkscape:connector-curvature="0"
               id="path1052"
               style="fill:#ffffff;fill-opacity:1;fill-rule:nonzero;stroke:none"
               d="m 353,38 h 48 v 24 h -48 z" />
            <path
               inkscape:connector-curvature="0"
               id="path1054"
               style="fill:none;stroke:#000000;stroke-width:1;stroke-linecap:butt;stroke-linejoin:miter;stroke-miterlimit:10;stroke-dasharray:none;stroke-opacity:1"
               d="m 353,38 h 48 v 24 h -48 z" />
            <path
               inkscape:connector-curvature="0"
               id="path1056"
               style="fill:#ffffff;fill-opacity:1;fill-rule:nonzero;stroke:none"
               d="m 225,38 h 48 v 24 h -48 z" />
            <path
               inkscape:connector-curvature="0"
               id="path1058"
               style="fill:none;stroke:#000000;stroke-width:1;stroke-linecap:butt;stroke-linejoin:miter;stroke-miterlimit:10;stroke-dasharray:none;stroke-opacity:1"
               d="m 225,38 h 48 v 24 h -48 z" />
            <path
               inkscape:connector-curvature="0"
               id="path1060"
               style="fill:#ffffff;fill-opacity:1;fill-rule:nonzero;stroke:none"
               d="m 289,86 h 48 v 24 h -48 z" />
            <path
               inkscape:connector-curvature="0"
               id="path1062"
               style="fill:none;stroke:#000000;stroke-width:1;stroke-linecap:butt;stroke-linejoin:miter;stroke-miterlimit:10;stroke-dasharray:none;stroke-opacity:1"
               d="m 289,86 h 48 v 24 h -48 z" />
            <path
               inkscape:connector-curvature="0"
               id="path1064"
               style="fill:#ffffff;fill-opacity:1;fill-rule:nonzero;stroke:none"
               d="m 33,86 h 48 v 24 H 33 Z" />
            <path
               inkscape:connector-curvature="0"
               id="path1066"
               style="fill:none;stroke:#000000;stroke-width:1;stroke-linecap:butt;stroke-linejoin:miter;stroke-miterlimit:10;stroke-dasharray:none;stroke-opacity:1"
               d="m 33,86 h 48 v 24 H 33 Z" />
            <path
               inkscape:connector-curvature="0"
               id="path1068"
               style="fill:#ffffff;fill-opacity:1;fill-rule:nonzero;stroke:none"
               d="m 161,86 h 48 v 24 h -48 z" />
            <path
               inkscape:connector-curvature="0"
               id="path1070"
               style="fill:none;stroke:#000000;stroke-width:1;stroke-linecap:butt;stroke-linejoin:miter;stroke-miterlimit:10;stroke-dasharray:none;stroke-opacity:1"
               d="m 161,86 h 48 v 24 h -48 z" />
            <path
               inkscape:connector-curvature="0"
               id="path1072"
               style="fill:#ffffff;fill-opacity:1;fill-rule:nonzero;stroke:none"
               d="m 97,86 h 48 v 24 H 97 Z" />
            <path
               inkscape:connector-curvature="0"
               id="path1074"
               style="fill:none;stroke:#000000;stroke-width:1;stroke-linecap:butt;stroke-linejoin:miter;stroke-miterlimit:10;stroke-dasharray:none;stroke-opacity:1"
               d="m 97,86 h 48 v 24 H 97 Z" />
            <path
               inkscape:connector-curvature="0"
               id="path1076"
               style="fill:#ffffff;fill-opacity:1;fill-rule:nonzero;stroke:none"
               d="m 161,38 h 48 v 24 h -48 z" />
            <path
               inkscape:connector-curvature="0"
               id="path1078"
               style="fill:none;stroke:#000000;stroke-width:1;stroke-linecap:butt;stroke-linejoin:miter;stroke-miterlimit:10;stroke-dasharray:none;stroke-opacity:1"
               d="m 161,38 h 48 v 24 h -48 z" />
            <path
               inkscape:connector-curvature="0"
               id="path1080"
               style="fill:#ffffff;fill-opacity:1;fill-rule:nonzero;stroke:none"
               d="m 97,38 h 48 V 62 H 97 Z" />
            <path
               inkscape:connector-curvature="0"
               id="path1082"
               style="fill:none;stroke:#000000;stroke-width:1;stroke-linecap:butt;stroke-linejoin:miter;stroke-miterlimit:10;stroke-dasharray:none;stroke-opacity:1"
               d="m 97,38 h 48 V 62 H 97 Z" />
            <path
               inkscape:connector-curvature="0"
               id="path1084"
               style="fill:none;stroke:#000000;stroke-width:1;stroke-linecap:butt;stroke-linejoin:miter;stroke-miterlimit:10;stroke-dasharray:none;stroke-opacity:1"
               d="M 169,86 134.25,65.150002" />
            <path
               inkscape:connector-curvature="0"
               id="path1086"
               style="fill:#000000;fill-opacity:1;fill-rule:nonzero;stroke:none"
               d="m 129.96001,62.580002 5.14,1.139999 -1.71001,2.860001 z" />
            <path
               inkscape:connector-curvature="0"
               id="path1088"
               style="fill:none;stroke:#000000;stroke-width:1;stroke-linecap:butt;stroke-linejoin:miter;stroke-miterlimit:10;stroke-dasharray:none;stroke-opacity:1"
               d="m 129.96001,62.580002 5.14,1.139999 -1.71001,2.860001 z" />
            <path
               inkscape:connector-curvature="0"
               id="path1090"
               style="fill:#000000;fill-opacity:1;fill-rule:nonzero;stroke:none"
               d="m 137.25725,61.571255 2.57248,1.543487 -0.5145,0.857491 -2.57248,-1.543488 m 5.65946,2.229481 2.57248,1.543488 -0.5145,0.857498 -2.57248,-1.543488 m 5.65945,2.229477 2.57248,1.543488 -0.51449,0.857498 -2.57248,-1.543488 m 5.65945,2.229477 2.57248,1.543488 -0.51449,0.857498 -2.57248,-1.543488 m 5.65945,2.229477 2.57248,1.543488 -0.5145,0.857498 -2.57247,-1.543488 m 5.65945,2.229477 2.57248,1.543488 -0.5145,0.857498 -2.57248,-1.543487 m 5.65946,2.229477 2.57248,1.543487 -0.5145,0.857498 -2.57248,-1.543487" />
            <path
               inkscape:connector-curvature="0"
               id="path1092"
               style="fill:#000000;fill-opacity:1;fill-rule:nonzero;stroke:none"
               d="m 176.03999,85.419998 -5.14,-1.139999 1.71001,-2.860001 z" />
            <path
               inkscape:connector-curvature="0"
               id="path1094"
               style="fill:none;stroke:#000000;stroke-width:1;stroke-linecap:butt;stroke-linejoin:miter;stroke-miterlimit:10;stroke-dasharray:none;stroke-opacity:1"
               d="m 176.03999,85.419998 -5.14,-1.139999 1.71001,-2.860001 z" />
            <path
               inkscape:connector-curvature="0"
               id="path1096"
               style="fill:none;stroke:#000000;stroke-width:1;stroke-linecap:butt;stroke-linejoin:miter;stroke-miterlimit:10;stroke-dasharray:none;stroke-opacity:1"
               d="M 185,86 V 68.120003" />
            <path
               inkscape:connector-curvature="0"
               id="path1098"
               style="fill:#000000;fill-opacity:1;fill-rule:nonzero;stroke:none"
               d="m 185,63.119999 1.67,5.000004 h -3.34 z" />
            <path
               inkscape:connector-curvature="0"
               id="path1100"
               style="fill:none;stroke:#000000;stroke-width:1;stroke-linecap:butt;stroke-linejoin:miter;stroke-miterlimit:10;stroke-dasharray:none;stroke-opacity:1"
               d="m 185,63.119999 1.67,5.000004 h -3.34 z" />
            <path
               inkscape:connector-curvature="0"
               id="path1102"
               style="fill:#000000;fill-opacity:1;fill-rule:nonzero;stroke:none"
               d="m 193.5,62 v 3 h -1 v -3 m 1,6 v 3 h -1 v -3 m 1,6 v 3 h -1 v -3" />
            <path
               inkscape:connector-curvature="0"
               id="path1104"
               style="fill:#000000;fill-opacity:1;fill-rule:nonzero;stroke:none"
               d="m 193,84.879997 -1.67,-5 h 3.34 z" />
            <path
               inkscape:connector-curvature="0"
               id="path1106"
               style="fill:none;stroke:#000000;stroke-width:1;stroke-linecap:butt;stroke-linejoin:miter;stroke-miterlimit:10;stroke-dasharray:none;stroke-opacity:1"
               d="m 193,84.879997 -1.67,-5 h 3.34 z" />
            <path
               inkscape:connector-curvature="0"
               id="path1108"
               style="fill:none;stroke:#000000;stroke-width:1;stroke-linecap:butt;stroke-linejoin:miter;stroke-miterlimit:10;stroke-dasharray:none;stroke-opacity:1"
               d="M 217,134 189.89,113.67" />
            <path
               inkscape:connector-curvature="0"
               id="path1110"
               style="fill:#000000;fill-opacity:1;fill-rule:nonzero;stroke:none"
               d="m 185.89,110.67 5,1.67 -2,2.66 z" />
            <path
               inkscape:connector-curvature="0"
               id="path1112"
               style="fill:none;stroke:#000000;stroke-width:1;stroke-linecap:butt;stroke-linejoin:miter;stroke-miterlimit:10;stroke-dasharray:none;stroke-opacity:1"
               d="m 185.89,110.67 5,1.67 -2,2.66 z" />
            <path
               inkscape:connector-curvature="0"
               id="path1114"
               style="fill:#000000;fill-opacity:1;fill-rule:nonzero;stroke:none"
               d="m 193.29997,109.59998 2.4001,1.79986 -0.59994,0.80003 -2.4001,-1.79985 m 5.40016,2.79968 2.4001,1.79986 -0.59995,0.80003 -2.4001,-1.79986 m 5.40015,2.79969 2.40012,1.79985 -0.59995,0.80004 -2.40011,-1.79986 m 5.40016,2.79968 2.40011,1.79986 -0.59994,0.80003 -2.40012,-1.79985 m 5.40016,2.79968 2.4001,1.79986 -0.59994,0.80004 -2.4001,-1.79987 m 5.40016,2.79968 2.4001,1.79986 -0.59994,0.80005 -2.4001,-1.79987" />
            <path
               inkscape:connector-curvature="0"
               id="path1116"
               style="fill:#000000;fill-opacity:1;fill-rule:nonzero;stroke:none"
               d="m 224.11,133.33 -5,-1.67 2,-2.66 z" />
            <path
               inkscape:connector-curvature="0"
               id="path1118"
               style="fill:none;stroke:#000000;stroke-width:1;stroke-linecap:butt;stroke-linejoin:miter;stroke-miterlimit:10;stroke-dasharray:none;stroke-opacity:1"
               d="m 224.11,133.33 -5,-1.67 2,-2.66 z" />
            <path
               inkscape:connector-curvature="0"
               id="path1120"
               style="fill:none;stroke:#000000;stroke-width:1;stroke-linecap:butt;stroke-linejoin:miter;stroke-miterlimit:10;stroke-dasharray:none;stroke-opacity:1"
               d="m 153,134 27.11,-20.33" />
            <path
               inkscape:connector-curvature="0"
               id="path1122"
               style="fill:#000000;fill-opacity:1;fill-rule:nonzero;stroke:none"
               d="m 184.11,110.67 -3,4.33 -2,-2.66 z" />
            <path
               inkscape:connector-curvature="0"
               id="path1124"
               style="fill:none;stroke:#000000;stroke-width:1;stroke-linecap:butt;stroke-linejoin:miter;stroke-miterlimit:10;stroke-dasharray:none;stroke-opacity:1"
               d="m 184.11,110.67 -3,4.33 -2,-2.66 z" />
            <path
               inkscape:connector-curvature="0"
               id="path1126"
               style="fill:none;stroke:#000000;stroke-width:1;stroke-linecap:butt;stroke-linejoin:miter;stroke-miterlimit:10;stroke-dasharray:none;stroke-opacity:1"
               d="M 153,134 125.89,113.67" />
            <path
               inkscape:connector-curvature="0"
               id="path1128"
               style="fill:#000000;fill-opacity:1;fill-rule:nonzero;stroke:none"
               d="m 121.89,110.67 5,1.67 -2,2.66 z" />
            <path
               inkscape:connector-curvature="0"
               id="path1130"
               style="fill:none;stroke:#000000;stroke-width:1;stroke-linecap:butt;stroke-linejoin:miter;stroke-miterlimit:10;stroke-dasharray:none;stroke-opacity:1"
               d="m 121.89,110.67 5,1.67 -2,2.66 z" />
            <path
               inkscape:connector-curvature="0"
               id="path1132"
               style="fill:none;stroke:#000000;stroke-width:1;stroke-linecap:butt;stroke-linejoin:miter;stroke-miterlimit:10;stroke-dasharray:none;stroke-opacity:1"
               d="m 89,134 27.11,-20.33" />
            <path
               inkscape:connector-curvature="0"
               id="path1134"
               style="fill:#000000;fill-opacity:1;fill-rule:nonzero;stroke:none"
               d="m 120.11,110.67 -3,4.33 -2,-2.66 z" />
            <path
               inkscape:connector-curvature="0"
               id="path1136"
               style="fill:none;stroke:#000000;stroke-width:1;stroke-linecap:butt;stroke-linejoin:miter;stroke-miterlimit:10;stroke-dasharray:none;stroke-opacity:1"
               d="m 120.11,110.67 -3,4.33 -2,-2.66 z" />
            <path
               inkscape:connector-curvature="0"
               id="path1138"
               style="fill:none;stroke:#000000;stroke-width:1;stroke-linecap:butt;stroke-linejoin:miter;stroke-miterlimit:10;stroke-dasharray:none;stroke-opacity:1"
               d="M 121,86 V 68.120003" />
            <path
               inkscape:connector-curvature="0"
               id="path1140"
               style="fill:#000000;fill-opacity:1;fill-rule:nonzero;stroke:none"
               d="m 121,63.119999 1.67,5.000004 h -3.34 z" />
            <path
               inkscape:connector-curvature="0"
               id="path1142"
               style="fill:none;stroke:#000000;stroke-width:1;stroke-linecap:butt;stroke-linejoin:miter;stroke-miterlimit:10;stroke-dasharray:none;stroke-opacity:1"
               d="m 121,63.119999 1.67,5.000004 h -3.34 z" />
            <path
               inkscape:connector-curvature="0"
               id="path1144"
               style="fill:none;stroke:#000000;stroke-width:1;stroke-linecap:butt;stroke-linejoin:miter;stroke-miterlimit:10;stroke-dasharray:none;stroke-opacity:1"
               d="M 57,110 29.889999,130.33" />
            <path
               inkscape:connector-curvature="0"
               id="path1146"
               style="fill:#000000;fill-opacity:1;fill-rule:nonzero;stroke:none"
               d="m 25.889999,133.33 3,-4.33 2,2.66 z" />
            <path
               inkscape:connector-curvature="0"
               id="path1148"
               style="fill:none;stroke:#000000;stroke-width:1;stroke-linecap:butt;stroke-linejoin:miter;stroke-miterlimit:10;stroke-dasharray:none;stroke-opacity:1"
               d="m 25.889999,133.33 3,-4.33 2,2.66 z" />
            <path
               inkscape:connector-curvature="0"
               id="path1150"
               style="fill:#000000;fill-opacity:1;fill-rule:nonzero;stroke:none"
               d="m 16.700024,133.59998 2.400106,-1.79987 0.599953,0.80005 -2.400107,1.79986 m 4.200261,-4.39976 2.400104,-1.79987 0.599953,0.80005 -2.400105,1.79987 m 4.200258,-4.39976 2.400107,-1.79986 0.599953,0.80004 -2.400107,1.79985 m 4.20026,-4.39975 2.400107,-1.79985 0.599952,0.80003 -2.400106,1.79986 m 4.200258,-4.39975 2.400105,-1.79987 0.599952,0.80004 -2.400104,1.79986 m 4.20026,-4.39975 2.400108,-1.79986 0.599953,0.80003 -2.400108,1.79987" />
            <path
               inkscape:connector-curvature="0"
               id="path1152"
               style="fill:#000000;fill-opacity:1;fill-rule:nonzero;stroke:none"
               d="m 48.110001,110.67 -3,4.33 -2,-2.66 z" />
            <path
               inkscape:connector-curvature="0"
               id="path1154"
               style="fill:none;stroke:#000000;stroke-width:1;stroke-linecap:butt;stroke-linejoin:miter;stroke-miterlimit:10;stroke-dasharray:none;stroke-opacity:1"
               d="m 48.110001,110.67 -3,4.33 -2,-2.66 z" />
            <path
               inkscape:connector-curvature="0"
               id="path1156"
               style="fill:none;stroke:#000000;stroke-width:1;stroke-linecap:butt;stroke-linejoin:miter;stroke-miterlimit:10;stroke-dasharray:none;stroke-opacity:1"
               d="M 345,134 317.89001,113.67" />
            <path
               inkscape:connector-curvature="0"
               id="path1158"
               style="fill:#000000;fill-opacity:1;fill-rule:nonzero;stroke:none"
               d="m 313.89001,110.67 5,1.67 -2,2.66 z" />
            <path
               inkscape:connector-curvature="0"
               id="path1160"
               style="fill:none;stroke:#000000;stroke-width:1;stroke-linecap:butt;stroke-linejoin:miter;stroke-miterlimit:10;stroke-dasharray:none;stroke-opacity:1"
               d="m 313.89001,110.67 5,1.67 -2,2.66 z" />
            <path
               inkscape:connector-curvature="0"
               id="path1162"
               style="fill:none;stroke:#000000;stroke-width:1;stroke-linecap:butt;stroke-linejoin:miter;stroke-miterlimit:10;stroke-dasharray:none;stroke-opacity:1"
               d="m 281,134 27.10999,-20.33" />
            <path
               inkscape:connector-curvature="0"
               id="path1164"
               style="fill:#000000;fill-opacity:1;fill-rule:nonzero;stroke:none"
               d="m 312.10999,110.67 -3,4.33 -2,-2.66 z" />
            <path
               inkscape:connector-curvature="0"
               id="path1166"
               style="fill:none;stroke:#000000;stroke-width:1;stroke-linecap:butt;stroke-linejoin:miter;stroke-miterlimit:10;stroke-dasharray:none;stroke-opacity:1"
               d="m 312.10999,110.67 -3,4.33 -2,-2.66 z" />
            <path
               inkscape:connector-curvature="0"
               id="path1168"
               style="fill:none;stroke:#000000;stroke-width:1;stroke-linecap:butt;stroke-linejoin:miter;stroke-miterlimit:10;stroke-dasharray:none;stroke-opacity:1"
               d="M 113,62 78.25,82.849998" />
            <path
               inkscape:connector-curvature="0"
               id="path1170"
               style="fill:#000000;fill-opacity:1;fill-rule:nonzero;stroke:none"
               d="m 73.959999,85.419998 3.43,-4 1.709999,2.860001 z" />
            <path
               inkscape:connector-curvature="0"
               id="path1172"
               style="fill:none;stroke:#000000;stroke-width:1;stroke-linecap:butt;stroke-linejoin:miter;stroke-miterlimit:10;stroke-dasharray:none;stroke-opacity:1"
               d="m 73.959999,85.419998 3.43,-4 1.709999,2.860001 z" />
            <path
               inkscape:connector-curvature="0"
               id="path1174"
               style="fill:#000000;fill-opacity:1;fill-rule:nonzero;stroke:none"
               d="m 64.742752,85.571251 2.572479,-1.543488 0.514496,0.857499 -2.572479,1.543487 m 4.630463,-3.944473 2.572479,-1.543488 0.514496,0.857498 -2.57248,1.543488 m 4.630463,-3.944473 2.572479,-1.543488 0.514496,0.857498 -2.572479,1.543488 m 4.630463,-3.944473 2.572479,-1.543488 0.514496,0.857498 -2.57248,1.543488 m 4.630463,-3.944473 2.572479,-1.543488 0.514496,0.857498 -2.572479,1.543488 m 4.630463,-3.944474 2.572471,-1.543487 0.514496,0.857498 -2.572472,1.543488 m 4.630455,-3.944474 2.57248,-1.543487 0.514496,0.857498 -2.57248,1.543487" />
            <path
               inkscape:connector-curvature="0"
               id="path1176"
               style="fill:#000000;fill-opacity:1;fill-rule:nonzero;stroke:none"
               d="m 104.04,62.580002 -3.43,4 -1.709998,-2.860001 z" />
            <path
               inkscape:connector-curvature="0"
               id="path1178"
               style="fill:none;stroke:#000000;stroke-width:1;stroke-linecap:butt;stroke-linejoin:miter;stroke-miterlimit:10;stroke-dasharray:none;stroke-opacity:1"
               d="m 104.04,62.580002 -3.43,4 -1.709998,-2.860001 z" />
            <path
               inkscape:connector-curvature="0"
               id="path1180"
               style="fill:none;stroke:#000000;stroke-width:1;stroke-linecap:butt;stroke-linejoin:miter;stroke-miterlimit:10;stroke-dasharray:none;stroke-opacity:1"
               d="M 297,86 262.25,65.150002" />
            <path
               inkscape:connector-curvature="0"
               id="path1182"
               style="fill:#000000;fill-opacity:1;fill-rule:nonzero;stroke:none"
               d="m 257.95999,62.580002 5.14002,1.139999 -1.71,2.860001 z" />
            <path
               inkscape:connector-curvature="0"
               id="path1184"
               style="fill:none;stroke:#000000;stroke-width:1;stroke-linecap:butt;stroke-linejoin:miter;stroke-miterlimit:10;stroke-dasharray:none;stroke-opacity:1"
               d="m 257.95999,62.580002 5.14002,1.139999 -1.71,2.860001 z" />
            <path
               inkscape:connector-curvature="0"
               id="path1186"
               style="fill:#000000;fill-opacity:1;fill-rule:nonzero;stroke:none"
               d="m 265.25723,61.571255 2.57248,1.543487 -0.51446,0.857491 -2.57248,-1.543488 m 5.65942,2.229481 2.57248,1.543488 -0.51446,0.857498 -2.57248,-1.543488 m 5.65942,2.229477 2.57248,1.543488 -0.51447,0.857498 -2.57248,-1.543488 m 5.65943,2.229477 2.57248,1.543488 -0.51447,0.857498 -2.57248,-1.543488 m 5.65943,2.229477 2.57248,1.543488 -0.51447,0.857498 -2.57248,-1.543488 m 5.65943,2.229477 2.57247,1.543488 -0.51446,0.857498 -2.57248,-1.543487 m 5.65942,2.229477 2.57248,1.543487 -0.51446,0.857498 -2.57248,-1.543487" />
            <path
               inkscape:connector-curvature="0"
               id="path1188"
               style="fill:#000000;fill-opacity:1;fill-rule:nonzero;stroke:none"
               d="m 304.04001,85.419998 -5.14002,-1.139999 1.71,-2.860001 z" />
            <path
               inkscape:connector-curvature="0"
               id="path1190"
               style="fill:none;stroke:#000000;stroke-width:1;stroke-linecap:butt;stroke-linejoin:miter;stroke-miterlimit:10;stroke-dasharray:none;stroke-opacity:1"
               d="m 304.04001,85.419998 -5.14002,-1.139999 1.71,-2.860001 z" />
            <path
               inkscape:connector-curvature="0"
               id="path1192"
               style="fill:#000000;fill-opacity:1;fill-rule:nonzero;stroke:none"
               d="m 321.29999,109.59998 2.40011,1.79986 -0.59997,0.80003 -2.40012,-1.79985 m 5.40018,2.79968 2.40012,1.79986 -0.59998,0.80003 -2.40012,-1.79986 m 5.40021,2.79969 2.40009,1.79986 -0.59998,0.80004 -2.40008,-1.79987 m 5.40017,2.79969 2.40012,1.79986 -0.59998,0.80003 -2.40011,-1.79986 m 5.40017,2.79969 2.40012,1.79985 -0.59998,0.80004 -2.40011,-1.79986 m 5.40021,2.79968 2.40008,1.79985 -0.59997,0.80005 -2.40009,-1.79987" />
            <path
               inkscape:connector-curvature="0"
               id="path1194"
               style="fill:#000000;fill-opacity:1;fill-rule:nonzero;stroke:none"
               d="m 352.10999,133.33 -5,-1.67 2,-2.66 z" />
            <path
               inkscape:connector-curvature="0"
               id="path1196"
               style="fill:none;stroke:#000000;stroke-width:1;stroke-linecap:butt;stroke-linejoin:miter;stroke-miterlimit:10;stroke-dasharray:none;stroke-opacity:1"
               d="m 352.10999,133.33 -5,-1.67 2,-2.66 z" />
            <path
               inkscape:connector-curvature="0"
               id="path1198"
               style="fill:none;stroke:#000000;stroke-width:1;stroke-linecap:butt;stroke-linejoin:miter;stroke-miterlimit:10;stroke-dasharray:none;stroke-opacity:1"
               d="m 25,158 v 14 c 0,6.66667 3.333332,10 10,10 h 300 c 6.66666,0 10,-2.98 10,-8.94 v -8.94001" />
            <path
               inkscape:connector-curvature="0"
               id="path1200"
               style="fill:#000000;fill-opacity:1;fill-rule:nonzero;stroke:none"
               d="m 345,159.11999 1.67001,5 h -3.34002 z" />
            <path
               inkscape:connector-curvature="0"
               id="path1202"
               style="fill:none;stroke:#000000;stroke-width:1;stroke-linecap:butt;stroke-linejoin:miter;stroke-miterlimit:10;stroke-dasharray:none;stroke-opacity:1"
               d="m 345,159.11999 1.67001,5 h -3.34002 z" />
            <path
               inkscape:connector-curvature="0"
               id="path1204"
               style="fill:none;stroke:#000000;stroke-width:1;stroke-linecap:butt;stroke-linejoin:miter;stroke-miterlimit:10;stroke-dasharray:none;stroke-opacity:1"
               d="m 89,158 v 17.88" />
            <path
               inkscape:connector-curvature="0"
               id="path1206"
               style="fill:#000000;fill-opacity:1;fill-rule:nonzero;stroke:none"
               d="m 89,180.88 -1.669998,-5 h 3.339996 z" />
            <path
               inkscape:connector-curvature="0"
               id="path1208"
               style="fill:none;stroke:#000000;stroke-width:1;stroke-linecap:butt;stroke-linejoin:miter;stroke-miterlimit:10;stroke-dasharray:none;stroke-opacity:1"
               d="m 89,180.88 -1.669998,-5 h 3.339996 z" />
            <path
               inkscape:connector-curvature="0"
               id="path1210"
               style="fill:#000000;fill-opacity:1;fill-rule:nonzero;stroke:none"
               d="m 353.5,158 v 3 h -1 v -3 z m 0,6 v 3 h -1 v -3 z m 0,6 v 3 h -1 v -3 z m 0,6 v 3 h -1 v -3 z m -0.13202,6.19801 c -0.13879,1.08792 -0.38715,2.07041 -0.74506,2.94747 l -0.92584,-0.37784 c 0.32486,-0.79613 0.55118,-1.69486 0.67896,-2.69618 z m -2.4678,5.60851 c -0.72635,0.73913 -1.60111,1.32649 -2.6243,1.76205 l -0.39166,-0.9201 c 0.90152,-0.38378 1.66909,-0.89806 2.3027,-1.54285 z m -5.57022,2.54404 C 344.60178,190.45018 343.8251,190.49998 343,190.5 h -0.87247 v -1 H 343 c 0.77966,2e-5 1.51114,-0.0467 2.1944,-0.14023 z M 339.12753,190.5 h -3 v -1 h 3 z m -6,0 h -3 v -1 h 3 z m -6,0 h -3 v -1 h 3 z m -6,0 h -3 v -1 h 3 z m -6,0 h -3 v -1 h 3 z m -6,0 h -3 v -1 h 3 z m -6,0 h -3 v -1 h 3 z m -6,0 h -3 v -1 h 3 z m -6,0 h -3 v -1 h 3 z m -6,0 h -3 v -1 h 3 z m -6,0 h -3 v -1 h 3 z m -6,0 h -3 v -1 h 3 z m -6,0 h -3 v -1 h 3 z m -6,0 h -3 v -1 h 3 z m -6,0 h -3 v -1 h 3 z m -6,0 h -3 v -1 h 3 z m -6,0 h -3 v -1 h 3 z m -6,0 h -3 v -1 h 3 z m -6,0 h -3.00001 v -1 h 3.00001 z m -6,0 h -3 v -1 h 3 z m -6,0 h -3 v -1 h 3 z m -6,0 h -3 v -1 h 3 z m -6,0 h -3 v -1 h 3 z m -6,0 h -3 v -1 h 3 z m -6,0 h -3 v -1 h 3 z m -6,0 h -3 v -1 h 3 z m -6,0 h -3 v -1 h 3 z m -6,0 h -3 v -1 h 3 z m -6,0 h -3 v -1 h 3 z m -6,0 h -2.99998 v -1 h 2.99998 z m -6,0 h -3 v -1 h 3 z m -6.00001,0 h -2.99999 v -1 h 2.99999 z m -5.99999,0 h -3 v -1 h 3 z m -6,0 h -3 v -1 h 3 z m -6,0 h -3 v -1 h 3 z m -5.99998,0 h -3.00002 v -1 h 3.00002 z m -6.00002,0 h -3.00001 v -1 h 3.00001 z m -6,0 h -3 v -1 h 3 z m -6,0 h -3 v -1 h 3 z m -5.99998,0 h -3.00002 v -1 h 3.00002 z m -6.000017,0 h -3.000015 v -1 h 3.000015 z m -6,0 h -3 v -1 h 3 z m -6,0 h -3 v -1 h 3 z m -6,0 h -3 v -1 h 3 z m -6,0 h -3 v -1 h 3 z m -6,0 h -3 v -1 h 3 z m -6,0 h -3 v -1 h 3 z m -6,0 h -3 v -1 h 3 z m -6,0 h -3 v -1 h 3 z m -6,0 h -3 v -1 h 3 z m -6,0 h -3 v -1 h 3 z m -6,0 h -3 v -1 h 3 z m -6,0 H 27 c -1.115273,0 -2.142284,-0.0911 -3.081034,-0.27319 l 0.190468,-0.98169 C 24.985268,189.41504 25.94879,189.5 27,189.5 h 0.127533 z m -6.135155,-1.28239 c -0.952104,-0.51194 -1.754358,-1.17553 -2.406759,-1.99076 l 0.780769,-0.62481 c 0.567416,0.70906 1.267273,1.28733 2.099573,1.73483 z m -3.889629,-4.83185 c -0.283997,-0.89589 -0.467627,-1.8886 -0.550892,-2.97815 l 0.997093,-0.0762 c 0.07738,1.01252 0.246393,1.92991 0.50705,2.75216 z M 16.5,178.25504 v -3 h 1 v 3 z m 0,-6 v -3 h 1 v 3 z m 0,-6.00001 v -2.13504 h 1 v 2.13504 z" />
            <path
               inkscape:connector-curvature="0"
               id="path1212"
               style="fill:#000000;fill-opacity:1;fill-rule:nonzero;stroke:none"
               d="m 17,159.11999 1.67,5 h -3.34 z" />
            <path
               inkscape:connector-curvature="0"
               id="path1214"
               style="fill:none;stroke:#000000;stroke-width:1;stroke-linecap:butt;stroke-linejoin:miter;stroke-miterlimit:10;stroke-dasharray:none;stroke-opacity:1"
               d="m 17,159.11999 1.67,5 h -3.34 z" />
            <path
               inkscape:connector-curvature="0"
               id="path1216"
               style="fill:#000000;fill-opacity:1;fill-rule:nonzero;stroke:none"
               d="m 384.5,38 v -3 h 1 v 3 z m 0,-6 v -3 h 1 v 3 z m 0,-6 v -2 c 0,-0.366991 -0.0104,-0.723469 -0.0311,-1.069433 l 0.99823,-0.05988 C 385.48904,23.236328 385.5,23.612764 385.5,24 v 2 z m -0.49188,-5.873137 c -0.28601,-0.977998 -0.69687,-1.82636 -1.23255,-2.545087 l 0.80182,-0.597576 c 0.60733,0.814836 1.07083,1.768827 1.39051,2.86197 z m -3.2637,-4.346212 c -0.75699,-0.43922 -1.63169,-0.76549 -2.62409,-0.978811 l 0.21014,-0.977669 c 1.09556,0.235497 2.06748,0.599341 2.91578,1.091532 z m -5.60245,-1.280134 -0.14377,-5.2e-4 -2.87067,3e-6 v -1 l 2.87427,3e-6 0.14377,5.2e-4 -0.004,0.999994 z M 369.12753,14.5 h -3 v -1 h 3 z m -6,0 h -3 v -1 h 3 z m -6,0 h -3 v -1 h 3 z m -6,0 h -3 v -1 h 3 z m -6,0 h -3 v -1 h 3 z m -6,0 h -3 v -1 h 3 z m -6,0 h -3 v -1 h 3 z m -6,0 h -3 v -1 h 3 z m -6,0 h -3 v -1 h 3 z m -6,0 h -3 v -1 h 3 z m -6,0 h -3 v -1 h 3 z m -6,0 h -3 v -1 h 3 z m -6,0 h -3 v -1 h 3 z m -6,0 h -3 v -1 h 3 z m -6,0 h -3.00003 v -1 h 3.00003 z m -6,0 h -3 v -1 h 3 z m -6,0 h -3 v -1 h 3 z m -6,0 h -3 v -1 h 3 z m -6.00003,0 h -2.99997 v -1 h 2.99997 z m -5.99997,0 h -3 v -1 h 3 z m -6,0 h -3 v -1 h 3 z m -6,0 h -3 v -1 h 3 z m -6,0 h -3 v -1 h 3 z m -6,0 h -3 v -1 h 3 z m -6,0 h -3 v -1 h 3 z m -6,0 h -3 v -1 h 3 z m -6,0 h -3 v -1 h 3 z m -6,0 h -3 v -1 h 3 z m -6.08482,0.09792 c -1.0126,0.107488 -1.92244,0.303323 -2.72952,0.587501 l -0.33213,-0.943237 c 0.88063,-0.310068 1.86599,-0.522961 2.95609,-0.638678 z m -5.15413,1.960955 c -0.69505,0.606772 -1.23785,1.351706 -1.62842,2.234799 l -0.91455,-0.404476 c 0.45038,-1.018378 1.07881,-1.879591 1.88532,-2.583642 z m -2.31236,4.915249 c -0.0508,0.465061 -0.0762,0.953688 -0.0762,1.465882 v 1.59024 h -1 v -1.59024 c 2e-5,-0.548476 0.0274,-1.073306 0.0821,-1.57449 l 0.99408,0.108608 z m -0.0762,6.05612 v 2.999998 h -1 v -2.999998 z" />
            <path
               inkscape:connector-curvature="0"
               id="path1218"
               style="fill:#000000;fill-opacity:1;fill-rule:nonzero;stroke:none"
               d="m 193,36.880001 -1.67,-5.000002 h 3.34 z" />
            <path
               inkscape:connector-curvature="0"
               id="path1220"
               style="fill:none;stroke:#000000;stroke-width:1;stroke-linecap:butt;stroke-linejoin:miter;stroke-miterlimit:10;stroke-dasharray:none;stroke-opacity:1"
               d="m 193,36.880001 -1.67,-5.000002 h 3.34 z" />
            <path
               inkscape:connector-curvature="0"
               id="path1222"
               style="fill:#000000;fill-opacity:1;fill-rule:nonzero;stroke:none"
               d="m 241.5,14 v 3 h -1 v -3 m 1,6 v 3 h -1 v -3 m 1,6 v 3 h -1 v -3" />
            <path
               inkscape:connector-curvature="0"
               id="path1224"
               style="fill:#000000;fill-opacity:1;fill-rule:nonzero;stroke:none"
               d="m 241,36.880001 -1.67,-5.000002 h 3.34 z" />
            <path
               inkscape:connector-curvature="0"
               id="path1226"
               style="fill:none;stroke:#000000;stroke-width:1;stroke-linecap:butt;stroke-linejoin:miter;stroke-miterlimit:10;stroke-dasharray:none;stroke-opacity:1"
               d="m 241,36.880001 -1.67,-5.000002 h 3.34 z" />
            <path
               inkscape:connector-curvature="0"
               id="path1228"
               style="fill:none;stroke:#000000;stroke-width:1;stroke-linecap:butt;stroke-linejoin:miter;stroke-miterlimit:10;stroke-dasharray:none;stroke-opacity:1"
               d="M 185,38 V 16 c 0,-6.666667 3.33333,-10 10,-10 h 188 c 6.66666,0 10,3.333333 10,10 v 15.879999" />
            <path
               inkscape:connector-curvature="0"
               id="path1230"
               style="fill:#000000;fill-opacity:1;fill-rule:nonzero;stroke:none"
               d="m 393,36.880001 -1.67001,-5.000002 h 3.34002 z" />
            <path
               inkscape:connector-curvature="0"
               id="path1232"
               style="fill:none;stroke:#000000;stroke-width:1;stroke-linecap:butt;stroke-linejoin:miter;stroke-miterlimit:10;stroke-dasharray:none;stroke-opacity:1"
               d="m 393,36.880001 -1.67001,-5.000002 h 3.34002 z" />
            <path
               inkscape:connector-curvature="0"
               id="path1234"
               style="fill:none;stroke:#000000;stroke-width:1;stroke-linecap:butt;stroke-linejoin:miter;stroke-miterlimit:10;stroke-dasharray:none;stroke-opacity:1"
               d="M 233,38 V 12.12" />
            <path
               inkscape:connector-curvature="0"
               id="path1236"
               style="fill:#000000;fill-opacity:1;fill-rule:nonzero;stroke:none"
               d="M 233,7.1199999 234.67,12.12 h -3.34 z" />
            <path
               inkscape:connector-curvature="0"
               id="path1238"
               style="fill:none;stroke:#000000;stroke-width:1;stroke-linecap:butt;stroke-linejoin:miter;stroke-miterlimit:10;stroke-dasharray:none;stroke-opacity:1"
               d="M 233,7.1199999 234.67,12.12 h -3.34 z" />
          </g>
        </g>
      </g>
    </g>
    <g
       id="g883"
       transform="translate(-73.1322,152.84618)">
      <g
         word-spacing="normal"
         letter-spacing="normal"
         font-size-adjust="none"
         font-stretch="normal"
         font-weight="normal"
         font-variant="normal"
         font-style="normal"
         stroke-miterlimit="10.433"
         xml:space="preserve"
         transform="matrix(0.3,0,0,-0.3,-52.5,222.75)"
         id="content"
         style="font-style:normal;font-variant:normal;font-weight:normal;font-stretch:normal;letter-spacing:normal;word-spacing:normal;text-anchor:start;fill:none;fill-opacity:1;fill-rule:evenodd;stroke:#000000;stroke-linecap:butt;stroke-linejoin:miter;stroke-miterlimit:10.43299961;stroke-dasharray:none;stroke-dashoffset:0;stroke-opacity:1"><path
           id="path876"
           d="m 494.38,439.14 0.01,0.01 0.01,0.02 0.01,0.01 0.01,0.02 0.01,0.02 0.01,0.02 0.01,0.02 0.01,0.02 0.01,0.02 0.01,0.02 0.01,0.02 0.01,0.03 0.02,0.04 0.02,0.05 0.02,0.05 0.01,0.05 0.01,0.03 0.01,0.02 0.01,0.02 v 0.03 l 0.01,0.02 v 0.02 l 0.01,0.03 v 0.02 l 0.01,0.02 v 0.02 0.02 0.01 c 0,0.36 -0.05,0.41 -1.19,0.41 h -34.39 c -1.14,0 -1.19,-0.05 -1.19,-0.41 0,-0.18 0.14,-0.54 0.25,-0.68 l 16.78,-33.64 c 0.36,-0.64 0.5,-0.94 1.35,-0.94 0.86,0 1,0.3 1.36,0.94 l 0.14,3.75 -13.7,27.39 h 27.35 l -13.65,-27.39 -0.14,-3.75 z"
           inkscape:connector-curvature="0"
           style="fill:#000000;stroke-width:0" /><path
           id="path878"
           d="m 514.18,422.5 v 0.02 0.02 0.02 0.02 l -0.01,0.01 v 0.02 0.02 l -0.01,0.02 v 0.01 l -0.01,0.02 v 0.01 l -0.01,0.02 -0.01,0.01 v 0.01 l -0.01,0.02 -0.01,0.01 -0.01,0.01 -0.01,0.01 v 0.01 l -0.01,0.01 -0.02,0.02 -0.02,0.02 -0.02,0.01 -0.03,0.02 -0.02,0.01 -0.02,0.01 -0.03,0.01 -0.02,0.01 -0.03,0.01 -0.02,0.01 h -0.03 l -0.02,0.01 h -0.02 -0.03 -0.02 l -0.03,0.01 h -0.02 -0.02 -0.02 -0.02 -0.02 -0.01 c -0.52,0 -0.55,-0.19 -0.69,-0.77 l -1.99,-7.98 c -6.17,-0.28 -11.43,-4.7 -11.43,-9.38 0,-3.93 3.59,-6.31 7.45,-6.45 l 0.25,0.99 c -2.69,0.14 -5.16,1.59 -5.16,4.87 0,3.48 2.64,8.41 8.61,8.95 l -3.45,-13.82 -0.25,-0.99 c -0.28,-1.08 -0.52,-2.19 -0.8,-3.26 -0.42,-1.65 -0.73,-2.93 -0.73,-3.04 0,-0.42 0.45,-0.42 0.56,-0.42 0.52,0 0.56,0.11 0.74,0.85 l 1.45,5.84 c 5.97,0.25 11.44,4.64 11.44,9.37 0,3.66 -3.21,6.29 -7.46,6.46 l -0.28,-0.99 c 2.67,-0.09 5.19,-1.56 5.19,-4.87 0,-3.8 -3,-8.47 -8.64,-8.95 l 3.45,13.82 0.28,0.99 z"
           inkscape:connector-curvature="0"
           style="fill:#000000;stroke-width:0" /><path
           id="path880"
           d="m 528.87,403.33 h 2.93 c 0.52,0 0.55,0.03 0.68,0.12 0.12,0.11 0.2,0.43 0.2,0.58 0,0.42 -0.38,0.42 -0.8,0.42 h -2.75 l 0.53,2.07 c 0.14,0.65 0.44,1.78 0.44,1.92 0,0.42 -0.31,0.87 -0.92,0.87 -0.42,0 -1.02,-0.28 -1.22,-0.95 -0.12,-0.42 0.17,0.75 -1,-3.91 h -2.95 c -0.5,0 -0.88,0 -0.88,-0.7 0,-0.42 0.35,-0.42 0.8,-0.42 h 2.77 l -1.47,-5.85 c -0.13,-0.54 -0.33,-1.32 -0.33,-1.62 0,-1.42 1.33,-2.42 3.06,-2.42 3.02,0 4.86,3.37 4.86,3.87 0,0.35 -0.42,0.35 -0.52,0.35 -0.4,0 -0.45,-0.1 -0.57,-0.43 -0.83,-1.79 -2.38,-2.93 -3.66,-2.93 -0.8,0 -1.05,0.56 -1.05,1.31 0,0.41 0.02,0.47 0.07,0.7 z"
           inkscape:connector-curvature="0"
           style="fill:#000000;stroke-width:0" /></g>    </g>
    <g
       transform="translate(16.844263,68.131927)"
       id="g1725">
      <g
         style="font-style:normal;font-variant:normal;font-weight:normal;font-stretch:normal;letter-spacing:normal;word-spacing:normal;text-anchor:start;fill:none;fill-opacity:1;fill-rule:evenodd;stroke:#000000;stroke-linecap:butt;stroke-linejoin:miter;stroke-miterlimit:10.43299961;stroke-dasharray:none;stroke-dashoffset:0;stroke-opacity:1"
         id="g1723"
         transform="matrix(0.3,0,0,-0.3,-52.5,222.75)"
         xml:space="preserve"
         stroke-miterlimit="10.433"
         font-style="normal"
         font-variant="normal"
         font-weight="normal"
         font-stretch="normal"
         font-size-adjust="none"
         letter-spacing="normal"
         word-spacing="normal"><path
           style="fill:#000000;stroke-width:0"
           inkscape:connector-curvature="0"
           d="m 464.49,410.84 0.24,0.39 0.24,0.38 0.23,0.38 0.21,0.37 0.21,0.37 0.2,0.36 0.18,0.35 0.18,0.35 0.18,0.35 0.16,0.34 0.15,0.33 0.15,0.33 0.14,0.33 0.14,0.32 0.24,0.62 0.23,0.61 0.2,0.6 0.19,0.57 0.16,0.56 0.16,0.54 0.14,0.53 0.13,0.52 0.13,0.5 c 1.73,6.87 3.64,12.86 6.71,16.3 0.61,0.65 1,1.09 2.6,1.09 3.44,0 3.53,-3.44 3.53,-4.12 0,-0.91 -0.25,-1.6 -0.25,-1.85 0,-0.36 0.31,-0.36 0.36,-0.36 0.8,0 2.14,0.55 3.39,1.46 0.89,0.68 1.34,1.18 1.34,3.23 0,2.69 -1.4,4.73 -4.18,4.73 -1.6,0 -5.99,-0.4 -10.86,-5.32 -3.99,-4.1 -6.33,-13.07 -7.28,-16.8 -0.9,-3.44 -1.3,-4.99 -2.79,-7.97 -0.36,-0.59 -1.65,-2.8 -2.34,-3.44 -1.34,-1.25 -1.84,-2.14 -1.84,-2.39 0,-0.09 0.09,-0.29 0.45,-0.29 0.19,0 1.23,0.2 2.53,1.04 0.84,0.5 0.95,0.6 2.09,1.8 2.5,-0.06 4.24,-0.5 7.38,-1.41 2.55,-0.68 5.08,-1.43 7.62,-1.43 4.04,0 8.13,3.03 9.72,5.23 0.99,1.34 1.3,2.58 1.3,2.73 0,0.35 -0.31,0.35 -0.36,0.35 -0.8,0 -1.98,-0.55 -2.84,-1.14 -1.35,-0.85 -1.44,-1.14 -1.74,-2 -0.25,-0.8 -0.54,-1.19 -0.75,-1.49 -0.39,-0.59 -0.45,-0.59 -1.2,-0.59 -2.39,0 -4.88,0.73 -8.16,1.64 -1.4,0.39 -4.14,1.19 -6.64,1.19 -0.64,0 -1.34,-0.05 -1.98,-0.19 z"
           id="path1719" /><path
           style="fill:#000000;stroke-width:0"
           inkscape:connector-curvature="0"
           d="m 498.68,419.7 v 0.11 0.1 l 0.01,0.1 v 0.1 0.09 l 0.01,0.09 0.01,0.08 0.02,0.08 0.02,0.08 0.02,0.07 0.03,0.07 0.03,0.06 0.05,0.06 0.04,0.06 0.06,0.05 0.06,0.05 0.07,0.05 0.04,0.02 0.04,0.02 0.05,0.02 0.04,0.02 0.05,0.02 0.05,0.01 0.06,0.02 0.05,0.02 0.06,0.01 0.06,0.01 0.07,0.02 0.07,0.01 0.07,0.01 0.07,0.01 0.08,0.02 h 0.08 l 0.08,0.01 0.09,0.01 0.09,0.01 0.09,0.01 h 0.1 l 0.1,0.01 h 0.1 l 0.11,0.01 h 0.11 0.12 l 0.12,0.01 h 0.12 0.13 0.13 0.91 v 1.25 c -0.28,0 -4.03,-0.14 -5.39,-0.14 -1.41,0 -5.24,0.14 -5.44,0.14 v -1.25 h 0.91 c 2.86,0 2.86,-0.42 2.86,-1.61 v -18.08 c 0,-1.19 0,-1.61 -2.86,-1.61 h -0.91 v -1.25 c 0.28,0 4.03,0.14 5.39,0.14 1.41,0 5.24,-0.14 5.44,-0.14 v 1.25 h -0.91 c -2.86,0 -2.86,0.42 -2.86,1.61 z"
           id="path1721" /></g>    </g>
    <g
       id="g2015"
       transform="translate(68.097838,68.026927)">
      <g
         word-spacing="normal"
         letter-spacing="normal"
         font-size-adjust="none"
         font-stretch="normal"
         font-weight="normal"
         font-variant="normal"
         font-style="normal"
         stroke-miterlimit="10.433"
         xml:space="preserve"
         transform="matrix(0.3,0,0,-0.3,-52.5,222.75)"
         id="g2013"
         style="font-style:normal;font-variant:normal;font-weight:normal;font-stretch:normal;letter-spacing:normal;word-spacing:normal;text-anchor:start;fill:none;fill-opacity:1;fill-rule:evenodd;stroke:#000000;stroke-linecap:butt;stroke-linejoin:miter;stroke-miterlimit:10.43299961;stroke-dasharray:none;stroke-dashoffset:0;stroke-opacity:1"><path
           id="path2007"
           d="m 464.49,410.84 0.24,0.39 0.24,0.38 0.23,0.38 0.21,0.37 0.21,0.37 0.2,0.36 0.18,0.35 0.18,0.35 0.18,0.35 0.16,0.34 0.15,0.33 0.15,0.33 0.14,0.33 0.14,0.32 0.24,0.62 0.23,0.61 0.2,0.6 0.19,0.57 0.16,0.56 0.16,0.54 0.14,0.53 0.13,0.52 0.13,0.5 c 1.73,6.87 3.64,12.86 6.71,16.3 0.61,0.65 1,1.09 2.6,1.09 3.44,0 3.53,-3.44 3.53,-4.12 0,-0.91 -0.25,-1.6 -0.25,-1.85 0,-0.36 0.31,-0.36 0.36,-0.36 0.8,0 2.14,0.55 3.39,1.46 0.89,0.68 1.34,1.18 1.34,3.23 0,2.69 -1.4,4.73 -4.18,4.73 -1.6,0 -5.99,-0.4 -10.86,-5.32 -3.99,-4.1 -6.33,-13.07 -7.28,-16.8 -0.9,-3.44 -1.3,-4.99 -2.79,-7.97 -0.36,-0.59 -1.65,-2.8 -2.34,-3.44 -1.34,-1.25 -1.84,-2.14 -1.84,-2.39 0,-0.09 0.09,-0.29 0.45,-0.29 0.19,0 1.23,0.2 2.53,1.04 0.84,0.5 0.95,0.6 2.09,1.8 2.5,-0.06 4.24,-0.5 7.38,-1.41 2.55,-0.68 5.08,-1.43 7.62,-1.43 4.04,0 8.13,3.03 9.72,5.23 0.99,1.34 1.3,2.58 1.3,2.73 0,0.35 -0.31,0.35 -0.36,0.35 -0.8,0 -1.98,-0.55 -2.84,-1.14 -1.35,-0.85 -1.44,-1.14 -1.74,-2 -0.25,-0.8 -0.54,-1.19 -0.75,-1.49 -0.39,-0.59 -0.45,-0.59 -1.2,-0.59 -2.39,0 -4.88,0.73 -8.16,1.64 -1.4,0.39 -4.14,1.19 -6.64,1.19 -0.64,0 -1.34,-0.05 -1.98,-0.19 z"
           inkscape:connector-curvature="0"
           style="fill:#000000;stroke-width:0" /><path
           id="path2009"
           d="m 498.51,413.29 -0.28,0.07 -0.27,0.08 -0.25,0.09 -0.25,0.09 -0.23,0.1 -0.22,0.11 -0.22,0.11 -0.2,0.12 -0.18,0.13 -0.18,0.13 -0.17,0.13 -0.16,0.14 -0.15,0.15 -0.14,0.14 -0.13,0.15 -0.12,0.16 -0.11,0.15 -0.1,0.16 -0.09,0.15 -0.09,0.16 -0.08,0.16 -0.07,0.16 -0.06,0.16 -0.05,0.16 -0.05,0.16 -0.04,0.15 -0.03,0.16 -0.03,0.15 -0.02,0.15 -0.02,0.15 -0.01,0.14 v 0.14 c 0,2.3 2.13,4.49 5.3,4.49 4.7,0 6.72,-3.13 7.28,-6.8 0.06,-0.52 0.11,-0.69 0.62,-0.69 0.6,0 0.6,0.25 0.6,0.91 v 6.8 c 0,0.59 0,0.9 -0.49,0.9 -0.28,0 -0.36,-0.11 -0.59,-0.5 l -1.25,-1.94 c -2.31,2.33 -5.2,2.44 -6.17,2.44 -4.39,0 -7.53,-3.14 -7.53,-6.65 0,-1.96 0.87,-3.46 2.12,-4.65 1.39,-1.35 2.55,-1.59 6.31,-2.43 3.18,-0.71 3.86,-0.83 4.88,-1.82 0.8,-0.79 1.53,-1.92 1.53,-3.48 0,-2.44 -2.01,-4.91 -5.36,-4.91 -3.39,0 -8.05,1.32 -8.3,6.58 -0.03,0.56 -0.03,0.77 -0.59,0.77 -0.59,0 -0.59,-0.24 -0.59,-0.94 v -6.77 c 0,-0.59 0,-0.9 0.48,-0.9 0.28,0 0.36,0.11 0.56,0.42 0.32,0.42 1.02,1.53 1.3,1.98 2.19,-1.9 4.88,-2.4 7.14,-2.4 4.6,0 7.6,3.45 7.6,7.15 0,3.13 -2.21,6.1 -5.69,6.9 z"
           inkscape:connector-curvature="0"
           style="fill:#000000;stroke-width:0" /><path
           id="path2011"
           d="m 536.12,419.01 0.09,0.21 0.11,0.2 0.05,0.1 0.06,0.1 0.06,0.1 0.07,0.1 0.07,0.1 0.07,0.1 0.08,0.09 0.09,0.09 0.09,0.1 0.1,0.08 0.1,0.09 0.11,0.08 0.11,0.08 0.12,0.08 0.13,0.07 0.14,0.07 0.14,0.07 0.15,0.06 0.16,0.06 0.17,0.05 0.18,0.05 0.18,0.04 0.2,0.03 0.2,0.04 0.21,0.02 0.23,0.02 0.23,0.01 0.24,0.01 v 1.25 c -1.01,-0.11 -2.37,-0.14 -3.39,-0.14 -1.39,0 -3.97,0.14 -4.17,0.14 v -1.25 c 1.28,0 2.41,-0.56 2.41,-1.64 0,-0.25 -0.08,-0.49 -0.19,-0.74 l -7.2,-16.82 -7.54,17.67 c -0.2,0.4 -0.2,0.48 -0.2,0.59 0,0.94 1.81,0.94 2.75,0.94 v 1.25 c -1.75,-0.06 -3.97,-0.14 -5.19,-0.14 -1.75,0 -4.36,0.14 -4.46,0.14 v -1.25 h 0.59 c 1.87,0 2.47,-0.17 2.92,-1.25 l 9.06,-21.19 c 0.25,-0.56 0.35,-0.81 1.02,-0.81 0.34,0 0.69,0 1.01,0.73 z"
           inkscape:connector-curvature="0"
           style="fill:#000000;stroke-width:0" /></g>    </g>
    <g
       transform="translate(128.80047,68.026927)"
       id="g2313">
      <g
         style="font-style:normal;font-variant:normal;font-weight:normal;font-stretch:normal;letter-spacing:normal;word-spacing:normal;text-anchor:start;fill:none;fill-opacity:1;fill-rule:evenodd;stroke:#000000;stroke-linecap:butt;stroke-linejoin:miter;stroke-miterlimit:10.43299961;stroke-dasharray:none;stroke-dashoffset:0;stroke-opacity:1"
         id="g2311"
         transform="matrix(0.3,0,0,-0.3,-52.5,222.75)"
         xml:space="preserve"
         stroke-miterlimit="10.433"
         font-style="normal"
         font-variant="normal"
         font-weight="normal"
         font-stretch="normal"
         font-size-adjust="none"
         letter-spacing="normal"
         word-spacing="normal"><path
           style="fill:#000000;stroke-width:0"
           inkscape:connector-curvature="0"
           d="m 464.49,410.84 0.24,0.39 0.24,0.38 0.23,0.38 0.21,0.37 0.21,0.37 0.2,0.36 0.18,0.35 0.18,0.35 0.18,0.35 0.16,0.34 0.15,0.33 0.15,0.33 0.14,0.33 0.14,0.32 0.24,0.62 0.23,0.61 0.2,0.6 0.19,0.57 0.16,0.56 0.16,0.54 0.14,0.53 0.13,0.52 0.13,0.5 c 1.73,6.87 3.64,12.86 6.71,16.3 0.61,0.65 1,1.09 2.6,1.09 3.44,0 3.53,-3.44 3.53,-4.12 0,-0.91 -0.25,-1.6 -0.25,-1.85 0,-0.36 0.31,-0.36 0.36,-0.36 0.8,0 2.14,0.55 3.39,1.46 0.89,0.68 1.34,1.18 1.34,3.23 0,2.69 -1.4,4.73 -4.18,4.73 -1.6,0 -5.99,-0.4 -10.86,-5.32 -3.99,-4.1 -6.33,-13.07 -7.28,-16.8 -0.9,-3.44 -1.3,-4.99 -2.79,-7.97 -0.36,-0.59 -1.65,-2.8 -2.34,-3.44 -1.34,-1.25 -1.84,-2.14 -1.84,-2.39 0,-0.09 0.09,-0.29 0.45,-0.29 0.19,0 1.23,0.2 2.53,1.04 0.84,0.5 0.95,0.6 2.09,1.8 2.5,-0.06 4.24,-0.5 7.38,-1.41 2.55,-0.68 5.08,-1.43 7.62,-1.43 4.04,0 8.13,3.03 9.72,5.23 0.99,1.34 1.3,2.58 1.3,2.73 0,0.35 -0.31,0.35 -0.36,0.35 -0.8,0 -1.98,-0.55 -2.84,-1.14 -1.35,-0.85 -1.44,-1.14 -1.74,-2 -0.25,-0.8 -0.54,-1.19 -0.75,-1.49 -0.39,-0.59 -0.45,-0.59 -1.2,-0.59 -2.39,0 -4.88,0.73 -8.16,1.64 -1.4,0.39 -4.14,1.19 -6.64,1.19 -0.64,0 -1.34,-0.05 -1.98,-0.19 z"
           id="path2307" /><path
           style="fill:#000000;stroke-width:0"
           inkscape:connector-curvature="0"
           d="m 517.92,410.54 -0.02,0.65 -0.05,0.64 -0.08,0.64 -0.11,0.62 -0.14,0.61 -0.18,0.6 -0.2,0.59 -0.22,0.58 -0.26,0.56 -0.28,0.55 -0.31,0.53 -0.33,0.52 -0.36,0.5 -0.38,0.48 -0.4,0.46 -0.42,0.45 -0.45,0.42 -0.46,0.4 -0.48,0.38 -0.51,0.36 -0.52,0.33 -0.53,0.31 -0.56,0.28 -0.56,0.25 -0.59,0.23 -0.59,0.21 -0.61,0.17 -0.62,0.14 -0.64,0.11 -0.64,0.09 -0.65,0.05 -0.66,0.01 v -1.12 c 3.96,0 9.09,-2.96 9.09,-11.05 0,-8.56 -5.02,-11.88 -9.09,-11.88 v 0 c -4.08,0 -9.1,3.32 -9.1,11.88 0,8.09 5.13,11.05 9.1,11.05 v 1.12 c -7.15,0 -12.83,-5.75 -12.83,-12.72 0,-6.83 5.68,-12.48 12.83,-12.48 7.14,0 12.81,5.65 12.81,12.48 z"
           id="path2309" /></g>    </g>
    <g
       id="g2619"
       transform="translate(-39.650977,108.57215)">
      <g
         word-spacing="normal"
         letter-spacing="normal"
         font-size-adjust="none"
         font-stretch="normal"
         font-weight="normal"
         font-variant="normal"
         font-style="normal"
         stroke-miterlimit="10.433"
         xml:space="preserve"
         transform="matrix(0.3,0,0,-0.3,-52.5,222.75)"
         id="g2617"
         style="font-style:normal;font-variant:normal;font-weight:normal;font-stretch:normal;letter-spacing:normal;word-spacing:normal;text-anchor:start;fill:none;fill-opacity:1;fill-rule:evenodd;stroke:#000000;stroke-linecap:butt;stroke-linejoin:miter;stroke-miterlimit:10.43299961;stroke-dasharray:none;stroke-dashoffset:0;stroke-opacity:1"><path
           id="path2613"
           d="m 479.74,425.18 0.01,0.04 0.01,0.03 0.01,0.06 0.02,0.05 0.01,0.06 0.01,0.05 0.02,0.04 0.01,0.05 0.01,0.04 0.01,0.04 v 0.04 l 0.01,0.04 0.01,0.04 0.01,0.03 v 0.03 l 0.01,0.03 v 0.03 l 0.01,0.03 v 0.03 l 0.01,0.05 v 0.06 0.05 0.05 l 0.01,0.05 v 0.03 0.03 0.03 0.03 c 0,0.91 -0.69,1.35 -1.44,1.35 -0.5,0 -1.3,-0.3 -1.75,-1.05 -0.1,-0.25 -0.5,-1.78 -0.69,-2.69 -0.36,-1.29 -0.7,-2.64 -1,-3.98 l -2.25,-8.97 c -0.19,-0.75 -2.33,-4.23 -5.62,-4.23 -2.54,0 -3.1,2.18 -3.1,4.03 0,2.29 0.86,5.39 2.55,9.76 0.8,2.05 1,2.6 1,3.6 0,2.23 -1.59,4.07 -4.09,4.07 -4.74,0 -6.58,-7.21 -6.58,-7.67 0,-0.5 0.5,-0.5 0.61,-0.5 0.5,0 0.54,0.11 0.79,0.91 1.35,4.69 3.33,6.17 5.03,6.17 0.4,0 1.25,0 1.25,-1.59 0,-1.25 -0.5,-2.53 -0.85,-3.49 -1.99,-5.28 -2.9,-8.12 -2.9,-10.47 0,-4.42 3.15,-5.92 6.08,-5.92 1.96,0 3.64,0.85 5.03,2.24 -0.64,-2.58 -1.23,-5.03 -3.23,-7.68 -1.3,-1.68 -3.19,-3.14 -5.48,-3.14 -0.69,0 -2.94,0.16 -3.79,2.1 0.8,0 1.46,0 2.14,0.61 0.5,0.43 1,1.09 1,2.03 0,1.55 -1.34,1.75 -1.84,1.75 -1.14,0 -2.8,-0.8 -2.8,-3.24 0,-2.5 2.21,-4.34 5.29,-4.34 5.14,0 10.26,4.55 11.67,10.17 z"
           inkscape:connector-curvature="0"
           style="fill:#000000;stroke-width:0" /><path
           id="path2615"
           d="m 497.14,422.5 v 0.02 0.02 0.02 0.02 l -0.01,0.01 v 0.02 0.02 l -0.01,0.02 v 0.01 l -0.01,0.02 v 0.01 l -0.01,0.02 -0.01,0.01 v 0.01 l -0.01,0.02 -0.01,0.01 -0.01,0.01 v 0.01 l -0.01,0.01 -0.01,0.01 -0.02,0.02 -0.02,0.02 -0.02,0.01 -0.03,0.02 -0.02,0.01 -0.02,0.01 -0.03,0.01 -0.02,0.01 -0.02,0.01 -0.03,0.01 h -0.02 l -0.03,0.01 h -0.02 -0.03 -0.02 l -0.02,0.01 h -0.03 -0.02 -0.02 -0.02 -0.02 -0.01 c -0.52,0 -0.55,-0.19 -0.69,-0.77 l -1.98,-7.98 c -6.18,-0.28 -11.44,-4.7 -11.44,-9.38 0,-3.93 3.59,-6.31 7.45,-6.45 l 0.25,0.99 c -2.69,0.14 -5.16,1.59 -5.16,4.87 0,3.48 2.64,8.41 8.61,8.95 l -3.45,-13.82 -0.25,-0.99 c -0.28,-1.08 -0.51,-2.19 -0.8,-3.26 -0.42,-1.65 -0.73,-2.93 -0.73,-3.04 0,-0.42 0.45,-0.42 0.56,-0.42 0.52,0 0.56,0.11 0.74,0.85 l 1.45,5.84 c 5.97,0.25 11.44,4.64 11.44,9.37 0,3.66 -3.21,6.29 -7.46,6.46 l -0.28,-0.99 c 2.67,-0.09 5.19,-1.56 5.19,-4.87 0,-3.8 -3,-8.47 -8.64,-8.95 l 3.45,13.82 0.28,0.99 z"
           inkscape:connector-curvature="0"
           style="fill:#000000;stroke-width:0" /></g>    </g>
    <g
       transform="translate(17.04546,108.57215)"
       id="g2781">
      <g
         style="font-style:normal;font-variant:normal;font-weight:normal;font-stretch:normal;letter-spacing:normal;word-spacing:normal;text-anchor:start;fill:none;fill-opacity:1;fill-rule:evenodd;stroke:#000000;stroke-linecap:butt;stroke-linejoin:miter;stroke-miterlimit:10.43299961;stroke-dasharray:none;stroke-dashoffset:0;stroke-opacity:1"
         id="g2779"
         transform="matrix(0.3,0,0,-0.3,-52.5,222.75)"
         xml:space="preserve"
         stroke-miterlimit="10.433"
         font-style="normal"
         font-variant="normal"
         font-weight="normal"
         font-stretch="normal"
         font-size-adjust="none"
         letter-spacing="normal"
         word-spacing="normal"><path
           style="fill:#000000;stroke-width:0"
           inkscape:connector-curvature="0"
           d="m 479.74,425.18 0.01,0.04 0.01,0.03 0.01,0.06 0.02,0.05 0.01,0.06 0.01,0.05 0.02,0.04 0.01,0.05 0.01,0.04 0.01,0.04 v 0.04 l 0.01,0.04 0.01,0.04 0.01,0.03 v 0.03 l 0.01,0.03 v 0.03 l 0.01,0.03 v 0.03 l 0.01,0.05 v 0.06 0.05 0.05 l 0.01,0.05 v 0.03 0.03 0.03 0.03 c 0,0.91 -0.69,1.35 -1.44,1.35 -0.5,0 -1.3,-0.3 -1.75,-1.05 -0.1,-0.25 -0.5,-1.78 -0.69,-2.69 -0.36,-1.29 -0.7,-2.64 -1,-3.98 l -2.25,-8.97 c -0.19,-0.75 -2.33,-4.23 -5.62,-4.23 -2.54,0 -3.1,2.18 -3.1,4.03 0,2.29 0.86,5.39 2.55,9.76 0.8,2.05 1,2.6 1,3.6 0,2.23 -1.59,4.07 -4.09,4.07 -4.74,0 -6.58,-7.21 -6.58,-7.67 0,-0.5 0.5,-0.5 0.61,-0.5 0.5,0 0.54,0.11 0.79,0.91 1.35,4.69 3.33,6.17 5.03,6.17 0.4,0 1.25,0 1.25,-1.59 0,-1.25 -0.5,-2.53 -0.85,-3.49 -1.99,-5.28 -2.9,-8.12 -2.9,-10.47 0,-4.42 3.15,-5.92 6.08,-5.92 1.96,0 3.64,0.85 5.03,2.24 -0.64,-2.58 -1.23,-5.03 -3.23,-7.68 -1.3,-1.68 -3.19,-3.14 -5.48,-3.14 -0.69,0 -2.94,0.16 -3.79,2.1 0.8,0 1.46,0 2.14,0.61 0.5,0.43 1,1.09 1,2.03 0,1.55 -1.34,1.75 -1.84,1.75 -1.14,0 -2.8,-0.8 -2.8,-3.24 0,-2.5 2.21,-4.34 5.29,-4.34 5.14,0 10.26,4.55 11.67,10.17 z"
           id="path2775" /><path
           style="fill:#000000;stroke-width:0"
           inkscape:connector-curvature="0"
           d="m 497.14,422.5 v 0.02 0.02 0.02 0.02 l -0.01,0.01 v 0.02 0.02 l -0.01,0.02 v 0.01 l -0.01,0.02 v 0.01 l -0.01,0.02 -0.01,0.01 v 0.01 l -0.01,0.02 -0.01,0.01 -0.01,0.01 v 0.01 l -0.01,0.01 -0.01,0.01 -0.02,0.02 -0.02,0.02 -0.02,0.01 -0.03,0.02 -0.02,0.01 -0.02,0.01 -0.03,0.01 -0.02,0.01 -0.02,0.01 -0.03,0.01 h -0.02 l -0.03,0.01 h -0.02 -0.03 -0.02 l -0.02,0.01 h -0.03 -0.02 -0.02 -0.02 -0.02 -0.01 c -0.52,0 -0.55,-0.19 -0.69,-0.77 l -1.98,-7.98 c -6.18,-0.28 -11.44,-4.7 -11.44,-9.38 0,-3.93 3.59,-6.31 7.45,-6.45 l 0.25,0.99 c -2.69,0.14 -5.16,1.59 -5.16,4.87 0,3.48 2.64,8.41 8.61,8.95 l -3.45,-13.82 -0.25,-0.99 c -0.28,-1.08 -0.51,-2.19 -0.8,-3.26 -0.42,-1.65 -0.73,-2.93 -0.73,-3.04 0,-0.42 0.45,-0.42 0.56,-0.42 0.52,0 0.56,0.11 0.74,0.85 l 1.45,5.84 c 5.97,0.25 11.44,4.64 11.44,9.37 0,3.66 -3.21,6.29 -7.46,6.46 l -0.28,-0.99 c 2.67,-0.09 5.19,-1.56 5.19,-4.87 0,-3.8 -3,-8.47 -8.64,-8.95 l 3.45,13.82 0.28,0.99 z"
           id="path2777" /></g>    </g>
    <g
       id="g2789"
       transform="translate(187.96623,108.57215)">
      <g
         word-spacing="normal"
         letter-spacing="normal"
         font-size-adjust="none"
         font-stretch="normal"
         font-weight="normal"
         font-variant="normal"
         font-style="normal"
         stroke-miterlimit="10.433"
         xml:space="preserve"
         transform="matrix(0.3,0,0,-0.3,-52.5,222.75)"
         id="g2787"
         style="font-style:normal;font-variant:normal;font-weight:normal;font-stretch:normal;letter-spacing:normal;word-spacing:normal;text-anchor:start;fill:none;fill-opacity:1;fill-rule:evenodd;stroke:#000000;stroke-linecap:butt;stroke-linejoin:miter;stroke-miterlimit:10.43299961;stroke-dasharray:none;stroke-dashoffset:0;stroke-opacity:1"><path
           id="path2783"
           d="m 479.74,425.18 0.01,0.04 0.01,0.03 0.01,0.06 0.02,0.05 0.01,0.06 0.01,0.05 0.02,0.04 0.01,0.05 0.01,0.04 0.01,0.04 v 0.04 l 0.01,0.04 0.01,0.04 0.01,0.03 v 0.03 l 0.01,0.03 v 0.03 l 0.01,0.03 v 0.03 l 0.01,0.05 v 0.06 0.05 0.05 l 0.01,0.05 v 0.03 0.03 0.03 0.03 c 0,0.91 -0.69,1.35 -1.44,1.35 -0.5,0 -1.3,-0.3 -1.75,-1.05 -0.1,-0.25 -0.5,-1.78 -0.69,-2.69 -0.36,-1.29 -0.7,-2.64 -1,-3.98 l -2.25,-8.97 c -0.19,-0.75 -2.33,-4.23 -5.62,-4.23 -2.54,0 -3.1,2.18 -3.1,4.03 0,2.29 0.86,5.39 2.55,9.76 0.8,2.05 1,2.6 1,3.6 0,2.23 -1.59,4.07 -4.09,4.07 -4.74,0 -6.58,-7.21 -6.58,-7.67 0,-0.5 0.5,-0.5 0.61,-0.5 0.5,0 0.54,0.11 0.79,0.91 1.35,4.69 3.33,6.17 5.03,6.17 0.4,0 1.25,0 1.25,-1.59 0,-1.25 -0.5,-2.53 -0.85,-3.49 -1.99,-5.28 -2.9,-8.12 -2.9,-10.47 0,-4.42 3.15,-5.92 6.08,-5.92 1.96,0 3.64,0.85 5.03,2.24 -0.64,-2.58 -1.23,-5.03 -3.23,-7.68 -1.3,-1.68 -3.19,-3.14 -5.48,-3.14 -0.69,0 -2.94,0.16 -3.79,2.1 0.8,0 1.46,0 2.14,0.61 0.5,0.43 1,1.09 1,2.03 0,1.55 -1.34,1.75 -1.84,1.75 -1.14,0 -2.8,-0.8 -2.8,-3.24 0,-2.5 2.21,-4.34 5.29,-4.34 5.14,0 10.26,4.55 11.67,10.17 z"
           inkscape:connector-curvature="0"
           style="fill:#000000;stroke-width:0" /><path
           id="path2785"
           d="m 497.14,422.5 v 0.02 0.02 0.02 0.02 l -0.01,0.01 v 0.02 0.02 l -0.01,0.02 v 0.01 l -0.01,0.02 v 0.01 l -0.01,0.02 -0.01,0.01 v 0.01 l -0.01,0.02 -0.01,0.01 -0.01,0.01 v 0.01 l -0.01,0.01 -0.01,0.01 -0.02,0.02 -0.02,0.02 -0.02,0.01 -0.03,0.02 -0.02,0.01 -0.02,0.01 -0.03,0.01 -0.02,0.01 -0.02,0.01 -0.03,0.01 h -0.02 l -0.03,0.01 h -0.02 -0.03 -0.02 l -0.02,0.01 h -0.03 -0.02 -0.02 -0.02 -0.02 -0.01 c -0.52,0 -0.55,-0.19 -0.69,-0.77 l -1.98,-7.98 c -6.18,-0.28 -11.44,-4.7 -11.44,-9.38 0,-3.93 3.59,-6.31 7.45,-6.45 l 0.25,0.99 c -2.69,0.14 -5.16,1.59 -5.16,4.87 0,3.48 2.64,8.41 8.61,8.95 l -3.45,-13.82 -0.25,-0.99 c -0.28,-1.08 -0.51,-2.19 -0.8,-3.26 -0.42,-1.65 -0.73,-2.93 -0.73,-3.04 0,-0.42 0.45,-0.42 0.56,-0.42 0.52,0 0.56,0.11 0.74,0.85 l 1.45,5.84 c 5.97,0.25 11.44,4.64 11.44,9.37 0,3.66 -3.21,6.29 -7.46,6.46 l -0.28,-0.99 c 2.67,-0.09 5.19,-1.56 5.19,-4.87 0,-3.8 -3,-8.47 -8.64,-8.95 l 3.45,13.82 0.28,0.99 z"
           inkscape:connector-curvature="0"
           style="fill:#000000;stroke-width:0" /></g>    </g>
    <g
       transform="translate(74.497854,109.30415)"
       id="g2957">
      <g
         style="font-style:normal;font-variant:normal;font-weight:normal;font-stretch:normal;letter-spacing:normal;word-spacing:normal;text-anchor:start;fill:none;fill-opacity:1;fill-rule:evenodd;stroke:#000000;stroke-linecap:butt;stroke-linejoin:miter;stroke-miterlimit:10.43299961;stroke-dasharray:none;stroke-dashoffset:0;stroke-opacity:1"
         id="g2955"
         transform="matrix(0.3,0,0,-0.3,-52.5,222.75)"
         xml:space="preserve"
         stroke-miterlimit="10.433"
         font-style="normal"
         font-variant="normal"
         font-weight="normal"
         font-stretch="normal"
         font-size-adjust="none"
         letter-spacing="normal"
         word-spacing="normal"><path
           style="fill:#000000;stroke-width:0"
           inkscape:connector-curvature="0"
           d="m 478.04,427.67 -0.01,0.02 v 0.02 0.02 0.02 l -0.01,0.02 v 0.02 l -0.01,0.02 v 0.02 l -0.01,0.02 -0.01,0.02 -0.01,0.02 -0.01,0.03 -0.01,0.02 -0.01,0.02 -0.02,0.02 -0.01,0.01 -0.02,0.02 -0.01,0.02 -0.02,0.02 -0.02,0.01 -0.02,0.02 -0.02,0.01 -0.02,0.02 -0.03,0.01 -0.02,0.01 -0.03,0.01 -0.02,0.01 h -0.03 l -0.03,0.01 h -0.03 l -0.03,0.01 h -0.02 -0.01 c -0.55,0 -2.54,-1.99 -3.38,-3.44 -1.11,2.69 -3.05,3.48 -4.64,3.48 v -1.09 c 3.23,0 3.94,-4.03 3.94,-4.37 0,-0.32 -2.74,-11.22 -2.89,-11.43 -0.75,-1.39 -3.53,-4.57 -6.33,-4.57 v 0 c -2.99,0 -3.19,3.84 -3.19,4.68 0,2.39 1.44,7.82 2.3,9.91 1.53,3.69 4.12,5.78 6.17,5.78 v 1.09 c -5.88,0 -12,-7.37 -12,-14.59 0,-4.87 2.94,-7.97 6.56,-7.97 2.16,0 4.1,1.19 5.89,2.99 -0.45,-1.74 -2.09,-8.47 -2.25,-8.93 -0.39,-1.39 -0.79,-1.59 -3.58,-1.64 -0.65,0 -1.15,0 -1.15,-1 0,-0.04 0,-0.54 0.65,-0.54 1.6,0 3.33,0.15 4.99,0.15 1.69,0 3.48,-0.15 5.12,-0.15 0.25,0 0.89,0 0.89,1 0,0.54 -0.48,0.54 -1.28,0.54 -2.4,0 -2.4,0.36 -2.4,0.8 0,0.36 0.11,0.66 0.2,1.09 z"
           id="path2951" /><path
           style="fill:#000000;stroke-width:0"
           inkscape:connector-curvature="0"
           d="m 501.52,411.65 -0.01,0.1 v 0.1 l -0.01,0.1 -0.01,0.11 -0.01,0.1 -0.02,0.11 -0.01,0.1 -0.03,0.11 -0.02,0.1 -0.03,0.11 -0.04,0.1 -0.03,0.1 -0.04,0.1 -0.05,0.1 -0.05,0.1 -0.05,0.09 -0.05,0.09 -0.07,0.08 -0.06,0.09 -0.07,0.08 -0.08,0.07 -0.07,0.07 -0.09,0.06 -0.09,0.06 -0.09,0.06 -0.1,0.04 -0.1,0.04 -0.11,0.04 -0.11,0.02 -0.06,0.02 h -0.06 l -0.07,0.01 -0.06,0.01 h -0.06 -0.07 c -0.84,0 -1.78,-1.03 -1.78,-1.91 0,-1.15 1.87,-1.39 1.87,-3.76 0,-2.24 -2.21,-7.25 -6.12,-7.25 -1.67,0 -3.06,1.16 -3.56,2.69 0.45,0.76 1.29,3.17 1.29,4.07 0,0.52 -0.31,1.05 -0.9,1.05 -1.78,0 -1.92,-3.76 -1.92,-4.98 -0.97,-1.27 -2.72,-2.83 -4.99,-2.83 -1.87,0 -3.26,1.7 -3.26,4.05 0,4.03 3.57,7.42 3.57,7.93 0,0.43 -0.34,0.82 -0.72,0.82 -0.35,0 -0.56,-0.19 -0.81,-0.5 -0.45,-0.52 -0.9,-1.29 -1.31,-1.99 -1.22,-2.09 -2.09,-5.05 -2.09,-7.56 0,-2.78 1.11,-5.53 4.31,-5.53 2.34,0 4.36,1.53 5.61,3.4 0.67,-2.09 2.2,-3.37 4.44,-3.37 6.12,0 8.25,10.31 8.25,13.2 z"
           id="path2953" /></g>    </g>
    <g
       id="g3295"
       transform="translate(-10.865273,153.57818)">
      <g
         word-spacing="normal"
         letter-spacing="normal"
         font-size-adjust="none"
         font-stretch="normal"
         font-weight="normal"
         font-variant="normal"
         font-style="normal"
         stroke-miterlimit="10.433"
         xml:space="preserve"
         transform="matrix(0.3,0,0,-0.3,-52.5,222.75)"
         id="g3293"
         style="font-style:normal;font-variant:normal;font-weight:normal;font-stretch:normal;letter-spacing:normal;word-spacing:normal;text-anchor:start;fill:none;fill-opacity:1;fill-rule:evenodd;stroke:#000000;stroke-linecap:butt;stroke-linejoin:miter;stroke-miterlimit:10.43299961;stroke-dasharray:none;stroke-dashoffset:0;stroke-opacity:1"><path
           id="path3289"
           d="m 477.29,439.57 v 0.01 0.01 0 0.01 0.01 0.01 0 0.01 l 0.01,0.02 v 0.03 0.02 l 0.01,0.02 0.01,0.03 v 0.03 l 0.01,0.02 v 0.03 l 0.01,0.03 0.01,0.03 0.01,0.06 0.02,0.06 v 0.03 l 0.01,0.02 0.01,0.03 v 0.03 l 0.01,0.02 0.01,0.02 v 0.02 l 0.01,0.02 v 0.01 0.01 0.01 0.01 h 0.01 v 0.01 0.01 0 0.01 0 0 0.01 c 0,0.04 0,0.5 -0.59,0.5 -0.5,0 -0.55,-0.16 -0.75,-1 l -2.89,-11.5 c -7.92,-0.25 -15.25,-6.88 -15.25,-13.66 0,-4.73 3.48,-8.67 9.56,-9.01 l 0.25,1.09 c -2.98,0.14 -6.58,1.89 -6.58,6.87 0,5.99 4.3,12.96 11.72,13.6 l -5.14,-20.47 -0.25,-1.09 c -0.39,-1.55 -0.73,-3.15 -1.14,-4.69 -0.59,-2.35 -1.09,-4.24 -1.09,-4.39 0,-0.49 0.34,-0.55 0.59,-0.55 0.25,0 0.36,0.06 0.5,0.2 0.09,0.1 0.41,1.3 0.55,2 l 1.89,7.43 0.25,1.09 5.14,20.47 c 3.78,-0.19 6.62,-2.49 6.62,-6.88 0,-5.87 -4.28,-13 -11.76,-13.59 l -0.25,-1.09 c 8.03,0.25 15.25,6.96 15.25,13.64 0,3.93 -2.64,8.53 -9.57,9.03 z"
           inkscape:connector-curvature="0"
           style="fill:#000000;stroke-width:0" /><path
           id="path3291"
           d="m 493.74,412.53 h 3.55 c 0.65,0 1.1,0 1.1,0.76 0,0.49 -0.45,0.49 -1.03,0.49 h -3.31 l 1.28,5.15 c 0.03,0.18 0.11,0.35 0.11,0.49 0,0.64 -0.48,1.12 -1.19,1.12 -0.87,0 -1.39,-0.59 -1.64,-1.5 -0.23,-0.87 0.22,0.8 -1.32,-5.26 h -3.55 c -0.66,0 -1.11,0 -1.11,-0.77 0,-0.48 0.41,-0.48 1.05,-0.48 h 3.29 l -2.04,-8.22 c -0.22,-0.88 -0.54,-2.13 -0.54,-2.58 0,-2.06 1.75,-3.31 3.74,-3.31 3.87,0 6.06,4.87 6.06,5.33 0,0.45 -0.45,0.45 -0.56,0.45 -0.41,0 -0.45,-0.08 -0.72,-0.66 -0.98,-2.2 -2.77,-4.15 -4.67,-4.15 -0.74,0 -1.22,0.45 -1.22,1.7 0,0.36 0.14,1.09 0.2,1.44 z"
           inkscape:connector-curvature="0"
           style="fill:#000000;stroke-width:0" /></g>    </g>
    <g
       transform="translate(45.923659,154.03268)"
       id="g3641">
      <g
         style="font-style:normal;font-variant:normal;font-weight:normal;font-stretch:normal;letter-spacing:normal;word-spacing:normal;text-anchor:start;fill:none;fill-opacity:1;fill-rule:evenodd;stroke:#000000;stroke-linecap:butt;stroke-linejoin:miter;stroke-miterlimit:10.43299961;stroke-dasharray:none;stroke-dashoffset:0;stroke-opacity:1"
         id="g3639"
         transform="matrix(0.3,0,0,-0.3,-52.5,222.75)"
         xml:space="preserve"
         stroke-miterlimit="10.433"
         font-style="normal"
         font-variant="normal"
         font-weight="normal"
         font-stretch="normal"
         font-size-adjust="none"
         letter-spacing="normal"
         word-spacing="normal"><path
           style="fill:#000000;stroke-width:0"
           inkscape:connector-curvature="0"
           d="m 469.47,440.03 0.01,0.02 v 0.03 l 0.01,0.02 v 0.02 0.03 l 0.01,0.02 v 0.02 0.02 l 0.01,0.04 0.01,0.04 v 0.04 l 0.01,0.03 v 0.03 l 0.01,0.03 v 0.03 0.03 l 0.01,0.02 v 0.03 0.02 0.02 l 0.01,0.02 v 0.02 0.02 0.02 0.01 0.02 0.02 0.01 l 0.01,0.03 v 0.03 0.03 0.02 c 0,0.35 -0.1,0.5 -0.55,0.5 -0.55,0 -2.05,-0.75 -3.03,-1.25 -2.3,-1.14 -4.19,-2.09 -4.19,-2.98 0,-0.3 0.34,-0.3 0.55,-0.3 0.59,0 1.89,0.69 2.84,1.14 -0.61,-4.87 -1.8,-11.25 -2.7,-15.54 -1.85,-8.47 -2.78,-11.5 -5.22,-16.35 -0.25,-0.43 -0.25,-0.54 -0.25,-0.59 0,-0.34 0.39,-0.34 0.5,-0.34 0.8,0 2.87,0.89 3.67,2.29 0.66,1.14 2.55,4.78 4.05,10.56 1.09,4.29 2.98,10.8 6.51,15.94 2.3,3.24 4.39,4.74 7.54,4.74 2.68,0 5.12,-1.75 5.12,-4.39 0,-4.38 -4.73,-5.97 -9.91,-7.72 -0.59,-0.21 -4.03,-1.39 -4.03,-2.64 0,-0.3 0.35,-0.35 0.49,-0.35 0.2,0 1.36,0.19 2.4,0.19 5.03,0 9.11,-2.98 9.11,-7.72 0,-6.17 -5.28,-8.17 -9.81,-8.17 -3.84,0 -5.69,2.09 -6.33,2.8 -0.2,0.25 -0.25,0.34 -0.65,0.34 -1.1,0 -3.63,-1.55 -3.63,-2.44 0,-0.15 1.94,-3.43 7.31,-3.43 7.03,0 17.35,4.98 17.35,13 0,4.18 -2.8,7.32 -7.88,8.26 3.99,1.7 9.81,5.28 9.81,9.97 0,2.89 -2.39,5.03 -6.07,5.03 -1.69,0 -8.07,-0.45 -14.1,-7.92 z"
           id="path3635" /><path
           style="fill:#000000;stroke-width:0"
           inkscape:connector-curvature="0"
           d="m 496.86,412.53 h 3.55 c 0.65,0 1.11,0 1.11,0.76 0,0.49 -0.46,0.49 -1.04,0.49 h -3.31 l 1.28,5.15 c 0.03,0.18 0.11,0.35 0.11,0.49 0,0.64 -0.48,1.12 -1.18,1.12 -0.88,0 -1.4,-0.59 -1.65,-1.5 -0.23,-0.87 0.22,0.8 -1.32,-5.26 h -3.55 c -0.66,0 -1.11,0 -1.11,-0.77 0,-0.48 0.41,-0.48 1.05,-0.48 h 3.29 l -2.04,-8.22 c -0.22,-0.88 -0.53,-2.13 -0.53,-2.58 0,-2.06 1.75,-3.31 3.73,-3.31 3.87,0 6.06,4.87 6.06,5.33 0,0.45 -0.45,0.45 -0.56,0.45 -0.41,0 -0.45,-0.08 -0.72,-0.66 -0.98,-2.2 -2.76,-4.15 -4.67,-4.15 -0.74,0 -1.22,0.45 -1.22,1.7 0,0.36 0.14,1.09 0.2,1.44 z"
           id="path3637" /></g>    </g>
    <g
       id="g3995"
       transform="translate(103.4491,152.05868)">
      <g
         word-spacing="normal"
         letter-spacing="normal"
         font-size-adjust="none"
         font-stretch="normal"
         font-weight="normal"
         font-variant="normal"
         font-style="normal"
         stroke-miterlimit="10.433"
         xml:space="preserve"
         transform="matrix(0.3,0,0,-0.3,-52.5,222.75)"
         id="g3993"
         style="font-style:normal;font-variant:normal;font-weight:normal;font-stretch:normal;letter-spacing:normal;word-spacing:normal;text-anchor:start;fill:none;fill-opacity:1;fill-rule:evenodd;stroke:#000000;stroke-linecap:butt;stroke-linejoin:miter;stroke-miterlimit:10.43299961;stroke-dasharray:none;stroke-dashoffset:0;stroke-opacity:1"><path
           id="path3989"
           d="m 485.66,424.73 v 0.21 l -0.01,0.2 -0.01,0.2 -0.02,0.19 -0.02,0.18 -0.03,0.18 -0.03,0.17 -0.04,0.16 -0.04,0.16 -0.04,0.16 -0.05,0.14 -0.05,0.14 -0.05,0.13 -0.06,0.13 -0.07,0.12 -0.06,0.12 -0.07,0.1 -0.07,0.1 -0.08,0.1 -0.08,0.09 -0.08,0.08 -0.08,0.07 -0.08,0.07 -0.09,0.06 -0.09,0.05 -0.09,0.05 -0.1,0.04 -0.09,0.03 -0.1,0.02 -0.1,0.02 -0.1,0.01 h -0.1 c -1.3,0 -2.64,-1.18 -2.64,-2.34 0,-0.48 0.23,-1.03 0.73,-1.48 0.86,-0.75 1.75,-2.1 1.75,-4.19 0,-2 -0.95,-4.83 -2.48,-7.13 -1.5,-2.14 -3.35,-3.82 -5.69,-3.82 -2.85,0 -4.39,1.78 -4.83,4.46 0.55,1.3 1.69,4.49 1.69,5.9 0,0.59 -0.25,1.09 -0.89,1.09 -0.41,0 -0.96,-0.11 -1.35,-0.84 -0.54,-1 -1.15,-4.24 -1.15,-6.04 -1.64,-2.34 -3.63,-4.57 -6.77,-4.57 -3.3,0 -4.34,2.93 -4.34,5.71 0,6.24 5.09,11.47 5.09,12.11 0,0.55 -0.41,0.96 -0.95,0.96 -0.66,0 -1,-0.66 -1.3,-1.11 -2.55,-3.69 -4.44,-9.61 -4.44,-14.14 0,-3.44 1.16,-7.13 5.24,-7.13 3.53,0 5.87,2.49 7.67,5.24 0.45,-2.89 2.39,-5.24 5.48,-5.24 3.89,0 6.29,3.03 8.07,6.78 1.2,2.44 3.09,9.21 3.09,12.3 z"
           inkscape:connector-curvature="0"
           style="fill:#000000;stroke-width:0" /><path
           id="path3991"
           d="m 495.06,412.53 h 3.55 c 0.65,0 1.1,0 1.1,0.76 0,0.49 -0.45,0.49 -1.03,0.49 h -3.31 l 1.28,5.15 c 0.03,0.18 0.11,0.35 0.11,0.49 0,0.64 -0.48,1.12 -1.19,1.12 -0.87,0 -1.39,-0.59 -1.64,-1.5 -0.23,-0.87 0.22,0.8 -1.32,-5.26 h -3.55 c -0.66,0 -1.11,0 -1.11,-0.77 0,-0.48 0.41,-0.48 1.05,-0.48 h 3.29 l -2.04,-8.22 c -0.22,-0.88 -0.54,-2.13 -0.54,-2.58 0,-2.06 1.75,-3.31 3.74,-3.31 3.87,0 6.06,4.87 6.06,5.33 0,0.45 -0.45,0.45 -0.56,0.45 -0.41,0 -0.45,-0.08 -0.72,-0.66 -0.98,-2.2 -2.77,-4.15 -4.67,-4.15 -0.74,0 -1.22,0.45 -1.22,1.7 0,0.36 0.14,1.09 0.2,1.44 z"
           inkscape:connector-curvature="0"
           style="fill:#000000;stroke-width:0" /></g>    </g>
    <g
       transform="translate(160.74502,153.86168)"
       id="g4357">
      <g
         style="font-style:normal;font-variant:normal;font-weight:normal;font-stretch:normal;letter-spacing:normal;word-spacing:normal;text-anchor:start;fill:none;fill-opacity:1;fill-rule:evenodd;stroke:#000000;stroke-linecap:butt;stroke-linejoin:miter;stroke-miterlimit:10.43299961;stroke-dasharray:none;stroke-dashoffset:0;stroke-opacity:1"
         id="g4355"
         transform="matrix(0.3,0,0,-0.3,-52.5,222.75)"
         xml:space="preserve"
         stroke-miterlimit="10.433"
         font-style="normal"
         font-variant="normal"
         font-weight="normal"
         font-stretch="normal"
         font-size-adjust="none"
         letter-spacing="normal"
         word-spacing="normal"><path
           style="fill:#000000;stroke-width:0"
           inkscape:connector-curvature="0"
           d="m 480.08,420.95 -0.11,-0.4 -0.11,-0.41 -0.23,-0.85 -0.24,-0.88 -0.24,-0.91 -0.24,-0.93 -0.24,-0.94 -0.24,-0.96 -0.22,-0.95 -0.21,-0.95 -0.2,-0.94 -0.17,-0.93 -0.15,-0.9 -0.06,-0.44 -0.06,-0.43 -0.05,-0.43 -0.04,-0.41 -0.03,-0.41 -0.03,-0.39 -0.01,-0.38 -0.01,-0.36 c 0,-1.35 0.85,-1.94 2.05,-1.94 1.98,0 5.72,2.14 5.72,3.14 0,0.25 -0.24,0.34 -0.49,0.34 -0.61,0 -1.5,-0.45 -2.04,-0.75 -0.66,0.1 -1,0.6 -1,1.3 0,6.08 5.68,23.52 7.12,27.2 0.59,1.39 1.25,3.44 1.25,3.83 0,0.36 -0.3,0.36 -0.5,0.36 -1.05,0 -3.3,-1.34 -3.69,-2.3 -0.65,-1.73 -0.75,-1.98 -1.34,-3.82 -1.64,-4.74 -6.58,-12.96 -11.52,-18.74 -1.54,-1.75 -6.42,-7.53 -9.95,-7.53 -2.41,0 -3.89,2.05 -3.89,5.33 0,3.5 1.94,7.98 4.92,14.79 1.8,4.1 3.3,7.63 3.3,9.88 0,2.34 -1.59,2.39 -2.49,2.39 -3.84,0 -8.62,-3.09 -8.62,-4.14 0,-0.3 0.34,-0.3 0.55,-0.3 0.59,0 1.5,0.41 2.29,0.96 0.35,0.25 1.14,0.73 2.49,0.73 1.09,0 1.54,-0.69 1.54,-1.78 0,-2.2 -1.79,-6.28 -3.89,-11.06 -3.28,-7.49 -4.32,-10.68 -4.32,-13.57 0,-3.28 1.29,-5.96 4.82,-5.96 3.1,0 7.63,2.04 12.71,6.76 3.43,3.25 5.68,6.24 7.83,9.13 z"
           id="path4351" /><path
           style="fill:#000000;stroke-width:0"
           inkscape:connector-curvature="0"
           d="m 495.3,412.53 h 3.54 c 0.66,0 1.11,0 1.11,0.76 0,0.49 -0.45,0.49 -1.03,0.49 h -3.31 l 1.28,5.15 c 0.03,0.18 0.11,0.35 0.11,0.49 0,0.64 -0.48,1.12 -1.19,1.12 -0.87,0 -1.39,-0.59 -1.64,-1.5 -0.23,-0.87 0.22,0.8 -1.33,-5.26 h -3.54 c -0.66,0 -1.11,0 -1.11,-0.77 0,-0.48 0.4,-0.48 1.04,-0.48 h 3.3 l -2.05,-8.22 c -0.21,-0.88 -0.53,-2.13 -0.53,-2.58 0,-2.06 1.75,-3.31 3.74,-3.31 3.87,0 6.06,4.87 6.06,5.33 0,0.45 -0.45,0.45 -0.56,0.45 -0.41,0 -0.46,-0.08 -0.72,-0.66 -0.99,-2.2 -2.77,-4.15 -4.67,-4.15 -0.74,0 -1.22,0.45 -1.22,1.7 0,0.36 0.14,1.09 0.2,1.44 z"
           id="path4353" /></g>    </g>
    <g
       id="g4731"
       transform="translate(210.27693,153.37868)">
      <g
         word-spacing="normal"
         letter-spacing="normal"
         font-size-adjust="none"
         font-stretch="normal"
         font-weight="normal"
         font-variant="normal"
         font-style="normal"
         stroke-miterlimit="10.433"
         xml:space="preserve"
         transform="matrix(0.3,0,0,-0.3,-52.5,222.75)"
         id="g4729"
         style="font-style:normal;font-variant:normal;font-weight:normal;font-stretch:normal;letter-spacing:normal;word-spacing:normal;text-anchor:start;fill:none;fill-opacity:1;fill-rule:evenodd;stroke:#000000;stroke-linecap:butt;stroke-linejoin:miter;stroke-miterlimit:10.43299961;stroke-dasharray:none;stroke-dashoffset:0;stroke-opacity:1"><path
           id="path4721"
           d="m 477.29,439.57 v 0.01 0.01 0 0.01 0.01 0.01 0 0.01 l 0.01,0.02 v 0.03 0.02 l 0.01,0.02 0.01,0.03 v 0.03 l 0.01,0.02 v 0.03 l 0.01,0.03 0.01,0.03 0.01,0.06 0.02,0.06 v 0.03 l 0.01,0.02 0.01,0.03 v 0.03 l 0.01,0.02 0.01,0.02 v 0.02 l 0.01,0.02 v 0.01 0.01 0.01 0.01 h 0.01 v 0.01 0.01 0 0.01 0 0 0.01 c 0,0.04 0,0.5 -0.59,0.5 -0.5,0 -0.55,-0.16 -0.75,-1 l -2.89,-11.5 c -7.92,-0.25 -15.25,-6.88 -15.25,-13.66 0,-4.73 3.48,-8.67 9.56,-9.01 l 0.25,1.09 c -2.98,0.14 -6.58,1.89 -6.58,6.87 0,5.99 4.3,12.96 11.72,13.6 l -5.14,-20.47 -0.25,-1.09 c -0.39,-1.55 -0.73,-3.15 -1.14,-4.69 -0.59,-2.35 -1.09,-4.24 -1.09,-4.39 0,-0.49 0.34,-0.55 0.59,-0.55 0.25,0 0.36,0.06 0.5,0.2 0.09,0.1 0.41,1.3 0.55,2 l 1.89,7.43 0.25,1.09 5.14,20.47 c 3.78,-0.19 6.62,-2.49 6.62,-6.88 0,-5.87 -4.28,-13 -11.76,-13.59 l -0.25,-1.09 c 8.03,0.25 15.25,6.96 15.25,13.64 0,3.93 -2.64,8.53 -9.57,9.03 z"
           inkscape:connector-curvature="0"
           style="fill:#000000;stroke-width:0" /><path
           id="path4723"
           d="m 493.74,412.53 h 3.55 c 0.65,0 1.1,0 1.1,0.76 0,0.49 -0.45,0.49 -1.03,0.49 h -3.31 l 1.28,5.15 c 0.03,0.18 0.11,0.35 0.11,0.49 0,0.64 -0.48,1.12 -1.19,1.12 -0.87,0 -1.39,-0.59 -1.64,-1.5 -0.23,-0.87 0.22,0.8 -1.32,-5.26 h -3.55 c -0.66,0 -1.11,0 -1.11,-0.77 0,-0.48 0.41,-0.48 1.05,-0.48 h 3.29 l -2.04,-8.22 c -0.22,-0.88 -0.54,-2.13 -0.54,-2.58 0,-2.06 1.75,-3.31 3.74,-3.31 3.87,0 6.06,4.87 6.06,5.33 0,0.45 -0.45,0.45 -0.56,0.45 -0.41,0 -0.45,-0.08 -0.72,-0.66 -0.98,-2.2 -2.77,-4.15 -4.67,-4.15 -0.74,0 -1.22,0.45 -1.22,1.7 0,0.36 0.14,1.09 0.2,1.44 z"
           inkscape:connector-curvature="0"
           style="fill:#000000;stroke-width:0" /><path
           id="path4725"
           d="m 516.3,406.64 h 10.66 c 0.45,0 1.28,0 1.28,0.84 0,0.86 -0.8,0.86 -1.28,0.86 H 516.3 v 10.7 c 0,0.46 0,1.28 -0.84,1.28 -0.88,0 -0.88,-0.79 -0.88,-1.28 v -10.7 h -10.69 c -0.45,0 -1.29,0 -1.29,-0.83 0,-0.87 0.79,-0.87 1.29,-0.87 h 10.69 v -10.71 c 0,-0.45 0,-1.28 0.85,-1.28 0.87,0 0.87,0.8 0.87,1.28 z"
           inkscape:connector-curvature="0"
           style="fill:#000000;stroke-width:0" /><path
           id="path4727"
           d="m 542.43,420.92 v 0.04 0.04 0.05 0.04 0.03 0.04 0.04 0.03 l -0.01,0.04 v 0.03 0.03 0.03 0.03 l -0.01,0.03 v 0.03 l -0.01,0.02 v 0.03 0.02 l -0.01,0.03 v 0.02 l -0.02,0.04 -0.01,0.04 -0.02,0.03 -0.02,0.03 -0.02,0.03 -0.02,0.03 -0.03,0.02 -0.03,0.02 -0.04,0.02 -0.03,0.01 -0.04,0.01 -0.05,0.02 h -0.02 -0.03 l -0.02,0.01 h -0.03 l -0.03,0.01 h -0.02 -0.03 -0.03 -0.04 l -0.03,0.01 h -0.03 -0.04 -0.04 -0.03 -0.04 -0.04 -0.04 -0.05 -0.04 -0.05 c -2.23,-2.2 -5.39,-2.23 -6.83,-2.23 v -1.25 c 0.85,0 3.15,0 5.05,0.97 v -17.77 c 0,-1.16 0,-1.61 -3.48,-1.61 h -1.32 v -1.25 c 0.63,0.03 4.91,0.14 6.21,0.14 1.08,0 5.47,-0.11 6.23,-0.14 v 1.25 h -1.33 c -3.48,0 -3.48,0.45 -3.48,1.61 z"
           inkscape:connector-curvature="0"
           style="fill:#000000;stroke-width:0" /></g>    </g>
    <g
       id="g3860"
       transform="translate(234.36044,68.026927)">
      <g
         word-spacing="normal"
         letter-spacing="normal"
         font-size-adjust="none"
         font-stretch="normal"
         font-weight="normal"
         font-variant="normal"
         font-style="normal"
         stroke-miterlimit="10.433"
         xml:space="preserve"
         transform="matrix(0.3,0,0,-0.3,-52.5,222.75)"
         id="g3858"
         style="font-style:normal;font-variant:normal;font-weight:normal;font-stretch:normal;letter-spacing:normal;word-spacing:normal;text-anchor:start;fill:none;fill-opacity:1;fill-rule:evenodd;stroke:#000000;stroke-linecap:butt;stroke-linejoin:miter;stroke-miterlimit:10.43299961;stroke-dasharray:none;stroke-dashoffset:0;stroke-opacity:1"><path
           id="path3850"
           d="m 464.49,410.84 0.24,0.39 0.24,0.38 0.23,0.38 0.21,0.37 0.21,0.37 0.2,0.36 0.18,0.35 0.18,0.35 0.18,0.35 0.16,0.34 0.15,0.33 0.15,0.33 0.14,0.33 0.14,0.32 0.24,0.62 0.23,0.61 0.2,0.6 0.19,0.57 0.16,0.56 0.16,0.54 0.14,0.53 0.13,0.52 0.13,0.5 c 1.73,6.87 3.64,12.86 6.71,16.3 0.61,0.65 1,1.09 2.6,1.09 3.44,0 3.53,-3.44 3.53,-4.12 0,-0.91 -0.25,-1.6 -0.25,-1.85 0,-0.36 0.31,-0.36 0.36,-0.36 0.8,0 2.14,0.55 3.39,1.46 0.89,0.68 1.34,1.18 1.34,3.23 0,2.69 -1.4,4.73 -4.18,4.73 -1.6,0 -5.99,-0.4 -10.86,-5.32 -3.99,-4.1 -6.33,-13.07 -7.28,-16.8 -0.9,-3.44 -1.3,-4.99 -2.79,-7.97 -0.36,-0.59 -1.65,-2.8 -2.34,-3.44 -1.34,-1.25 -1.84,-2.14 -1.84,-2.39 0,-0.09 0.09,-0.29 0.45,-0.29 0.19,0 1.23,0.2 2.53,1.04 0.84,0.5 0.95,0.6 2.09,1.8 2.5,-0.06 4.24,-0.5 7.38,-1.41 2.55,-0.68 5.08,-1.43 7.62,-1.43 4.04,0 8.13,3.03 9.72,5.23 0.99,1.34 1.3,2.58 1.3,2.73 0,0.35 -0.31,0.35 -0.36,0.35 -0.8,0 -1.98,-0.55 -2.84,-1.14 -1.35,-0.85 -1.44,-1.14 -1.74,-2 -0.25,-0.8 -0.54,-1.19 -0.75,-1.49 -0.39,-0.59 -0.45,-0.59 -1.2,-0.59 -2.39,0 -4.88,0.73 -8.16,1.64 -1.4,0.39 -4.14,1.19 -6.64,1.19 -0.64,0 -1.34,-0.05 -1.98,-0.19 z"
           inkscape:connector-curvature="0"
           style="fill:#000000;stroke-width:0" /><path
           id="path3852"
           d="m 514.17,419.01 0.09,0.21 0.1,0.2 0.05,0.1 0.06,0.1 0.06,0.1 0.07,0.1 0.07,0.1 0.08,0.1 0.08,0.09 0.08,0.09 0.09,0.1 0.1,0.08 0.1,0.09 0.11,0.08 0.12,0.08 0.12,0.08 0.13,0.07 0.13,0.07 0.14,0.07 0.16,0.06 0.16,0.06 0.16,0.05 0.18,0.05 0.18,0.04 0.2,0.03 0.2,0.04 0.21,0.02 0.23,0.02 0.23,0.01 0.24,0.01 v 1.25 c -1.01,-0.11 -2.37,-0.14 -3.38,-0.14 -1.4,0 -3.97,0.14 -4.18,0.14 v -1.25 c 1.28,0 2.41,-0.56 2.41,-1.64 0,-0.25 -0.08,-0.49 -0.19,-0.74 l -7.2,-16.82 -7.53,17.67 c -0.21,0.4 -0.21,0.48 -0.21,0.59 0,0.94 1.82,0.94 2.75,0.94 v 1.25 c -1.75,-0.06 -3.96,-0.14 -5.18,-0.14 -1.75,0 -4.36,0.14 -4.47,0.14 v -1.25 h 0.59 c 1.88,0 2.47,-0.17 2.92,-1.25 l 9.07,-21.19 c 0.25,-0.56 0.34,-0.81 1.01,-0.81 0.35,0 0.69,0 1.02,0.73 z"
           inkscape:connector-curvature="0"
           style="fill:#000000;stroke-width:0" /><path
           id="path3854"
           d="m 536.72,410.64 0.3,0.07 0.29,0.08 0.29,0.09 0.29,0.09 0.29,0.11 0.29,0.11 0.28,0.11 0.28,0.13 0.27,0.13 0.27,0.14 0.26,0.14 0.26,0.15 0.25,0.16 0.24,0.16 0.24,0.18 0.22,0.17 0.22,0.19 0.2,0.18 0.2,0.2 0.18,0.2 0.18,0.21 0.16,0.21 0.15,0.21 0.13,0.23 0.13,0.22 0.1,0.24 0.1,0.23 0.07,0.25 0.06,0.25 0.05,0.25 0.02,0.25 0.01,0.27 c 0,3.48 -4.59,6.31 -10,6.31 h -11.75 v -1.25 h 0.85 c 2.68,0 2.75,-0.35 2.75,-1.58 v -18.14 c 0,-1.19 -0.07,-1.58 -2.75,-1.58 h -0.85 v -1.25 c 0.05,0 3.74,0.14 5.16,0.14 1.47,0 3.45,-0.08 5.2,-0.14 v 1.25 h -0.84 c -2.69,0 -2.75,0.36 -2.75,1.58 v 8.59 0.99 8.78 c 0,0.97 0.03,1.22 0.94,1.33 0.28,0.03 1.47,0.03 2.2,0.03 3.34,0 8.11,0 8.11,-5.06 0,-3.89 -3.03,-5.08 -6.72,-5.08 v 0 h -4.53 v -0.99 h 4.64 c 0.62,0 2.44,0 3.97,-1.42 1.22,-1.08 1.22,-1.95 1.22,-4.28 0,-2.27 0,-3.7 1.59,-5.02 1.5,-1.21 3.56,-1.4 4.53,-1.4 2.97,0 3.74,2.83 3.74,3.87 0,0.25 0,0.66 -0.6,0.66 -0.51,0 -0.56,-0.31 -0.59,-0.66 -0.17,-2.01 -1.33,-2.89 -2.41,-2.89 -1.98,0 -2.26,2.05 -2.67,5.22 -0.39,2.8 -0.5,3.35 -1.5,4.5 -0.36,0.39 -1.33,1.3 -3.22,1.88 z"
           inkscape:connector-curvature="0"
           style="fill:#000000;stroke-width:0" /><path
           id="path3856"
           d="m 575.16,410.54 -0.02,0.65 -0.05,0.64 -0.08,0.64 -0.11,0.62 -0.15,0.61 -0.17,0.6 -0.2,0.59 -0.23,0.58 -0.25,0.56 -0.28,0.55 -0.31,0.53 -0.33,0.52 -0.36,0.5 -0.38,0.48 -0.4,0.46 -0.42,0.45 -0.45,0.42 -0.46,0.4 -0.49,0.38 -0.5,0.36 -0.52,0.33 -0.53,0.31 -0.56,0.28 -0.57,0.25 -0.58,0.23 -0.59,0.21 -0.61,0.17 -0.62,0.14 -0.64,0.11 -0.64,0.09 -0.65,0.05 -0.67,0.01 v -1.12 c 3.97,0 9.1,-2.96 9.1,-11.05 0,-8.56 -5.02,-11.88 -9.1,-11.88 v 0 c -4.07,0 -9.09,3.32 -9.09,11.88 0,8.09 5.13,11.05 9.09,11.05 v 1.12 c -7.14,0 -12.82,-5.75 -12.82,-12.72 0,-6.83 5.68,-12.48 12.82,-12.48 7.14,0 12.82,5.65 12.82,12.48 z"
           inkscape:connector-curvature="0"
           style="fill:#000000;stroke-width:0" /></g>    </g>
    <text
       xml:space="preserve"
       style="font-style:normal;font-variant:normal;font-weight:normal;font-stretch:normal;font-size:14.8166666px;line-height:1.25;font-family:Times;-inkscape-font-specification:Times;letter-spacing:0px;word-spacing:0px;fill:#000000;fill-opacity:1;stroke:none;stroke-width:0.26458332"
       x="236.78386"
       y="145.28581"
       id="text247"
       inkscape:transform-center-x="-16.854326"
       inkscape:transform-center-y="1.1623673"><tspan
         sodipodi:role="line"
         id="tspan245"
         x="236.78386"
         y="145.28581"
         style="font-size:14.11111069px;stroke-width:0.26458332">Back-Propagation</tspan></text>
    <text
       inkscape:transform-center-y="1.1623673"
       inkscape:transform-center-x="-16.854326"
       id="text255"
       y="278.58917"
       x="200.55763"
       style="font-style:normal;font-variant:normal;font-weight:normal;font-stretch:normal;font-size:15.52222252px;line-height:1.25;font-family:Times;-inkscape-font-specification:Times;letter-spacing:0px;word-spacing:0px;fill:#000000;fill-opacity:1;stroke:none;stroke-width:0.26458332"
       xml:space="preserve"><tspan
         style="font-size:14.11111069px;stroke-width:0.26458332"
         y="278.58917"
         x="200.55763"
         id="tspan253"
         sodipodi:role="line">Unrolled Training</tspan></text>
  </g>
</svg>
