<?xml version="1.0" encoding="UTF-8" standalone="no"?>
<!-- Created with Inkscape (http://www.inkscape.org/) -->

<svg
   xmlns:dc="http://purl.org/dc/elements/1.1/"
   xmlns:cc="http://creativecommons.org/ns#"
   xmlns:rdf="http://www.w3.org/1999/02/22-rdf-syntax-ns#"
   xmlns:svg="http://www.w3.org/2000/svg"
   xmlns="http://www.w3.org/2000/svg"
   xmlns:sodipodi="http://sodipodi.sourceforge.net/DTD/sodipodi-0.dtd"
   xmlns:inkscape="http://www.inkscape.org/namespaces/inkscape"
   width="210mm"
   height="297mm"
   viewBox="0 0 210 297"
   version="1.1"
   id="svg8"
   inkscape:version="0.92.2 5c3e80d, 2017-08-06"
   sodipodi:docname="npm.svg">
  <defs
     id="defs2">
    <clipPath
       id="clipPath777"
       clipPathUnits="userSpaceOnUse">
      <path
         style="clip-rule:evenodd"
         inkscape:connector-curvature="0"
         id="path775"
         d="M 0,0 H 1204.1666 V 498.9971 H 0 Z" />
    </clipPath>
    <clipPath
       id="clipPath789"
       clipPathUnits="userSpaceOnUse">
      <path
         style="clip-rule:evenodd"
         inkscape:connector-curvature="0"
         id="path787"
         d="M 0,0 H 1204.1666 V 496.00909 H 0 Z" />
    </clipPath>
    <clipPath
       id="clipPath1225"
       clipPathUnits="userSpaceOnUse">
      <path
         style="clip-rule:evenodd"
         inkscape:connector-curvature="0"
         id="path1223"
         d="M 0,0 H 1262.5 V 498.43378 H 0 Z" />
    </clipPath>
    <clipPath
       id="clipPath1237"
       clipPathUnits="userSpaceOnUse">
      <path
         style="clip-rule:evenodd"
         inkscape:connector-curvature="0"
         id="path1235"
         d="M 0,0 H 1262.5 V 495.44916 H 0 Z" />
    </clipPath>
    <clipPath
       id="clipPath1657"
       clipPathUnits="userSpaceOnUse">
      <path
         style="clip-rule:evenodd"
         inkscape:connector-curvature="0"
         id="path1655"
         d="M 0,0 H 1275 V 498.65341 H 0 Z" />
    </clipPath>
    <clipPath
       id="clipPath1669"
       clipPathUnits="userSpaceOnUse">
      <path
         style="clip-rule:evenodd"
         inkscape:connector-curvature="0"
         id="path1667"
         d="M 0,0 H 1275 V 495.66745 H 0 Z" />
    </clipPath>
    <clipPath
       id="clipPath259"
       clipPathUnits="userSpaceOnUse">
      <path
         style="clip-rule:evenodd"
         inkscape:connector-curvature="0"
         id="path257"
         d="M 0,0 H 1275 V 498.65341 H 0 Z" />
    </clipPath>
    <clipPath
       id="clipPath271"
       clipPathUnits="userSpaceOnUse">
      <path
         style="clip-rule:evenodd"
         inkscape:connector-curvature="0"
         id="path269"
         d="M 0,0 H 1275 V 495.66745 H 0 Z" />
    </clipPath>
    <clipPath
       id="clipPath239"
       clipPathUnits="userSpaceOnUse">
      <path
         style="clip-rule:evenodd"
         inkscape:connector-curvature="0"
         id="path237"
         d="M 0,0 H 1204.1666 V 498.9971 H 0 Z" />
    </clipPath>
    <clipPath
       id="clipPath251"
       clipPathUnits="userSpaceOnUse">
      <path
         style="clip-rule:evenodd"
         inkscape:connector-curvature="0"
         id="path249"
         d="M 0,0 H 1204.1666 V 496.00909 H 0 Z" />
    </clipPath>
    <clipPath
       id="clipPath895"
       clipPathUnits="userSpaceOnUse">
      <path
         style="clip-rule:evenodd"
         inkscape:connector-curvature="0"
         id="path893"
         d="M 0,0 H 1204.1666 V 490.03308 H 0 Z" />
    </clipPath>
    <clipPath
       id="clipPath907"
       clipPathUnits="userSpaceOnUse">
      <path
         style="clip-rule:evenodd"
         inkscape:connector-curvature="0"
         id="path905"
         d="M 0,0 H 1204.1666 V 490.03308 H 0 Z" />
    </clipPath>
    <clipPath
       id="clipPath1336"
       clipPathUnits="userSpaceOnUse">
      <path
         style="clip-rule:evenodd"
         inkscape:connector-curvature="0"
         id="path1334"
         d="M 0,0 H 1208.3333 V 490.51151 H 0 Z" />
    </clipPath>
    <clipPath
       id="clipPath1348"
       clipPathUnits="userSpaceOnUse">
      <path
         style="clip-rule:evenodd"
         inkscape:connector-curvature="0"
         id="path1346"
         d="M 0,0 H 1208.3333 V 490.51151 H 0 Z" />
    </clipPath>
    <clipPath
       id="clipPath249"
       clipPathUnits="userSpaceOnUse">
      <path
         style="clip-rule:evenodd"
         inkscape:connector-curvature="0"
         id="path247"
         d="M 0,0 H 1237.4999 V 490.21738 H 0 Z" />
    </clipPath>
    <clipPath
       id="clipPath261"
       clipPathUnits="userSpaceOnUse">
      <path
         style="clip-rule:evenodd"
         inkscape:connector-curvature="0"
         id="path259"
         d="M 0,0 H 1237.4999 V 490.21738 H 0 Z" />
    </clipPath>
    <clipPath
       id="clipPath690"
       clipPathUnits="userSpaceOnUse">
      <path
         style="clip-rule:evenodd"
         inkscape:connector-curvature="0"
         id="path688"
         d="M 0,0 H 1237.4999 V 490.21738 H 0 Z" />
    </clipPath>
    <clipPath
       id="clipPath702"
       clipPathUnits="userSpaceOnUse">
      <path
         style="clip-rule:evenodd"
         inkscape:connector-curvature="0"
         id="path700"
         d="M 0,0 H 1237.4999 V 490.21738 H 0 Z" />
    </clipPath>
    <clipPath
       id="clipPath1200"
       clipPathUnits="userSpaceOnUse">
      <path
         style="clip-rule:evenodd"
         inkscape:connector-curvature="0"
         id="path1198"
         d="M 0,0 H 1237.4999 V 490.21738 H 0 Z" />
    </clipPath>
    <clipPath
       id="clipPath1212"
       clipPathUnits="userSpaceOnUse">
      <path
         style="clip-rule:evenodd"
         inkscape:connector-curvature="0"
         id="path1210"
         d="M 0,0 H 1237.4999 V 490.21738 H 0 Z" />
    </clipPath>
    <clipPath
       id="clipPath1660"
       clipPathUnits="userSpaceOnUse">
      <path
         style="clip-rule:evenodd"
         inkscape:connector-curvature="0"
         id="path1658"
         d="M 0,0 H 1266.6666 V 489.9371 H 0 Z" />
    </clipPath>
    <clipPath
       id="clipPath1672"
       clipPathUnits="userSpaceOnUse">
      <path
         style="clip-rule:evenodd"
         inkscape:connector-curvature="0"
         id="path1670"
         d="M 0,0 H 1266.6666 V 489.9371 H 0 Z" />
    </clipPath>
    <clipPath
       id="clipPath2101"
       clipPathUnits="userSpaceOnUse">
      <path
         style="clip-rule:evenodd"
         inkscape:connector-curvature="0"
         id="path2099"
         d="M 0,0 H 1262.5 V 489.47989 H 0 Z" />
    </clipPath>
    <clipPath
       id="clipPath2113"
       clipPathUnits="userSpaceOnUse">
      <path
         style="clip-rule:evenodd"
         inkscape:connector-curvature="0"
         id="path2111"
         d="M 0,0 H 1262.5 V 489.47989 H 0 Z" />
    </clipPath>
  </defs>
  <sodipodi:namedview
     id="base"
     pagecolor="#ffffff"
     bordercolor="#666666"
     borderopacity="1.0"
     inkscape:pageopacity="0.0"
     inkscape:pageshadow="2"
     inkscape:zoom="0.70803924"
     inkscape:cx="693.45667"
     inkscape:cy="228.46269"
     inkscape:document-units="mm"
     inkscape:current-layer="g222"
     showgrid="false"
     inkscape:window-width="1440"
     inkscape:window-height="775"
     inkscape:window-x="0"
     inkscape:window-y="1"
     inkscape:window-maximized="1" />
  <metadata
     id="metadata5">
    <rdf:RDF>
      <cc:Work
         rdf:about="">
        <dc:format>image/svg+xml</dc:format>
        <dc:type
           rdf:resource="http://purl.org/dc/dcmitype/StillImage" />
        <dc:title></dc:title>
      </cc:Work>
    </rdf:RDF>
  </metadata>
  <g
     inkscape:label="Layer 1"
     inkscape:groupmode="layer"
     id="layer1">
    <g
       id="g222"
       transform="translate(-0.52846983,-5.5489313)">
      <g
         transform="matrix(0.29940596,0,0,0.29940596,0.52846983,155.99573)"
         inkscape:label="npm (3)"
         id="g2093">
        <g
           id="g2095">
          <g
             clip-path="url(#clipPath2101)"
             id="g2097">
            <g
               transform="scale(2.9846334)"
               id="g2103">
              <path
                 inkscape:connector-curvature="0"
                 id="path2105"
                 style="fill:#ffffff;fill-opacity:1;fill-rule:nonzero;stroke:none"
                 d="M 0,0 H 423 V 164 H 0 Z" />
            </g>
          </g>
        </g>
        <g
           id="g2107">
          <g
             clip-path="url(#clipPath2113)"
             id="g2109">
            <g
               transform="matrix(2.9846334,0,0,2.9846334,1.4923167,1.4923167)"
               id="g2115">
              <path
                 inkscape:connector-curvature="0"
                 id="path2117"
                 style="fill:#ffffff;fill-opacity:1;fill-rule:nonzero;stroke:none"
                 d="M 97,1 H 421 V 37 H 97 Z" />
              <path
                 inkscape:connector-curvature="0"
                 id="path2119"
                 style="fill:#000000;fill-opacity:1;fill-rule:nonzero;stroke:none"
                 d="m 103,0.5 h 3 v 1 h -3 z m 6,0 h 3 v 1 h -3 z m 6,0 h 3 v 1 h -3 z m 6,0 h 3 v 1 h -3 z m 6,0 h 3 v 1 h -3 z m 6,0 h 3 v 1 h -3 z m 6,0 h 3 v 1 h -3 z m 6,0 h 3 v 1 h -3 z m 6,0 h 3 v 1 h -3 z m 6,0 h 3 v 1 h -3 z m 6,0 h 3 v 1 h -3 z m 6,0 h 3 v 1 h -3 z m 6,0 h 3 v 1 h -3 z m 6,0 h 3 v 1 h -3 z m 6,0 h 3 v 1 h -3 z m 6,0 h 3 v 1 h -3 z m 6,0 h 3 v 1 h -3 z m 6,0 h 3 v 1 h -3 z m 6,0 h 3 v 1 h -3 z m 6,0 h 3 v 1 h -3 z m 6,0 h 3 v 1 h -3 z m 6,0 h 3 v 1 h -3 z m 6,0 h 3 v 1 h -3 z m 6,0 h 3 v 1 h -3 z m 6,0 h 3 v 1 h -3 z m 6,0 h 3 v 1 h -3 z m 6,0 h 3 v 1 h -3 z m 6,0 h 3 v 1 h -3 z m 6,0 h 3 v 1 h -3 z m 6,0 h 3 v 1 h -3 z m 6,0 h 3 v 1 h -3 z m 6,0 h 3 v 1 h -3 z m 6,0 h 3 v 1 h -3 z m 6,0 h 3 v 1 h -3 z m 6,0 h 3 v 1 h -3 z m 6,0 h 3 v 1 h -3 z m 6,0 h 3 v 1 h -3 z m 6,0 h 3 v 1 h -3 z m 6,0 h 3 v 1 h -3 z m 6,0 h 3 v 1 h -3 z m 6,0 h 3 v 1 h -3 z m 6,0 h 3 v 1 h -3 z m 6,0 h 3 v 1 h -3 z m 6,0 h 3 v 1 h -3 z m 6,0 h 3 v 1 h -3 z m 6,0 h 3 v 1 h -3 z m 6,0 h 3 v 1 h -3 z m 6,0 h 3 v 1 h -3 z m 6,0 h 3 v 1 h -3 z m 6,0 h 3 v 1 h -3 z m 6,0 h 3 v 1 h -3 z m 6,0 h 3 v 1 h -3 z m 6,0 h 3 v 1 h -3 z m 6.5,0.5 v 3 h -1 V 1 Z m 0,6 v 3 h -1 V 7 Z m 0,6 v 3 h -1 v -3 z m 0,6 v 3 h -1 v -3 z m 0,6 v 3 h -1 v -3 z m 0,6 v 3 h -1 v -3 z m -0.5,6.5 h -3 v -1 h 3 z m -6,0 h -3 v -1 h 3 z m -6,0 h -3 v -1 h 3 z m -6,0 h -3 v -1 h 3 z m -6,0 h -3 v -1 h 3 z m -6,0 h -3 v -1 h 3 z m -6,0 h -3 v -1 h 3 z m -6,0 h -3 v -1 h 3 z m -6,0 h -3 v -1 h 3 z m -6,0 h -3 v -1 h 3 z m -6,0 h -3 v -1 h 3 z m -6,0 h -3 v -1 h 3 z m -6,0 h -3 v -1 h 3 z m -6,0 h -3 v -1 h 3 z m -6,0 h -3 v -1 h 3 z m -6,0 h -3 v -1 h 3 z m -6,0 h -3 v -1 h 3 z m -6,0 h -3 v -1 h 3 z m -6,0 h -3 v -1 h 3 z m -6,0 h -3 v -1 h 3 z m -6,0 h -3 v -1 h 3 z m -6,0 h -3 v -1 h 3 z m -6,0 h -3 v -1 h 3 z m -6,0 h -3 v -1 h 3 z m -6,0 h -3 v -1 h 3 z m -6,0 h -3 v -1 h 3 z m -6,0 h -3 v -1 h 3 z m -6,0 h -3.00002 v -1 H 259 Z m -6,0 h -3 v -1 h 3 z m -6,0 h -3 v -1 h 3 z m -6.00002,0 H 238 v -1 h 2.99998 z M 235,37.5 h -3 v -1 h 3 z m -6,0 h -3.00002 v -1 H 229 Z m -6,0 h -3 v -1 h 3 z m -6,0 h -3 v -1 h 3 z m -5.99998,0 H 208 v -1 h 3.00002 z M 205,37.5 h -3 v -1 h 3 z m -6,0 h -2.99998 v -1 H 199 Z m -6,0 h -3 v -1 h 3 z m -6,0 h -3 v -1 h 3 z m -5.99998,0 H 178 v -1 h 3.00002 z m -6.00004,0 H 172 v -1 h 2.99998 z M 169,37.5 h -3 v -1 h 3 z m -6,0 h -3 v -1 h 3 z m -6,0 h -3 v -1 h 3 z m -6,0 h -3 v -1 h 3 z m -6,0 h -3 v -1 h 3 z m -6,0 h -3 v -1 h 3 z m -6,0 h -3 v -1 h 3 z m -6,0 h -3 v -1 h 3 z m -6,0 h -3 v -1 h 3 z m -6,0 h -3 v -1 h 3 z m -6,0 h -3 v -1 h 3 z m -6,0 h -3 v -1 h 3 z M 96.5,37 v -3 h 1 v 3 z m 0,-6 v -3 h 1 v 3 z m 0,-6 v -3 h 1 v 3 z m 0,-6 v -3 h 1 v 3 z m 0,-6 v -3 h 1 v 3 z m 0,-6 V 4 h 1 V 7 Z M 97,0.5 h 3 v 1 h -3 z" />
              <path
                 inkscape:connector-curvature="0"
                 id="path2121"
                 style="fill:#ffffff;fill-opacity:1;fill-rule:nonzero;stroke:none"
                 d="M 1,43 H 421 V 79 H 1 Z" />
              <path
                 inkscape:connector-curvature="0"
                 id="path2123"
                 style="fill:#000000;fill-opacity:1;fill-rule:nonzero;stroke:none"
                 d="m 7,42.5 h 3 v 1 H 7 Z m 6,0 h 3 v 1 h -3 z m 6,0 h 3 v 1 h -3 z m 6,0 h 3.000002 v 1 H 25 Z m 6.000002,0 H 34 v 1 H 31.000002 Z M 37,42.5 h 3 v 1 h -3 z m 6,0 h 3 v 1 h -3 z m 6,0 h 3 v 1 h -3 z m 6.000004,0 h 3 v 1 h -3 z m 6,0 H 64 v 1 H 61.000004 Z M 67,42.5 h 3 v 1 h -3 z m 6,0 h 3 v 1 h -3 z m 6,0 h 3 v 1 h -3 z m 6,0 h 3 v 1 h -3 z m 6,0 h 3 v 1 h -3 z m 6,0 h 3 v 1 h -3 z m 6,0 h 3 v 1 h -3 z m 6.00001,0 H 112 v 1 h -2.99999 z m 6,0 H 118 v 1 h -2.99999 z m 6,0 H 124 v 1 h -2.99999 z m 6,0 H 130 v 1 h -2.99999 z M 133,42.5 h 3 v 1 h -3 z m 6,0 h 3 v 1 h -3 z m 6,0 h 3 v 1 h -3 z m 6,0 h 3 v 1 h -3 z m 6,0 h 3 v 1 h -3 z m 6,0 h 3 v 1 h -3 z m 6,0 h 3 v 1 h -3 z m 6,0 h 3 v 1 h -3 z m 6,0 h 3 v 1 h -3 z m 6,0 h 3 v 1 h -3 z m 6,0 h 3 v 1 h -3 z m 6,0 h 3 v 1 h -3 z m 6,0 h 3 v 1 h -3 z m 6,0 h 3 v 1 h -3 z m 6.00002,0 H 220 v 1 h -2.99998 z M 223,42.5 h 3 v 1 h -3 z m 6.00002,0 H 232 v 1 h -2.99998 z M 235,42.5 h 2.99998 v 1 H 235 Z m 6.00002,0 H 244 v 1 h -2.99998 z M 247,42.5 h 2.99998 v 1 H 247 Z m 6.00002,0 H 256 v 1 h -2.99998 z M 259,42.5 h 3 v 1 h -3 z m 6,0 h 3 v 1 h -3 z m 6,0 h 3 v 1 h -3 z m 6,0 h 3 v 1 h -3 z m 6,0 h 3 v 1 h -3 z m 6,0 h 3 v 1 h -3 z m 6,0 h 3 v 1 h -3 z m 6,0 h 3 v 1 h -3 z m 6,0 h 3 v 1 h -3 z m 6,0 h 3 v 1 h -3 z m 6,0 h 3 v 1 h -3 z m 6,0 h 3 v 1 h -3 z m 6,0 h 3 v 1 h -3 z m 6,0 h 3 v 1 h -3 z m 6,0 h 3 v 1 h -3 z m 6,0 h 3 v 1 h -3 z m 6,0 h 3 v 1 h -3 z m 6,0 h 3 v 1 h -3 z m 6,0 h 3 v 1 h -3 z m 6,0 h 3 v 1 h -3 z m 6,0 h 3 v 1 h -3 z m 6,0 h 3 v 1 h -3 z m 6,0 h 3 v 1 h -3 z m 6,0 h 3 v 1 h -3 z m 6,0 h 3 v 1 h -3 z m 6,0 h 3 v 1 h -3 z m 6,0 h 3 v 1 h -3 z m 6.5,0.5 v 3 h -1 v -3 z m 0,6 v 3 h -1 v -3 z m 0,6 v 3 h -1 v -3 z m 0,6 v 3 h -1 v -3 z m 0,6 v 3 h -1 v -3 z m 0,6 v 3 h -1 v -3 z m -0.5,6.5 h -3 v -1 h 3 z m -6,0 h -3 v -1 h 3 z m -6,0 h -3 v -1 h 3 z m -6,0 h -3 v -1 h 3 z m -6,0 h -3 v -1 h 3 z m -6,0 h -3 v -1 h 3 z m -6,0 h -3 v -1 h 3 z m -6,0 h -3 v -1 h 3 z m -6,0 h -3 v -1 h 3 z m -6,0 h -3 v -1 h 3 z m -6,0 h -3 v -1 h 3 z m -6,0 h -3 v -1 h 3 z m -6,0 h -3 v -1 h 3 z m -6,0 h -3 v -1 h 3 z m -6,0 h -3 v -1 h 3 z m -6,0 h -3 v -1 h 3 z m -6,0 h -3 v -1 h 3 z m -6,0 h -3 v -1 h 3 z m -6,0 h -3 v -1 h 3 z m -6,0 h -3 v -1 h 3 z m -6,0 h -3 v -1 h 3 z m -6,0 h -3 v -1 h 3 z m -6,0 h -3 v -1 h 3 z m -6,0 h -3 v -1 h 3 z m -6,0 h -3 v -1 h 3 z m -6,0 h -3 v -1 h 3 z m -6,0 h -3 v -1 h 3 z m -6,0 h -3 v -1 h 3 z m -6,0 h -3 v -1 h 3 z m -6,0 h -3 v -1 h 3 z m -6,0 h -3 v -1 h 3 z m -6,0 h -3 v -1 h 3 z m -6,0 h -3 v -1 h 3 z m -6,0 h -3 v -1 h 3 z m -6,0 h -3 v -1 h 3 z m -6,0 h -3 v -1 h 3 z m -6.00002,0 H 202 v -1 h 2.99998 z M 199,79.5 h -3 v -1 h 3 z m -6.00002,0 H 190 v -1 h 2.99998 z M 187,79.5 h -2.99998 v -1 H 187 Z m -6.00002,0 H 178 v -1 h 2.99998 z M 175,79.5 h -2.99998 v -1 H 175 Z m -6.00002,0 H 166 v -1 h 2.99998 z M 163,79.5 h -3 v -1 h 3 z m -6,0 h -3 v -1 h 3 z m -6,0 h -3 v -1 h 3 z m -6,0 h -3 v -1 h 3 z m -6,0 h -3 v -1 h 3 z m -6,0 h -3 v -1 h 3 z m -6,0 h -3 v -1 h 3 z m -6,0 h -3 v -1 h 3 z m -6,0 h -3 v -1 h 3 z m -6,0 h -3 v -1 h 3 z m -6,0 h -3 v -1 h 3 z m -6,0 h -3 v -1 h 3 z m -6,0 h -3 v -1 h 3 z m -6,0 h -3 v -1 h 3 z m -6,0 h -3 v -1 h 3 z m -6,0 h -3 v -1 h 3 z m -6,0 h -3 v -1 h 3 z m -6,0 h -3 v -1 h 3 z m -6,0 h -3 v -1 h 3 z m -6,0 h -3 v -1 h 3 z m -6,0 h -3 v -1 h 3 z m -6,0 h -3 v -1 h 3 z m -6,0 h -3 v -1 h 3 z m -6,0 h -3 v -1 h 3 z m -6,0 h -3 v -1 h 3 z m -6,0 h -3 v -1 h 3 z m -6,0 H 4 v -1 H 7 Z M 0.5,79 v -3 h 1 v 3 z m 0,-6 v -3 h 1 v 3 z m 0,-6 v -3 h 1 v 3 z m 0,-6 v -3 h 1 v 3 z m 0,-6 v -3 h 1 v 3 z m 0,-6 v -3 h 1 v 3 z M 1,42.5 h 3 v 1 H 1 Z" />
              <path
                 inkscape:connector-curvature="0"
                 id="path2125"
                 style="fill:#ffffff;fill-opacity:1;fill-rule:nonzero;stroke:none"
                 d="m 217,85 h 204 v 36 H 217 Z" />
              <path
                 inkscape:connector-curvature="0"
                 id="path2127"
                 style="fill:#000000;fill-opacity:1;fill-rule:nonzero;stroke:none"
                 d="m 223,84.5 h 3 v 1 h -3 z m 6,0 h 3 v 1 h -3 z m 6,0 h 3 v 1 h -3 z m 6,0 h 3 v 1 h -3 z m 6,0 h 3 v 1 h -3 z m 6,0 h 3 v 1 h -3 z m 6,0 h 3 v 1 h -3 z m 6,0 h 3 v 1 h -3 z m 6,0 h 3 v 1 h -3 z m 6,0 h 3 v 1 h -3 z m 6,0 h 3 v 1 h -3 z m 6,0 h 3 v 1 h -3 z m 6,0 h 3 v 1 h -3 z m 6,0 h 3 v 1 h -3 z m 6,0 h 3 v 1 h -3 z m 6,0 h 3 v 1 h -3 z m 6,0 h 3 v 1 h -3 z m 6,0 h 3 v 1 h -3 z m 6,0 h 3 v 1 h -3 z m 6,0 h 3 v 1 h -3 z m 6,0 h 3 v 1 h -3 z m 6,0 h 3 v 1 h -3 z m 6,0 h 3 v 1 h -3 z m 6,0 h 3 v 1 h -3 z m 6,0 h 3 v 1 h -3 z m 6,0 h 3 v 1 h -3 z m 6,0 h 3 v 1 h -3 z m 6,0 h 3 v 1 h -3 z m 6,0 h 3 v 1 h -3 z m 6,0 h 3 v 1 h -3 z m 6,0 h 3 v 1 h -3 z m 6,0 h 3 v 1 h -3 z m 6,0 h 3 v 1 h -3 z m 6.5,0.5 v 3 h -1 v -3 z m 0,6 v 3 h -1 v -3 z m 0,6 v 3 h -1 v -3 z m 0,6 v 3 h -1 v -3 z m 0,6 v 3 h -1 v -3 z m 0,6 v 3 h -1 v -3 z m -0.5,6.5 h -3 v -1 h 3 z m -6,0 h -3 v -1 h 3 z m -6,0 h -3 v -1 h 3 z m -6,0 h -3 v -1 h 3 z m -6,0 h -3 v -1 h 3 z m -6,0 h -3 v -1 h 3 z m -6,0 h -3 v -1 h 3 z m -6,0 h -3 v -1 h 3 z m -6,0 h -3 v -1 h 3 z m -6,0 h -3 v -1 h 3 z m -6,0 h -3 v -1 h 3 z m -6,0 h -3 v -1 h 3 z m -6,0 h -3 v -1 h 3 z m -6,0 h -3 v -1 h 3 z m -6,0 h -3 v -1 h 3 z m -6,0 h -3 v -1 h 3 z m -6,0 h -3 v -1 h 3 z m -6,0 h -3 v -1 h 3 z m -6,0 h -3 v -1 h 3 z m -6,0 h -3 v -1 h 3 z m -6,0 h -3 v -1 h 3 z m -6,0 h -3 v -1 h 3 z m -6,0 h -3 v -1 h 3 z m -6,0 h -3 v -1 h 3 z m -6,0 h -3 v -1 h 3 z m -6,0 h -3 v -1 h 3 z m -6,0 h -3 v -1 h 3 z m -6,0 h -3 v -1 h 3 z m -6,0 h -3 v -1 h 3 z m -6,0 h -3 v -1 h 3 z m -6,0 h -3 v -1 h 3 z m -6,0 h -3 v -1 h 3 z m -6,0 h -3 v -1 h 3 z m -6,0 h -3 v -1 h 3 z m -6.5,-0.5 v -3 h 1 v 3 z m 0,-6 v -3 h 1 v 3 z m 0,-6 v -3 h 1 v 3 z m 0,-6 v -3 h 1 v 3 z m 0,-6 v -3 h 1 v 3 z m 0,-6 v -3 h 1 v 3 z m 0.5,-6.5 h 3 v 1 h -3 z" />
              <path
                 inkscape:connector-curvature="0"
                 id="path2129"
                 style="fill:#ffffff;fill-opacity:1;fill-rule:nonzero;stroke:none"
                 d="m 1,127 h 420 v 36 H 1 Z" />
              <path
                 inkscape:connector-curvature="0"
                 id="path2131"
                 style="fill:#000000;fill-opacity:1;fill-rule:nonzero;stroke:none"
                 d="m 7,126.5 h 3 v 1 H 7 Z m 6,0 h 3 v 1 h -3 z m 6,0 h 3 v 1 h -3 z m 6,0 h 3.000002 v 1 H 25 Z m 6.000002,0 H 34 v 1 H 31.000002 Z M 37,126.5 h 3 v 1 h -3 z m 6,0 h 3 v 1 h -3 z m 6,0 h 3 v 1 h -3 z m 6.000004,0 h 3 v 1 h -3 z m 6,0 H 64 v 1 H 61.000004 Z M 67,126.5 h 3 v 1 h -3 z m 6,0 h 3 v 1 h -3 z m 6,0 h 3 v 1 h -3 z m 6,0 h 3 v 1 h -3 z m 6,0 h 3 v 1 h -3 z m 6,0 h 3 v 1 h -3 z m 6,0 h 3 v 1 h -3 z m 6.00001,0 H 112 v 1 h -2.99999 z m 6,0 H 118 v 1 h -2.99999 z m 6,0 H 124 v 1 h -2.99999 z m 6,0 H 130 v 1 h -2.99999 z m 5.99999,0 h 3 v 1 h -3 z m 6,0 h 3 v 1 h -3 z m 6,0 h 3 v 1 h -3 z m 6,0 h 3 v 1 h -3 z m 6,0 h 3 v 1 h -3 z m 6,0 h 3 v 1 h -3 z m 6,0 h 3 v 1 h -3 z m 6,0 h 3 v 1 h -3 z m 6,0 h 3 v 1 h -3 z m 6,0 h 3 v 1 h -3 z m 6,0 h 3 v 1 h -3 z m 6,0 h 3 v 1 h -3 z m 6,0 h 3 v 1 h -3 z m 6,0 h 3 v 1 h -3 z m 6.00002,0 H 220 v 1 h -2.99998 z m 5.99998,0 h 3 v 1 h -3 z m 6.00002,0 H 232 v 1 h -2.99998 z m 5.99998,0 h 2.99998 v 1 H 235 Z m 6.00002,0 H 244 v 1 h -2.99998 z m 5.99998,0 h 2.99998 v 1 H 247 Z m 6.00002,0 H 256 v 1 h -2.99998 z m 5.99998,0 h 3 v 1 h -3 z m 6,0 h 3 v 1 h -3 z m 6,0 h 3 v 1 h -3 z m 6,0 h 3 v 1 h -3 z m 6,0 h 3 v 1 h -3 z m 6,0 h 3 v 1 h -3 z m 6,0 h 3 v 1 h -3 z m 6,0 h 3 v 1 h -3 z m 6,0 h 3 v 1 h -3 z m 6,0 h 3 v 1 h -3 z m 6,0 h 3 v 1 h -3 z m 6,0 h 3 v 1 h -3 z m 6,0 h 3 v 1 h -3 z m 6,0 h 3 v 1 h -3 z m 6,0 h 3 v 1 h -3 z m 6,0 h 3 v 1 h -3 z m 6,0 h 3 v 1 h -3 z m 6,0 h 3 v 1 h -3 z m 6,0 h 3 v 1 h -3 z m 6,0 h 3 v 1 h -3 z m 6,0 h 3 v 1 h -3 z m 6,0 h 3 v 1 h -3 z m 6,0 h 3 v 1 h -3 z m 6,0 h 3 v 1 h -3 z m 6,0 h 3 v 1 h -3 z m 6,0 h 3 v 1 h -3 z m 6,0 h 3 v 1 h -3 z m 6.5,0.5 v 3 h -1 v -3 z m 0,6 v 3 h -1 v -3 z m 0,6 v 3 h -1 v -3 z m 0,6 v 3 h -1 v -3 z m 0,6 v 3 h -1 v -3 z m 0,6 v 3 h -1 v -3 z m -0.5,6.5 h -3 v -1 h 3 z m -6,0 h -3 v -1 h 3 z m -6,0 h -3 v -1 h 3 z m -6,0 h -3 v -1 h 3 z m -6,0 h -3 v -1 h 3 z m -6,0 h -3 v -1 h 3 z m -6,0 h -3 v -1 h 3 z m -6,0 h -3 v -1 h 3 z m -6,0 h -3 v -1 h 3 z m -6,0 h -3 v -1 h 3 z m -6,0 h -3 v -1 h 3 z m -6,0 h -3 v -1 h 3 z m -6,0 h -3 v -1 h 3 z m -6,0 h -3 v -1 h 3 z m -6,0 h -3 v -1 h 3 z m -6,0 h -3 v -1 h 3 z m -6,0 h -3 v -1 h 3 z m -6,0 h -3 v -1 h 3 z m -6,0 h -3 v -1 h 3 z m -6,0 h -3 v -1 h 3 z m -6,0 h -3 v -1 h 3 z m -6,0 h -3 v -1 h 3 z m -6,0 h -3 v -1 h 3 z m -6,0 h -3 v -1 h 3 z m -6,0 h -3 v -1 h 3 z m -6,0 h -3 v -1 h 3 z m -6,0 h -3 v -1 h 3 z m -6,0 h -3 v -1 h 3 z m -6,0 h -3 v -1 h 3 z m -6,0 h -3 v -1 h 3 z m -6,0 h -3 v -1 h 3 z m -6,0 h -3 v -1 h 3 z m -6,0 h -3 v -1 h 3 z m -6,0 h -3 v -1 h 3 z m -6,0 h -3 v -1 h 3 z m -6,0 h -3 v -1 h 3 z m -6.00002,0 H 202 v -1 h 2.99998 z M 199,163.5 h -3 v -1 h 3 z m -6.00002,0 H 190 v -1 h 2.99998 z M 187,163.5 h -2.99998 v -1 H 187 Z m -6.00002,0 H 178 v -1 h 2.99998 z M 175,163.5 h -2.99998 v -1 H 175 Z m -6.00002,0 H 166 v -1 h 2.99998 z M 163,163.5 h -3 v -1 h 3 z m -6,0 h -3 v -1 h 3 z m -6,0 h -3 v -1 h 3 z m -6,0 h -3 v -1 h 3 z m -6,0 h -3 v -1 h 3 z m -6,0 h -3 v -1 h 3 z m -6,0 h -3 v -1 h 3 z m -6,0 h -3 v -1 h 3 z m -6,0 h -3 v -1 h 3 z m -6,0 h -3 v -1 h 3 z m -6,0 h -3 v -1 h 3 z m -6,0 h -3 v -1 h 3 z m -6,0 h -3 v -1 h 3 z m -6,0 h -3 v -1 h 3 z m -6,0 h -3 v -1 h 3 z m -6,0 h -3 v -1 h 3 z m -6,0 h -3 v -1 h 3 z m -6,0 h -3 v -1 h 3 z m -6,0 h -3 v -1 h 3 z m -6,0 h -3 v -1 h 3 z m -6,0 h -3 v -1 h 3 z m -6,0 h -3 v -1 h 3 z m -6,0 h -3 v -1 h 3 z m -6,0 h -3 v -1 h 3 z m -6,0 h -3 v -1 h 3 z m -6,0 h -3 v -1 h 3 z m -6,0 H 4 v -1 H 7 Z M 0.5,163 v -3 h 1 v 3 z m 0,-6 v -3 h 1 v 3 z m 0,-6 v -3 h 1 v 3 z m 0,-6 v -3 h 1 v 3 z m 0,-6 v -3 h 1 v 3 z m 0,-6 v -3 h 1 v 3 z M 1,126.5 h 3 v 1 H 1 Z" />
              <path
                 inkscape:connector-curvature="0"
                 id="path2133"
                 style="fill:#ffffff;fill-opacity:1;fill-rule:nonzero;stroke:none"
                 d="m 33,85 h 176 v 36 H 33 Z" />
              <path
                 inkscape:connector-curvature="0"
                 id="path2135"
                 style="fill:#000000;fill-opacity:1;fill-rule:nonzero;stroke:none"
                 d="m 39,84.5 h 3 v 1 h -3 z m 6,0 h 3 v 1 h -3 z m 6,0 h 3 v 1 h -3 z m 6,0 h 3 v 1 h -3 z m 6,0 h 3 v 1 h -3 z m 6,0 h 3 v 1 h -3 z m 6,0 h 3 v 1 h -3 z m 6,0 h 3 v 1 h -3 z m 6,0 h 3 v 1 h -3 z m 6,0 h 3 v 1 h -3 z m 6,0 h 3 v 1 h -3 z m 6,0 h 3 v 1 h -3 z m 6,0 h 3 v 1 h -3 z m 6,0 h 3 v 1 h -3 z m 6,0 h 2.99999 v 1 H 123 Z m 6,0 h 3 v 1 h -3 z m 6,0 h 3 v 1 h -3 z m 6,0 h 3 v 1 h -3 z m 6,0 h 3 v 1 h -3 z m 6,0 h 3 v 1 h -3 z m 6,0 h 3 v 1 h -3 z m 6,0 h 3 v 1 h -3 z m 6,0 h 3 v 1 h -3 z m 6,0 h 3 v 1 h -3 z m 6,0 h 3 v 1 h -3 z m 6,0 h 3 v 1 h -3 z m 6,0 h 3 v 1 h -3 z m 6,0 h 3 v 1 h -3 z m 6,0 h 2.5 V 86 h -1 v -1 h 0.5 v 0.5 h -2 z m 2.5,4.5 v 3 h -1 v -3 z m 0,6 v 3 h -1 v -3 z m 0,6 v 3 h -1 v -3 z m 0,6 v 3 h -1 v -3 z m 0,6 v 3 h -1 v -3 z m 0,6 v 2.5 H 208 v -1 h 1 v 0.5 h -0.5 v -2 z m -4.5,2.5 h -3 v -1 h 3 z m -6,0 h -3 v -1 h 3 z m -6,0 h -3 v -1 h 3 z m -6,0 h -3 v -1 h 3 z m -6,0 h -3 v -1 h 3 z m -6,0 h -3 v -1 h 3 z m -6,0 h -3 v -1 h 3 z m -6,0 h -3 v -1 h 3 z m -6,0 h -3 v -1 h 3 z m -6,0 h -3 v -1 h 3 z m -6,0 h -3 v -1 h 3 z m -6,0 h -3 v -1 h 3 z m -6,0 h -3 v -1 h 3 z m -6,0 h -3 v -1 h 3 z m -6,0 h -3 v -1 h 3 z m -6.00001,0 H 112 v -1 h 2.99999 z M 109,121.5 h -3 v -1 h 3 z m -6,0 h -3 v -1 h 3 z m -6,0 h -2.999992 v -1 H 97 Z m -6,0 h -3 v -1 h 3 z m -6,0 h -3.000008 v -1 H 85 Z m -6,0 h -3 v -1 h 3 z m -6,0 h -3 v -1 h 3 z m -6,0 h -3 v -1 h 3 z m -6,0 h -3 v -1 h 3 z m -6,0 h -3 v -1 h 3 z m -6,0 h -3 v -1 h 3 z m -6,0 h -3 v -1 h 3 z m -6,0 h -3 v -1 h 3 z M 32.5,119 v -3 h 1 v 3 z m 0,-6 v -3 h 1 v 3 z m 0,-6 v -3 h 1 v 3 z m 0,-6 v -3 h 1 v 3 z m 0,-6 v -3 h 1 v 3 z m 0,-6 v -3 h 1 v 3 z M 33,84.5 h 3 v 1 h -3 z" />
            </g>
            <g
               transform="matrix(2.9846334,0,0,2.9846334,26.861702,390.98697)"
               id="g2137">
              <path
                 inkscape:connector-curvature="0"
                 id="path2139"
                 style="fill:#2c2c2c;fill-opacity:1;fill-rule:nonzero;stroke:none"
                 d="m 264,0 h 25 v 1 h -25 z" />
              <path
                 inkscape:connector-curvature="0"
                 id="path2141"
                 style="fill:#2c2c2c;fill-opacity:1;fill-rule:nonzero;stroke:none"
                 d="m 264,24 h 25 v 1 h -25 z" />
              <path
                 inkscape:connector-curvature="0"
                 id="path2143"
                 style="fill:#2c2c2c;fill-opacity:1;fill-rule:nonzero;stroke:none"
                 d="m 288,0 h 1 v 25 h -1 z" />
              <path
                 inkscape:connector-curvature="0"
                 id="path2145"
                 style="fill:#2c2c2c;fill-opacity:1;fill-rule:nonzero;stroke:none"
                 d="m 240,0 h 25 v 1 h -25 z" />
              <path
                 inkscape:connector-curvature="0"
                 id="path2147"
                 style="fill:#2c2c2c;fill-opacity:1;fill-rule:nonzero;stroke:none"
                 d="m 240,24 h 25 v 1 h -25 z" />
              <path
                 inkscape:connector-curvature="0"
                 id="path2149"
                 style="fill:#808080;fill-opacity:1;fill-rule:nonzero;stroke:none"
                 d="m 264,1 h 1 v 23 h -1 z" />
              <path
                 inkscape:connector-curvature="0"
                 id="path2151"
                 style="fill:#2c2c2c;fill-opacity:1;fill-rule:nonzero;stroke:none"
                 d="m 216,0 h 25 v 1 h -25 z" />
              <path
                 inkscape:connector-curvature="0"
                 id="path2153"
                 style="fill:#2c2c2c;fill-opacity:1;fill-rule:nonzero;stroke:none"
                 d="m 216,24 h 25 v 1 h -25 z" />
              <path
                 inkscape:connector-curvature="0"
                 id="path2155"
                 style="fill:#808080;fill-opacity:1;fill-rule:nonzero;stroke:none"
                 d="m 240,1 h 1 v 23 h -1 z" />
              <path
                 inkscape:connector-curvature="0"
                 id="path2157"
                 style="fill:#2c2c2c;fill-opacity:1;fill-rule:nonzero;stroke:none"
                 d="m 192,0 h 25 v 1 h -25 z" />
              <path
                 inkscape:connector-curvature="0"
                 id="path2159"
                 style="fill:#2c2c2c;fill-opacity:1;fill-rule:nonzero;stroke:none"
                 d="m 192,24 h 25 v 1 h -25 z" />
              <path
                 inkscape:connector-curvature="0"
                 id="path2161"
                 style="fill:#808080;fill-opacity:1;fill-rule:nonzero;stroke:none"
                 d="m 216,1 h 1 v 23 h -1 z" />
              <path
                 inkscape:connector-curvature="0"
                 id="path2163"
                 style="fill:#2c2c2c;fill-opacity:1;fill-rule:nonzero;stroke:none"
                 d="m 168,0 h 25 v 1 h -25 z" />
              <path
                 inkscape:connector-curvature="0"
                 id="path2165"
                 style="fill:#2c2c2c;fill-opacity:1;fill-rule:nonzero;stroke:none"
                 d="m 168,24 h 25 v 1 h -25 z" />
              <path
                 inkscape:connector-curvature="0"
                 id="path2167"
                 style="fill:#808080;fill-opacity:1;fill-rule:nonzero;stroke:none"
                 d="m 192,1 h 1 v 23 h -1 z" />
              <path
                 inkscape:connector-curvature="0"
                 id="path2169"
                 style="fill:#2c2c2c;fill-opacity:1;fill-rule:nonzero;stroke:none"
                 d="m 144,0 h 25 v 1 h -25 z" />
              <path
                 inkscape:connector-curvature="0"
                 id="path2171"
                 style="fill:#2c2c2c;fill-opacity:1;fill-rule:nonzero;stroke:none"
                 d="m 144,24 h 25 v 1 h -25 z" />
              <path
                 inkscape:connector-curvature="0"
                 id="path2173"
                 style="fill:#808080;fill-opacity:1;fill-rule:nonzero;stroke:none"
                 d="m 168,1 h 1 v 23 h -1 z" />
              <path
                 inkscape:connector-curvature="0"
                 id="path2175"
                 style="fill:#2c2c2c;fill-opacity:1;fill-rule:nonzero;stroke:none"
                 d="m 120,0 h 25 v 1 h -25 z" />
              <path
                 inkscape:connector-curvature="0"
                 id="path2177"
                 style="fill:#2c2c2c;fill-opacity:1;fill-rule:nonzero;stroke:none"
                 d="m 120,24 h 25 v 1 h -25 z" />
              <path
                 inkscape:connector-curvature="0"
                 id="path2179"
                 style="fill:#808080;fill-opacity:1;fill-rule:nonzero;stroke:none"
                 d="m 144,1 h 1 v 23 h -1 z" />
              <path
                 inkscape:connector-curvature="0"
                 id="path2181"
                 style="fill:#2c2c2c;fill-opacity:1;fill-rule:nonzero;stroke:none"
                 d="m 96,0 h 25 V 1 H 96 Z" />
              <path
                 inkscape:connector-curvature="0"
                 id="path2183"
                 style="fill:#2c2c2c;fill-opacity:1;fill-rule:nonzero;stroke:none"
                 d="m 96,24 h 25 v 1 H 96 Z" />
              <path
                 inkscape:connector-curvature="0"
                 id="path2185"
                 style="fill:#808080;fill-opacity:1;fill-rule:nonzero;stroke:none"
                 d="m 120,1 h 1 v 23 h -1 z" />
              <path
                 inkscape:connector-curvature="0"
                 id="path2187"
                 style="fill:#2c2c2c;fill-opacity:1;fill-rule:nonzero;stroke:none"
                 d="M 72,0 H 97 V 1 H 72 Z" />
              <path
                 inkscape:connector-curvature="0"
                 id="path2189"
                 style="fill:#2c2c2c;fill-opacity:1;fill-rule:nonzero;stroke:none"
                 d="m 72,24 h 25 v 1 H 72 Z" />
              <path
                 inkscape:connector-curvature="0"
                 id="path2191"
                 style="fill:#808080;fill-opacity:1;fill-rule:nonzero;stroke:none"
                 d="m 96,1 h 1 v 23 h -1 z" />
              <path
                 inkscape:connector-curvature="0"
                 id="path2193"
                 style="fill:#2c2c2c;fill-opacity:1;fill-rule:nonzero;stroke:none"
                 d="M 48,0 H 73 V 1 H 48 Z" />
              <path
                 inkscape:connector-curvature="0"
                 id="path2195"
                 style="fill:#2c2c2c;fill-opacity:1;fill-rule:nonzero;stroke:none"
                 d="m 48,24 h 25 v 1 H 48 Z" />
              <path
                 inkscape:connector-curvature="0"
                 id="path2197"
                 style="fill:#808080;fill-opacity:1;fill-rule:nonzero;stroke:none"
                 d="m 72,1 h 1 v 23 h -1 z" />
              <path
                 inkscape:connector-curvature="0"
                 id="path2199"
                 style="fill:#2c2c2c;fill-opacity:1;fill-rule:nonzero;stroke:none"
                 d="M 24,0 H 49 V 1 H 24 Z" />
              <path
                 inkscape:connector-curvature="0"
                 id="path2201"
                 style="fill:#2c2c2c;fill-opacity:1;fill-rule:nonzero;stroke:none"
                 d="m 24,24 h 25 v 1 H 24 Z" />
              <path
                 inkscape:connector-curvature="0"
                 id="path2203"
                 style="fill:#808080;fill-opacity:1;fill-rule:nonzero;stroke:none"
                 d="m 48,1 h 1 v 23 h -1 z" />
              <path
                 inkscape:connector-curvature="0"
                 id="path2205"
                 style="fill:#2c2c2c;fill-opacity:1;fill-rule:nonzero;stroke:none"
                 d="M 0,0 H 25 V 1 H 0 Z" />
              <path
                 inkscape:connector-curvature="0"
                 id="path2207"
                 style="fill:#2c2c2c;fill-opacity:1;fill-rule:nonzero;stroke:none"
                 d="m 0,24 h 25 v 1 H 0 Z" />
              <path
                 inkscape:connector-curvature="0"
                 id="path2209"
                 style="fill:#2c2c2c;fill-opacity:1;fill-rule:nonzero;stroke:none"
                 d="M 0,0 H 1 V 25 H 0 Z" />
              <path
                 inkscape:connector-curvature="0"
                 id="path2211"
                 style="fill:#808080;fill-opacity:1;fill-rule:nonzero;stroke:none"
                 d="m 24,1 h 1 v 23 h -1 z" />
            </g>
            <g
               transform="matrix(2.9846334,0,0,2.9846334,313.38651,14.923167)"
               id="g2213">
              <path
                 inkscape:connector-curvature="0"
                 id="path2215"
                 style="fill:#2c2c2c;fill-opacity:1;fill-rule:nonzero;stroke:none"
                 d="M 0,0 H 25 V 1 H 0 Z" />
              <path
                 inkscape:connector-curvature="0"
                 id="path2217"
                 style="fill:#2c2c2c;fill-opacity:1;fill-rule:nonzero;stroke:none"
                 d="m 0,24 h 25 v 1 H 0 Z" />
              <path
                 inkscape:connector-curvature="0"
                 id="path2219"
                 style="fill:#2c2c2c;fill-opacity:1;fill-rule:nonzero;stroke:none"
                 d="M 0,0 H 1 V 25 H 0 Z" />
              <path
                 inkscape:connector-curvature="0"
                 id="path2221"
                 style="fill:#2c2c2c;fill-opacity:1;fill-rule:nonzero;stroke:none"
                 d="m 24,0 h 1 v 25 h -1 z" />
            </g>
            <g
               transform="matrix(2.9846334,0,0,2.9846334,26.861702,140.27777)"
               id="g2223">
              <path
                 inkscape:connector-curvature="0"
                 id="path2225"
                 style="fill:#add8e6;fill-opacity:1;fill-rule:nonzero;stroke:none"
                 d="m 4,12.601563 v -0.203125 c -2e-7,-0.55145 0.053791,-1.097601 0.1613731,-1.638455 C 4.2689557,10.219131 4.4282622,9.6939669 4.6392927,9.184494 4.8503232,8.6750212 5.1090226,8.1910276 5.4153914,7.7325149 5.7217603,7.2740021 6.0699115,6.8497787 6.4598451,6.4598451 6.8497787,6.0699115 7.2740021,5.7217603 7.7325149,5.4153919 8.1910276,5.1090226 8.6750212,4.8503232 9.184494,4.6392927 9.6939669,4.4282622 10.219131,4.2689562 10.759983,4.1613736 11.300837,4.053791 11.846988,4 12.398438,4 h 0.203125 c 0.551448,0 1.0976,0.053791 1.638452,0.1613741 0.540853,0.1075821 1.066016,0.2668881 1.575489,0.4779186 0.509472,0.2110305 0.993465,0.4697299 1.451981,0.7760987 0.458513,0.3063689 0.882736,0.6545201 1.272669,1.0444537 0.389932,0.3899336 0.738084,0.814157 1.044452,1.2726698 0.30637,0.4585127 0.565069,0.9425063 0.776098,1.4519791 0.211031,0.5094729 0.370337,1.034637 0.477919,1.575489 0.107584,0.540854 0.161375,1.087005 0.161377,1.638455 v 0.203125 c -2e-6,0.551448 -0.05379,1.0976 -0.161377,1.638452 -0.107582,0.540853 -0.266888,1.066016 -0.477919,1.575489 -0.211029,0.509472 -0.469728,0.993465 -0.776098,1.451981 -0.306368,0.458513 -0.65452,0.882736 -1.044452,1.272669 -0.389933,0.389932 -0.814156,0.738084 -1.272669,1.044452 -0.458516,0.30637 -0.942509,0.565069 -1.451981,0.776098 -0.509473,0.211031 -1.034636,0.370337 -1.575489,0.477919 C 13.699163,20.946207 13.153011,20.999998 12.601563,21 h -0.203125 c -0.55145,-2e-6 -1.097601,-0.05379 -1.638455,-0.161377 C 10.219131,20.731041 9.6939669,20.571735 9.184494,20.360704 8.6750212,20.149675 8.1910276,19.890976 7.7325149,19.584606 7.2740021,19.278238 6.8497787,18.930086 6.4598451,18.540154 6.0699115,18.150221 5.7217603,17.725998 5.4153919,17.267485 5.1090226,16.808969 4.8503232,16.324976 4.6392927,15.815504 4.4282622,15.306031 4.2689557,14.780868 4.1613736,14.240015 4.053791,13.699163 3.9999998,13.153011 4,12.601563 Z" />
              <path
                 inkscape:connector-curvature="0"
                 id="path2227"
                 style="fill:#2c2c2c;fill-opacity:1;fill-rule:nonzero;stroke:none"
                 d="M 0,0 H 25 V 1 H 0 Z" />
              <path
                 inkscape:connector-curvature="0"
                 id="path2229"
                 style="fill:#2c2c2c;fill-opacity:1;fill-rule:nonzero;stroke:none"
                 d="m 0,24 h 25 v 1 H 0 Z" />
              <path
                 inkscape:connector-curvature="0"
                 id="path2231"
                 style="fill:#2c2c2c;fill-opacity:1;fill-rule:nonzero;stroke:none"
                 d="M 0,0 H 1 V 25 H 0 Z" />
              <path
                 inkscape:connector-curvature="0"
                 id="path2233"
                 style="fill:#2c2c2c;fill-opacity:1;fill-rule:nonzero;stroke:none"
                 d="m 24,0 h 1 v 25 h -1 z" />
            </g>
            <g
               transform="matrix(2.9846334,0,0,2.9846334,492.46451,140.27777)"
               id="g2235">
              <path
                 inkscape:connector-curvature="0"
                 id="path2237"
                 style="fill:#add8e6;fill-opacity:1;fill-rule:nonzero;stroke:none"
                 d="m 4,12.601563 v -0.203125 c -2e-7,-0.55145 0.053791,-1.097601 0.1613731,-1.638455 C 4.2689557,10.219131 4.4282622,9.6939669 4.6392927,9.184494 4.8503232,8.6750212 5.1090226,8.1910276 5.4153914,7.7325149 5.7217603,7.2740021 6.0699115,6.8497787 6.4598451,6.4598451 6.8497787,6.0699115 7.2740021,5.7217603 7.7325149,5.4153919 8.1910276,5.1090226 8.6750212,4.8503232 9.184494,4.6392927 9.6939669,4.4282622 10.219131,4.2689562 10.759983,4.1613736 11.300837,4.053791 11.846988,4 12.398438,4 h 0.203125 c 0.551448,0 1.0976,0.053791 1.638452,0.1613741 0.540853,0.1075821 1.066016,0.2668881 1.575489,0.4779186 0.509472,0.2110305 0.993465,0.4697299 1.451981,0.7760987 0.458513,0.3063689 0.882736,0.6545201 1.272669,1.0444537 0.389932,0.3899336 0.738084,0.814157 1.044452,1.2726698 0.30637,0.4585127 0.565069,0.9425063 0.776098,1.4519791 0.211031,0.5094729 0.370337,1.034637 0.477919,1.575489 0.107584,0.540854 0.161375,1.087005 0.161377,1.638455 v 0.203125 c -2e-6,0.551448 -0.05379,1.0976 -0.161377,1.638452 -0.107582,0.540853 -0.266888,1.066016 -0.477919,1.575489 -0.211029,0.509472 -0.469728,0.993465 -0.776098,1.451981 -0.306368,0.458513 -0.65452,0.882736 -1.044452,1.272669 -0.389933,0.389932 -0.814156,0.738084 -1.272669,1.044452 -0.458516,0.30637 -0.942509,0.565069 -1.451981,0.776098 -0.509473,0.211031 -1.034636,0.370337 -1.575489,0.477919 C 13.699163,20.946207 13.153011,20.999998 12.601563,21 h -0.203125 c -0.55145,-2e-6 -1.097601,-0.05379 -1.638455,-0.161377 C 10.219131,20.731041 9.6939669,20.571735 9.184494,20.360704 8.6750212,20.149675 8.1910276,19.890976 7.7325149,19.584606 7.2740021,19.278238 6.8497787,18.930086 6.4598451,18.540154 6.0699115,18.150221 5.7217603,17.725998 5.4153919,17.267485 5.1090226,16.808969 4.8503232,16.324976 4.6392927,15.815504 4.4282622,15.306031 4.2689557,14.780868 4.1613736,14.240015 4.053791,13.699163 3.9999998,13.153011 4,12.601563 Z" />
              <path
                 inkscape:connector-curvature="0"
                 id="path2239"
                 style="fill:#add8e6;fill-opacity:1;fill-rule:nonzero;stroke:none"
                 d="m 28,12.601563 v -0.203125 c -2e-6,-0.55145 0.05379,-1.097601 0.161369,-1.638455 0.107582,-0.540852 0.26689,-1.0660161 0.477921,-1.575489 0.211031,-0.5094728 0.46973,-0.9934664 0.7761,-1.4519791 C 29.721758,7.2740021 30.069908,6.8497787 30.459843,6.4598451 30.849777,6.0699115 31.274,5.7217603 31.732512,5.4153919 32.191025,5.1090226 32.675018,4.8503232 33.18449,4.6392927 33.693962,4.4282622 34.219128,4.2689562 34.759979,4.1613736 35.300831,4.053791 35.846985,4 36.398438,4 h 0.203125 c 0.551448,0 1.097602,0.053791 1.638454,0.1613741 0.540852,0.1075821 1.066013,0.2668881 1.575485,0.4779186 0.509472,0.2110305 0.993466,0.4697299 1.451977,0.7760987 0.458519,0.3063689 0.882744,0.6545201 1.272675,1.0444537 0.389934,0.3899336 0.738082,0.814157 1.044452,1.2726698 0.30637,0.4585127 0.565067,0.9425063 0.776097,1.4519791 0.211032,0.5094729 0.370338,1.034637 0.47792,1.575489 C 44.946209,11.300837 45,11.846988 45,12.398438 v 0.203125 c 0,0.551448 -0.05379,1.0976 -0.161377,1.638452 -0.107578,0.540853 -0.266884,1.066016 -0.477917,1.575489 -0.211033,0.509472 -0.469734,0.993465 -0.776104,1.451981 -0.306366,0.458513 -0.654514,0.882736 -1.044448,1.272669 -0.389931,0.389932 -0.814156,0.738084 -1.272671,1.044452 -0.458515,0.30637 -0.942509,0.565069 -1.451981,0.776098 -0.509472,0.211031 -1.034633,0.370337 -1.575485,0.477919 C 37.699165,20.946207 37.153011,20.999998 36.601563,21 h -0.203125 c -0.551453,-2e-6 -1.097607,-0.05379 -1.638459,-0.161377 C 34.219128,20.731041 33.693962,20.571735 33.18449,20.360704 32.675018,20.149675 32.191025,19.890976 31.732512,19.584606 31.274,19.278238 30.849777,18.930086 30.459843,18.540154 30.069908,18.150221 29.721756,17.725998 29.415388,17.267485 29.10902,16.808969 28.850321,16.324976 28.63929,15.815504 28.428259,15.306031 28.268951,14.780868 28.161371,14.240015 28.053787,13.699163 27.999998,13.153011 28,12.601563 Z" />
              <path
                 inkscape:connector-curvature="0"
                 id="path2241"
                 style="fill:#add8e6;fill-opacity:1;fill-rule:nonzero;stroke:none"
                 d="m 52,12.601563 v -0.203125 c -4e-6,-0.55145 0.05378,-1.097601 0.161366,-1.638455 0.107582,-0.540852 0.266887,-1.0660161 0.47792,-1.575489 0.211033,-0.5094728 0.46973,-0.9934664 0.776096,-1.4519791 0.30637,-0.4585128 0.654522,-0.8827362 1.044457,-1.2726698 C 54.849773,6.0699115 55.273994,5.7217603 55.732506,5.4153919 56.191021,5.1090226 56.675011,4.8503232 57.184483,4.6392927 57.693954,4.4282622 58.21912,4.2689562 58.759975,4.1613736 59.300835,4.053791 59.846989,4 60.398438,4 h 0.203125 c 0.551448,0 1.097599,0.053791 1.63845,0.1613741 0.540852,0.1075821 1.066013,0.2668881 1.575489,0.4779186 0.509472,0.2110305 0.993466,0.4697299 1.451977,0.7760987 0.458511,0.3063689 0.882736,0.6545201 1.272675,1.0444537 0.38993,0.3899336 0.738075,0.814157 1.044441,1.2726698 0.306373,0.4585127 0.565071,0.9425063 0.776108,1.4519791 0.211029,0.5094729 0.37033,1.034637 0.477912,1.575489 0.107583,0.540854 0.161377,1.087005 0.161385,1.638455 v 0.203125 c -8e-6,0.551448 -0.0538,1.0976 -0.161385,1.638452 -0.107582,0.540853 -0.266883,1.066016 -0.477912,1.575489 -0.211037,0.509472 -0.469735,0.993465 -0.776101,1.451981 -0.306373,0.458513 -0.654518,0.882736 -1.044448,1.272669 -0.389939,0.389932 -0.814164,0.738084 -1.272675,1.044452 -0.458511,0.30637 -0.942505,0.565069 -1.451977,0.776098 -0.509476,0.211031 -1.034637,0.370337 -1.575489,0.477919 C 61.699162,20.946207 61.153011,20.999998 60.601563,21 h -0.203125 c -0.551449,-2e-6 -1.097603,-0.05379 -1.638463,-0.161377 C 58.21912,20.731041 57.693954,20.571735 57.184483,20.360704 56.675011,20.149675 56.191021,19.890976 55.732506,19.584606 55.273994,19.278238 54.849773,18.930086 54.459839,18.540154 54.069904,18.150221 53.721752,17.725998 53.415382,17.267485 53.109016,16.808969 52.850319,16.324976 52.639286,15.815504 52.428253,15.306031 52.268948,14.780868 52.161369,14.240015 52.053783,13.699163 51.999996,13.153011 52,12.601563 Z" />
              <path
                 inkscape:connector-curvature="0"
                 id="path2243"
                 style="fill:#add8e6;fill-opacity:1;fill-rule:nonzero;stroke:none"
                 d="m 76,12.601563 v -0.203125 c -8e-6,-0.55145 0.05378,-1.097601 0.161362,-1.638455 0.107582,-0.540852 0.266891,-1.0660161 0.47792,-1.575489 0.211029,-0.5094728 0.469727,-0.9934664 0.7761,-1.4519791 C 77.721748,7.2740021 78.069901,6.8497787 78.459839,6.4598451 78.84977,6.0699115 79.273987,5.7217603 79.732498,5.4153919 80.19101,5.1090226 80.675003,4.8503232 81.184486,4.6392927 81.693954,4.4282622 82.219124,4.2689562 82.759979,4.1613736 83.300827,4.053791 83.846977,4 84.398438,4 h 0.203125 c 0.551445,0 1.097587,0.053791 1.638442,0.1613741 0.540856,0.1075821 1.066018,0.2668881 1.575486,0.4779186 0.509468,0.2110305 0.993461,0.4697299 1.45198,0.7760987 0.458519,0.3063689 0.882744,0.6545201 1.272675,1.0444537 0.389931,0.3899336 0.738083,0.814157 1.044441,1.2726698 0.306374,0.4585127 0.565071,0.9425063 0.7761,1.4519791 0.211037,0.5094729 0.370346,1.034637 0.477928,1.575489 C 92.946205,11.300837 93,11.846988 93,12.398438 v 0.203125 c 0,0.551448 -0.05379,1.0976 -0.161385,1.638452 -0.107582,0.540853 -0.266891,1.066016 -0.477928,1.575489 -0.211029,0.509472 -0.469726,0.993465 -0.776092,1.451981 -0.306366,0.458513 -0.654518,0.882736 -1.044449,1.272669 -0.389931,0.389932 -0.814156,0.738084 -1.272675,1.044452 -0.458519,0.30637 -0.942512,0.565069 -1.45198,0.776098 -0.509468,0.211031 -1.03463,0.370337 -1.575486,0.477919 C 85.69915,20.946207 85.153008,20.999998 84.601563,21 h -0.203125 c -0.551461,-2e-6 -1.097611,-0.05379 -1.638459,-0.161377 -0.540855,-0.107582 -1.066025,-0.266888 -1.575493,-0.477919 -0.509483,-0.211029 -0.993476,-0.469728 -1.451988,-0.776098 -0.458511,-0.306368 -0.882728,-0.65452 -1.272659,-1.044452 -0.389938,-0.389933 -0.738091,-0.814156 -1.044457,-1.272669 -0.306373,-0.458516 -0.565071,-0.942509 -0.7761,-1.451981 -0.211029,-0.509473 -0.370338,-1.034636 -0.47792,-1.575489 C 76.05378,13.699163 75.999992,13.153011 76,12.601563 Z" />
              <path
                 inkscape:connector-curvature="0"
                 id="path2245"
                 style="fill:#000000;fill-opacity:1;fill-rule:nonzero;stroke:none"
                 d="M 72,0 H 97 V 1 H 72 Z" />
              <path
                 inkscape:connector-curvature="0"
                 id="path2247"
                 style="fill:#000000;fill-opacity:1;fill-rule:nonzero;stroke:none"
                 d="m 72,24 h 25 v 1 H 72 Z" />
              <path
                 inkscape:connector-curvature="0"
                 id="path2249"
                 style="fill:#000000;fill-opacity:1;fill-rule:nonzero;stroke:none"
                 d="m 96,0 h 1 v 25 h -1 z" />
              <path
                 inkscape:connector-curvature="0"
                 id="path2251"
                 style="fill:#000000;fill-opacity:1;fill-rule:nonzero;stroke:none"
                 d="M 48,0 H 73 V 1 H 48 Z" />
              <path
                 inkscape:connector-curvature="0"
                 id="path2253"
                 style="fill:#000000;fill-opacity:1;fill-rule:nonzero;stroke:none"
                 d="m 48,24 h 25 v 1 H 48 Z" />
              <path
                 inkscape:connector-curvature="0"
                 id="path2255"
                 style="fill:#000000;fill-opacity:1;fill-rule:nonzero;stroke:none"
                 d="m 72,1 h 1 v 23 h -1 z" />
              <path
                 inkscape:connector-curvature="0"
                 id="path2257"
                 style="fill:#000000;fill-opacity:1;fill-rule:nonzero;stroke:none"
                 d="M 24,0 H 49 V 1 H 24 Z" />
              <path
                 inkscape:connector-curvature="0"
                 id="path2259"
                 style="fill:#000000;fill-opacity:1;fill-rule:nonzero;stroke:none"
                 d="m 24,24 h 25 v 1 H 24 Z" />
              <path
                 inkscape:connector-curvature="0"
                 id="path2261"
                 style="fill:#000000;fill-opacity:1;fill-rule:nonzero;stroke:none"
                 d="m 48,1 h 1 v 23 h -1 z" />
              <path
                 inkscape:connector-curvature="0"
                 id="path2263"
                 style="fill:#000000;fill-opacity:1;fill-rule:nonzero;stroke:none"
                 d="M 0,0 H 25 V 1 H 0 Z" />
              <path
                 inkscape:connector-curvature="0"
                 id="path2265"
                 style="fill:#000000;fill-opacity:1;fill-rule:nonzero;stroke:none"
                 d="m 0,24 h 25 v 1 H 0 Z" />
              <path
                 inkscape:connector-curvature="0"
                 id="path2267"
                 style="fill:#000000;fill-opacity:1;fill-rule:nonzero;stroke:none"
                 d="M 0,0 H 1 V 25 H 0 Z" />
              <path
                 inkscape:connector-curvature="0"
                 id="path2269"
                 style="fill:#000000;fill-opacity:1;fill-rule:nonzero;stroke:none"
                 d="m 24,1 h 1 v 23 h -1 z" />
            </g>
            <g
               transform="matrix(2.9846334,0,0,2.9846334,385.0177,265.63239)"
               id="g2271">
              <path
                 inkscape:connector-curvature="0"
                 id="path2273"
                 style="fill:#add8e6;fill-opacity:1;fill-rule:nonzero;stroke:none"
                 d="m 4,12.601563 v -0.203125 c -2e-7,-0.55145 0.053791,-1.097601 0.1613731,-1.638455 C 4.2689557,10.219131 4.4282622,9.6939669 4.6392927,9.184494 4.8503232,8.6750212 5.1090226,8.1910276 5.4153914,7.7325149 5.7217603,7.2740021 6.0699115,6.8497787 6.4598451,6.4598451 6.8497787,6.0699115 7.2740021,5.7217603 7.7325149,5.4153919 8.1910276,5.1090226 8.6750212,4.8503232 9.184494,4.6392927 9.6939669,4.4282622 10.219131,4.2689562 10.759983,4.1613736 11.300837,4.053791 11.846988,4 12.398438,4 h 0.203125 c 0.551448,0 1.0976,0.053791 1.638452,0.1613741 0.540853,0.1075821 1.066016,0.2668881 1.575489,0.4779186 0.509472,0.2110305 0.993465,0.4697299 1.451981,0.7760987 0.458513,0.3063689 0.882736,0.6545201 1.272669,1.0444537 0.389932,0.3899336 0.738084,0.814157 1.044452,1.2726698 0.30637,0.4585127 0.565069,0.9425063 0.776098,1.4519791 0.211031,0.5094729 0.370337,1.034637 0.477919,1.575489 0.107584,0.540854 0.161375,1.087005 0.161377,1.638455 v 0.203125 c -2e-6,0.551448 -0.05379,1.0976 -0.161377,1.638452 -0.107582,0.540853 -0.266888,1.066016 -0.477919,1.575489 -0.211029,0.509472 -0.469728,0.993465 -0.776098,1.451981 -0.306368,0.458513 -0.65452,0.882736 -1.044452,1.272669 -0.389933,0.389932 -0.814156,0.738084 -1.272669,1.044452 -0.458516,0.30637 -0.942509,0.565069 -1.451981,0.776098 -0.509473,0.211031 -1.034636,0.370337 -1.575489,0.477919 C 13.699163,20.946207 13.153011,20.999998 12.601563,21 h -0.203125 c -0.55145,-2e-6 -1.097601,-0.05379 -1.638455,-0.161377 C 10.219131,20.731041 9.6939669,20.571735 9.184494,20.360704 8.6750212,20.149675 8.1910276,19.890976 7.7325149,19.584606 7.2740021,19.278238 6.8497787,18.930086 6.4598451,18.540154 6.0699115,18.150221 5.7217603,17.725998 5.4153919,17.267485 5.1090226,16.808969 4.8503232,16.324976 4.6392927,15.815504 4.4282622,15.306031 4.2689557,14.780868 4.1613736,14.240015 4.053791,13.699163 3.9999998,13.153011 4,12.601563 Z" />
              <path
                 inkscape:connector-curvature="0"
                 id="path2275"
                 style="fill:#add8e6;fill-opacity:1;fill-rule:nonzero;stroke:none"
                 d="m 28,12.601563 v -0.203125 c -2e-6,-0.55145 0.05379,-1.097601 0.161369,-1.638455 0.107582,-0.540852 0.26689,-1.0660161 0.477921,-1.575489 0.211031,-0.5094728 0.46973,-0.9934664 0.7761,-1.4519791 C 29.721758,7.2740021 30.069908,6.8497787 30.459843,6.4598451 30.849777,6.0699115 31.274,5.7217603 31.732512,5.4153919 32.191025,5.1090226 32.675018,4.8503232 33.18449,4.6392927 33.693962,4.4282622 34.219128,4.2689562 34.759979,4.1613736 35.300831,4.053791 35.846985,4 36.398438,4 h 0.203125 c 0.551448,0 1.097602,0.053791 1.638454,0.1613741 0.540852,0.1075821 1.066013,0.2668881 1.575485,0.4779186 0.509472,0.2110305 0.993466,0.4697299 1.451977,0.7760987 0.458519,0.3063689 0.882744,0.6545201 1.272675,1.0444537 0.389934,0.3899336 0.738082,0.814157 1.044452,1.2726698 0.30637,0.4585127 0.565067,0.9425063 0.776097,1.4519791 0.211032,0.5094729 0.370338,1.034637 0.47792,1.575489 C 44.946209,11.300837 45,11.846988 45,12.398438 v 0.203125 c 0,0.551448 -0.05379,1.0976 -0.161377,1.638452 -0.107578,0.540853 -0.266884,1.066016 -0.477917,1.575489 -0.211033,0.509472 -0.469734,0.993465 -0.776104,1.451981 -0.306366,0.458513 -0.654514,0.882736 -1.044448,1.272669 -0.389931,0.389932 -0.814156,0.738084 -1.272671,1.044452 -0.458515,0.30637 -0.942509,0.565069 -1.451981,0.776098 -0.509472,0.211031 -1.034633,0.370337 -1.575485,0.477919 C 37.699165,20.946207 37.153011,20.999998 36.601563,21 h -0.203125 c -0.551453,-2e-6 -1.097607,-0.05379 -1.638459,-0.161377 C 34.219128,20.731041 33.693962,20.571735 33.18449,20.360704 32.675018,20.149675 32.191025,19.890976 31.732512,19.584606 31.274,19.278238 30.849777,18.930086 30.459843,18.540154 30.069908,18.150221 29.721756,17.725998 29.415388,17.267485 29.10902,16.808969 28.850321,16.324976 28.63929,15.815504 28.428259,15.306031 28.268951,14.780868 28.161371,14.240015 28.053787,13.699163 27.999998,13.153011 28,12.601563 Z" />
              <path
                 inkscape:connector-curvature="0"
                 id="path2277"
                 style="fill:#add8e6;fill-opacity:1;fill-rule:nonzero;stroke:none"
                 d="m 52,12.601563 v -0.203125 c -4e-6,-0.55145 0.05378,-1.097601 0.161366,-1.638455 0.107582,-0.540852 0.266887,-1.0660161 0.47792,-1.575489 0.211033,-0.5094728 0.46973,-0.9934664 0.776096,-1.4519791 0.30637,-0.4585128 0.654522,-0.8827362 1.044457,-1.2726698 C 54.849773,6.0699115 55.273994,5.7217603 55.732506,5.4153919 56.191021,5.1090226 56.675011,4.8503232 57.184483,4.6392927 57.693954,4.4282622 58.21912,4.2689562 58.759975,4.1613736 59.300835,4.053791 59.846989,4 60.398438,4 h 0.203125 c 0.551448,0 1.097599,0.053791 1.63845,0.1613741 0.540852,0.1075821 1.066013,0.2668881 1.575489,0.4779186 0.509472,0.2110305 0.993466,0.4697299 1.451977,0.7760987 0.458511,0.3063689 0.882736,0.6545201 1.272675,1.0444537 0.38993,0.3899336 0.738075,0.814157 1.044441,1.2726698 0.306373,0.4585127 0.565071,0.9425063 0.776108,1.4519791 0.211029,0.5094729 0.37033,1.034637 0.477912,1.575489 0.107583,0.540854 0.161377,1.087005 0.161385,1.638455 v 0.203125 c -8e-6,0.551448 -0.0538,1.0976 -0.161385,1.638452 -0.107582,0.540853 -0.266883,1.066016 -0.477912,1.575489 -0.211037,0.509472 -0.469735,0.993465 -0.776101,1.451981 -0.306373,0.458513 -0.654518,0.882736 -1.044448,1.272669 -0.389939,0.389932 -0.814164,0.738084 -1.272675,1.044452 -0.458511,0.30637 -0.942505,0.565069 -1.451977,0.776098 -0.509476,0.211031 -1.034637,0.370337 -1.575489,0.477919 C 61.699162,20.946207 61.153011,20.999998 60.601563,21 h -0.203125 c -0.551449,-2e-6 -1.097603,-0.05379 -1.638463,-0.161377 C 58.21912,20.731041 57.693954,20.571735 57.184483,20.360704 56.675011,20.149675 56.191021,19.890976 55.732506,19.584606 55.273994,19.278238 54.849773,18.930086 54.459839,18.540154 54.069904,18.150221 53.721752,17.725998 53.415382,17.267485 53.109016,16.808969 52.850319,16.324976 52.639286,15.815504 52.428253,15.306031 52.268948,14.780868 52.161369,14.240015 52.053783,13.699163 51.999996,13.153011 52,12.601563 Z" />
              <path
                 inkscape:connector-curvature="0"
                 id="path2279"
                 style="fill:#000000;fill-opacity:1;fill-rule:nonzero;stroke:none"
                 d="M 48,0 H 73 V 1 H 48 Z" />
              <path
                 inkscape:connector-curvature="0"
                 id="path2281"
                 style="fill:#000000;fill-opacity:1;fill-rule:nonzero;stroke:none"
                 d="m 48,24 h 25 v 1 H 48 Z" />
              <path
                 inkscape:connector-curvature="0"
                 id="path2283"
                 style="fill:#000000;fill-opacity:1;fill-rule:nonzero;stroke:none"
                 d="m 72,0 h 1 v 25 h -1 z" />
              <path
                 inkscape:connector-curvature="0"
                 id="path2285"
                 style="fill:#000000;fill-opacity:1;fill-rule:nonzero;stroke:none"
                 d="M 24,0 H 49 V 1 H 24 Z" />
              <path
                 inkscape:connector-curvature="0"
                 id="path2287"
                 style="fill:#000000;fill-opacity:1;fill-rule:nonzero;stroke:none"
                 d="m 24,24 h 25 v 1 H 24 Z" />
              <path
                 inkscape:connector-curvature="0"
                 id="path2289"
                 style="fill:#000000;fill-opacity:1;fill-rule:nonzero;stroke:none"
                 d="m 48,1 h 1 v 23 h -1 z" />
              <path
                 inkscape:connector-curvature="0"
                 id="path2291"
                 style="fill:#000000;fill-opacity:1;fill-rule:nonzero;stroke:none"
                 d="M 0,0 H 25 V 1 H 0 Z" />
              <path
                 inkscape:connector-curvature="0"
                 id="path2293"
                 style="fill:#000000;fill-opacity:1;fill-rule:nonzero;stroke:none"
                 d="m 0,24 h 25 v 1 H 0 Z" />
              <path
                 inkscape:connector-curvature="0"
                 id="path2295"
                 style="fill:#000000;fill-opacity:1;fill-rule:nonzero;stroke:none"
                 d="M 0,0 H 1 V 25 H 0 Z" />
              <path
                 inkscape:connector-curvature="0"
                 id="path2297"
                 style="fill:#000000;fill-opacity:1;fill-rule:nonzero;stroke:none"
                 d="m 24,1 h 1 v 23 h -1 z" />
            </g>
            <g
               transform="matrix(2.9846334,0,0,2.9846334,671.54254,265.63239)"
               id="g2299">
              <path
                 inkscape:connector-curvature="0"
                 id="path2301"
                 style="fill:#add8e6;fill-opacity:1;fill-rule:nonzero;stroke:none"
                 d="m 4,12.601563 v -0.203125 c -2e-7,-0.55145 0.053791,-1.097601 0.1613731,-1.638455 C 4.2689557,10.219131 4.4282622,9.6939669 4.6392927,9.184494 4.8503232,8.6750212 5.1090226,8.1910276 5.4153914,7.7325149 5.7217603,7.2740021 6.0699115,6.8497787 6.4598451,6.4598451 6.8497787,6.0699115 7.2740021,5.7217603 7.7325149,5.4153919 8.1910276,5.1090226 8.6750212,4.8503232 9.184494,4.6392927 9.6939669,4.4282622 10.219131,4.2689562 10.759983,4.1613736 11.300837,4.053791 11.846988,4 12.398438,4 h 0.203125 c 0.551448,0 1.0976,0.053791 1.638452,0.1613741 0.540853,0.1075821 1.066016,0.2668881 1.575489,0.4779186 0.509472,0.2110305 0.993465,0.4697299 1.451981,0.7760987 0.458513,0.3063689 0.882736,0.6545201 1.272669,1.0444537 0.389932,0.3899336 0.738084,0.814157 1.044452,1.2726698 0.30637,0.4585127 0.565069,0.9425063 0.776098,1.4519791 0.211031,0.5094729 0.370337,1.034637 0.477919,1.575489 0.107584,0.540854 0.161375,1.087005 0.161377,1.638455 v 0.203125 c -2e-6,0.551448 -0.05379,1.0976 -0.161377,1.638452 -0.107582,0.540853 -0.266888,1.066016 -0.477919,1.575489 -0.211029,0.509472 -0.469728,0.993465 -0.776098,1.451981 -0.306368,0.458513 -0.65452,0.882736 -1.044452,1.272669 -0.389933,0.389932 -0.814156,0.738084 -1.272669,1.044452 -0.458516,0.30637 -0.942509,0.565069 -1.451981,0.776098 -0.509473,0.211031 -1.034636,0.370337 -1.575489,0.477919 C 13.699163,20.946207 13.153011,20.999998 12.601563,21 h -0.203125 c -0.55145,-2e-6 -1.097601,-0.05379 -1.638455,-0.161377 C 10.219131,20.731041 9.6939669,20.571735 9.184494,20.360704 8.6750212,20.149675 8.1910276,19.890976 7.7325149,19.584606 7.2740021,19.278238 6.8497787,18.930086 6.4598451,18.540154 6.0699115,18.150221 5.7217603,17.725998 5.4153919,17.267485 5.1090226,16.808969 4.8503232,16.324976 4.6392927,15.815504 4.4282622,15.306031 4.2689557,14.780868 4.1613736,14.240015 4.053791,13.699163 3.9999998,13.153011 4,12.601563 Z" />
              <path
                 inkscape:connector-curvature="0"
                 id="path2303"
                 style="fill:#add8e6;fill-opacity:1;fill-rule:nonzero;stroke:none"
                 d="m 28,12.601563 v -0.203125 c -2e-6,-0.55145 0.05379,-1.097601 0.161369,-1.638455 0.107582,-0.540852 0.26689,-1.0660161 0.477921,-1.575489 0.211031,-0.5094728 0.46973,-0.9934664 0.7761,-1.4519791 C 29.721758,7.2740021 30.069908,6.8497787 30.459843,6.4598451 30.849777,6.0699115 31.274,5.7217603 31.732512,5.4153919 32.191025,5.1090226 32.675018,4.8503232 33.18449,4.6392927 33.693962,4.4282622 34.219128,4.2689562 34.759979,4.1613736 35.300831,4.053791 35.846985,4 36.398438,4 h 0.203125 c 0.551448,0 1.097602,0.053791 1.638454,0.1613741 0.540852,0.1075821 1.066013,0.2668881 1.575485,0.4779186 0.509472,0.2110305 0.993466,0.4697299 1.451977,0.7760987 0.458519,0.3063689 0.882744,0.6545201 1.272675,1.0444537 0.389934,0.3899336 0.738082,0.814157 1.044452,1.2726698 0.30637,0.4585127 0.565067,0.9425063 0.776097,1.4519791 0.211032,0.5094729 0.370338,1.034637 0.47792,1.575489 C 44.946209,11.300837 45,11.846988 45,12.398438 v 0.203125 c 0,0.551448 -0.05379,1.0976 -0.161377,1.638452 -0.107578,0.540853 -0.266884,1.066016 -0.477917,1.575489 -0.211033,0.509472 -0.469734,0.993465 -0.776104,1.451981 -0.306366,0.458513 -0.654514,0.882736 -1.044448,1.272669 -0.389931,0.389932 -0.814156,0.738084 -1.272671,1.044452 -0.458515,0.30637 -0.942509,0.565069 -1.451981,0.776098 -0.509472,0.211031 -1.034633,0.370337 -1.575485,0.477919 C 37.699165,20.946207 37.153011,20.999998 36.601563,21 h -0.203125 c -0.551453,-2e-6 -1.097607,-0.05379 -1.638459,-0.161377 C 34.219128,20.731041 33.693962,20.571735 33.18449,20.360704 32.675018,20.149675 32.191025,19.890976 31.732512,19.584606 31.274,19.278238 30.849777,18.930086 30.459843,18.540154 30.069908,18.150221 29.721756,17.725998 29.415388,17.267485 29.10902,16.808969 28.850321,16.324976 28.63929,15.815504 28.428259,15.306031 28.268951,14.780868 28.161371,14.240015 28.053787,13.699163 27.999998,13.153011 28,12.601563 Z" />
              <path
                 inkscape:connector-curvature="0"
                 id="path2305"
                 style="fill:#000000;fill-opacity:1;fill-rule:nonzero;stroke:none"
                 d="M 24,0 H 49 V 1 H 24 Z" />
              <path
                 inkscape:connector-curvature="0"
                 id="path2307"
                 style="fill:#000000;fill-opacity:1;fill-rule:nonzero;stroke:none"
                 d="m 24,24 h 25 v 1 H 24 Z" />
              <path
                 inkscape:connector-curvature="0"
                 id="path2309"
                 style="fill:#000000;fill-opacity:1;fill-rule:nonzero;stroke:none"
                 d="m 48,0 h 1 v 25 h -1 z" />
              <path
                 inkscape:connector-curvature="0"
                 id="path2311"
                 style="fill:#000000;fill-opacity:1;fill-rule:nonzero;stroke:none"
                 d="M 0,0 H 25 V 1 H 0 Z" />
              <path
                 inkscape:connector-curvature="0"
                 id="path2313"
                 style="fill:#000000;fill-opacity:1;fill-rule:nonzero;stroke:none"
                 d="m 0,24 h 25 v 1 H 0 Z" />
              <path
                 inkscape:connector-curvature="0"
                 id="path2315"
                 style="fill:#000000;fill-opacity:1;fill-rule:nonzero;stroke:none"
                 d="M 0,0 H 1 V 25 H 0 Z" />
              <path
                 inkscape:connector-curvature="0"
                 id="path2317"
                 style="fill:#000000;fill-opacity:1;fill-rule:nonzero;stroke:none"
                 d="m 24,1 h 1 v 23 h -1 z" />
            </g>
            <g
               transform="matrix(2.9846334,0,0,2.9846334,1.4923167,1.4923167)"
               id="g2319">
              <path
                 inkscape:connector-curvature="0"
                 id="path2321"
                 style="fill:none;stroke:#000000;stroke-width:1;stroke-linecap:butt;stroke-linejoin:miter;stroke-miterlimit:10;stroke-dasharray:none;stroke-opacity:1"
                 d="M 22,131 V 77.120003" />
              <path
                 inkscape:connector-curvature="0"
                 id="path2323"
                 style="fill:#000000;fill-opacity:1;fill-rule:nonzero;stroke:none"
                 d="m 22,72.120003 1.67,5 h -3.34 z" />
              <path
                 inkscape:connector-curvature="0"
                 id="path2325"
                 style="fill:none;stroke:#000000;stroke-width:1;stroke-linecap:butt;stroke-linejoin:miter;stroke-miterlimit:10;stroke-dasharray:none;stroke-opacity:1"
                 d="m 22,72.120003 1.67,5 h -3.34 z" />
              <path
                 inkscape:connector-curvature="0"
                 id="path2327"
                 style="fill:none;stroke:#000000;stroke-width:1;stroke-linecap:butt;stroke-linejoin:miter;stroke-miterlimit:10;stroke-dasharray:none;stroke-opacity:1"
                 d="M 165,131 V 119.12" />
              <path
                 inkscape:connector-curvature="0"
                 id="path2329"
                 style="fill:#000000;fill-opacity:1;fill-rule:nonzero;stroke:none"
                 d="m 165,114.12 1.67,5 h -3.34 z" />
              <path
                 inkscape:connector-curvature="0"
                 id="path2331"
                 style="fill:none;stroke:#000000;stroke-width:1;stroke-linecap:butt;stroke-linejoin:miter;stroke-miterlimit:10;stroke-dasharray:none;stroke-opacity:1"
                 d="m 165,114.12 1.67,5 h -3.34 z" />
              <path
                 inkscape:connector-curvature="0"
                 id="path2333"
                 style="fill:none;stroke:#000000;stroke-width:1;stroke-linecap:butt;stroke-linejoin:miter;stroke-miterlimit:10;stroke-dasharray:none;stroke-opacity:1"
                 d="M 249,131 V 119.12" />
              <path
                 inkscape:connector-curvature="0"
                 id="path2335"
                 style="fill:#000000;fill-opacity:1;fill-rule:nonzero;stroke:none"
                 d="m 249,114.12 1.67,5 h -3.34 z" />
              <path
                 inkscape:connector-curvature="0"
                 id="path2337"
                 style="fill:none;stroke:#000000;stroke-width:1;stroke-linecap:butt;stroke-linejoin:miter;stroke-miterlimit:10;stroke-dasharray:none;stroke-opacity:1"
                 d="m 249,114.12 1.67,5 h -3.34 z" />
              <path
                 inkscape:connector-curvature="0"
                 id="path2339"
                 style="fill:none;stroke:#000000;stroke-width:1;stroke-linecap:butt;stroke-linejoin:miter;stroke-miterlimit:10;stroke-dasharray:none;stroke-opacity:1"
                 d="M 189,89 V 77.120003" />
              <path
                 inkscape:connector-curvature="0"
                 id="path2341"
                 style="fill:#000000;fill-opacity:1;fill-rule:nonzero;stroke:none"
                 d="m 189,72.120003 1.67,5 h -3.34 z" />
              <path
                 inkscape:connector-curvature="0"
                 id="path2343"
                 style="fill:none;stroke:#000000;stroke-width:1;stroke-linecap:butt;stroke-linejoin:miter;stroke-miterlimit:10;stroke-dasharray:none;stroke-opacity:1"
                 d="m 189,72.120003 1.67,5 h -3.34 z" />
              <path
                 inkscape:connector-curvature="0"
                 id="path2345"
                 style="fill:none;stroke:#000000;stroke-width:1;stroke-linecap:butt;stroke-linejoin:miter;stroke-miterlimit:10;stroke-dasharray:none;stroke-opacity:1"
                 d="M 237,89 V 77.120003" />
              <path
                 inkscape:connector-curvature="0"
                 id="path2347"
                 style="fill:#000000;fill-opacity:1;fill-rule:nonzero;stroke:none"
                 d="m 237,72.120003 1.67,5 h -3.34 z" />
              <path
                 inkscape:connector-curvature="0"
                 id="path2349"
                 style="fill:none;stroke:#000000;stroke-width:1;stroke-linecap:butt;stroke-linejoin:miter;stroke-miterlimit:10;stroke-dasharray:none;stroke-opacity:1"
                 d="m 237,72.120003 1.67,5 h -3.34 z" />
              <path
                 inkscape:connector-curvature="0"
                 id="path2351"
                 style="fill:none;stroke:#000000;stroke-width:1;stroke-linecap:butt;stroke-linejoin:miter;stroke-miterlimit:10;stroke-dasharray:none;stroke-opacity:1"
                 d="M 21,47 99.019997,30.280001" />
              <path
                 inkscape:connector-curvature="0"
                 id="path2353"
                 style="fill:#000000;fill-opacity:1;fill-rule:nonzero;stroke:none"
                 d="m 103.91,29.23 -4.539997,2.68 -0.700005,-3.26 z" />
              <path
                 inkscape:connector-curvature="0"
                 id="path2355"
                 style="fill:none;stroke:#000000;stroke-width:1;stroke-linecap:butt;stroke-linejoin:miter;stroke-miterlimit:10;stroke-dasharray:none;stroke-opacity:1"
                 d="m 103.91,29.23 -4.539997,2.68 -0.700005,-3.26 z" />
              <path
                 inkscape:connector-curvature="0"
                 id="path2357"
                 style="fill:none;stroke:#000000;stroke-width:1;stroke-linecap:butt;stroke-linejoin:miter;stroke-miterlimit:10;stroke-dasharray:none;stroke-opacity:1"
                 d="M 213,47 134.98,30.280001" />
              <path
                 inkscape:connector-curvature="0"
                 id="path2359"
                 style="fill:#000000;fill-opacity:1;fill-rule:nonzero;stroke:none"
                 d="m 130.09,29.23 5.24,-0.58 -0.7,3.26 z" />
              <path
                 inkscape:connector-curvature="0"
                 id="path2361"
                 style="fill:none;stroke:#000000;stroke-width:1;stroke-linecap:butt;stroke-linejoin:miter;stroke-miterlimit:10;stroke-dasharray:none;stroke-opacity:1"
                 d="m 130.09,29.23 5.24,-0.58 -0.7,3.26 z" />
              <path
                 inkscape:connector-curvature="0"
                 id="path2363"
                 style="fill:none;stroke:#000000;stroke-width:1;stroke-linecap:butt;stroke-linejoin:miter;stroke-miterlimit:10;stroke-dasharray:none;stroke-opacity:1"
                 d="m 201,101 h 17.88" />
              <path
                 inkscape:connector-curvature="0"
                 id="path2365"
                 style="fill:#000000;fill-opacity:1;fill-rule:nonzero;stroke:none"
                 d="m 223.88,101 -5,1.67 v -3.339998 z" />
              <path
                 inkscape:connector-curvature="0"
                 id="path2367"
                 style="fill:none;stroke:#000000;stroke-width:1;stroke-linecap:butt;stroke-linejoin:miter;stroke-miterlimit:10;stroke-dasharray:none;stroke-opacity:1"
                 d="m 223.88,101 -5,1.67 v -3.339998 z" />
            </g>
          </g>
        </g>
      </g>
      <text
         xml:space="preserve"
         style="font-style:normal;font-weight:normal;font-size:10.58333302px;line-height:1.25;font-family:sans-serif;letter-spacing:0px;word-spacing:0px;fill:#000000;fill-opacity:1;stroke:none;stroke-width:0.26458332"
         x="254.09602"
         y="253.10692"
         id="text854"><tspan
           sodipodi:role="line"
           x="254.09602"
           y="253.10692"
           style="font-style:normal;font-variant:normal;font-weight:normal;font-stretch:normal;font-size:14.11111069px;font-family:Times;-inkscape-font-specification:Times;stroke-width:0.26458332"
           id="tspan1750">Feature Interactions</tspan></text>
      <text
         xml:space="preserve"
         style="font-style:normal;font-weight:normal;font-size:10.58333302px;line-height:1.25;font-family:sans-serif;letter-spacing:0px;word-spacing:0px;fill:#000000;fill-opacity:1;stroke:none;stroke-width:0.26458332"
         x="38.350689"
         y="251.6841"
         id="text858"><tspan
           sodipodi:role="line"
           id="tspan856"
           x="38.350689"
           y="251.6841"
           style="font-style:normal;font-variant:normal;font-weight:normal;font-stretch:normal;font-size:14.11111069px;font-family:Times;-inkscape-font-specification:Times;stroke-width:0.26458332">Embeddings</tspan></text>
      <text
         id="text1748"
         y="289.02859"
         x="277.57779"
         style="font-style:normal;font-weight:normal;font-size:7.76111126px;line-height:1.25;font-family:sans-serif;letter-spacing:0px;word-spacing:0px;fill:#000000;fill-opacity:1;stroke:none;stroke-width:0.26458332"
         xml:space="preserve"><tspan
           style="font-style:normal;font-variant:normal;font-weight:normal;font-stretch:normal;font-size:14.11111069px;font-family:Times;-inkscape-font-specification:Times;stroke-width:0.26458332"
           y="289.02859"
           x="277.57779"
           id="tspan1746"
           sodipodi:role="line">Sparse Features</tspan></text>
      <text
         xml:space="preserve"
         style="font-style:normal;font-weight:normal;font-size:14.11111069px;line-height:1.25;font-family:sans-serif;letter-spacing:0px;word-spacing:0px;fill:#000000;fill-opacity:1;stroke:none;stroke-width:0.26458332"
         x="238.93761"
         y="176.89174"
         id="text1756"><tspan
           sodipodi:role="line"
           id="tspan1754"
           x="238.93761"
           y="176.89174"
           style="font-style:normal;font-variant:normal;font-weight:normal;font-stretch:normal;font-size:14.11111069px;font-family:Times;-inkscape-font-specification:Times;stroke-width:0.26458332">Sigmoid Output Layer</tspan></text>
      <text
         id="text1764"
         y="214.27757"
         x="292.65353"
         style="font-style:normal;font-weight:normal;font-size:14.11111069px;line-height:1.25;font-family:sans-serif;letter-spacing:0px;word-spacing:0px;fill:#000000;fill-opacity:1;stroke:none;stroke-width:0.26458332"
         xml:space="preserve"><tspan
           style="font-style:normal;font-variant:normal;font-weight:normal;font-stretch:normal;font-size:14.11111069px;font-family:Times;-inkscape-font-specification:Times;stroke-width:0.26458332"
           y="214.27757"
           x="292.65353"
           sodipodi:role="line"
           id="tspan1766">Linear Layer</tspan></text>
      <text
         xml:space="preserve"
         style="font-style:normal;font-weight:normal;font-size:10.58333302px;line-height:1.25;font-family:sans-serif;letter-spacing:0px;word-spacing:0px;fill:#000000;fill-opacity:1;stroke:none;stroke-width:0.26458332"
         x="97.252693"
         y="176.72362"
         id="text1772"><tspan
           sodipodi:role="line"
           id="tspan1770"
           x="97.252693"
           y="176.72362"
           style="font-style:normal;font-variant:normal;font-weight:normal;font-stretch:normal;font-size:14.11111069px;font-family:Times;-inkscape-font-specification:Times;stroke-width:0.26458332">0.3</tspan></text>
      <text
         id="text1776"
         y="289.07404"
         x="245.94643"
         style="font-style:normal;font-weight:normal;font-size:10.58333302px;line-height:1.25;font-family:sans-serif;letter-spacing:0px;word-spacing:0px;fill:#000000;fill-opacity:1;stroke:none;stroke-width:0.26458332"
         xml:space="preserve"><tspan
           style="font-style:normal;font-variant:normal;font-weight:normal;font-stretch:normal;font-size:14.11111069px;font-family:Times;-inkscape-font-specification:Times;stroke-width:0.26458332"
           y="289.07404"
           x="245.94643"
           sodipodi:role="line"
           id="tspan1778">0.5</tspan></text>
      <text
         xml:space="preserve"
         style="font-style:normal;font-weight:normal;font-size:10.58333302px;line-height:1.25;font-family:sans-serif;letter-spacing:0px;word-spacing:0px;fill:#000000;fill-opacity:1;stroke:none;stroke-width:0.26458332"
         x="16.378668"
         y="288.98447"
         id="text1784"><tspan
           sodipodi:role="line"
           x="16.378668"
           y="288.98447"
           style="font-style:normal;font-variant:normal;font-weight:normal;font-stretch:normal;font-size:14.11111069px;font-family:Times;-inkscape-font-specification:Times;stroke-width:0.26458332"
           id="tspan1786">0</tspan></text>
      <text
         id="text1792"
         y="288.98447"
         x="229.75256"
         style="font-style:normal;font-weight:normal;font-size:10.58333302px;line-height:1.25;font-family:sans-serif;letter-spacing:0px;word-spacing:0px;fill:#000000;fill-opacity:1;stroke:none;stroke-width:0.26458332"
         xml:space="preserve"><tspan
           id="tspan1790"
           style="font-style:normal;font-variant:normal;font-weight:normal;font-stretch:normal;font-size:14.11111069px;font-family:Times;-inkscape-font-specification:Times;stroke-width:0.26458332"
           y="288.98447"
           x="229.75256"
           sodipodi:role="line">0</tspan></text>
      <text
         xml:space="preserve"
         style="font-style:normal;font-weight:normal;font-size:10.58333302px;line-height:1.25;font-family:sans-serif;letter-spacing:0px;word-spacing:0px;fill:#000000;fill-opacity:1;stroke:none;stroke-width:0.26458332"
         x="208.41516"
         y="288.98447"
         id="text1796"><tspan
           sodipodi:role="line"
           x="208.41516"
           y="288.98447"
           style="font-style:normal;font-variant:normal;font-weight:normal;font-stretch:normal;font-size:14.11111069px;font-family:Times;-inkscape-font-specification:Times;stroke-width:0.26458332"
           id="tspan1794">0</tspan></text>
      <text
         id="text1800"
         y="288.98447"
         x="165.74039"
         style="font-style:normal;font-weight:normal;font-size:10.58333302px;line-height:1.25;font-family:sans-serif;letter-spacing:0px;word-spacing:0px;fill:#000000;fill-opacity:1;stroke:none;stroke-width:0.26458332"
         xml:space="preserve"><tspan
           id="tspan1798"
           style="font-style:normal;font-variant:normal;font-weight:normal;font-stretch:normal;font-size:14.11111069px;font-family:Times;-inkscape-font-specification:Times;stroke-width:0.26458332"
           y="288.98447"
           x="165.74039"
           sodipodi:role="line">0</tspan></text>
      <text
         xml:space="preserve"
         style="font-style:normal;font-weight:normal;font-size:10.58333302px;line-height:1.25;font-family:sans-serif;letter-spacing:0px;word-spacing:0px;fill:#000000;fill-opacity:1;stroke:none;stroke-width:0.26458332"
         x="187.07777"
         y="288.98447"
         id="text1804"><tspan
           sodipodi:role="line"
           x="187.07777"
           y="288.98447"
           style="font-style:normal;font-variant:normal;font-weight:normal;font-stretch:normal;font-size:14.11111069px;font-family:Times;-inkscape-font-specification:Times;stroke-width:0.26458332"
           id="tspan1802">0</tspan></text>
      <text
         id="text1808"
         y="288.98447"
         x="37.716057"
         style="font-style:normal;font-weight:normal;font-size:10.58333302px;line-height:1.25;font-family:sans-serif;letter-spacing:0px;word-spacing:0px;fill:#000000;fill-opacity:1;stroke:none;stroke-width:0.26458332"
         xml:space="preserve"><tspan
           id="tspan1806"
           style="font-style:normal;font-variant:normal;font-weight:normal;font-stretch:normal;font-size:14.11111069px;font-family:Times;-inkscape-font-specification:Times;stroke-width:0.26458332"
           y="288.98447"
           x="37.716057"
           sodipodi:role="line">0</tspan></text>
      <text
         xml:space="preserve"
         style="font-style:normal;font-weight:normal;font-size:10.58333302px;line-height:1.25;font-family:sans-serif;letter-spacing:0px;word-spacing:0px;fill:#000000;fill-opacity:1;stroke:none;stroke-width:0.26458332"
         x="80.390831"
         y="288.98447"
         id="text1812"><tspan
           sodipodi:role="line"
           x="80.390831"
           y="288.98447"
           style="font-style:normal;font-variant:normal;font-weight:normal;font-stretch:normal;font-size:14.11111069px;font-family:Times;-inkscape-font-specification:Times;stroke-width:0.26458332"
           id="tspan1810">0</tspan></text>
      <text
         id="text1816"
         y="288.98447"
         x="101.72822"
         style="font-style:normal;font-weight:normal;font-size:10.58333302px;line-height:1.25;font-family:sans-serif;letter-spacing:0px;word-spacing:0px;fill:#000000;fill-opacity:1;stroke:none;stroke-width:0.26458332"
         xml:space="preserve"><tspan
           id="tspan1814"
           style="font-style:normal;font-variant:normal;font-weight:normal;font-stretch:normal;font-size:14.11111069px;font-family:Times;-inkscape-font-specification:Times;stroke-width:0.26458332"
           y="288.98447"
           x="101.72822"
           sodipodi:role="line">0</tspan></text>
      <text
         xml:space="preserve"
         style="font-style:normal;font-weight:normal;font-size:10.58333302px;line-height:1.25;font-family:sans-serif;letter-spacing:0px;word-spacing:0px;fill:#000000;fill-opacity:1;stroke:none;stroke-width:0.26458332"
         x="123.06561"
         y="288.98447"
         id="text1820"><tspan
           sodipodi:role="line"
           x="123.06561"
           y="288.98447"
           style="font-style:normal;font-variant:normal;font-weight:normal;font-stretch:normal;font-size:14.11111069px;font-family:Times;-inkscape-font-specification:Times;stroke-width:0.26458332"
           id="tspan1818">0</tspan></text>
      <text
         id="text1824"
         y="289.04303"
         x="58.815731"
         style="font-style:normal;font-weight:normal;font-size:10.58333302px;line-height:1.25;font-family:sans-serif;letter-spacing:0px;word-spacing:0px;fill:#000000;fill-opacity:1;stroke:none;stroke-width:0.26458332"
         xml:space="preserve"><tspan
           id="tspan1822"
           style="font-style:normal;font-variant:normal;font-weight:normal;font-stretch:normal;font-size:14.11111069px;font-family:Times;-inkscape-font-specification:Times;stroke-width:0.26458332"
           y="289.04303"
           x="58.815731"
           sodipodi:role="line">1</tspan></text>
      <text
         xml:space="preserve"
         style="font-style:normal;font-weight:normal;font-size:10.58333302px;line-height:1.25;font-family:sans-serif;letter-spacing:0px;word-spacing:0px;fill:#000000;fill-opacity:1;stroke:none;stroke-width:0.26458332"
         x="144.1653"
         y="289.04303"
         id="text1828"><tspan
           sodipodi:role="line"
           x="144.1653"
           y="289.04303"
           style="font-style:normal;font-variant:normal;font-weight:normal;font-stretch:normal;font-size:14.11111069px;font-family:Times;-inkscape-font-specification:Times;stroke-width:0.26458332"
           id="tspan1826">1</tspan></text>
    </g>
  </g>
</svg>
