<?xml version="1.0" encoding="UTF-8" standalone="no"?>
<!-- Created with Inkscape (http://www.inkscape.org/) -->

<svg
   xmlns:dc="http://purl.org/dc/elements/1.1/"
   xmlns:cc="http://creativecommons.org/ns#"
   xmlns:rdf="http://www.w3.org/1999/02/22-rdf-syntax-ns#"
   xmlns:svg="http://www.w3.org/2000/svg"
   xmlns="http://www.w3.org/2000/svg"
   xmlns:sodipodi="http://sodipodi.sourceforge.net/DTD/sodipodi-0.dtd"
   xmlns:inkscape="http://www.inkscape.org/namespaces/inkscape"
   width="210mm"
   height="297mm"
   viewBox="0 0 210 297"
   version="1.1"
   id="svg8"
   inkscape:version="0.92.2 5c3e80d, 2017-08-06"
   sodipodi:docname="npm.svg">
  <defs
     id="defs2">
    <clipPath
       id="clipPath777"
       clipPathUnits="userSpaceOnUse">
      <path
         style="clip-rule:evenodd"
         inkscape:connector-curvature="0"
         id="path775"
         d="M 0,0 H 1204.1666 V 498.9971 H 0 Z" />
    </clipPath>
    <clipPath
       id="clipPath789"
       clipPathUnits="userSpaceOnUse">
      <path
         style="clip-rule:evenodd"
         inkscape:connector-curvature="0"
         id="path787"
         d="M 0,0 H 1204.1666 V 496.00909 H 0 Z" />
    </clipPath>
    <clipPath
       id="clipPath1225"
       clipPathUnits="userSpaceOnUse">
      <path
         style="clip-rule:evenodd"
         inkscape:connector-curvature="0"
         id="path1223"
         d="M 0,0 H 1262.5 V 498.43378 H 0 Z" />
    </clipPath>
    <clipPath
       id="clipPath1237"
       clipPathUnits="userSpaceOnUse">
      <path
         style="clip-rule:evenodd"
         inkscape:connector-curvature="0"
         id="path1235"
         d="M 0,0 H 1262.5 V 495.44916 H 0 Z" />
    </clipPath>
    <clipPath
       id="clipPath1657"
       clipPathUnits="userSpaceOnUse">
      <path
         style="clip-rule:evenodd"
         inkscape:connector-curvature="0"
         id="path1655"
         d="M 0,0 H 1275 V 498.65341 H 0 Z" />
    </clipPath>
    <clipPath
       id="clipPath1669"
       clipPathUnits="userSpaceOnUse">
      <path
         style="clip-rule:evenodd"
         inkscape:connector-curvature="0"
         id="path1667"
         d="M 0,0 H 1275 V 495.66745 H 0 Z" />
    </clipPath>
    <clipPath
       id="clipPath259"
       clipPathUnits="userSpaceOnUse">
      <path
         style="clip-rule:evenodd"
         inkscape:connector-curvature="0"
         id="path257"
         d="M 0,0 H 1275 V 498.65341 H 0 Z" />
    </clipPath>
    <clipPath
       id="clipPath271"
       clipPathUnits="userSpaceOnUse">
      <path
         style="clip-rule:evenodd"
         inkscape:connector-curvature="0"
         id="path269"
         d="M 0,0 H 1275 V 495.66745 H 0 Z" />
    </clipPath>
    <clipPath
       id="clipPath239"
       clipPathUnits="userSpaceOnUse">
      <path
         style="clip-rule:evenodd"
         inkscape:connector-curvature="0"
         id="path237"
         d="M 0,0 H 1204.1666 V 498.9971 H 0 Z" />
    </clipPath>
    <clipPath
       id="clipPath251"
       clipPathUnits="userSpaceOnUse">
      <path
         style="clip-rule:evenodd"
         inkscape:connector-curvature="0"
         id="path249"
         d="M 0,0 H 1204.1666 V 496.00909 H 0 Z" />
    </clipPath>
    <clipPath
       id="clipPath895"
       clipPathUnits="userSpaceOnUse">
      <path
         style="clip-rule:evenodd"
         inkscape:connector-curvature="0"
         id="path893"
         d="M 0,0 H 1204.1666 V 490.03308 H 0 Z" />
    </clipPath>
    <clipPath
       id="clipPath907"
       clipPathUnits="userSpaceOnUse">
      <path
         style="clip-rule:evenodd"
         inkscape:connector-curvature="0"
         id="path905"
         d="M 0,0 H 1204.1666 V 490.03308 H 0 Z" />
    </clipPath>
    <clipPath
       id="clipPath1336"
       clipPathUnits="userSpaceOnUse">
      <path
         style="clip-rule:evenodd"
         inkscape:connector-curvature="0"
         id="path1334"
         d="M 0,0 H 1208.3333 V 490.51151 H 0 Z" />
    </clipPath>
    <clipPath
       id="clipPath1348"
       clipPathUnits="userSpaceOnUse">
      <path
         style="clip-rule:evenodd"
         inkscape:connector-curvature="0"
         id="path1346"
         d="M 0,0 H 1208.3333 V 490.51151 H 0 Z" />
    </clipPath>
  </defs>
  <sodipodi:namedview
     id="base"
     pagecolor="#ffffff"
     bordercolor="#666666"
     borderopacity="1.0"
     inkscape:pageopacity="0.0"
     inkscape:pageshadow="2"
     inkscape:zoom="0.70803924"
     inkscape:cx="636.96263"
     inkscape:cy="228.46269"
     inkscape:document-units="mm"
     inkscape:current-layer="g222"
     showgrid="false"
     inkscape:window-width="1440"
     inkscape:window-height="775"
     inkscape:window-x="0"
     inkscape:window-y="1"
     inkscape:window-maximized="1" />
  <metadata
     id="metadata5">
    <rdf:RDF>
      <cc:Work
         rdf:about="">
        <dc:format>image/svg+xml</dc:format>
        <dc:type
           rdf:resource="http://purl.org/dc/dcmitype/StillImage" />
        <dc:title></dc:title>
      </cc:Work>
    </rdf:RDF>
  </metadata>
  <g
     inkscape:label="Layer 1"
     inkscape:groupmode="layer"
     id="layer1">
    <g
       id="g222"
       transform="translate(-0.52846983,-5.5489313)">
      <g
         transform="matrix(0.29793105,0,0,0.29793105,0.52846983,156.41032)"
         inkscape:label="npm (2)"
         id="g1328">
        <g
           id="g1330">
          <g
             clip-path="url(#clipPath1336)"
             id="g1332">
            <g
               transform="scale(2.9909239)"
               id="g1338">
              <path
                 inkscape:connector-curvature="0"
                 id="path1340"
                 style="fill:#ffffff;fill-opacity:1;fill-rule:nonzero;stroke:none"
                 d="M 0,0 H 404 V 164 H 0 Z" />
            </g>
          </g>
        </g>
        <g
           id="g1342">
          <g
             clip-path="url(#clipPath1348)"
             id="g1344">
            <g
               transform="matrix(2.9909239,0,0,2.9909239,1.4954619,1.4954619)"
               id="g1350">
              <path
                 inkscape:connector-curvature="0"
                 id="path1352"
                 style="fill:#ffffff;fill-opacity:1;fill-rule:nonzero;stroke:none"
                 d="M 98,1 H 402 V 37 H 98 Z" />
              <path
                 inkscape:connector-curvature="0"
                 id="path1354"
                 style="fill:#000000;fill-opacity:1;fill-rule:nonzero;stroke:none"
                 d="m 104,0.5 h 3 v 1 h -3 z m 6,0 h 3 v 1 h -3 z m 6,0 h 3 v 1 h -3 z m 6,0 h 3 v 1 h -3 z m 6,0 h 3 v 1 h -3 z m 6,0 h 3 v 1 h -3 z m 6,0 h 3 v 1 h -3 z m 6,0 h 3 v 1 h -3 z m 6,0 h 3 v 1 h -3 z m 6,0 h 3 v 1 h -3 z m 6,0 h 3 v 1 h -3 z m 6,0 h 3 v 1 h -3 z m 6,0 h 3 v 1 h -3 z m 6,0 h 3 v 1 h -3 z m 6,0 h 3 v 1 h -3 z m 6,0 h 3 v 1 h -3 z m 6,0 h 3 v 1 h -3 z m 6,0 h 3 v 1 h -3 z m 6,0 h 3 v 1 h -3 z m 6,0 h 3 v 1 h -3 z m 6,0 h 3 v 1 h -3 z m 6,0 h 3 v 1 h -3 z m 6,0 h 3 v 1 h -3 z m 6,0 h 3 v 1 h -3 z m 6,0 h 3 v 1 h -3 z m 6,0 h 3 v 1 h -3 z m 6,0 h 3 v 1 h -3 z m 6,0 h 3 v 1 h -3 z m 6,0 h 3 v 1 h -3 z m 6,0 h 3 v 1 h -3 z m 6,0 h 3 v 1 h -3 z m 6,0 h 3 v 1 h -3 z m 6,0 h 3 v 1 h -3 z m 6,0 h 3 v 1 h -3 z m 6,0 h 3 v 1 h -3 z m 6,0 h 3 v 1 h -3 z m 6,0 h 3 v 1 h -3 z m 6,0 h 3 v 1 h -3 z m 6,0 h 3 v 1 h -3 z m 6,0 h 3 v 1 h -3 z m 6,0 h 3 v 1 h -3 z m 6,0 h 3 v 1 h -3 z m 6,0 h 3 v 1 h -3 z m 6,0 h 3 v 1 h -3 z m 6,0 h 3 v 1 h -3 z m 6,0 h 3 v 1 h -3 z m 6,0 h 3 v 1 h -3 z m 6,0 h 3 v 1 h -3 z m 6,0 h 3 v 1 h -3 z m 6,0 h 3 v 1 h -3 z m 4.5,2.5 v 3 h -1 V 3 Z m 0,6 v 3 h -1 V 9 Z m 0,6 v 3 h -1 v -3 z m 0,6 v 3 h -1 v -3 z m 0,6 v 3 h -1 v -3 z m 0,6 v 3 h -1 v -3 z m -2.5,4.5 h -3 v -1 h 3 z m -6,0 h -3 v -1 h 3 z m -6,0 h -3 v -1 h 3 z m -6,0 h -3 v -1 h 3 z m -6,0 h -3 v -1 h 3 z m -6,0 h -3 v -1 h 3 z m -6,0 h -3 v -1 h 3 z m -6,0 h -3 v -1 h 3 z m -6,0 h -3 v -1 h 3 z m -6,0 h -3 v -1 h 3 z m -6,0 h -3 v -1 h 3 z m -6,0 h -3 v -1 h 3 z m -6,0 h -3 v -1 h 3 z m -6,0 h -3 v -1 h 3 z m -6,0 h -3 v -1 h 3 z m -6,0 h -3 v -1 h 3 z m -6,0 h -3 v -1 h 3 z m -6,0 h -3 v -1 h 3 z m -6,0 h -3 v -1 h 3 z m -6,0 h -3 v -1 h 3 z m -6,0 h -3 v -1 h 3 z m -6,0 h -3 v -1 h 3 z m -6,0 h -3 v -1 h 3 z m -6,0 h -3 v -1 h 3 z m -6,0 h -3 v -1 h 3 z m -6,0 h -3 v -1 h 3 z m -6,0 h -3 v -1 h 3 z m -6.00002,0 H 235 v -1 h 2.99998 z M 232,37.5 h -3 v -1 h 3 z m -6,0 h -3 v -1 h 3 z m -6,0 h -3 v -1 h 3 z m -6,0 h -3 v -1 h 3 z m -6,0 h -2.99998 v -1 H 208 Z m -6,0 h -3 v -1 h 3 z m -6,0 h -3 v -1 h 3 z m -6,0 h -3 v -1 h 3 z m -6,0 h -3.00002 v -1 H 184 Z m -6,0 h -3 v -1 h 3 z m -6,0 h -3 v -1 h 3 z m -6,0 h -3 v -1 h 3 z m -6,0 h -3 v -1 h 3 z m -6,0 h -3 v -1 h 3 z m -5.99999,0 H 145 v -1 h 3.00001 z M 142,37.5 h -3 v -1 h 3 z m -6,0 h -3 v -1 h 3 z m -6,0 h -3 v -1 h 3 z m -6,0 h -3 v -1 h 3 z m -6,0 h -3 v -1 h 3 z m -6,0 h -3 v -1 h 3 z m -6,0 h -3 v -1 h 3 z m -6,0 H 97.5 V 36 h 1 v 1 H 98 v -0.5 h 2 z M 97.5,33 v -3 h 1 v 3 z m 0,-6 v -3 h 1 v 3 z m 0,-6 v -3 h 1 v 3 z m 0,-6 v -3 h 1 v 3 z m 0,-6 V 6 h 1 v 3 z m 0,-6 V 0.5 h 3.5 v 1 H 98 V 1 h 0.5 v 2 z" />
              <path
                 inkscape:connector-curvature="0"
                 id="path1356"
                 style="fill:#ffffff;fill-opacity:1;fill-rule:nonzero;stroke:none"
                 d="M 2,43 H 402 V 79 H 2 Z" />
              <path
                 inkscape:connector-curvature="0"
                 id="path1358"
                 style="fill:#000000;fill-opacity:1;fill-rule:nonzero;stroke:none"
                 d="m 8,42.5 h 3 v 1 H 8 Z m 6,0 h 3 v 1 h -3 z m 6,0 h 3 v 1 h -3 z m 6,0 h 3.000002 v 1 H 26 Z m 6,0 h 3 v 1 h -3 z m 6,0 h 3 v 1 h -3 z m 6,0 h 3 v 1 h -3 z m 6,0 h 3 v 1 h -3 z m 6.000004,0 H 59 v 1 h -2.999996 z m 6,0 H 65 v 1 H 62.000004 Z M 68,42.5 h 3 v 1 h -3 z m 6,0 h 3 v 1 h -3 z m 6,0 h 3 v 1 h -3 z m 6,0 h 3 v 1 h -3 z m 6,0 h 3 v 1 h -3 z m 6,0 h 3 v 1 h -3 z m 6,0 h 2.99999 v 1 H 104 Z m 6.00001,0 H 113 v 1 h -2.99999 z M 116,42.5 h 2.99999 v 1 H 116 Z m 6.00001,0 H 125 v 1 h -2.99999 z M 128,42.5 h 3 v 1 h -3 z m 6,0 h 3 v 1 h -3 z m 6,0 h 3 v 1 h -3 z m 6,0 h 3 v 1 h -3 z m 6,0 h 3 v 1 h -3 z m 6,0 h 3 v 1 h -3 z m 6,0 h 3 v 1 h -3 z m 6,0 h 3 v 1 h -3 z m 6,0 h 3 v 1 h -3 z m 6,0 h 3 v 1 h -3 z m 6,0 h 3 v 1 h -3 z m 6,0 h 3 v 1 h -3 z m 6,0 h 3 v 1 h -3 z m 6,0 h 3 v 1 h -3 z m 5.99998,0 h 3.00004 v 1 h -3.00004 z m 6.00004,0 H 221 v 1 h -2.99998 z M 224,42.5 h 3 v 1 h -3 z m 6,0 h 3 v 1 h -3 z m 5.99998,0 h 3 v 1 h -3 z m 6.00004,0 H 245 v 1 h -2.99998 z M 248,42.5 h 3 v 1 h -3 z m 6,0 h 3 v 1 h -3 z m 6,0 h 3 v 1 h -3 z m 6,0 h 3 v 1 h -3 z m 6,0 h 3 v 1 h -3 z m 6,0 h 3 v 1 h -3 z m 6,0 h 3 v 1 h -3 z m 6,0 h 3 v 1 h -3 z m 6,0 h 3 v 1 h -3 z m 6,0 h 3 v 1 h -3 z m 6,0 h 3 v 1 h -3 z m 6,0 h 3 v 1 h -3 z m 6,0 h 3 v 1 h -3 z m 6,0 h 3 v 1 h -3 z m 6,0 h 3 v 1 h -3 z m 6,0 h 3 v 1 h -3 z m 6,0 h 3 v 1 h -3 z m 6,0 h 3 v 1 h -3 z m 6,0 h 3 v 1 h -3 z m 6,0 h 3 v 1 h -3 z m 6,0 h 3 v 1 h -3 z m 6,0 h 3 v 1 h -3 z m 6,0 h 3 v 1 h -3 z m 6,0 h 3 v 1 h -3 z m 6,0 h 3 v 1 h -3 z m 6,0 h 3 v 1 h -3 z m 4.5,2.5 v 3 h -1 v -3 z m 0,6 v 3 h -1 v -3 z m 0,6 v 3 h -1 v -3 z m 0,6 v 3 h -1 v -3 z m 0,6 v 3 h -1 v -3 z m 0,6 v 3 h -1 v -3 z m -2.5,4.5 h -3 v -1 h 3 z m -6,0 h -3 v -1 h 3 z m -6,0 h -3 v -1 h 3 z m -6,0 h -3 v -1 h 3 z m -6,0 h -3 v -1 h 3 z m -6,0 h -3 v -1 h 3 z m -6,0 h -3 v -1 h 3 z m -6,0 h -3 v -1 h 3 z m -6,0 h -3 v -1 h 3 z m -6,0 h -3 v -1 h 3 z m -6,0 h -3 v -1 h 3 z m -6,0 h -3 v -1 h 3 z m -6,0 h -3 v -1 h 3 z m -6,0 h -3 v -1 h 3 z m -6,0 h -3 v -1 h 3 z m -6,0 h -3 v -1 h 3 z m -6,0 h -3 v -1 h 3 z m -6,0 h -3 v -1 h 3 z m -6,0 h -3 v -1 h 3 z m -6,0 h -3 v -1 h 3 z m -6,0 h -3 v -1 h 3 z m -6,0 h -3 v -1 h 3 z m -6,0 h -3 v -1 h 3 z m -6,0 h -3 v -1 h 3 z m -6,0 h -3 v -1 h 3 z m -6,0 h -3 v -1 h 3 z m -6,0 h -3 v -1 h 3 z m -6,0 h -3 v -1 h 3 z m -6,0 h -3 v -1 h 3 z m -6,0 h -3 v -1 h 3 z m -6,0 h -3 v -1 h 3 z m -6,0 h -3 v -1 h 3 z m -6,0 h -3 v -1 h 3 z m -6,0 h -3 v -1 h 3 z m -6,0 h -2.99998 v -1 H 196 Z m -5.99998,0 h -3.00004 v -1 h 3.00004 z M 184,79.5 h -3 v -1 h 3 z m -6,0 h -3 v -1 h 3 z m -6,0 h -3 v -1 h 3 z m -5.99999,0 h -3.00003 v -1 h 3.00003 z M 160,79.5 h -3 v -1 h 3 z m -6,0 h -3 v -1 h 3 z m -6,0 h -3 v -1 h 3 z m -6,0 h -3 v -1 h 3 z m -6,0 h -3 v -1 h 3 z m -6,0 h -3 v -1 h 3 z m -6,0 h -3 v -1 h 3 z m -6,0 h -3 v -1 h 3 z m -6,0 h -3 v -1 h 3 z m -6,0 h -3 v -1 h 3 z m -6,0 h -3 v -1 h 3 z m -6,0 h -3 v -1 h 3 z m -6,0 h -3 v -1 h 3 z m -6,0 h -3 v -1 h 3 z m -6,0 h -3 v -1 h 3 z m -6,0 h -3 v -1 h 3 z m -6,0 h -3 v -1 h 3 z m -6,0 h -3 v -1 h 3 z m -6,0 h -3 v -1 h 3 z m -6,0 h -3 v -1 h 3 z m -6,0 h -3 v -1 h 3 z m -6,0 h -3 v -1 h 3 z m -6,0 h -3 v -1 h 3 z m -6,0 h -3 v -1 h 3 z m -6,0 h -3 v -1 h 3 z m -6,0 H 7 v -1 h 3 z m -6,0 H 1.5 V 78 h 1 v 1 H 2 V 78.5 H 4 Z M 1.5,75 v -3 h 1 v 3 z m 0,-6 v -3 h 1 v 3 z m 0,-6 v -3 h 1 v 3 z m 0,-6 v -3 h 1 v 3 z m 0,-6 v -3 h 1 v 3 z m 0,-6 V 42.5 H 5 v 1 H 2 V 43 h 0.5 v 2 z" />
              <path
                 inkscape:connector-curvature="0"
                 id="path1360"
                 style="fill:#ffffff;fill-opacity:1;fill-rule:nonzero;stroke:none"
                 d="m 206,85 h 196 v 36 H 206 Z" />
              <path
                 inkscape:connector-curvature="0"
                 id="path1362"
                 style="fill:#000000;fill-opacity:1;fill-rule:nonzero;stroke:none"
                 d="m 212,84.5 h 3 v 1 h -3 z m 6,0 h 3 v 1 h -3 z m 6,0 h 3 v 1 h -3 z m 6,0 h 3 v 1 h -3 z m 6,0 h 3 v 1 h -3 z m 6,0 h 3 v 1 h -3 z m 6,0 h 3 v 1 h -3 z m 6,0 h 3 v 1 h -3 z m 6,0 h 3 v 1 h -3 z m 6,0 h 3 v 1 h -3 z m 6,0 h 3 v 1 h -3 z m 6,0 h 3 v 1 h -3 z m 6,0 h 3 v 1 h -3 z m 6,0 h 3 v 1 h -3 z m 6,0 h 3 v 1 h -3 z m 6,0 h 3 v 1 h -3 z m 6,0 h 3 v 1 h -3 z m 6,0 h 3 v 1 h -3 z m 6,0 h 3 v 1 h -3 z m 6,0 h 3 v 1 h -3 z m 6,0 h 3 v 1 h -3 z m 6,0 h 3 v 1 h -3 z m 6,0 h 3 v 1 h -3 z m 6,0 h 3 v 1 h -3 z m 6,0 h 3 v 1 h -3 z m 6,0 h 3 v 1 h -3 z m 6,0 h 3 v 1 h -3 z m 6,0 h 3 v 1 h -3 z m 6,0 h 3 v 1 h -3 z m 6,0 h 3 v 1 h -3 z m 6,0 h 3 v 1 h -3 z m 6,0 h 3 v 1 h -3 z m 4.5,2.5 v 3 h -1 v -3 z m 0,6 v 3 h -1 v -3 z m 0,6 v 3 h -1 v -3 z m 0,6 v 3 h -1 v -3 z m 0,6 v 3 h -1 v -3 z m 0,6 v 3 h -1 v -3 z m -2.5,4.5 h -3 v -1 h 3 z m -6,0 h -3 v -1 h 3 z m -6,0 h -3 v -1 h 3 z m -6,0 h -3 v -1 h 3 z m -6,0 h -3 v -1 h 3 z m -6,0 h -3 v -1 h 3 z m -6,0 h -3 v -1 h 3 z m -6,0 h -3 v -1 h 3 z m -6,0 h -3 v -1 h 3 z m -6,0 h -3 v -1 h 3 z m -6,0 h -3 v -1 h 3 z m -6,0 h -3 v -1 h 3 z m -6,0 h -3 v -1 h 3 z m -6,0 h -3 v -1 h 3 z m -6,0 h -3 v -1 h 3 z m -6,0 h -3 v -1 h 3 z m -6,0 h -3 v -1 h 3 z m -6,0 h -3 v -1 h 3 z m -6,0 h -3 v -1 h 3 z m -6,0 h -3 v -1 h 3 z m -6,0 h -3 v -1 h 3 z m -6,0 h -3 v -1 h 3 z m -6,0 h -3 v -1 h 3 z m -6,0 h -3 v -1 h 3 z m -6,0 h -3 v -1 h 3 z m -6,0 h -3 v -1 h 3 z m -6,0 h -3 v -1 h 3 z m -6,0 h -3 v -1 h 3 z m -6,0 h -3 v -1 h 3 z m -6,0 h -3 v -1 h 3 z m -6,0 h -3 v -1 h 3 z m -6,0 h -3 v -1 h 3 z m -6,0 h -2.5 V 120 h 1 v 1 H 206 v -0.5 h 2 z m -2.5,-4.5 v -3 h 1 v 3 z m 0,-6 v -3 h 1 v 3 z m 0,-6 v -3 h 1 v 3 z m 0,-6 v -3 h 1 v 3 z m 0,-6 v -3 h 1 v 3 z m 0,-6 v -2.5 h 3.5 v 1 h -3 V 85 h 0.5 v 2 z" />
              <path
                 inkscape:connector-curvature="0"
                 id="path1364"
                 style="fill:#ffffff;fill-opacity:1;fill-rule:nonzero;stroke:none"
                 d="m 1,127 h 400 v 36 H 1 Z" />
              <path
                 inkscape:connector-curvature="0"
                 id="path1366"
                 style="fill:#000000;fill-opacity:1;fill-rule:nonzero;stroke:none"
                 d="m 7,126.5 h 3 v 1 H 7 Z m 6,0 h 3 v 1 h -3 z m 6,0 h 3 v 1 h -3 z m 6,0 h 3.000002 v 1 H 25 Z m 6.000002,0 H 34 v 1 H 31.000002 Z M 37,126.5 h 3 v 1 h -3 z m 6,0 h 3 v 1 h -3 z m 6,0 h 3 v 1 h -3 z m 6.000004,0 H 58 v 1 h -2.999996 z m 6,0 H 64 v 1 H 61.000004 Z M 67,126.5 h 3 v 1 h -3 z m 6,0 h 3 v 1 h -3 z m 6,0 h 3 v 1 h -3 z m 6,0 h 3 v 1 h -3 z m 6,0 h 3 v 1 h -3 z m 6,0 h 3 v 1 h -3 z m 6,0 h 2.99999 v 1 H 103 Z m 6.00001,0 H 112 v 1 h -2.99999 z m 5.99999,0 h 2.99999 v 1 H 115 Z m 6.00001,0 H 124 v 1 h -2.99999 z m 5.99999,0 h 3 v 1 h -3 z m 6,0 h 3 v 1 h -3 z m 6,0 h 3 v 1 h -3 z m 6,0 h 3 v 1 h -3 z m 6,0 h 3 v 1 h -3 z m 6,0 h 3 v 1 h -3 z m 6,0 h 3 v 1 h -3 z m 6,0 h 3 v 1 h -3 z m 6,0 h 3 v 1 h -3 z m 6,0 h 3 v 1 h -3 z m 6,0 h 3 v 1 h -3 z m 6,0 h 3 v 1 h -3 z m 6,0 h 3 v 1 h -3 z m 6,0 h 3 v 1 h -3 z m 5.99998,0 h 3.00004 v 1 h -3.00004 z m 6.00004,0 H 220 v 1 h -2.99998 z m 5.99998,0 h 3 v 1 h -3 z m 6,0 h 3 v 1 h -3 z m 5.99998,0 h 3 v 1 h -3 z m 6.00004,0 H 244 v 1 h -2.99998 z m 5.99998,0 h 3 v 1 h -3 z m 6,0 h 3 v 1 h -3 z m 6,0 h 3 v 1 h -3 z m 6,0 h 3 v 1 h -3 z m 6,0 h 3 v 1 h -3 z m 6,0 h 3 v 1 h -3 z m 6,0 h 3 v 1 h -3 z m 6,0 h 3 v 1 h -3 z m 6,0 h 3 v 1 h -3 z m 6,0 h 3 v 1 h -3 z m 6,0 h 3 v 1 h -3 z m 6,0 h 3 v 1 h -3 z m 6,0 h 3 v 1 h -3 z m 6,0 h 3 v 1 h -3 z m 6,0 h 3 v 1 h -3 z m 6,0 h 3 v 1 h -3 z m 6,0 h 3 v 1 h -3 z m 6,0 h 3 v 1 h -3 z m 6,0 h 3 v 1 h -3 z m 6,0 h 3 v 1 h -3 z m 6,0 h 3 v 1 h -3 z m 6,0 h 3 v 1 h -3 z m 6,0 h 3 v 1 h -3 z m 6,0 h 3 v 1 h -3 z m 6,0 h 3 v 1 h -3 z m 6,0 h 3 v 1 h -3 z m 4.5,2.5 v 3 h -1 v -3 z m 0,6 v 3 h -1 v -3 z m 0,6 v 3 h -1 v -3 z m 0,6 v 3 h -1 v -3 z m 0,6 v 3 h -1 v -3 z m 0,6 v 3 h -1 v -3 z m -2.5,4.5 h -3 v -1 h 3 z m -6,0 h -3 v -1 h 3 z m -6,0 h -3 v -1 h 3 z m -6,0 h -3 v -1 h 3 z m -6,0 h -3 v -1 h 3 z m -6,0 h -3 v -1 h 3 z m -6,0 h -3 v -1 h 3 z m -6,0 h -3 v -1 h 3 z m -6,0 h -3 v -1 h 3 z m -6,0 h -3 v -1 h 3 z m -6,0 h -3 v -1 h 3 z m -6,0 h -3 v -1 h 3 z m -6,0 h -3 v -1 h 3 z m -6,0 h -3 v -1 h 3 z m -6,0 h -3 v -1 h 3 z m -6,0 h -3 v -1 h 3 z m -6,0 h -3 v -1 h 3 z m -6,0 h -3 v -1 h 3 z m -6,0 h -3 v -1 h 3 z m -6,0 h -3 v -1 h 3 z m -6,0 h -3 v -1 h 3 z m -6,0 h -3 v -1 h 3 z m -6,0 h -3 v -1 h 3 z m -6,0 h -3 v -1 h 3 z m -6,0 h -3 v -1 h 3 z m -6,0 h -3 v -1 h 3 z m -6,0 h -3 v -1 h 3 z m -6,0 h -3 v -1 h 3 z m -6,0 h -3 v -1 h 3 z m -6,0 h -3 v -1 h 3 z m -6,0 h -3 v -1 h 3 z m -6,0 h -3 v -1 h 3 z m -6,0 h -3 v -1 h 3 z m -6,0 h -3 v -1 h 3 z m -6,0 h -2.99998 v -1 H 195 Z m -5.99998,0 h -3.00004 v -1 h 3.00004 z M 183,163.5 h -3 v -1 h 3 z m -6,0 h -3 v -1 h 3 z m -6,0 h -3 v -1 h 3 z m -5.99999,0 h -3.00003 v -1 h 3.00003 z M 159,163.5 h -3 v -1 h 3 z m -6,0 h -3 v -1 h 3 z m -6,0 h -3 v -1 h 3 z m -6,0 h -3 v -1 h 3 z m -6,0 h -3 v -1 h 3 z m -6,0 h -3 v -1 h 3 z m -6,0 h -3 v -1 h 3 z m -6,0 h -3 v -1 h 3 z m -6,0 h -3 v -1 h 3 z m -6,0 h -3 v -1 h 3 z m -6,0 h -3 v -1 h 3 z m -6,0 h -3 v -1 h 3 z m -6,0 h -3 v -1 h 3 z m -6,0 h -3 v -1 h 3 z m -6,0 h -3 v -1 h 3 z m -6,0 h -3 v -1 h 3 z m -6,0 h -3 v -1 h 3 z m -6,0 h -3 v -1 h 3 z m -6,0 h -3 v -1 h 3 z m -6,0 h -3 v -1 h 3 z m -6,0 h -3 v -1 h 3 z m -6,0 h -3 v -1 h 3 z m -6,0 h -3 v -1 h 3 z m -6,0 h -3 v -1 h 3 z m -6,0 h -3 v -1 h 3 z m -6,0 H 6 v -1 h 3 z m -6,0 H 0.5 V 162 h 1 v 1 H 1 v -0.5 H 3 Z M 0.5,159 v -3 h 1 v 3 z m 0,-6 v -3 h 1 v 3 z m 0,-6 v -3 h 1 v 3 z m 0,-6 v -3 h 1 v 3 z m 0,-6 v -3 h 1 v 3 z m 0,-6 v -2.5 H 4 v 1 H 1 V 127 h 0.5 v 2 z" />
              <path
                 inkscape:connector-curvature="0"
                 id="path1368"
                 style="fill:#ffffff;fill-opacity:1;fill-rule:nonzero;stroke:none"
                 d="m 30,85 h 168 v 36 H 30 Z" />
              <path
                 inkscape:connector-curvature="0"
                 id="path1370"
                 style="fill:#000000;fill-opacity:1;fill-rule:nonzero;stroke:none"
                 d="m 36,84.5 h 3 v 1 h -3 z m 6,0 h 3 v 1 h -3 z m 6,0 h 3 v 1 h -3 z m 6,0 h 3 v 1 h -3 z m 6,0 h 3 v 1 h -3 z m 6,0 h 3 v 1 h -3 z m 6,0 h 3 v 1 h -3 z m 6,0 h 3 v 1 h -3 z m 6,0 h 3 v 1 h -3 z m 6,0 h 3 v 1 h -3 z m 6,0 h 3 v 1 h -3 z m 6,0 h 3 v 1 h -3 z m 6,0 h 3 v 1 h -3 z m 6,0 h 3 v 1 h -3 z m 6,0 h 2.99999 v 1 H 120 Z m 6.00001,0 H 129 v 1 h -2.99999 z M 132,84.5 h 3 v 1 h -3 z m 6,0 h 3 v 1 h -3 z m 6,0 h 3 v 1 h -3 z m 6,0 h 3 v 1 h -3 z m 6,0 h 3 v 1 h -3 z m 6,0 h 3 v 1 h -3 z m 6,0 h 3 v 1 h -3 z m 6,0 h 3 v 1 h -3 z m 6,0 h 3 v 1 h -3 z m 6,0 h 3 v 1 h -3 z m 6,0 h 3 v 1 h -3 z m 6.5,0.5 v 3 h -1 v -3 z m 0,6 v 3 h -1 v -3 z m 0,6 v 3 h -1 v -3 z m 0,6 v 3 h -1 v -3 z m 0,6 v 3 h -1 v -3 z m 0,6 v 3 h -1 v -3 z m -0.5,6.5 h -3 v -1 h 3 z m -6,0 h -3 v -1 h 3 z m -6,0 h -3 v -1 h 3 z m -6,0 h -3 v -1 h 3 z m -6,0 h -3 v -1 h 3 z m -6,0 h -3 v -1 h 3 z m -6,0 h -3 v -1 h 3 z m -6,0 h -3 v -1 h 3 z m -6,0 h -3 v -1 h 3 z m -6,0 h -3 v -1 h 3 z m -6,0 h -3 v -1 h 3 z m -6,0 h -3 v -1 h 3 z m -6,0 h -3 v -1 h 3 z m -6,0 h -3 v -1 h 3 z m -6,0 h -3 v -1 h 3 z m -6,0 h -2.99999 v -1 H 108 Z m -6.00001,0 H 99 v -1 h 2.99999 z M 96,121.5 h -3 v -1 h 3 z m -6,0 h -3 v -1 h 3 z m -5.999992,0 h -3.000016 v -1 h 3.000016 z M 78,121.5 h -3 v -1 h 3 z m -6,0 h -3 v -1 h 3 z m -6,0 h -3 v -1 h 3 z m -6,0 h -3 v -1 h 3 z m -6,0 h -3 v -1 h 3 z m -6,0 h -3 v -1 h 3 z m -6,0 h -3 v -1 h 3 z m -6,0 h -3 v -1 h 3 z M 29.5,121 v -3 h 1 v 3 z m 0,-6 v -3 h 1 v 3 z m 0,-6 v -3 h 1 v 3 z m 0,-6 v -3 h 1 v 3 z m 0,-6 v -3 h 1 v 3 z m 0,-6 v -3 h 1 v 3 z M 30,84.5 h 3 v 1 h -3 z" />
            </g>
            <g
               transform="matrix(2.9909239,0,0,2.9909239,26.918316,391.81104)"
               id="g1372">
              <path
                 inkscape:connector-curvature="0"
                 id="path1374"
                 style="fill:#2c2c2c;fill-opacity:1;fill-rule:nonzero;stroke:none"
                 d="m 264,0 h 25 v 1 h -25 z" />
              <path
                 inkscape:connector-curvature="0"
                 id="path1376"
                 style="fill:#2c2c2c;fill-opacity:1;fill-rule:nonzero;stroke:none"
                 d="m 264,24 h 25 v 1 h -25 z" />
              <path
                 inkscape:connector-curvature="0"
                 id="path1378"
                 style="fill:#2c2c2c;fill-opacity:1;fill-rule:nonzero;stroke:none"
                 d="m 288,0 h 1 v 25 h -1 z" />
              <path
                 inkscape:connector-curvature="0"
                 id="path1380"
                 style="fill:#2c2c2c;fill-opacity:1;fill-rule:nonzero;stroke:none"
                 d="m 240,0 h 25 v 1 h -25 z" />
              <path
                 inkscape:connector-curvature="0"
                 id="path1382"
                 style="fill:#2c2c2c;fill-opacity:1;fill-rule:nonzero;stroke:none"
                 d="m 240,24 h 25 v 1 h -25 z" />
              <path
                 inkscape:connector-curvature="0"
                 id="path1384"
                 style="fill:#808080;fill-opacity:1;fill-rule:nonzero;stroke:none"
                 d="m 264,1 h 1 v 23 h -1 z" />
              <path
                 inkscape:connector-curvature="0"
                 id="path1386"
                 style="fill:#2c2c2c;fill-opacity:1;fill-rule:nonzero;stroke:none"
                 d="m 216,0 h 25 v 1 h -25 z" />
              <path
                 inkscape:connector-curvature="0"
                 id="path1388"
                 style="fill:#2c2c2c;fill-opacity:1;fill-rule:nonzero;stroke:none"
                 d="m 216,24 h 25 v 1 h -25 z" />
              <path
                 inkscape:connector-curvature="0"
                 id="path1390"
                 style="fill:#808080;fill-opacity:1;fill-rule:nonzero;stroke:none"
                 d="m 240,1 h 1 v 23 h -1 z" />
              <path
                 inkscape:connector-curvature="0"
                 id="path1392"
                 style="fill:#2c2c2c;fill-opacity:1;fill-rule:nonzero;stroke:none"
                 d="m 192,0 h 25 v 1 h -25 z" />
              <path
                 inkscape:connector-curvature="0"
                 id="path1394"
                 style="fill:#2c2c2c;fill-opacity:1;fill-rule:nonzero;stroke:none"
                 d="m 192,24 h 25 v 1 h -25 z" />
              <path
                 inkscape:connector-curvature="0"
                 id="path1396"
                 style="fill:#808080;fill-opacity:1;fill-rule:nonzero;stroke:none"
                 d="m 216,1 h 1 v 23 h -1 z" />
              <path
                 inkscape:connector-curvature="0"
                 id="path1398"
                 style="fill:#2c2c2c;fill-opacity:1;fill-rule:nonzero;stroke:none"
                 d="m 168,0 h 25 v 1 h -25 z" />
              <path
                 inkscape:connector-curvature="0"
                 id="path1400"
                 style="fill:#2c2c2c;fill-opacity:1;fill-rule:nonzero;stroke:none"
                 d="m 168,24 h 25 v 1 h -25 z" />
              <path
                 inkscape:connector-curvature="0"
                 id="path1402"
                 style="fill:#808080;fill-opacity:1;fill-rule:nonzero;stroke:none"
                 d="m 192,1 h 1 v 23 h -1 z" />
              <path
                 inkscape:connector-curvature="0"
                 id="path1404"
                 style="fill:#2c2c2c;fill-opacity:1;fill-rule:nonzero;stroke:none"
                 d="m 144,0 h 25 v 1 h -25 z" />
              <path
                 inkscape:connector-curvature="0"
                 id="path1406"
                 style="fill:#2c2c2c;fill-opacity:1;fill-rule:nonzero;stroke:none"
                 d="m 144,24 h 25 v 1 h -25 z" />
              <path
                 inkscape:connector-curvature="0"
                 id="path1408"
                 style="fill:#808080;fill-opacity:1;fill-rule:nonzero;stroke:none"
                 d="m 168,1 h 1 v 23 h -1 z" />
              <path
                 inkscape:connector-curvature="0"
                 id="path1410"
                 style="fill:#2c2c2c;fill-opacity:1;fill-rule:nonzero;stroke:none"
                 d="m 120,0 h 25 v 1 h -25 z" />
              <path
                 inkscape:connector-curvature="0"
                 id="path1412"
                 style="fill:#2c2c2c;fill-opacity:1;fill-rule:nonzero;stroke:none"
                 d="m 120,24 h 25 v 1 h -25 z" />
              <path
                 inkscape:connector-curvature="0"
                 id="path1414"
                 style="fill:#808080;fill-opacity:1;fill-rule:nonzero;stroke:none"
                 d="m 144,1 h 1 v 23 h -1 z" />
              <path
                 inkscape:connector-curvature="0"
                 id="path1416"
                 style="fill:#2c2c2c;fill-opacity:1;fill-rule:nonzero;stroke:none"
                 d="m 96,0 h 25 V 1 H 96 Z" />
              <path
                 inkscape:connector-curvature="0"
                 id="path1418"
                 style="fill:#2c2c2c;fill-opacity:1;fill-rule:nonzero;stroke:none"
                 d="m 96,24 h 25 v 1 H 96 Z" />
              <path
                 inkscape:connector-curvature="0"
                 id="path1420"
                 style="fill:#808080;fill-opacity:1;fill-rule:nonzero;stroke:none"
                 d="m 120,1 h 1 v 23 h -1 z" />
              <path
                 inkscape:connector-curvature="0"
                 id="path1422"
                 style="fill:#2c2c2c;fill-opacity:1;fill-rule:nonzero;stroke:none"
                 d="M 72,0 H 97 V 1 H 72 Z" />
              <path
                 inkscape:connector-curvature="0"
                 id="path1424"
                 style="fill:#2c2c2c;fill-opacity:1;fill-rule:nonzero;stroke:none"
                 d="m 72,24 h 25 v 1 H 72 Z" />
              <path
                 inkscape:connector-curvature="0"
                 id="path1426"
                 style="fill:#808080;fill-opacity:1;fill-rule:nonzero;stroke:none"
                 d="m 96,1 h 1 v 23 h -1 z" />
              <path
                 inkscape:connector-curvature="0"
                 id="path1428"
                 style="fill:#2c2c2c;fill-opacity:1;fill-rule:nonzero;stroke:none"
                 d="M 48,0 H 73 V 1 H 48 Z" />
              <path
                 inkscape:connector-curvature="0"
                 id="path1430"
                 style="fill:#2c2c2c;fill-opacity:1;fill-rule:nonzero;stroke:none"
                 d="m 48,24 h 25 v 1 H 48 Z" />
              <path
                 inkscape:connector-curvature="0"
                 id="path1432"
                 style="fill:#808080;fill-opacity:1;fill-rule:nonzero;stroke:none"
                 d="m 72,1 h 1 v 23 h -1 z" />
              <path
                 inkscape:connector-curvature="0"
                 id="path1434"
                 style="fill:#2c2c2c;fill-opacity:1;fill-rule:nonzero;stroke:none"
                 d="M 24,0 H 49 V 1 H 24 Z" />
              <path
                 inkscape:connector-curvature="0"
                 id="path1436"
                 style="fill:#2c2c2c;fill-opacity:1;fill-rule:nonzero;stroke:none"
                 d="m 24,24 h 25 v 1 H 24 Z" />
              <path
                 inkscape:connector-curvature="0"
                 id="path1438"
                 style="fill:#808080;fill-opacity:1;fill-rule:nonzero;stroke:none"
                 d="m 48,1 h 1 v 23 h -1 z" />
              <path
                 inkscape:connector-curvature="0"
                 id="path1440"
                 style="fill:#2c2c2c;fill-opacity:1;fill-rule:nonzero;stroke:none"
                 d="M 0,0 H 25 V 1 H 0 Z" />
              <path
                 inkscape:connector-curvature="0"
                 id="path1442"
                 style="fill:#2c2c2c;fill-opacity:1;fill-rule:nonzero;stroke:none"
                 d="m 0,24 h 25 v 1 H 0 Z" />
              <path
                 inkscape:connector-curvature="0"
                 id="path1444"
                 style="fill:#2c2c2c;fill-opacity:1;fill-rule:nonzero;stroke:none"
                 d="M 0,0 H 1 V 25 H 0 Z" />
              <path
                 inkscape:connector-curvature="0"
                 id="path1446"
                 style="fill:#808080;fill-opacity:1;fill-rule:nonzero;stroke:none"
                 d="m 24,1 h 1 v 23 h -1 z" />
            </g>
            <g
               transform="matrix(2.9909239,0,0,2.9909239,317.03793,14.954619)"
               id="g1448">
              <path
                 inkscape:connector-curvature="0"
                 id="path1450"
                 style="fill:#2c2c2c;fill-opacity:1;fill-rule:nonzero;stroke:none"
                 d="M 0,0 H 25 V 1 H 0 Z" />
              <path
                 inkscape:connector-curvature="0"
                 id="path1452"
                 style="fill:#2c2c2c;fill-opacity:1;fill-rule:nonzero;stroke:none"
                 d="m 0,24 h 25 v 1 H 0 Z" />
              <path
                 inkscape:connector-curvature="0"
                 id="path1454"
                 style="fill:#2c2c2c;fill-opacity:1;fill-rule:nonzero;stroke:none"
                 d="M 0,0 H 1 V 25 H 0 Z" />
              <path
                 inkscape:connector-curvature="0"
                 id="path1456"
                 style="fill:#2c2c2c;fill-opacity:1;fill-rule:nonzero;stroke:none"
                 d="m 24,0 h 1 v 25 h -1 z" />
            </g>
            <g
               transform="matrix(2.9909239,0,0,2.9909239,29.909239,140.57342)"
               id="g1458">
              <path
                 inkscape:connector-curvature="0"
                 id="path1460"
                 style="fill:#add8e6;fill-opacity:1;fill-rule:nonzero;stroke:none"
                 d="m 4,12.601563 v -0.203125 c -2e-7,-0.55145 0.053791,-1.097601 0.1613731,-1.638455 C 4.2689557,10.219131 4.4282622,9.6939669 4.6392927,9.184494 4.8503232,8.6750212 5.1090226,8.1910276 5.4153914,7.7325149 5.7217603,7.2740021 6.0699115,6.8497787 6.4598451,6.4598451 6.8497787,6.0699115 7.2740021,5.7217603 7.7325149,5.4153919 8.1910276,5.1090226 8.6750212,4.8503232 9.184494,4.6392927 9.6939669,4.4282622 10.219131,4.2689562 10.759983,4.1613736 11.300837,4.053791 11.846988,4 12.398438,4 h 0.203125 c 0.551448,0 1.0976,0.053791 1.638452,0.1613741 0.540853,0.1075821 1.066016,0.2668881 1.575489,0.4779186 0.509472,0.2110305 0.993465,0.4697299 1.451981,0.7760987 0.458513,0.3063689 0.882736,0.6545201 1.272669,1.0444537 0.389932,0.3899336 0.738084,0.814157 1.044452,1.2726698 0.30637,0.4585127 0.565069,0.9425063 0.776098,1.4519791 0.211031,0.5094729 0.370337,1.034637 0.477919,1.575489 0.107584,0.540854 0.161375,1.087005 0.161377,1.638455 v 0.203125 c -2e-6,0.551448 -0.05379,1.0976 -0.161377,1.638452 -0.107582,0.540853 -0.266888,1.066016 -0.477919,1.575489 -0.211029,0.509472 -0.469728,0.993465 -0.776098,1.451981 -0.306368,0.458513 -0.65452,0.882736 -1.044452,1.272669 -0.389933,0.389932 -0.814156,0.738084 -1.272669,1.044452 -0.458516,0.30637 -0.942509,0.565069 -1.451981,0.776098 -0.509473,0.211031 -1.034636,0.370337 -1.575489,0.477919 C 13.699163,20.946207 13.153011,20.999998 12.601563,21 h -0.203125 c -0.55145,-2e-6 -1.097601,-0.05379 -1.638455,-0.161377 C 10.219131,20.731041 9.6939669,20.571735 9.184494,20.360704 8.6750212,20.149675 8.1910276,19.890976 7.7325149,19.584606 7.2740021,19.278238 6.8497787,18.930086 6.4598451,18.540154 6.0699115,18.150221 5.7217603,17.725998 5.4153919,17.267485 5.1090226,16.808969 4.8503232,16.324976 4.6392927,15.815504 4.4282622,15.306031 4.2689557,14.780868 4.1613736,14.240015 4.053791,13.699163 3.9999998,13.153011 4,12.601563 Z" />
              <path
                 inkscape:connector-curvature="0"
                 id="path1462"
                 style="fill:#2c2c2c;fill-opacity:1;fill-rule:nonzero;stroke:none"
                 d="M 0,0 H 25 V 1 H 0 Z" />
              <path
                 inkscape:connector-curvature="0"
                 id="path1464"
                 style="fill:#2c2c2c;fill-opacity:1;fill-rule:nonzero;stroke:none"
                 d="m 0,24 h 25 v 1 H 0 Z" />
              <path
                 inkscape:connector-curvature="0"
                 id="path1466"
                 style="fill:#2c2c2c;fill-opacity:1;fill-rule:nonzero;stroke:none"
                 d="M 0,0 H 1 V 25 H 0 Z" />
              <path
                 inkscape:connector-curvature="0"
                 id="path1468"
                 style="fill:#2c2c2c;fill-opacity:1;fill-rule:nonzero;stroke:none"
                 d="m 24,0 h 1 v 25 h -1 z" />
            </g>
            <g
               transform="matrix(2.9909239,0,0,2.9909239,496.49338,140.57342)"
               id="g1470">
              <path
                 inkscape:connector-curvature="0"
                 id="path1472"
                 style="fill:#add8e6;fill-opacity:1;fill-rule:nonzero;stroke:none"
                 d="m 4,12.601563 v -0.203125 c -2e-7,-0.55145 0.053791,-1.097601 0.1613731,-1.638455 C 4.2689557,10.219131 4.4282622,9.6939669 4.6392927,9.184494 4.8503232,8.6750212 5.1090226,8.1910276 5.4153914,7.7325149 5.7217603,7.2740021 6.0699115,6.8497787 6.4598451,6.4598451 6.8497787,6.0699115 7.2740021,5.7217603 7.7325149,5.4153919 8.1910276,5.1090226 8.6750212,4.8503232 9.184494,4.6392927 9.6939669,4.4282622 10.219131,4.2689562 10.759983,4.1613736 11.300837,4.053791 11.846988,4 12.398438,4 h 0.203125 c 0.551448,0 1.0976,0.053791 1.638452,0.1613741 0.540853,0.1075821 1.066016,0.2668881 1.575489,0.4779186 0.509472,0.2110305 0.993465,0.4697299 1.451981,0.7760987 0.458513,0.3063689 0.882736,0.6545201 1.272669,1.0444537 0.389932,0.3899336 0.738084,0.814157 1.044452,1.2726698 0.30637,0.4585127 0.565069,0.9425063 0.776098,1.4519791 0.211031,0.5094729 0.370337,1.034637 0.477919,1.575489 0.107584,0.540854 0.161375,1.087005 0.161377,1.638455 v 0.203125 c -2e-6,0.551448 -0.05379,1.0976 -0.161377,1.638452 -0.107582,0.540853 -0.266888,1.066016 -0.477919,1.575489 -0.211029,0.509472 -0.469728,0.993465 -0.776098,1.451981 -0.306368,0.458513 -0.65452,0.882736 -1.044452,1.272669 -0.389933,0.389932 -0.814156,0.738084 -1.272669,1.044452 -0.458516,0.30637 -0.942509,0.565069 -1.451981,0.776098 -0.509473,0.211031 -1.034636,0.370337 -1.575489,0.477919 C 13.699163,20.946207 13.153011,20.999998 12.601563,21 h -0.203125 c -0.55145,-2e-6 -1.097601,-0.05379 -1.638455,-0.161377 C 10.219131,20.731041 9.6939669,20.571735 9.184494,20.360704 8.6750212,20.149675 8.1910276,19.890976 7.7325149,19.584606 7.2740021,19.278238 6.8497787,18.930086 6.4598451,18.540154 6.0699115,18.150221 5.7217603,17.725998 5.4153919,17.267485 5.1090226,16.808969 4.8503232,16.324976 4.6392927,15.815504 4.4282622,15.306031 4.2689557,14.780868 4.1613736,14.240015 4.053791,13.699163 3.9999998,13.153011 4,12.601563 Z" />
              <path
                 inkscape:connector-curvature="0"
                 id="path1474"
                 style="fill:#add8e6;fill-opacity:1;fill-rule:nonzero;stroke:none"
                 d="m 28,12.601563 v -0.203125 c -2e-6,-0.55145 0.05379,-1.097601 0.161369,-1.638455 0.107582,-0.540852 0.26689,-1.0660161 0.477921,-1.575489 0.211031,-0.5094728 0.46973,-0.9934664 0.7761,-1.4519791 C 29.721758,7.2740021 30.069908,6.8497787 30.459843,6.4598451 30.849777,6.0699115 31.274,5.7217603 31.732512,5.4153919 32.191025,5.1090226 32.675018,4.8503232 33.18449,4.6392927 33.693962,4.4282622 34.219128,4.2689562 34.759979,4.1613736 35.300831,4.053791 35.846985,4 36.398438,4 h 0.203125 c 0.551448,0 1.097602,0.053791 1.638454,0.1613741 0.540852,0.1075821 1.066013,0.2668881 1.575485,0.4779186 0.509472,0.2110305 0.993466,0.4697299 1.451977,0.7760987 0.458519,0.3063689 0.882744,0.6545201 1.272675,1.0444537 0.389934,0.3899336 0.738082,0.814157 1.044452,1.2726698 0.30637,0.4585127 0.565067,0.9425063 0.776097,1.4519791 0.211032,0.5094729 0.370338,1.034637 0.47792,1.575489 C 44.946209,11.300837 45,11.846988 45,12.398438 v 0.203125 c 0,0.551448 -0.05379,1.0976 -0.161377,1.638452 -0.107578,0.540853 -0.266884,1.066016 -0.477917,1.575489 -0.211033,0.509472 -0.469734,0.993465 -0.776104,1.451981 -0.306366,0.458513 -0.654514,0.882736 -1.044448,1.272669 -0.389931,0.389932 -0.814156,0.738084 -1.272671,1.044452 -0.458515,0.30637 -0.942509,0.565069 -1.451981,0.776098 -0.509472,0.211031 -1.034633,0.370337 -1.575485,0.477919 C 37.699165,20.946207 37.153011,20.999998 36.601563,21 h -0.203125 c -0.551453,-2e-6 -1.097607,-0.05379 -1.638459,-0.161377 C 34.219128,20.731041 33.693962,20.571735 33.18449,20.360704 32.675018,20.149675 32.191025,19.890976 31.732512,19.584606 31.274,19.278238 30.849777,18.930086 30.459843,18.540154 30.069908,18.150221 29.721756,17.725998 29.415388,17.267485 29.10902,16.808969 28.850321,16.324976 28.63929,15.815504 28.428259,15.306031 28.268951,14.780868 28.161371,14.240015 28.053787,13.699163 27.999998,13.153011 28,12.601563 Z" />
              <path
                 inkscape:connector-curvature="0"
                 id="path1476"
                 style="fill:#add8e6;fill-opacity:1;fill-rule:nonzero;stroke:none"
                 d="m 52,12.601563 v -0.203125 c -4e-6,-0.55145 0.05378,-1.097601 0.161366,-1.638455 0.107582,-0.540852 0.266887,-1.0660161 0.47792,-1.575489 0.211033,-0.5094728 0.46973,-0.9934664 0.776096,-1.4519791 0.30637,-0.4585128 0.654522,-0.8827362 1.044457,-1.2726698 C 54.849773,6.0699115 55.273994,5.7217603 55.732506,5.4153919 56.191021,5.1090226 56.675011,4.8503232 57.184483,4.6392927 57.693954,4.4282622 58.21912,4.2689562 58.759975,4.1613736 59.300835,4.053791 59.846989,4 60.398438,4 h 0.203125 c 0.551448,0 1.097599,0.053791 1.63845,0.1613741 0.540852,0.1075821 1.066013,0.2668881 1.575489,0.4779186 0.509472,0.2110305 0.993466,0.4697299 1.451977,0.7760987 0.458511,0.3063689 0.882736,0.6545201 1.272675,1.0444537 0.38993,0.3899336 0.738075,0.814157 1.044441,1.2726698 0.306373,0.4585127 0.565071,0.9425063 0.776108,1.4519791 0.211029,0.5094729 0.37033,1.034637 0.477912,1.575489 0.107583,0.540854 0.161377,1.087005 0.161385,1.638455 v 0.203125 c -8e-6,0.551448 -0.0538,1.0976 -0.161385,1.638452 -0.107582,0.540853 -0.266883,1.066016 -0.477912,1.575489 -0.211037,0.509472 -0.469735,0.993465 -0.776101,1.451981 -0.306373,0.458513 -0.654518,0.882736 -1.044448,1.272669 -0.389939,0.389932 -0.814164,0.738084 -1.272675,1.044452 -0.458511,0.30637 -0.942505,0.565069 -1.451977,0.776098 -0.509476,0.211031 -1.034637,0.370337 -1.575489,0.477919 C 61.699162,20.946207 61.153011,20.999998 60.601563,21 h -0.203125 c -0.551449,-2e-6 -1.097603,-0.05379 -1.638463,-0.161377 C 58.21912,20.731041 57.693954,20.571735 57.184483,20.360704 56.675011,20.149675 56.191021,19.890976 55.732506,19.584606 55.273994,19.278238 54.849773,18.930086 54.459839,18.540154 54.069904,18.150221 53.721752,17.725998 53.415382,17.267485 53.109016,16.808969 52.850319,16.324976 52.639286,15.815504 52.428253,15.306031 52.268948,14.780868 52.161369,14.240015 52.053783,13.699163 51.999996,13.153011 52,12.601563 Z" />
              <path
                 inkscape:connector-curvature="0"
                 id="path1478"
                 style="fill:#add8e6;fill-opacity:1;fill-rule:nonzero;stroke:none"
                 d="m 76,12.601563 v -0.203125 c -8e-6,-0.55145 0.05378,-1.097601 0.161362,-1.638455 0.107582,-0.540852 0.266891,-1.0660161 0.47792,-1.575489 0.211029,-0.5094728 0.469727,-0.9934664 0.7761,-1.4519791 C 77.721748,7.2740021 78.069901,6.8497787 78.459839,6.4598451 78.84977,6.0699115 79.273987,5.7217603 79.732498,5.4153919 80.19101,5.1090226 80.675003,4.8503232 81.184486,4.6392927 81.693954,4.4282622 82.219124,4.2689562 82.759979,4.1613736 83.300827,4.053791 83.846977,4 84.398438,4 h 0.203125 c 0.551445,0 1.097587,0.053791 1.638442,0.1613741 0.540856,0.1075821 1.066018,0.2668881 1.575486,0.4779186 0.509468,0.2110305 0.993461,0.4697299 1.45198,0.7760987 0.458519,0.3063689 0.882744,0.6545201 1.272675,1.0444537 0.389931,0.3899336 0.738083,0.814157 1.044441,1.2726698 0.306374,0.4585127 0.565071,0.9425063 0.7761,1.4519791 0.211037,0.5094729 0.370346,1.034637 0.477928,1.575489 C 92.946205,11.300837 93,11.846988 93,12.398438 v 0.203125 c 0,0.551448 -0.05379,1.0976 -0.161385,1.638452 -0.107582,0.540853 -0.266891,1.066016 -0.477928,1.575489 -0.211029,0.509472 -0.469726,0.993465 -0.776092,1.451981 -0.306366,0.458513 -0.654518,0.882736 -1.044449,1.272669 -0.389931,0.389932 -0.814156,0.738084 -1.272675,1.044452 -0.458519,0.30637 -0.942512,0.565069 -1.45198,0.776098 -0.509468,0.211031 -1.03463,0.370337 -1.575486,0.477919 C 85.69915,20.946207 85.153008,20.999998 84.601563,21 h -0.203125 c -0.551461,-2e-6 -1.097611,-0.05379 -1.638459,-0.161377 -0.540855,-0.107582 -1.066025,-0.266888 -1.575493,-0.477919 -0.509483,-0.211029 -0.993476,-0.469728 -1.451988,-0.776098 -0.458511,-0.306368 -0.882728,-0.65452 -1.272659,-1.044452 -0.389938,-0.389933 -0.738091,-0.814156 -1.044457,-1.272669 -0.306373,-0.458516 -0.565071,-0.942509 -0.7761,-1.451981 -0.211029,-0.509473 -0.370338,-1.034636 -0.47792,-1.575489 C 76.05378,13.699163 75.999992,13.153011 76,12.601563 Z" />
              <path
                 inkscape:connector-curvature="0"
                 id="path1480"
                 style="fill:#000000;fill-opacity:1;fill-rule:nonzero;stroke:none"
                 d="M 72,0 H 97 V 1 H 72 Z" />
              <path
                 inkscape:connector-curvature="0"
                 id="path1482"
                 style="fill:#000000;fill-opacity:1;fill-rule:nonzero;stroke:none"
                 d="m 72,24 h 25 v 1 H 72 Z" />
              <path
                 inkscape:connector-curvature="0"
                 id="path1484"
                 style="fill:#000000;fill-opacity:1;fill-rule:nonzero;stroke:none"
                 d="m 96,0 h 1 v 25 h -1 z" />
              <path
                 inkscape:connector-curvature="0"
                 id="path1486"
                 style="fill:#000000;fill-opacity:1;fill-rule:nonzero;stroke:none"
                 d="M 48,0 H 73 V 1 H 48 Z" />
              <path
                 inkscape:connector-curvature="0"
                 id="path1488"
                 style="fill:#000000;fill-opacity:1;fill-rule:nonzero;stroke:none"
                 d="m 48,24 h 25 v 1 H 48 Z" />
              <path
                 inkscape:connector-curvature="0"
                 id="path1490"
                 style="fill:#000000;fill-opacity:1;fill-rule:nonzero;stroke:none"
                 d="m 72,1 h 1 v 23 h -1 z" />
              <path
                 inkscape:connector-curvature="0"
                 id="path1492"
                 style="fill:#000000;fill-opacity:1;fill-rule:nonzero;stroke:none"
                 d="M 24,0 H 49 V 1 H 24 Z" />
              <path
                 inkscape:connector-curvature="0"
                 id="path1494"
                 style="fill:#000000;fill-opacity:1;fill-rule:nonzero;stroke:none"
                 d="m 24,24 h 25 v 1 H 24 Z" />
              <path
                 inkscape:connector-curvature="0"
                 id="path1496"
                 style="fill:#000000;fill-opacity:1;fill-rule:nonzero;stroke:none"
                 d="m 48,1 h 1 v 23 h -1 z" />
              <path
                 inkscape:connector-curvature="0"
                 id="path1498"
                 style="fill:#000000;fill-opacity:1;fill-rule:nonzero;stroke:none"
                 d="M 0,0 H 25 V 1 H 0 Z" />
              <path
                 inkscape:connector-curvature="0"
                 id="path1500"
                 style="fill:#000000;fill-opacity:1;fill-rule:nonzero;stroke:none"
                 d="m 0,24 h 25 v 1 H 0 Z" />
              <path
                 inkscape:connector-curvature="0"
                 id="path1502"
                 style="fill:#000000;fill-opacity:1;fill-rule:nonzero;stroke:none"
                 d="M 0,0 H 1 V 25 H 0 Z" />
              <path
                 inkscape:connector-curvature="0"
                 id="path1504"
                 style="fill:#000000;fill-opacity:1;fill-rule:nonzero;stroke:none"
                 d="m 24,1 h 1 v 23 h -1 z" />
            </g>
            <g
               transform="matrix(2.9909239,0,0,2.9909239,352.92902,266.19223)"
               id="g1506">
              <path
                 inkscape:connector-curvature="0"
                 id="path1508"
                 style="fill:#add8e6;fill-opacity:1;fill-rule:nonzero;stroke:none"
                 d="m 4,12.601563 v -0.203125 c -2e-7,-0.55145 0.053791,-1.097601 0.1613731,-1.638455 C 4.2689557,10.219131 4.4282622,9.6939669 4.6392927,9.184494 4.8503232,8.6750212 5.1090226,8.1910276 5.4153914,7.7325149 5.7217603,7.2740021 6.0699115,6.8497787 6.4598451,6.4598451 6.8497787,6.0699115 7.2740021,5.7217603 7.7325149,5.4153919 8.1910276,5.1090226 8.6750212,4.8503232 9.184494,4.6392927 9.6939669,4.4282622 10.219131,4.2689562 10.759983,4.1613736 11.300837,4.053791 11.846988,4 12.398438,4 h 0.203125 c 0.551448,0 1.0976,0.053791 1.638452,0.1613741 0.540853,0.1075821 1.066016,0.2668881 1.575489,0.4779186 0.509472,0.2110305 0.993465,0.4697299 1.451981,0.7760987 0.458513,0.3063689 0.882736,0.6545201 1.272669,1.0444537 0.389932,0.3899336 0.738084,0.814157 1.044452,1.2726698 0.30637,0.4585127 0.565069,0.9425063 0.776098,1.4519791 0.211031,0.5094729 0.370337,1.034637 0.477919,1.575489 0.107584,0.540854 0.161375,1.087005 0.161377,1.638455 v 0.203125 c -2e-6,0.551448 -0.05379,1.0976 -0.161377,1.638452 -0.107582,0.540853 -0.266888,1.066016 -0.477919,1.575489 -0.211029,0.509472 -0.469728,0.993465 -0.776098,1.451981 -0.306368,0.458513 -0.65452,0.882736 -1.044452,1.272669 -0.389933,0.389932 -0.814156,0.738084 -1.272669,1.044452 -0.458516,0.30637 -0.942509,0.565069 -1.451981,0.776098 -0.509473,0.211031 -1.034636,0.370337 -1.575489,0.477919 C 13.699163,20.946207 13.153011,20.999998 12.601563,21 h -0.203125 c -0.55145,-2e-6 -1.097601,-0.05379 -1.638455,-0.161377 C 10.219131,20.731041 9.6939669,20.571735 9.184494,20.360704 8.6750212,20.149675 8.1910276,19.890976 7.7325149,19.584606 7.2740021,19.278238 6.8497787,18.930086 6.4598451,18.540154 6.0699115,18.150221 5.7217603,17.725998 5.4153919,17.267485 5.1090226,16.808969 4.8503232,16.324976 4.6392927,15.815504 4.4282622,15.306031 4.2689557,14.780868 4.1613736,14.240015 4.053791,13.699163 3.9999998,13.153011 4,12.601563 Z" />
              <path
                 inkscape:connector-curvature="0"
                 id="path1510"
                 style="fill:#add8e6;fill-opacity:1;fill-rule:nonzero;stroke:none"
                 d="m 28,12.601563 v -0.203125 c -2e-6,-0.55145 0.05379,-1.097601 0.161369,-1.638455 0.107582,-0.540852 0.26689,-1.0660161 0.477921,-1.575489 0.211031,-0.5094728 0.46973,-0.9934664 0.7761,-1.4519791 C 29.721758,7.2740021 30.069908,6.8497787 30.459843,6.4598451 30.849777,6.0699115 31.274,5.7217603 31.732512,5.4153919 32.191025,5.1090226 32.675018,4.8503232 33.18449,4.6392927 33.693962,4.4282622 34.219128,4.2689562 34.759979,4.1613736 35.300831,4.053791 35.846985,4 36.398438,4 h 0.203125 c 0.551448,0 1.097602,0.053791 1.638454,0.1613741 0.540852,0.1075821 1.066013,0.2668881 1.575485,0.4779186 0.509472,0.2110305 0.993466,0.4697299 1.451977,0.7760987 0.458519,0.3063689 0.882744,0.6545201 1.272675,1.0444537 0.389934,0.3899336 0.738082,0.814157 1.044452,1.2726698 0.30637,0.4585127 0.565067,0.9425063 0.776097,1.4519791 0.211032,0.5094729 0.370338,1.034637 0.47792,1.575489 C 44.946209,11.300837 45,11.846988 45,12.398438 v 0.203125 c 0,0.551448 -0.05379,1.0976 -0.161377,1.638452 -0.107578,0.540853 -0.266884,1.066016 -0.477917,1.575489 -0.211033,0.509472 -0.469734,0.993465 -0.776104,1.451981 -0.306366,0.458513 -0.654514,0.882736 -1.044448,1.272669 -0.389931,0.389932 -0.814156,0.738084 -1.272671,1.044452 -0.458515,0.30637 -0.942509,0.565069 -1.451981,0.776098 -0.509472,0.211031 -1.034633,0.370337 -1.575485,0.477919 C 37.699165,20.946207 37.153011,20.999998 36.601563,21 h -0.203125 c -0.551453,-2e-6 -1.097607,-0.05379 -1.638459,-0.161377 C 34.219128,20.731041 33.693962,20.571735 33.18449,20.360704 32.675018,20.149675 32.191025,19.890976 31.732512,19.584606 31.274,19.278238 30.849777,18.930086 30.459843,18.540154 30.069908,18.150221 29.721756,17.725998 29.415388,17.267485 29.10902,16.808969 28.850321,16.324976 28.63929,15.815504 28.428259,15.306031 28.268951,14.780868 28.161371,14.240015 28.053787,13.699163 27.999998,13.153011 28,12.601563 Z" />
              <path
                 inkscape:connector-curvature="0"
                 id="path1512"
                 style="fill:#add8e6;fill-opacity:1;fill-rule:nonzero;stroke:none"
                 d="m 52,12.601563 v -0.203125 c -4e-6,-0.55145 0.05378,-1.097601 0.161366,-1.638455 0.107582,-0.540852 0.266887,-1.0660161 0.47792,-1.575489 0.211033,-0.5094728 0.46973,-0.9934664 0.776096,-1.4519791 0.30637,-0.4585128 0.654522,-0.8827362 1.044457,-1.2726698 C 54.849773,6.0699115 55.273994,5.7217603 55.732506,5.4153919 56.191021,5.1090226 56.675011,4.8503232 57.184483,4.6392927 57.693954,4.4282622 58.21912,4.2689562 58.759975,4.1613736 59.300835,4.053791 59.846989,4 60.398438,4 h 0.203125 c 0.551448,0 1.097599,0.053791 1.63845,0.1613741 0.540852,0.1075821 1.066013,0.2668881 1.575489,0.4779186 0.509472,0.2110305 0.993466,0.4697299 1.451977,0.7760987 0.458511,0.3063689 0.882736,0.6545201 1.272675,1.0444537 0.38993,0.3899336 0.738075,0.814157 1.044441,1.2726698 0.306373,0.4585127 0.565071,0.9425063 0.776108,1.4519791 0.211029,0.5094729 0.37033,1.034637 0.477912,1.575489 0.107583,0.540854 0.161377,1.087005 0.161385,1.638455 v 0.203125 c -8e-6,0.551448 -0.0538,1.0976 -0.161385,1.638452 -0.107582,0.540853 -0.266883,1.066016 -0.477912,1.575489 -0.211037,0.509472 -0.469735,0.993465 -0.776101,1.451981 -0.306373,0.458513 -0.654518,0.882736 -1.044448,1.272669 -0.389939,0.389932 -0.814164,0.738084 -1.272675,1.044452 -0.458511,0.30637 -0.942505,0.565069 -1.451977,0.776098 -0.509476,0.211031 -1.034637,0.370337 -1.575489,0.477919 C 61.699162,20.946207 61.153011,20.999998 60.601563,21 h -0.203125 c -0.551449,-2e-6 -1.097603,-0.05379 -1.638463,-0.161377 C 58.21912,20.731041 57.693954,20.571735 57.184483,20.360704 56.675011,20.149675 56.191021,19.890976 55.732506,19.584606 55.273994,19.278238 54.849773,18.930086 54.459839,18.540154 54.069904,18.150221 53.721752,17.725998 53.415382,17.267485 53.109016,16.808969 52.850319,16.324976 52.639286,15.815504 52.428253,15.306031 52.268948,14.780868 52.161369,14.240015 52.053783,13.699163 51.999996,13.153011 52,12.601563 Z" />
              <path
                 inkscape:connector-curvature="0"
                 id="path1514"
                 style="fill:#000000;fill-opacity:1;fill-rule:nonzero;stroke:none"
                 d="M 48,0 H 73 V 1 H 48 Z" />
              <path
                 inkscape:connector-curvature="0"
                 id="path1516"
                 style="fill:#000000;fill-opacity:1;fill-rule:nonzero;stroke:none"
                 d="m 48,24 h 25 v 1 H 48 Z" />
              <path
                 inkscape:connector-curvature="0"
                 id="path1518"
                 style="fill:#000000;fill-opacity:1;fill-rule:nonzero;stroke:none"
                 d="m 72,0 h 1 v 25 h -1 z" />
              <path
                 inkscape:connector-curvature="0"
                 id="path1520"
                 style="fill:#000000;fill-opacity:1;fill-rule:nonzero;stroke:none"
                 d="M 24,0 H 49 V 1 H 24 Z" />
              <path
                 inkscape:connector-curvature="0"
                 id="path1522"
                 style="fill:#000000;fill-opacity:1;fill-rule:nonzero;stroke:none"
                 d="m 24,24 h 25 v 1 H 24 Z" />
              <path
                 inkscape:connector-curvature="0"
                 id="path1524"
                 style="fill:#000000;fill-opacity:1;fill-rule:nonzero;stroke:none"
                 d="m 48,1 h 1 v 23 h -1 z" />
              <path
                 inkscape:connector-curvature="0"
                 id="path1526"
                 style="fill:#000000;fill-opacity:1;fill-rule:nonzero;stroke:none"
                 d="M 0,0 H 25 V 1 H 0 Z" />
              <path
                 inkscape:connector-curvature="0"
                 id="path1528"
                 style="fill:#000000;fill-opacity:1;fill-rule:nonzero;stroke:none"
                 d="m 0,24 h 25 v 1 H 0 Z" />
              <path
                 inkscape:connector-curvature="0"
                 id="path1530"
                 style="fill:#000000;fill-opacity:1;fill-rule:nonzero;stroke:none"
                 d="M 0,0 H 1 V 25 H 0 Z" />
              <path
                 inkscape:connector-curvature="0"
                 id="path1532"
                 style="fill:#000000;fill-opacity:1;fill-rule:nonzero;stroke:none"
                 d="m 24,1 h 1 v 23 h -1 z" />
            </g>
            <g
               transform="matrix(2.9909239,0,0,2.9909239,640.05774,266.19223)"
               id="g1534">
              <path
                 inkscape:connector-curvature="0"
                 id="path1536"
                 style="fill:#add8e6;fill-opacity:1;fill-rule:nonzero;stroke:none"
                 d="m 4,12.601563 v -0.203125 c -2e-7,-0.55145 0.053791,-1.097601 0.1613731,-1.638455 C 4.2689557,10.219131 4.4282622,9.6939669 4.6392927,9.184494 4.8503232,8.6750212 5.1090226,8.1910276 5.4153914,7.7325149 5.7217603,7.2740021 6.0699115,6.8497787 6.4598451,6.4598451 6.8497787,6.0699115 7.2740021,5.7217603 7.7325149,5.4153919 8.1910276,5.1090226 8.6750212,4.8503232 9.184494,4.6392927 9.6939669,4.4282622 10.219131,4.2689562 10.759983,4.1613736 11.300837,4.053791 11.846988,4 12.398438,4 h 0.203125 c 0.551448,0 1.0976,0.053791 1.638452,0.1613741 0.540853,0.1075821 1.066016,0.2668881 1.575489,0.4779186 0.509472,0.2110305 0.993465,0.4697299 1.451981,0.7760987 0.458513,0.3063689 0.882736,0.6545201 1.272669,1.0444537 0.389932,0.3899336 0.738084,0.814157 1.044452,1.2726698 0.30637,0.4585127 0.565069,0.9425063 0.776098,1.4519791 0.211031,0.5094729 0.370337,1.034637 0.477919,1.575489 0.107584,0.540854 0.161375,1.087005 0.161377,1.638455 v 0.203125 c -2e-6,0.551448 -0.05379,1.0976 -0.161377,1.638452 -0.107582,0.540853 -0.266888,1.066016 -0.477919,1.575489 -0.211029,0.509472 -0.469728,0.993465 -0.776098,1.451981 -0.306368,0.458513 -0.65452,0.882736 -1.044452,1.272669 -0.389933,0.389932 -0.814156,0.738084 -1.272669,1.044452 -0.458516,0.30637 -0.942509,0.565069 -1.451981,0.776098 -0.509473,0.211031 -1.034636,0.370337 -1.575489,0.477919 C 13.699163,20.946207 13.153011,20.999998 12.601563,21 h -0.203125 c -0.55145,-2e-6 -1.097601,-0.05379 -1.638455,-0.161377 C 10.219131,20.731041 9.6939669,20.571735 9.184494,20.360704 8.6750212,20.149675 8.1910276,19.890976 7.7325149,19.584606 7.2740021,19.278238 6.8497787,18.930086 6.4598451,18.540154 6.0699115,18.150221 5.7217603,17.725998 5.4153919,17.267485 5.1090226,16.808969 4.8503232,16.324976 4.6392927,15.815504 4.4282622,15.306031 4.2689557,14.780868 4.1613736,14.240015 4.053791,13.699163 3.9999998,13.153011 4,12.601563 Z" />
              <path
                 inkscape:connector-curvature="0"
                 id="path1538"
                 style="fill:#add8e6;fill-opacity:1;fill-rule:nonzero;stroke:none"
                 d="m 28,12.601563 v -0.203125 c -2e-6,-0.55145 0.05379,-1.097601 0.161369,-1.638455 0.107582,-0.540852 0.26689,-1.0660161 0.477921,-1.575489 0.211031,-0.5094728 0.46973,-0.9934664 0.7761,-1.4519791 C 29.721758,7.2740021 30.069908,6.8497787 30.459843,6.4598451 30.849777,6.0699115 31.274,5.7217603 31.732512,5.4153919 32.191025,5.1090226 32.675018,4.8503232 33.18449,4.6392927 33.693962,4.4282622 34.219128,4.2689562 34.759979,4.1613736 35.300831,4.053791 35.846985,4 36.398438,4 h 0.203125 c 0.551448,0 1.097602,0.053791 1.638454,0.1613741 0.540852,0.1075821 1.066013,0.2668881 1.575485,0.4779186 0.509472,0.2110305 0.993466,0.4697299 1.451977,0.7760987 0.458519,0.3063689 0.882744,0.6545201 1.272675,1.0444537 0.389934,0.3899336 0.738082,0.814157 1.044452,1.2726698 0.30637,0.4585127 0.565067,0.9425063 0.776097,1.4519791 0.211032,0.5094729 0.370338,1.034637 0.47792,1.575489 C 44.946209,11.300837 45,11.846988 45,12.398438 v 0.203125 c 0,0.551448 -0.05379,1.0976 -0.161377,1.638452 -0.107578,0.540853 -0.266884,1.066016 -0.477917,1.575489 -0.211033,0.509472 -0.469734,0.993465 -0.776104,1.451981 -0.306366,0.458513 -0.654514,0.882736 -1.044448,1.272669 -0.389931,0.389932 -0.814156,0.738084 -1.272671,1.044452 -0.458515,0.30637 -0.942509,0.565069 -1.451981,0.776098 -0.509472,0.211031 -1.034633,0.370337 -1.575485,0.477919 C 37.699165,20.946207 37.153011,20.999998 36.601563,21 h -0.203125 c -0.551453,-2e-6 -1.097607,-0.05379 -1.638459,-0.161377 C 34.219128,20.731041 33.693962,20.571735 33.18449,20.360704 32.675018,20.149675 32.191025,19.890976 31.732512,19.584606 31.274,19.278238 30.849777,18.930086 30.459843,18.540154 30.069908,18.150221 29.721756,17.725998 29.415388,17.267485 29.10902,16.808969 28.850321,16.324976 28.63929,15.815504 28.428259,15.306031 28.268951,14.780868 28.161371,14.240015 28.053787,13.699163 27.999998,13.153011 28,12.601563 Z" />
              <path
                 inkscape:connector-curvature="0"
                 id="path1540"
                 style="fill:#000000;fill-opacity:1;fill-rule:nonzero;stroke:none"
                 d="M 24,0 H 49 V 1 H 24 Z" />
              <path
                 inkscape:connector-curvature="0"
                 id="path1542"
                 style="fill:#000000;fill-opacity:1;fill-rule:nonzero;stroke:none"
                 d="m 24,24 h 25 v 1 H 24 Z" />
              <path
                 inkscape:connector-curvature="0"
                 id="path1544"
                 style="fill:#000000;fill-opacity:1;fill-rule:nonzero;stroke:none"
                 d="m 48,0 h 1 v 25 h -1 z" />
              <path
                 inkscape:connector-curvature="0"
                 id="path1546"
                 style="fill:#000000;fill-opacity:1;fill-rule:nonzero;stroke:none"
                 d="M 0,0 H 25 V 1 H 0 Z" />
              <path
                 inkscape:connector-curvature="0"
                 id="path1548"
                 style="fill:#000000;fill-opacity:1;fill-rule:nonzero;stroke:none"
                 d="m 0,24 h 25 v 1 H 0 Z" />
              <path
                 inkscape:connector-curvature="0"
                 id="path1550"
                 style="fill:#000000;fill-opacity:1;fill-rule:nonzero;stroke:none"
                 d="M 0,0 H 1 V 25 H 0 Z" />
              <path
                 inkscape:connector-curvature="0"
                 id="path1552"
                 style="fill:#000000;fill-opacity:1;fill-rule:nonzero;stroke:none"
                 d="m 24,1 h 1 v 23 h -1 z" />
            </g>
            <g
               transform="matrix(2.9909239,0,0,2.9909239,1.4954619,1.4954619)"
               id="g1554">
              <path
                 inkscape:connector-curvature="0"
                 id="path1556"
                 style="fill:none;stroke:#000000;stroke-width:1;stroke-linecap:butt;stroke-linejoin:miter;stroke-miterlimit:10;stroke-dasharray:none;stroke-opacity:1"
                 d="M 22,131 V 77.120003" />
              <path
                 inkscape:connector-curvature="0"
                 id="path1558"
                 style="fill:#000000;fill-opacity:1;fill-rule:nonzero;stroke:none"
                 d="m 22,72.120003 1.67,5 h -3.34 z" />
              <path
                 inkscape:connector-curvature="0"
                 id="path1560"
                 style="fill:none;stroke:#000000;stroke-width:1;stroke-linecap:butt;stroke-linejoin:miter;stroke-miterlimit:10;stroke-dasharray:none;stroke-opacity:1"
                 d="m 22,72.120003 1.67,5 h -3.34 z" />
              <path
                 inkscape:connector-curvature="0"
                 id="path1562"
                 style="fill:none;stroke:#000000;stroke-width:1;stroke-linecap:butt;stroke-linejoin:miter;stroke-miterlimit:10;stroke-dasharray:none;stroke-opacity:1"
                 d="M 154,131 V 119.12" />
              <path
                 inkscape:connector-curvature="0"
                 id="path1564"
                 style="fill:#000000;fill-opacity:1;fill-rule:nonzero;stroke:none"
                 d="m 154,114.12 1.67,5 h -3.34 z" />
              <path
                 inkscape:connector-curvature="0"
                 id="path1566"
                 style="fill:none;stroke:#000000;stroke-width:1;stroke-linecap:butt;stroke-linejoin:miter;stroke-miterlimit:10;stroke-dasharray:none;stroke-opacity:1"
                 d="m 154,114.12 1.67,5 h -3.34 z" />
              <path
                 inkscape:connector-curvature="0"
                 id="path1568"
                 style="fill:none;stroke:#000000;stroke-width:1;stroke-linecap:butt;stroke-linejoin:miter;stroke-miterlimit:10;stroke-dasharray:none;stroke-opacity:1"
                 d="M 238,131 V 119.12" />
              <path
                 inkscape:connector-curvature="0"
                 id="path1570"
                 style="fill:#000000;fill-opacity:1;fill-rule:nonzero;stroke:none"
                 d="m 238,114.12 1.67,5 h -3.34 z" />
              <path
                 inkscape:connector-curvature="0"
                 id="path1572"
                 style="fill:none;stroke:#000000;stroke-width:1;stroke-linecap:butt;stroke-linejoin:miter;stroke-miterlimit:10;stroke-dasharray:none;stroke-opacity:1"
                 d="m 238,114.12 1.67,5 h -3.34 z" />
              <path
                 inkscape:connector-curvature="0"
                 id="path1574"
                 style="fill:none;stroke:#000000;stroke-width:1;stroke-linecap:butt;stroke-linejoin:miter;stroke-miterlimit:10;stroke-dasharray:none;stroke-opacity:1"
                 d="M 178,89 V 77.120003" />
              <path
                 inkscape:connector-curvature="0"
                 id="path1576"
                 style="fill:#000000;fill-opacity:1;fill-rule:nonzero;stroke:none"
                 d="m 178,72.120003 1.67,5 h -3.34 z" />
              <path
                 inkscape:connector-curvature="0"
                 id="path1578"
                 style="fill:none;stroke:#000000;stroke-width:1;stroke-linecap:butt;stroke-linejoin:miter;stroke-miterlimit:10;stroke-dasharray:none;stroke-opacity:1"
                 d="m 178,72.120003 1.67,5 h -3.34 z" />
              <path
                 inkscape:connector-curvature="0"
                 id="path1580"
                 style="fill:none;stroke:#000000;stroke-width:1;stroke-linecap:butt;stroke-linejoin:miter;stroke-miterlimit:10;stroke-dasharray:none;stroke-opacity:1"
                 d="M 250,89 V 77.120003" />
              <path
                 inkscape:connector-curvature="0"
                 id="path1582"
                 style="fill:#000000;fill-opacity:1;fill-rule:nonzero;stroke:none"
                 d="m 250,72.120003 1.67,5 h -3.34 z" />
              <path
                 inkscape:connector-curvature="0"
                 id="path1584"
                 style="fill:none;stroke:#000000;stroke-width:1;stroke-linecap:butt;stroke-linejoin:miter;stroke-miterlimit:10;stroke-dasharray:none;stroke-opacity:1"
                 d="m 250,72.120003 1.67,5 h -3.34 z" />
              <path
                 inkscape:connector-curvature="0"
                 id="path1586"
                 style="fill:none;stroke:#000000;stroke-width:1;stroke-linecap:butt;stroke-linejoin:miter;stroke-miterlimit:10;stroke-dasharray:none;stroke-opacity:1"
                 d="M 22,47 100.02,30.280001" />
              <path
                 inkscape:connector-curvature="0"
                 id="path1588"
                 style="fill:#000000;fill-opacity:1;fill-rule:nonzero;stroke:none"
                 d="m 104.91,29.23 -4.54,2.68 -0.700002,-3.26 z" />
              <path
                 inkscape:connector-curvature="0"
                 id="path1590"
                 style="fill:none;stroke:#000000;stroke-width:1;stroke-linecap:butt;stroke-linejoin:miter;stroke-miterlimit:10;stroke-dasharray:none;stroke-opacity:1"
                 d="m 104.91,29.23 -4.54,2.68 -0.700002,-3.26 z" />
              <path
                 inkscape:connector-curvature="0"
                 id="path1592"
                 style="fill:none;stroke:#000000;stroke-width:1;stroke-linecap:butt;stroke-linejoin:miter;stroke-miterlimit:10;stroke-dasharray:none;stroke-opacity:1"
                 d="M 214,47 135.98,30.280001" />
              <path
                 inkscape:connector-curvature="0"
                 id="path1594"
                 style="fill:#000000;fill-opacity:1;fill-rule:nonzero;stroke:none"
                 d="m 131.09,29.23 5.24,-0.58 -0.7,3.26 z" />
              <path
                 inkscape:connector-curvature="0"
                 id="path1596"
                 style="fill:none;stroke:#000000;stroke-width:1;stroke-linecap:butt;stroke-linejoin:miter;stroke-miterlimit:10;stroke-dasharray:none;stroke-opacity:1"
                 d="m 131.09,29.23 5.24,-0.58 -0.7,3.26 z" />
              <path
                 inkscape:connector-curvature="0"
                 id="path1598"
                 style="fill:none;stroke:#000000;stroke-width:1;stroke-linecap:butt;stroke-linejoin:miter;stroke-miterlimit:10;stroke-dasharray:none;stroke-opacity:1"
                 d="m 190,101 h 17.88" />
              <path
                 inkscape:connector-curvature="0"
                 id="path1600"
                 style="fill:#000000;fill-opacity:1;fill-rule:nonzero;stroke:none"
                 d="m 212.88,101 -5,1.67 v -3.339998 z" />
              <path
                 inkscape:connector-curvature="0"
                 id="path1602"
                 style="fill:none;stroke:#000000;stroke-width:1;stroke-linecap:butt;stroke-linejoin:miter;stroke-miterlimit:10;stroke-dasharray:none;stroke-opacity:1"
                 d="m 212.88,101 -5,1.67 v -3.339998 z" />
            </g>
          </g>
        </g>
      </g>
      <text
         xml:space="preserve"
         style="font-style:normal;font-weight:normal;font-size:10.58333302px;line-height:1.25;font-family:sans-serif;letter-spacing:0px;word-spacing:0px;fill:#000000;fill-opacity:1;stroke:none;stroke-width:0.26458332"
         x="245.5123"
         y="251.58601"
         id="text854"><tspan
           sodipodi:role="line"
           x="245.5123"
           y="251.58601"
           style="font-style:normal;font-variant:normal;font-weight:normal;font-stretch:normal;font-size:14.11111069px;font-family:Times;-inkscape-font-specification:Times;stroke-width:0.26458332"
           id="tspan1750">Feature Interaction</tspan></text>
      <text
         xml:space="preserve"
         style="font-style:normal;font-weight:normal;font-size:10.58333302px;line-height:1.25;font-family:sans-serif;letter-spacing:0px;word-spacing:0px;fill:#000000;fill-opacity:1;stroke:none;stroke-width:0.26458332"
         x="34.646519"
         y="250.16319"
         id="text858"><tspan
           sodipodi:role="line"
           id="tspan856"
           x="34.646519"
           y="250.16319"
           style="font-style:normal;font-variant:normal;font-weight:normal;font-stretch:normal;font-size:14.11111069px;font-family:Times;-inkscape-font-specification:Times;stroke-width:0.26458332">Embedding</tspan></text>
      <text
         id="text1748"
         y="287.44107"
         x="276.93845"
         style="font-style:normal;font-weight:normal;font-size:7.76111126px;line-height:1.25;font-family:sans-serif;letter-spacing:0px;word-spacing:0px;fill:#000000;fill-opacity:1;stroke:none;stroke-width:0.26458332"
         xml:space="preserve"><tspan
           style="font-style:normal;font-variant:normal;font-weight:normal;font-stretch:normal;font-size:14.11111069px;font-family:Times;-inkscape-font-specification:Times;stroke-width:0.26458332"
           y="287.44107"
           x="276.93845"
           id="tspan1746"
           sodipodi:role="line">Input Feature</tspan></text>
      <text
         xml:space="preserve"
         style="font-style:normal;font-weight:normal;font-size:14.11111069px;line-height:1.25;font-family:sans-serif;letter-spacing:0px;word-spacing:0px;fill:#000000;fill-opacity:1;stroke:none;stroke-width:0.26458332"
         x="267.96054"
         y="175.30426"
         id="text1756"><tspan
           sodipodi:role="line"
           id="tspan1754"
           x="267.96054"
           y="175.30426"
           style="font-style:normal;font-variant:normal;font-weight:normal;font-stretch:normal;font-size:14.11111069px;font-family:Times;-inkscape-font-specification:Times;stroke-width:0.26458332">Sigmoid Layer</tspan></text>
      <text
         id="text1764"
         y="212.72339"
         x="278.95728"
         style="font-style:normal;font-weight:normal;font-size:14.11111069px;line-height:1.25;font-family:sans-serif;letter-spacing:0px;word-spacing:0px;fill:#000000;fill-opacity:1;stroke:none;stroke-width:0.26458332"
         xml:space="preserve"><tspan
           style="font-style:normal;font-variant:normal;font-weight:normal;font-stretch:normal;font-size:14.11111069px;font-family:Times;-inkscape-font-specification:Times;stroke-width:0.26458332"
           y="212.72339"
           x="278.95728"
           sodipodi:role="line"
           id="tspan1766">Linear Layer</tspan></text>
      <text
         xml:space="preserve"
         style="font-style:normal;font-weight:normal;font-size:10.58333302px;line-height:1.25;font-family:sans-serif;letter-spacing:0px;word-spacing:0px;fill:#000000;fill-opacity:1;stroke:none;stroke-width:0.26458332"
         x="97.252693"
         y="176.72362"
         id="text1772"><tspan
           sodipodi:role="line"
           id="tspan1770"
           x="97.252693"
           y="176.72362"
           style="font-style:normal;font-variant:normal;font-weight:normal;font-stretch:normal;font-size:14.11111069px;font-family:Times;-inkscape-font-specification:Times;stroke-width:0.26458332">0.3</tspan></text>
      <text
         id="text1776"
         y="289.07404"
         x="245.94643"
         style="font-style:normal;font-weight:normal;font-size:10.58333302px;line-height:1.25;font-family:sans-serif;letter-spacing:0px;word-spacing:0px;fill:#000000;fill-opacity:1;stroke:none;stroke-width:0.26458332"
         xml:space="preserve"><tspan
           style="font-style:normal;font-variant:normal;font-weight:normal;font-stretch:normal;font-size:14.11111069px;font-family:Times;-inkscape-font-specification:Times;stroke-width:0.26458332"
           y="289.07404"
           x="245.94643"
           sodipodi:role="line"
           id="tspan1778">0.5</tspan></text>
      <text
         xml:space="preserve"
         style="font-style:normal;font-weight:normal;font-size:10.58333302px;line-height:1.25;font-family:sans-serif;letter-spacing:0px;word-spacing:0px;fill:#000000;fill-opacity:1;stroke:none;stroke-width:0.26458332"
         x="16.378668"
         y="288.98447"
         id="text1784"><tspan
           sodipodi:role="line"
           x="16.378668"
           y="288.98447"
           style="font-style:normal;font-variant:normal;font-weight:normal;font-stretch:normal;font-size:14.11111069px;font-family:Times;-inkscape-font-specification:Times;stroke-width:0.26458332"
           id="tspan1786">0</tspan></text>
      <text
         id="text1792"
         y="288.98447"
         x="229.75256"
         style="font-style:normal;font-weight:normal;font-size:10.58333302px;line-height:1.25;font-family:sans-serif;letter-spacing:0px;word-spacing:0px;fill:#000000;fill-opacity:1;stroke:none;stroke-width:0.26458332"
         xml:space="preserve"><tspan
           id="tspan1790"
           style="font-style:normal;font-variant:normal;font-weight:normal;font-stretch:normal;font-size:14.11111069px;font-family:Times;-inkscape-font-specification:Times;stroke-width:0.26458332"
           y="288.98447"
           x="229.75256"
           sodipodi:role="line">0</tspan></text>
      <text
         xml:space="preserve"
         style="font-style:normal;font-weight:normal;font-size:10.58333302px;line-height:1.25;font-family:sans-serif;letter-spacing:0px;word-spacing:0px;fill:#000000;fill-opacity:1;stroke:none;stroke-width:0.26458332"
         x="208.41516"
         y="288.98447"
         id="text1796"><tspan
           sodipodi:role="line"
           x="208.41516"
           y="288.98447"
           style="font-style:normal;font-variant:normal;font-weight:normal;font-stretch:normal;font-size:14.11111069px;font-family:Times;-inkscape-font-specification:Times;stroke-width:0.26458332"
           id="tspan1794">0</tspan></text>
      <text
         id="text1800"
         y="288.98447"
         x="165.74039"
         style="font-style:normal;font-weight:normal;font-size:10.58333302px;line-height:1.25;font-family:sans-serif;letter-spacing:0px;word-spacing:0px;fill:#000000;fill-opacity:1;stroke:none;stroke-width:0.26458332"
         xml:space="preserve"><tspan
           id="tspan1798"
           style="font-style:normal;font-variant:normal;font-weight:normal;font-stretch:normal;font-size:14.11111069px;font-family:Times;-inkscape-font-specification:Times;stroke-width:0.26458332"
           y="288.98447"
           x="165.74039"
           sodipodi:role="line">0</tspan></text>
      <text
         xml:space="preserve"
         style="font-style:normal;font-weight:normal;font-size:10.58333302px;line-height:1.25;font-family:sans-serif;letter-spacing:0px;word-spacing:0px;fill:#000000;fill-opacity:1;stroke:none;stroke-width:0.26458332"
         x="187.07777"
         y="288.98447"
         id="text1804"><tspan
           sodipodi:role="line"
           x="187.07777"
           y="288.98447"
           style="font-style:normal;font-variant:normal;font-weight:normal;font-stretch:normal;font-size:14.11111069px;font-family:Times;-inkscape-font-specification:Times;stroke-width:0.26458332"
           id="tspan1802">0</tspan></text>
      <text
         id="text1808"
         y="288.98447"
         x="37.716057"
         style="font-style:normal;font-weight:normal;font-size:10.58333302px;line-height:1.25;font-family:sans-serif;letter-spacing:0px;word-spacing:0px;fill:#000000;fill-opacity:1;stroke:none;stroke-width:0.26458332"
         xml:space="preserve"><tspan
           id="tspan1806"
           style="font-style:normal;font-variant:normal;font-weight:normal;font-stretch:normal;font-size:14.11111069px;font-family:Times;-inkscape-font-specification:Times;stroke-width:0.26458332"
           y="288.98447"
           x="37.716057"
           sodipodi:role="line">0</tspan></text>
      <text
         xml:space="preserve"
         style="font-style:normal;font-weight:normal;font-size:10.58333302px;line-height:1.25;font-family:sans-serif;letter-spacing:0px;word-spacing:0px;fill:#000000;fill-opacity:1;stroke:none;stroke-width:0.26458332"
         x="80.390831"
         y="288.98447"
         id="text1812"><tspan
           sodipodi:role="line"
           x="80.390831"
           y="288.98447"
           style="font-style:normal;font-variant:normal;font-weight:normal;font-stretch:normal;font-size:14.11111069px;font-family:Times;-inkscape-font-specification:Times;stroke-width:0.26458332"
           id="tspan1810">0</tspan></text>
      <text
         id="text1816"
         y="288.98447"
         x="101.72822"
         style="font-style:normal;font-weight:normal;font-size:10.58333302px;line-height:1.25;font-family:sans-serif;letter-spacing:0px;word-spacing:0px;fill:#000000;fill-opacity:1;stroke:none;stroke-width:0.26458332"
         xml:space="preserve"><tspan
           id="tspan1814"
           style="font-style:normal;font-variant:normal;font-weight:normal;font-stretch:normal;font-size:14.11111069px;font-family:Times;-inkscape-font-specification:Times;stroke-width:0.26458332"
           y="288.98447"
           x="101.72822"
           sodipodi:role="line">0</tspan></text>
      <text
         xml:space="preserve"
         style="font-style:normal;font-weight:normal;font-size:10.58333302px;line-height:1.25;font-family:sans-serif;letter-spacing:0px;word-spacing:0px;fill:#000000;fill-opacity:1;stroke:none;stroke-width:0.26458332"
         x="123.06561"
         y="288.98447"
         id="text1820"><tspan
           sodipodi:role="line"
           x="123.06561"
           y="288.98447"
           style="font-style:normal;font-variant:normal;font-weight:normal;font-stretch:normal;font-size:14.11111069px;font-family:Times;-inkscape-font-specification:Times;stroke-width:0.26458332"
           id="tspan1818">0</tspan></text>
      <text
         id="text1824"
         y="289.04303"
         x="58.815731"
         style="font-style:normal;font-weight:normal;font-size:10.58333302px;line-height:1.25;font-family:sans-serif;letter-spacing:0px;word-spacing:0px;fill:#000000;fill-opacity:1;stroke:none;stroke-width:0.26458332"
         xml:space="preserve"><tspan
           id="tspan1822"
           style="font-style:normal;font-variant:normal;font-weight:normal;font-stretch:normal;font-size:14.11111069px;font-family:Times;-inkscape-font-specification:Times;stroke-width:0.26458332"
           y="289.04303"
           x="58.815731"
           sodipodi:role="line">1</tspan></text>
      <text
         xml:space="preserve"
         style="font-style:normal;font-weight:normal;font-size:10.58333302px;line-height:1.25;font-family:sans-serif;letter-spacing:0px;word-spacing:0px;fill:#000000;fill-opacity:1;stroke:none;stroke-width:0.26458332"
         x="144.1653"
         y="289.04303"
         id="text1828"><tspan
           sodipodi:role="line"
           x="144.1653"
           y="289.04303"
           style="font-style:normal;font-variant:normal;font-weight:normal;font-stretch:normal;font-size:14.11111069px;font-family:Times;-inkscape-font-specification:Times;stroke-width:0.26458332"
           id="tspan1826">1</tspan></text>
    </g>
  </g>
</svg>
